<svg xmlns="http://www.w3.org/2000/svg" width="51" height="50" viewBox="0 0 51 50" fill="none">
    <path d="M50.0603 30.9233C50.0603 29.6585 49.5578 28.4454 48.6634 27.551C47.769 26.6566 46.556 26.1541 45.2911 26.1541H30.9836C29.7187 26.1541 28.5057 26.6566 27.6113 27.551C26.7169 28.4454 26.2144 29.6585 26.2144 30.9233H19.0607V23.7696H24.6167C26.689 23.773 28.6948 23.039 30.2754 21.6989C31.8559 20.3589 32.9081 18.5001 33.2437 16.4552C33.5792 14.4104 33.1763 12.3128 32.1068 10.5379C31.0374 8.76295 29.3713 7.42643 27.4067 6.76746C26.3163 4.49361 24.533 2.62406 22.3131 1.42754C20.0933 0.231027 17.5512 -0.230833 15.0523 0.108356C12.5535 0.447545 10.2265 1.57031 8.40592 3.31527C6.58534 5.06022 5.36491 7.33749 4.92007 9.81973C3.30519 10.3505 1.93209 11.439 1.04679 12.8901C0.161488 14.3412 -0.178148 16.0602 0.0887356 17.739C0.355619 19.4178 1.21158 20.9467 2.50325 22.0517C3.79491 23.1568 5.43787 23.7657 7.13773 23.7696H14.2915V42.8462C14.2915 43.4787 14.5427 44.0852 14.9899 44.5324C15.4371 44.9796 16.0436 45.2308 16.6761 45.2308H26.2144C26.2144 46.4957 26.7169 47.7087 27.6113 48.6031C28.5057 49.4975 29.7187 50 30.9836 50H45.2911C46.556 50 47.769 49.4975 48.6634 48.6031C49.5578 47.7087 50.0603 46.4957 50.0603 45.2308V40.4617C50.0516 39.6219 49.8212 38.7993 49.3926 38.0771C49.8212 37.3549 50.0516 36.5323 50.0603 35.6925V30.9233ZM7.13773 19.0004C6.5053 19.0004 5.89877 18.7492 5.45158 18.302C5.00438 17.8548 4.75315 17.2482 4.75315 16.6158C4.75315 15.9834 5.00438 15.3768 5.45158 14.9296C5.89877 14.4824 6.5053 14.2312 7.13773 14.2312C7.77016 14.2312 8.37669 13.98 8.82389 13.5328C9.27108 13.0856 9.52232 12.4791 9.52232 11.8466C9.50308 10.1449 10.0911 8.49202 11.1809 7.18485C12.2707 5.87768 13.7908 5.00184 15.4682 4.71461C17.1457 4.42738 18.8706 4.74757 20.3332 5.61769C21.7958 6.4878 22.9003 7.85084 23.4483 9.46204C23.5882 9.86736 23.8348 10.2275 24.1621 10.5044C24.4894 10.7814 24.8854 10.965 25.3083 11.0359C26.2449 11.1909 27.094 11.6794 27.6987 12.4113C28.3035 13.1432 28.6233 14.069 28.599 15.0181C28.599 16.0743 28.1794 17.0872 27.4326 17.834C26.6858 18.5808 25.6729 19.0004 24.6167 19.0004H7.13773ZM26.2144 40.4617H19.0607V35.6925H26.2144C26.2231 36.5323 26.4535 37.3549 26.8821 38.0771C26.4535 38.7993 26.2231 39.6219 26.2144 40.4617ZM30.9836 45.2308V40.4617H45.2911V45.2308H30.9836ZM30.9836 35.6925V30.9233H45.2911V35.6925H30.9836Z" fill="#0EAB00"/>
</svg>
