<svg xmlns="http://www.w3.org/2000/svg" width="30" height="30" viewBox="0 0 30 30" fill="currentColor">
    <path fill-rule="evenodd" clip-rule="evenodd" d="M15 0C6.71573 0 0 6.71573 0 15C0 23.2843 6.71573 30 15 30C23.2843 30 30 23.2843 30 15C30 6.71573 23.2843 0 15 0ZM7.20108 12.4236H10.6004V22.6372H7.20108V12.4236ZM10.8242 9.26419C10.8021 8.26275 10.086 7.5 8.92311 7.5C7.76023 7.5 6.99997 8.26275 6.99997 9.26419C6.99997 10.2449 7.73776 11.0296 8.87899 11.0296H8.90071C10.086 11.0296 10.8242 10.2449 10.8242 9.26419ZM18.9458 12.1838C21.1827 12.1838 22.8597 13.6439 22.8597 16.7811L22.8595 22.6372H19.4603V17.173C19.4603 15.8005 18.9684 14.8639 17.7379 14.8639C16.7987 14.8639 16.2394 15.4953 15.9937 16.1051C15.9038 16.3237 15.8817 16.6282 15.8817 16.9334V22.6375H12.482C12.482 22.6375 12.5268 13.3823 12.482 12.4239H15.8817V13.8706C16.3329 13.1752 17.1409 12.1838 18.9458 12.1838Z" fill="#F5F5F5"/>
</svg>
