<svg width="20" height="20" viewBox="0 0 20 20" fill="none" xmlns="http://www.w3.org/2000/svg">
<path d="M18.7155 11.2194C18.0271 11.4023 17.3179 11.4948 16.6057 11.4947C14.437 11.4947 12.4003 10.6516 10.8705 9.12183C9.86594 8.11147 9.14373 6.85546 8.77586 5.47899C8.40799 4.10252 8.40732 2.65367 8.77391 1.27687C8.81969 1.10472 8.8194 0.923565 8.77307 0.751569C8.72673 0.579573 8.63599 0.422785 8.50993 0.296932C8.38387 0.17108 8.22693 0.0805886 8.05486 0.0345358C7.88279 -0.011517 7.70163 -0.0115118 7.52956 0.0345506C5.80593 0.493875 4.23338 1.39838 2.96967 2.65733C-0.98989 6.61689 -0.98989 13.0621 2.96967 17.0237C3.91083 17.9701 5.03034 18.7204 6.26342 19.2313C7.49649 19.7422 8.81865 20.0035 10.1534 20C11.4877 20.0037 12.8096 19.7427 14.0423 19.2319C15.2751 18.7212 16.3942 17.971 17.335 17.0247C18.5949 15.7608 19.4998 14.1874 19.9588 12.4628C20.0044 12.2907 20.004 12.1097 19.9577 11.9378C19.9114 11.7659 19.8208 11.6092 19.6949 11.4833C19.569 11.3575 19.4123 11.2669 19.2404 11.2205C19.0686 11.1742 18.8875 11.1739 18.7155 11.2194ZM15.8997 15.5884C15.147 16.3452 14.2516 16.9453 13.2654 17.3538C12.2792 17.7624 11.2218 17.9712 10.1544 17.9684C9.08656 17.971 8.02882 17.762 7.04231 17.3533C6.05581 16.9446 5.16011 16.3444 4.40702 15.5874C1.23978 12.4191 1.23978 7.26293 4.40702 4.09468C5.01904 3.48334 5.72561 2.97467 6.49955 2.58825C6.38627 4.05004 6.58991 5.51905 7.09656 6.8949C7.60321 8.27075 8.40093 9.52099 9.43519 10.5602C10.4721 11.5977 11.722 12.3976 13.0984 12.9047C14.4748 13.4117 15.945 13.6138 17.4071 13.4969C17.0186 14.2695 16.5098 14.9755 15.8997 15.5884Z" fill="#F1C40F"/>
</svg>
