<svg xmlns="http://www.w3.org/2000/svg" width="62" height="50" viewBox="0 0 62 50" fill="none">
    <path d="M60.0064 23.4375L54.4071 14.3973C54.5268 14.1742 54.6167 13.9231 54.6167 13.644C54.6167 12.8069 53.8681 12.1093 52.9698 12.0814L46.7715 2.0926C46.8314 1.9252 46.8912 1.75781 46.8912 1.59041C46.8912 0.697601 46.1127 0 45.1844 0C44.6455 0 44.1963 0.223228 43.8669 0.585935H31.9496C31.6501 0.223333 31.201 0.000104208 30.662 0.000104208C30.1231 0.000104208 29.6739 0.223332 29.3745 0.586039H17.517C17.1875 0.223332 16.7385 0.000104208 16.1994 0.000104208C15.2713 0.000104208 14.4927 0.697601 14.4927 1.59051C14.4927 1.75791 14.5526 1.95322 14.6125 2.0927L8.35426 12.2211C7.75553 12.4721 7.33621 13.0023 7.33621 13.6441C7.33621 13.6998 7.36617 13.7557 7.36617 13.8115L1.40741 23.4097C0.598961 23.5492 0 24.1909 0 24.9722C0 25.7255 0.56889 26.3673 1.34749 26.5347L7.51585 36.4678C7.45593 36.6352 7.42597 36.7746 7.42597 36.9699C7.42597 37.7233 7.99486 38.3651 8.77347 38.5045L14.5526 47.8516C14.4927 48.019 14.4329 48.2143 14.4329 48.4096C14.4329 49.3024 15.2113 50 16.1396 50C16.6786 50 17.1277 49.7768 17.4272 49.442H29.3746C29.6739 49.7767 30.1531 49.9999 30.662 49.9999C31.171 49.9999 31.6501 49.7767 31.9496 49.4419H43.9269C44.2263 49.7488 44.6755 49.9441 45.1546 49.9441C46.1127 49.9441 46.8614 49.2187 46.8614 48.3537C46.8614 48.1863 46.8315 48.0468 46.7716 47.9073L52.5507 38.5044C53.3292 38.3649 53.8982 37.7232 53.8982 36.9698C53.8982 36.8025 53.8682 36.6351 53.8083 36.4677L59.9467 26.5346C60.7252 26.3951 61.3242 25.7533 61.3242 24.9721C61.324 24.2188 60.7549 23.577 60.0064 23.4375ZM15.6304 45.2845L10.7498 37.3884H15.6304V45.2845ZM15.6304 36.5513H10.7498C10.7198 36.4397 10.6599 36.3282 10.6001 36.2165L15.6304 31.278V36.5513ZM15.6304 30.0502L10.0011 35.6027C9.85144 35.5468 9.70165 35.4631 9.55196 35.4353L3.32391 25.3906C3.38371 25.2511 3.38371 25.1116 3.38371 24.9721C3.38371 24.8326 3.38371 24.721 3.35376 24.6094L9.16283 15.2344C9.46231 15.2065 9.76167 15.1228 10.0312 14.9554L15.6306 20.3684V30.0502H15.6304ZM15.6304 19.3917L10.5102 14.4532C10.6599 14.2299 10.7498 13.951 10.7498 13.6441C10.7498 13.6162 10.7198 13.5604 10.7198 13.5324L15.6304 11.8862V19.3917ZM15.6304 10.9933L10.7498 12.6395L15.6304 4.77123V10.9933ZM52.1314 15.067L52.2213 15.2065L48.2687 32.6172L41.1422 25.6139L52.1014 15.0391L52.1314 15.067ZM31.0812 35.3236L32.3688 36.5513H29.8236L31.0812 35.3236ZM31.0513 34.1517L21.739 25.2511L30.6321 16.4621L39.9145 25.5859L31.0513 34.1517ZM31.6501 34.7656L40.5134 26.1998L48.0591 33.6216L47.4004 36.5513H33.5365L31.6501 34.7656ZM44.3461 2.9577C44.4659 3.01353 44.5856 3.06936 44.7354 3.09728L51.2031 13.5883V13.6441C51.2031 13.951 51.2929 14.2299 51.4427 14.4532L40.5433 25L31.261 15.8762L44.3461 2.9577ZM43.3281 2.73447L30.6321 15.2623L24.2541 8.98444L42.8488 2.73447H43.3281ZM29.5241 2.73447C29.8235 3.01342 30.2128 3.18082 30.662 3.18082C31.1113 3.18082 31.5004 3.01342 31.7999 2.73447H40.184L23.5955 8.31476L17.9062 2.73447H29.5241ZM16.5289 3.3204L16.6486 3.09728C16.7496 3.07322 16.8495 3.04528 16.9481 3.01353L22.6673 8.62184L16.5289 10.6865V3.3204ZM16.5289 11.5793L23.3259 9.29142L30.0033 15.8762L21.1102 24.6373L16.5289 20.2568V11.5793ZM16.5289 21.2332L20.6011 25.1674L16.5289 29.1574V21.2332ZM16.5289 30.3851L21.2299 25.7534L30.4824 34.7099L28.566 36.5513H16.5289V30.3851ZM17.3074 47.2655C17.1277 47.0981 16.9181 46.9866 16.6486 46.9028L16.5289 46.7354V37.3884H27.6976L17.4571 47.2655H17.3074ZM31.8299 47.2655C31.5304 47.0145 31.1113 46.8192 30.662 46.8192C30.2128 46.8192 29.7938 47.0145 29.4942 47.2655H18.7146L28.9551 37.3884H33.2371L43.4776 47.2655H31.8299ZM45.2445 46.0378L44.7653 46.8191C44.6157 46.847 44.4959 46.9027 44.3761 46.9586L34.405 37.3883H47.1909L45.2445 46.0378ZM46.6816 43.722L48.119 37.3884H50.5743L46.6816 43.722ZM50.5743 36.5513H48.2986L48.8076 34.3471L50.724 36.2444C50.6642 36.3281 50.6042 36.4396 50.5743 36.5513ZM57.9703 25.3627L51.772 35.4353C51.6223 35.491 51.4725 35.5468 51.3228 35.6305L49.0172 33.3426L52.8799 16.2668L58.0001 24.5257C57.9703 24.6652 57.9104 24.8047 57.9104 24.9721C57.9104 25.1116 57.9403 25.2232 57.9703 25.3627Z" fill="#0EAB00"/>
</svg>
