<svg xmlns="http://www.w3.org/2000/svg" width="100" height="106" viewBox="0 0 100 106" fill="none">
    <g clip-path="url(#clip0_572_3542)">
        <path d="M49.846 0.505737L0.331543 17.9311L8.15615 82.803L49.8983 105.745L91.8561 82.4921L99.6776 17.6225L49.846 0.505737Z" fill="#B3B3B3"/>
        <path d="M94.7391 21.3718L49.7305 6.02332V100.264L87.4496 79.3885L94.7391 21.3718Z" fill="#A6120D"/>
        <path d="M5.88794 21.6483L12.593 79.6659L49.7297 100.264V6.02173L5.88833 21.6479L5.88794 21.6483Z" fill="#DD1B16"/>
        <path d="M62.1198 56.192L49.7304 61.9858H36.6722L30.5339 77.3393L19.1167 77.5502L49.7304 9.44556L62.1198 56.1924V56.192ZM60.9222 53.2752L49.8128 31.2819L40.6999 52.8967H49.73L60.9222 53.2756V53.2752Z" fill="#F2F2F2"/>
        <path d="M49.73 9.44519L49.812 31.2819L60.1519 52.9135H49.7534L49.73 61.9717L64.1089 61.9854L70.8292 77.5526L81.7538 77.755L49.73 9.44519Z" fill="#B3B3B3"/>
    </g>
    <defs>
        <clipPath id="clip0_572_3542">
            <rect width="100" height="105.485" fill="white" transform="translate(0 0.372559)"/>
        </clipPath>
    </defs>
</svg>
