<svg xmlns="http://www.w3.org/2000/svg" width="100" height="40" viewBox="0 0 100 40" fill="none">
    <path d="M68.582 4.09971L68.5599 3.88553L68.2128 3.91508L68.2349 4.12926L68.582 4.09971ZM70.9159 9.71271L70.9232 9.83088L71.167 9.80873C71.1596 9.73487 71.1891 9.6167 71.2408 9.46899L71.2187 9.25481C71.1153 9.2622 71.0119 9.41729 70.9159 9.71271ZM61.8095 16.7807C61.7947 16.5813 61.1743 15.8058 59.9484 14.4394C59.9262 14.1883 60.3472 13.8117 61.2113 13.3168L63.678 11.1677C64.232 10.466 64.5569 9.32867 64.6529 7.74816L64.6234 7.38627C64.5274 6.29322 63.7371 5.41434 62.2379 4.74225C61.3516 4.14403 59.7563 3.81168 57.452 3.7526C55.5466 3.91508 53.0577 4.59454 49.9927 5.79839C49.1507 6.404 48.1906 7.00961 47.1123 7.61522L47.1271 7.79986C47.1935 7.79248 47.2969 7.75555 47.4151 7.67431C47.5407 7.65954 47.6145 7.71862 47.6219 7.83679L47.8065 7.74078L47.8952 7.73339L47.9026 7.81463C47.9099 7.91065 47.2452 8.43502 45.9011 9.37298L46.0045 9.565L45.9159 9.57239L45.6943 9.49115C45.7017 9.55762 45.6057 9.60193 45.421 9.6167L45.4284 9.69794L45.6426 9.96382C45.5761 9.97121 45.4727 9.94166 45.3324 9.88997C45.0222 9.91951 44.7194 10.082 44.4166 10.3922L44.5421 9.84565C44.9927 7.90326 45.3029 6.18243 45.4653 4.69056L45.4432 4.59454C45.133 4.39514 44.8302 4.11449 44.5495 3.75998C44.5569 3.53103 44.5569 3.39809 44.5495 3.36855L44.5274 3.28731L44.4388 3.30946C43.4639 4.7718 41.5879 7.2681 38.8036 10.7984C36.6839 13.3095 35.5909 14.7053 35.5244 14.986C34.6603 15.8796 34.2467 16.4188 34.291 16.6034C34.0621 16.7511 33.9661 16.8988 34.003 17.0613C33.9365 17.0761 33.8922 17.0539 33.8774 16.9875C33.5082 17.5857 32.9616 17.9697 32.2305 18.1396L31.4624 18.3168C31.359 18.339 31.3073 18.4129 31.3147 18.5384L31.3368 18.6344L31.6249 18.568L31.647 18.6492L30.9971 18.9003L29.845 19.1662L29.2393 19.2031C29.1507 19.2917 29.7194 19.1957 29.4978 19.2474L28.7445 19.4247C28.2866 19.5281 28.0355 19.4911 27.9912 19.3065L27.9026 19.3287C27.9173 19.4099 27.9247 19.469 27.9099 19.5207L27.8656 19.3361L27.26 19.4764C27.2157 19.1957 26.3959 18.1765 24.808 16.4188C24.7785 16.079 25.3398 15.5842 26.4845 14.9417L29.7194 12.0982C30.4432 11.1677 30.8715 9.67579 31.0119 7.62261L30.9676 7.14255C30.842 5.69499 29.7933 4.52807 27.8213 3.62704C26.6544 2.83679 24.5569 2.41582 21.5289 2.34935C19.0178 2.56353 15.7386 3.45717 11.7061 5.01552C10.5983 5.82054 9.33535 6.61818 7.91733 7.40843L7.93949 7.65954C8.0355 7.65215 8.16105 7.60045 8.31615 7.51183C8.47863 7.49706 8.56726 7.57091 8.58203 7.71862L8.83314 7.5783L8.95869 7.57091L8.96608 7.68908C8.97346 7.80725 8.09458 8.4941 6.31467 9.74964L6.455 9.97121L6.32944 9.97859L6.05618 9.88258C6.06356 9.95644 5.93801 10.0081 5.67952 10.0303L5.69429 10.1632L5.98971 10.4882C5.8937 10.4956 5.76076 10.466 5.59089 10.407C5.01482 10.4587 4.45352 10.8722 3.89961 11.6551L4.03993 11.8767C4.51999 11.4335 4.80064 11.212 4.88188 11.2046L4.91142 11.5665C4.83018 11.5739 4.70463 11.6256 4.53476 11.7142L4.83757 12.1721C5.42102 11.5443 6.06356 11.0052 6.76519 10.5547C7.11231 10.6433 7.29695 10.7541 7.30433 10.8722L7.57021 10.8501C9.47568 9.43945 11.359 8.42025 13.2275 7.79248L13.2497 8.04358C12.9026 8.56057 12.6662 8.82645 12.5407 8.84122C12.5554 9.01847 12.6145 9.17357 12.7253 9.30651C12.7548 9.62409 11.9055 11.7659 10.1847 15.7245C6.27775 24.9269 2.99857 31.7363 0.332397 36.1381C0.339783 36.2267 0.391482 36.3449 0.487494 36.4926C1.14481 36.3375 1.55839 36.175 1.73565 36.02L1.87597 36.0052L1.89813 36.2563L2.14185 36.2341L2.39296 36.0938C2.40034 36.1677 2.48159 36.2046 2.65145 36.1898L2.67361 36.4409C2.69577 36.6847 2.55544 37.0539 2.26002 37.5635C1.99414 37.8663 1.7061 38.5015 1.4033 39.469L1.41068 39.5872L1.65441 39.565C2.71792 38.3759 3.52294 37.209 4.07686 36.0717C7.17878 35.1632 9.54215 34.2696 11.1817 33.3907C12.8287 33.2504 14.0842 32.8146 14.941 32.0982L14.9262 31.9653L14.3058 32.1499L14.1655 32.1647L14.1507 32.0318C15.3619 31.8471 16.1965 31.5813 16.6618 31.212C19.0178 29.3951 20.7977 28.1101 22.0015 27.3493C24.4757 25.5325 26.0857 23.76 26.8169 22.0392C26.9498 22.0096 27.0828 21.9801 27.2305 21.9431C27.5776 21.9284 27.7696 21.921 27.8213 21.9062C27.8065 21.8397 27.8361 21.8028 27.9026 21.788C28.4565 21.729 28.1906 21.825 28.5451 21.7437L29.4757 21.5296C29.4166 21.5443 29.3944 21.5739 29.4092 21.6329L29.5495 21.5443C29.52 21.5443 29.4978 21.5369 29.4757 21.5296L29.6308 21.4926L29.5569 21.5369C29.6603 21.5517 29.7711 21.5443 29.8967 21.5148L29.9631 21.788L25.7312 28.5163L24.7933 29.6906L24.3354 31.2267L24.424 31.2046L24.8819 31.0126L24.7342 31.6108L24.7785 31.788L24.904 31.9431C24.845 31.9579 24.8228 31.9948 24.8376 32.0613L24.8597 32.1573L25.0517 32.113C25.3324 31.8693 25.4506 31.6477 25.4063 31.4483C25.7091 31.5 25.9085 31.5222 26.0119 31.4926L26.034 31.5886C25.8494 31.6329 25.7534 31.7807 25.7386 32.0318L25.7608 32.1278L25.8642 32.1056C27.4003 30.4291 31.167 24.6906 34.1876 20.7984C34.0916 20.3774 35.6647 19.794 38.9144 19.0406L39.0178 19.0185C39.1359 19.5281 38.8848 20.7615 38.2645 22.7186C37.8656 23.9003 37.6736 24.5502 37.7032 24.6536C37.1862 26.2267 36.9424 27.0761 36.972 27.209L35.8198 30.983C35.0739 32.918 34.5052 34.9491 34.1064 37.0909C34.1729 37.0761 34.2763 37.0835 34.424 37.1204L34.5865 36.9801C34.6012 37.0465 34.6455 37.0687 34.712 37.0539L34.6455 36.7807L35.1478 36.7659C35.2955 36.729 35.421 36.5443 35.5244 36.2046C35.5023 35.695 35.6057 35.4217 35.8346 35.3626C36.1448 34.1514 36.3368 33.5458 36.4033 33.5236C36.6913 32.3198 36.9055 31.6329 37.0458 31.4631C37.4816 29.8974 37.7992 29.0923 38.006 29.0406L38.0503 29.2327L37.7327 30.0524C37.1788 32.5118 36.6175 34.4542 36.0488 35.8796L36.2113 36.5886L36.3147 36.5665C37.6884 33.6123 39.6677 27.7629 42.2452 19.0185C42.3191 18.2504 42.6884 17.6522 43.3457 17.2312L43.198 17.0761L43.1758 16.9948C43.4712 16.9284 43.678 16.8102 43.7962 16.6477C43.7814 16.5813 43.5229 16.4852 43.0207 16.3523L44.3058 10.8427C44.5865 10.5916 44.7489 10.4587 44.8006 10.4587L44.8228 10.7393C44.7563 10.7467 44.6529 10.7836 44.5348 10.8649L44.7785 11.212C45.2216 10.7319 45.7017 10.3183 46.226 9.97121C46.4919 10.0451 46.6249 10.1337 46.6396 10.2223L46.8317 10.2075C48.294 9.13664 49.7268 8.36855 51.1374 7.90326L51.1522 8.0879C50.8937 8.47933 50.7164 8.67874 50.6204 8.68612C50.6352 8.81906 50.6721 8.93723 50.7386 9.04063C50.7608 9.28435 50.1256 10.9092 48.8257 13.9225C45.8568 20.9018 43.3678 26.0643 41.3442 29.4173C41.3516 29.4838 41.3959 29.5724 41.4772 29.6906C41.972 29.5724 42.2896 29.4468 42.4151 29.3287L42.5037 29.3213L42.5185 29.5059L42.7253 29.4911L42.9099 29.3951C42.9173 29.4468 42.9838 29.469 43.1094 29.4616L43.1241 29.661C43.1389 29.8383 43.0355 30.1189 42.8065 30.503C42.5924 30.7319 42.3708 31.212 42.1345 31.9431L42.1418 32.0392L42.3339 32.0244C43.1389 31.1234 43.7519 30.2371 44.1729 29.3656C46.5289 28.6714 48.3235 27.9993 49.5643 27.3346C50.8272 27.2238 51.78 26.8988 52.4299 26.3523L52.4225 26.2563L51.9424 26.3966L51.839 26.404L51.8317 26.308C52.7475 26.175 53.39 25.9683 53.7371 25.695C55.5244 24.3213 56.876 23.339 57.7918 22.7629C60.6426 20.6876 61.972 18.6935 61.8095 16.7807ZM61.3221 16.9062L61.3885 17.6522C61.2999 17.8368 61.2039 17.9328 61.1153 17.9402L61.0045 16.6699C61.2113 16.7437 61.3147 16.8176 61.3221 16.9062ZM5.39887 10.8944L5.27331 10.9018L5.25116 10.6728L5.76076 10.6285L5.76814 10.7467C5.6869 10.7541 5.56135 10.7984 5.39887 10.8944ZM2.90995 35.791C2.61453 35.6581 2.34865 35.6064 2.11969 35.6285L2.09015 35.2666C2.07538 35.1263 2.15662 35.0303 2.33387 34.9934C2.49636 34.9786 2.59237 35.0968 2.60714 35.3331C3.0355 34.8087 3.27184 34.5428 3.31615 34.5355L3.58941 34.6462C3.50079 35.3848 3.27184 35.7615 2.90995 35.791ZM29.5052 7.96973C29.3797 7.9845 29.1286 7.59307 28.7667 6.81759L28.7445 6.58864C28.9808 6.56648 29.2246 6.95053 29.4831 7.74078L29.5052 7.96973ZM29.1507 5.21493L29.0473 5.45865L25.4358 3.952C27.8435 4.03324 29.0842 4.45422 29.1507 5.21493ZM13.8996 18.3095L13.39 18.3538L13.3678 18.1248L13.8774 18.0805L13.8996 18.3095ZM13.486 10.4439L13.6116 10.4365L13.6411 10.7984C13.5229 10.8058 13.3678 10.983 13.1758 11.3228L13.1537 11.0716C13.3826 10.7984 13.5008 10.5916 13.486 10.4439ZM12.4151 12.9697L12.4594 13.4498L12.3339 13.4572L12.2896 12.9771L12.4151 12.9697ZM11.8538 13.8708L12.0975 13.8486C12.0754 14.2474 11.9646 14.4616 11.7652 14.4764L11.6396 14.4838C11.7947 14.2179 11.8686 14.0111 11.8538 13.8708ZM11.4328 15.1263L11.5732 15.1115L11.5806 15.2297L11.3516 15.6137L11.1079 15.6359L11.1005 15.5177C11.3442 15.4956 11.455 15.37 11.4328 15.1263ZM11.0193 16.2563L10.9454 16.8619L10.8198 16.8693L10.7681 16.2711L11.0193 16.2563ZM6.87597 28.0362C6.71349 28.8634 6.53624 29.2844 6.3516 29.2991L6.34421 29.181C6.2999 28.7748 6.47715 28.3907 6.87597 28.0362ZM6.11526 29.6832L6.12265 29.8013C6.13742 29.9638 6.06357 30.0598 5.90108 30.0672L5.8937 29.949C5.87893 29.8087 5.95278 29.7201 6.11526 29.6832ZM5.8937 33.1027L6.27774 33.0657L6.29252 33.1987C6.1965 33.2061 6.07095 33.2578 5.91585 33.3464L5.67213 33.3685C5.65736 33.243 5.7386 33.147 5.8937 33.1027ZM16.8243 29.7275C14.6677 30.791 13.3974 31.5148 13.0207 31.8914C10.6869 32.7038 9.52738 33.2061 9.54953 33.4055C7.4742 34.2253 6.10788 34.8309 5.45057 35.2075C5.29547 35.2223 5.0739 35.1632 4.77848 35.0303C4.74156 34.6093 4.93358 34.2696 5.33978 33.9963C5.70167 33.9668 6.04879 34.0185 6.38114 34.1588C6.76519 33.9594 7.43727 33.7378 8.39001 33.5015L8.36785 33.2504L7.59975 33.3168C7.69577 33.1839 8.43432 32.8368 9.8228 32.2755L10.2068 32.2386L10.2142 32.3567C9.55692 32.4158 9.19503 32.6078 9.11379 32.955C9.12856 33.1101 9.21718 33.1765 9.37967 33.1618C9.8745 32.8516 10.1182 32.6669 10.1108 32.6152C11.0488 32.438 13.6411 31.079 17.8878 28.5458L17.9099 28.7748C17.9173 28.8855 17.5554 29.1957 16.8243 29.7275ZM10.3102 31.8693C10.9306 31.8176 11.4624 31.5665 11.9055 31.1307C12.0828 31.116 12.1788 31.1824 12.1862 31.3375C11.8834 31.3671 11.2999 31.6182 10.4506 32.1056L10.325 32.113L10.3102 31.8693ZM20.8198 23.7969L17.5628 26.3745C15.1404 27.9623 13.8405 28.76 13.6559 28.7748C9.80064 30.8944 7.40034 31.9948 6.46977 32.0761L6.32944 32.0909C6.44761 31.6551 8.16105 28.147 11.4845 21.5443C12.9469 21.4188 15.2512 20.7393 18.39 19.4985L19.1581 19.4321C20.746 19.2917 21.9351 19.6019 22.7179 20.3405L22.7622 20.8205C22.1714 22.5192 21.5215 23.5089 20.8198 23.7969ZM14.4535 20.2149L14.9779 20.1706L14.9853 20.2888L14.4609 20.3331L14.4535 20.2149ZM21.8169 18.9668L22.2009 18.9298C22.5554 19.0997 22.7401 19.2474 22.7548 19.3804L22.7622 19.4985C22.4225 19.5281 22.1049 19.3508 21.8169 18.9668ZM22.8582 13.0362C22.5185 13.4424 21.5879 14.1366 20.0665 15.1115C19.5643 15.1558 17.6958 15.8796 14.4609 17.2976C14.2984 17.2238 14.1286 17.1942 13.9439 17.209L13.9218 16.9801C13.8848 16.5148 14.0916 15.9313 14.5495 15.2223C14.8006 13.8929 15.0739 13.1322 15.3767 12.9476L18.0724 6.88406C18.0429 6.5074 18.619 6.21936 19.8006 6.01995L20.1847 5.98302L20.2142 6.33014C21.3738 6.15289 22.0975 6.04949 22.3782 6.02734C24.52 5.8427 25.6352 6.27844 25.7238 7.3198L25.9676 7.29765L25.9159 6.68465L26.1817 6.66249C26.8095 7.00961 27.1492 7.43059 27.1936 7.92542C27.2231 8.26515 27.0385 8.68612 26.647 9.18834C26.4845 9.20311 26.3885 9.08494 26.3738 8.84861L26.1079 8.87076L26.0488 9.60931C24.9631 11.2341 24.1729 12.0687 23.6854 12.113C23.2423 12.726 22.969 13.0288 22.8582 13.0362ZM24.5126 17.2829C24.291 17.1352 24.1138 17.0687 23.9808 17.0761L23.9513 16.7142L24.195 16.692L24.7342 17.0096C24.7563 17.1795 24.6825 17.2681 24.5126 17.2829ZM26.226 19.3139C26.4624 19.4099 26.6027 19.5133 26.6322 19.6093L26.5141 19.6389L26.5215 19.6462C26.4993 19.6462 26.4698 19.6536 26.4476 19.661L26.2704 19.8013L26.226 19.3139ZM26.3885 20.3331L26.3664 20.2371L26.6766 20.1632L26.6987 20.2592L26.3885 20.3331ZM27.1345 21.1677C27.452 21.116 27.6071 21.0938 28.198 20.9609L28.2201 21.0569L27.0975 21.3154C27.1123 21.2637 27.1271 21.212 27.1345 21.1677ZM28.2275 21.6329C27.7549 21.6773 27.8582 21.6182 27.1049 21.788L27.0828 21.692L28.0207 21.3892L28.4712 21.2858L28.5156 21.4631C28.3161 21.5074 28.4639 21.5074 28.2275 21.6329ZM29.2246 21.3966C29.1138 21.4262 29.0252 21.3745 28.9735 21.2489L29.2615 21.1824C29.3871 21.1529 29.4683 21.2046 29.4978 21.3301L29.2246 21.3966ZM31.9277 18.4867L31.9055 18.3907L32.3708 18.2799L32.4151 18.4572L31.9277 18.4867ZM34.8154 36.1972C34.845 36.0643 34.8523 35.9683 34.8376 35.9018L34.941 35.8796C35.0665 35.8501 35.1404 35.8944 35.1699 36.0126L35.1921 36.1086L34.8154 36.1972ZM36.839 19.2474L36.6322 19.2105C36.2999 19.3434 36.0192 19.4394 35.7903 19.4911L35.5983 19.5355C35.4875 19.565 35.3989 19.5207 35.3546 19.4025L36.7061 19.0923L37.1492 18.8855L37.2969 19.0554C37.0828 19.0997 36.9277 19.1662 36.839 19.2474ZM37.8804 18.9151L37.8582 18.8191C37.9247 18.8043 38.0133 18.7526 38.1094 18.6566L39.0695 18.435L39.0916 18.531C38.582 18.6566 38.1758 18.7821 37.8804 18.9151ZM38.0281 16.9727C37.9616 16.9875 37.873 17.0465 37.7622 17.1352C37.7475 17.0687 37.6145 17.0687 37.3634 17.1278C37.3191 16.9431 38.0281 16.6846 39.4978 16.3449L39.7046 16.3006L39.7489 16.4779C38.715 16.7807 38.1389 16.9505 38.0281 16.9727ZM40.613 14.181C40.5096 15.3553 40.0961 16.02 39.3649 16.1898L39.3427 16.0938L38.6928 16.3449L38.4048 16.4114C38.2571 16.4483 38.1241 16.4409 38.006 16.404L37.9469 16.1455C37.9247 16.0495 38.8627 14.7496 40.7681 12.2533L40.9897 12.2903C41.0709 12.63 40.9454 13.2578 40.613 14.181ZM45.1847 10.2666L45.0961 10.274L45.0813 10.0894L45.4653 10.0524L45.4727 10.1485C45.4063 10.1632 45.3102 10.2002 45.1847 10.2666ZM43.3014 29.181C43.0798 29.0776 42.8804 29.0332 42.7105 29.048L42.6884 28.7674C42.681 28.6714 42.7401 28.6049 42.8656 28.568C42.9912 28.5532 43.065 28.6418 43.0798 28.8338C43.3974 28.4276 43.5746 28.2208 43.6116 28.2208L43.811 28.3021C43.7371 28.8634 43.5673 29.1588 43.3014 29.181ZM63.4934 8.05835C63.3974 8.06574 63.2128 7.77032 62.9247 7.17209L62.9099 6.98745C63.0946 6.97268 63.2866 7.26072 63.4786 7.85156L63.4934 8.05835ZM63.2275 5.9461L63.1389 6.13812L60.4062 4.99336C62.2305 5.05245 63.1758 5.37002 63.2275 5.9461ZM51.6396 15.8944L51.2556 15.9313L51.2408 15.7467L51.6249 15.7171L51.6396 15.8944ZM51.3221 9.91951L51.4255 9.91212L51.4476 10.1928C51.3516 10.2002 51.2334 10.3331 51.0931 10.5916L51.0783 10.407C51.2482 10.1928 51.3294 10.0303 51.3221 9.91951ZM50.517 11.8397L50.5466 12.2016L50.4432 12.209L50.4136 11.8471L50.517 11.8397ZM50.0813 12.5266L50.2733 12.5118C50.2512 12.822 50.1699 12.9845 50.0296 12.9993L49.9262 13.0067C50.037 12.7999 50.0887 12.6374 50.0813 12.5266ZM49.7711 13.4719L49.8597 13.4646L49.8671 13.5606L49.6972 13.856L49.5052 13.8708L49.4978 13.7748C49.6972 13.76 49.7859 13.6566 49.7711 13.4719ZM49.4609 14.3287L49.3944 14.8013L49.3058 14.8087L49.2689 14.3434L49.4609 14.3287ZM46.3073 23.2873C46.1817 23.9077 46.0488 24.2253 45.9085 24.24L45.9011 24.1588C45.8789 23.8486 46.0119 23.5532 46.3073 23.2873ZM45.7238 24.5355L45.7312 24.6167C45.746 24.7496 45.6869 24.8235 45.554 24.8309L45.5466 24.7349C45.5392 24.6389 45.5983 24.5724 45.7238 24.5355ZM45.5613 27.1352L45.8568 27.113L45.8642 27.209C45.7977 27.2164 45.6943 27.2533 45.5761 27.3198L45.3841 27.3346C45.3767 27.2312 45.4358 27.1647 45.5613 27.1352ZM53.8553 24.5724C52.2305 25.3774 51.263 25.9239 50.9602 26.2046C49.1876 26.825 48.3088 27.209 48.3235 27.3641C46.7504 27.9919 45.7164 28.4424 45.229 28.7304C45.1108 28.7378 44.941 28.6935 44.7194 28.5901C44.6899 28.2725 44.8376 28.014 45.1478 27.822C45.4284 27.7999 45.6943 27.8368 45.938 27.9402C46.2334 27.7925 46.743 27.63 47.4668 27.4454L47.452 27.2607L46.8464 27.305C46.9203 27.2016 47.489 26.9358 48.5451 26.5074L48.8405 26.4852L48.8479 26.5665C48.3457 26.6108 48.065 26.7585 48.006 27.0244C48.0133 27.1426 48.0872 27.2016 48.2127 27.1869C48.582 26.9431 48.7593 26.8028 48.7593 26.7585C49.4683 26.6329 51.4328 25.599 54.6603 23.664L54.6751 23.8486C54.6825 23.9298 54.4092 24.1662 53.8553 24.5724ZM48.907 26.1972C49.3871 26.1529 49.7933 25.9683 50.133 25.6433C50.2585 25.6285 50.3324 25.6876 50.3398 25.8058C50.1182 25.8279 49.6825 26.0126 49.0252 26.3671L48.9218 26.3745L48.907 26.1972ZM56.8981 20.0598L54.4387 22.0392C52.5998 23.243 51.6027 23.8486 51.4476 23.8634C48.5229 25.4734 46.7061 26.308 45.9897 26.3671L45.8863 26.3745C45.9749 26.0421 47.2822 23.3759 49.808 18.3685C50.9085 18.2725 52.6515 17.7482 55.0444 16.8028L55.6426 16.7511C56.8464 16.6477 57.7475 16.8841 58.3383 17.4527L58.3678 17.8146C57.9173 19.0849 57.4299 19.8309 56.8981 20.0598ZM52.068 17.342L52.452 17.305L52.4594 17.401L52.0754 17.438L52.068 17.342ZM57.6588 16.3892L57.9543 16.3671C58.2275 16.5 58.3678 16.6182 58.3752 16.7142L58.3826 16.7954C58.1241 16.8176 57.8804 16.6846 57.6588 16.3892ZM58.4343 11.8914C58.1758 12.2016 57.4742 12.7334 56.3294 13.4719C55.9454 13.5089 54.5274 14.0554 52.0754 15.1189C51.9572 15.0746 51.8243 15.0598 51.6839 15.0672L51.6692 14.8826C51.6396 14.5281 51.7947 14.0849 52.1345 13.5458C52.3265 12.5266 52.5407 11.9579 52.7622 11.825L54.8228 7.21641C54.8006 6.94314 55.2364 6.72158 56.1226 6.55171L56.4181 6.52955L56.4402 6.8102C57.3117 6.66988 57.8582 6.58864 58.0798 6.56648C59.7046 6.42615 60.554 6.75112 60.6204 7.54875L60.8125 7.53398L60.7755 7.09085L60.9676 7.07608C61.4402 7.33457 61.6913 7.64477 61.7209 8.01404C61.743 8.27992 61.6101 8.60488 61.3294 8.98155C61.2039 8.99632 61.13 8.90769 61.1153 8.71567L60.9232 8.73044L60.8642 9.28435C60.0444 10.5325 59.4461 11.175 59.0695 11.2046C58.7371 11.6551 58.5303 11.8841 58.4343 11.8914ZM59.2984 14.9638L59.2763 14.6832L59.4683 14.6684L59.8819 14.9195C59.8893 15.0377 59.8302 15.1041 59.7046 15.1189C59.5274 15.0081 59.3944 14.9564 59.2984 14.9638ZM24.9188 32.9033L24.7268 32.9476L24.5643 33.0879C24.5938 33.2061 24.6677 33.2504 24.7933 33.2208C24.9188 33.1913 24.9705 33.1174 24.941 32.9993L24.9188 32.9033ZM24.1876 31.4483L24.2098 31.5443C24.3354 31.5148 24.387 31.4409 24.3575 31.3228L24.3354 31.2267C24.2172 31.2563 24.1655 31.3301 24.1876 31.4483ZM29.387 19.0776L29.6086 19.0259L29.5643 18.8338L29.3427 18.8855L29.387 19.0776ZM96.4033 24.7053C94.1581 25.2075 93.8775 25.1189 93.4048 25.1558L93.4195 25.3405L93.6264 25.3257L93.7371 25.3183L93.7076 25.2962L93.9513 25.2002C96.1744 24.9564 96.4328 25.0451 96.4107 24.794L96.4033 24.7053ZM84.3132 26.308L84.328 26.4926H84.3575L84.3427 26.308H84.3132ZM82.9247 21.4409L82.7253 21.3745C82.5628 21.8102 82.4816 22.0687 82.489 22.1426L82.4964 22.2238C82.6515 22.2164 82.7918 21.9505 82.9247 21.4409ZM96.8612 24.6684L96.876 24.853L97.2009 24.9121L97.1862 24.7275L96.8612 24.6684ZM81.5806 26.5369L81.0783 26.4779L80.9897 26.6699L80.9971 26.7659L83.9882 26.5148L83.9735 26.3301L81.5806 26.5369ZM80.2216 19.986L80.2142 19.89L80.1108 19.8974L79.9262 20.0155L80.0296 20.1928C80.1699 20.178 80.2364 20.1115 80.2216 19.986ZM98.2792 23.3095L98.4196 23.2947C98.5008 23.2873 98.5377 23.2208 98.5303 23.1027L98.4491 22.9254C97.9395 22.9697 97.7032 22.9919 97.2896 23.2208L97.2822 23.1248L96.6692 23.1839C96.6544 22.9993 96.6027 22.9033 96.5215 22.9106L96.2039 22.9402C95.8346 22.9697 95.6574 22.955 95.4727 23.0953C95.4653 23.0288 95.4432 22.9993 95.4063 22.9993L95.0518 23.0288L94.845 23.147C94.8376 23.0805 94.8154 23.051 94.7785 23.051L94.6529 23.1618L94.6455 23.0657L94.1507 23.0288L94.0325 23.0362L94.0473 23.2208L94.2984 23.2873L94.5348 23.2725C94.616 23.3242 94.7046 23.339 94.808 23.3316L95.0148 23.2282L95.0222 23.3095C93.8627 23.5975 93.8701 23.5458 93.0724 23.6787C92.9838 23.6197 92.9173 23.5901 92.873 23.5975L92.8583 23.6123C92.7696 23.6049 92.7179 23.5458 92.7105 23.4498L93.1241 23.3981C93.1537 23.3981 93.1758 23.4276 93.4048 23.4719C93.7371 23.3095 93.7519 23.243 93.9292 23.2282L93.9144 23.0436C92.777 23.2652 93.2349 23.1174 91.8095 23.243L91.743 23.2504L91.7283 23.0657C93.5599 22.8442 92.9469 22.9697 93.5746 22.7925C93.582 22.8589 93.6042 22.8885 93.6411 22.8885C93.715 22.8146 93.7962 22.7777 93.8922 22.7629L94.0178 22.7555C94.6603 22.7038 94.8745 22.8294 96.1448 22.4749L96.1522 22.5561L96.359 22.4527L96.551 22.438C96.5362 22.2533 96.8169 22.2238 96.9129 22.2164L96.8981 22.017C94.6677 22.4675 94.0842 22.342 93.4639 22.5192L93.4565 22.438C92.873 22.5414 92.8509 22.4971 92.7032 22.5044C92.6588 22.5118 92.5924 22.5488 92.5185 22.6226C92.5111 22.5561 92.489 22.5266 92.4447 22.5266C92.4225 22.5266 92.4151 22.534 92.4077 22.534L90.517 22.8442C90.5097 22.7925 90.4875 22.7629 90.4432 22.7703C89.4609 22.9771 89.7268 23.014 88.4122 23.1322C88.3531 23.1396 88.2718 23.1691 88.1684 23.2356C88.1611 23.1839 88.1315 23.1544 88.065 23.1618L87.26 23.2282L86.7209 23.3612C86.7135 23.3095 86.684 23.2799 86.6175 23.2873C86.3147 23.3685 86.0488 23.4202 85.8346 23.435H85.8198C85.6869 23.4498 85.8863 23.3981 85.7829 23.3538L85.6204 23.4498C85.3841 23.4719 85.5097 23.435 84.6972 23.4424C83.2718 23.6197 83.4269 23.6418 83.2718 23.6492L82.7401 23.6123C82.7475 23.664 82.7179 23.7009 82.6588 23.7009C82.0532 23.6197 81.743 23.5236 81.7356 23.4129C81.8169 22.8368 81.9572 22.5414 82.1566 22.5266L82.26 22.5192L82.1714 22.7112L82.2748 22.7039C82.4668 22.6005 82.5554 22.5044 82.5481 22.4158L82.5333 22.2164L82.3413 22.2312L82.3265 22.0465C82.3117 21.9062 82.3339 21.7807 82.3856 21.6773L82.8213 20.9756L82.8361 21.1603L83.0429 21.1455L83.0281 20.9609L82.91 20.791C83.065 20.6581 83.1832 20.5842 83.2792 20.5768L83.2718 20.4808L82.9912 20.503L82.969 20.2223C83.5303 19.0554 83.7962 18.3759 83.7814 18.1839L83.9809 18.2652C84.1064 18.2578 84.1655 18.1839 84.1581 18.051L83.9661 18.0657L83.9587 17.9845C83.9439 17.8442 83.9735 17.7112 84.0325 17.5931C84.3354 17.2755 84.4757 16.9579 84.4461 16.6256C84.5052 16.6182 84.5348 16.6477 84.5422 16.7142C84.8006 16.5665 85.0001 16.175 85.1478 15.5251C85.6057 14.6979 86.2556 13.0436 87.1049 10.5694C88.7297 6.1972 88.6633 5.73191 88.8922 4.69794L88.7002 4.71271C88.715 4.84565 88.6854 4.97121 88.6263 5.08937C88.4934 5.03768 88.39 5.00813 88.3162 5.01552L88.3088 4.93428C88.2792 4.55762 88.4343 4.1071 88.7888 3.57534L88.8774 3.56796L89.0399 4.20311L89.232 4.18834C89.2246 4.14403 89.2763 3.89292 89.3797 3.42763C89.3723 3.33162 89.2984 3.27254 89.1507 3.26515L88.9661 3.38332C88.9513 3.25038 88.9587 2.90326 88.9809 2.34935L88.8848 2.35673C88.7224 2.19425 88.6411 2.06131 88.6337 1.95053L87.5776 2.05392C87.5702 1.98007 87.5333 1.86929 87.4594 1.72896C87.452 1.63295 87.6884 1.53694 88.1758 1.44093L88.39 1.52217L88.5894 1.404C88.5968 1.47047 88.6337 1.50001 88.7076 1.49262L88.907 1.37446C88.9144 1.44093 88.9513 1.47047 89.0252 1.46308L89.1212 1.4557L89.1064 1.24152C88.9587 1.25629 88.5673 1.25629 87.9469 1.23413L87.7475 1.36707L87.7401 1.2489C82.7844 1.65511 79.9705 1.88406 79.2984 1.95053C79.2098 1.95791 78.8627 1.95053 78.2497 1.93576C78.2571 2.017 78.1832 2.06131 78.0355 2.07608L77.8213 1.98007L77.0975 2.16471C76.9277 2.17948 76.6396 2.17209 76.2408 2.12778C76.13 2.21641 75.9971 2.2681 75.8346 2.28288C75.746 2.29026 76.8907 2.22379 77.9543 2.14994C77.8435 2.23856 77.6736 2.29026 77.4373 2.31242C77.2748 2.32719 77.1345 2.30503 77.0163 2.23856C76.8538 2.31242 76.3294 2.43059 75.4506 2.60784L75.2364 2.5266L71.78 3.05836C71.647 2.99189 71.4919 2.96973 71.3147 2.9845C71.13 2.99927 70.8198 3.06574 70.3915 3.18391L68.7224 3.87815L68.8479 4.08494C68.9291 4.07756 69.0473 4.03324 69.1876 3.952L69.7785 4.0037L69.7046 4.55762C69.1581 4.80134 68.8405 5.16323 68.7519 5.62113C67.9321 5.98302 67.5259 6.24152 67.5259 6.39661L67.5333 6.49262L67.6588 6.48524L67.8804 6.36707L68.1389 6.67726L68.1758 7.10562C68.1906 7.23856 66.8095 10.1411 64.0473 15.8132C61.6544 21.2784 60.3989 24.2696 60.2807 24.8087C59.4609 25.0377 58.9882 25.37 58.8479 25.8132C58.8627 25.9535 59.1064 26.0495 59.5791 26.0864L59.6012 26.3006L59.387 26.6551L59.424 27.0835C59.4461 27.305 60.0444 27.4749 61.2187 27.5931C61.2113 27.5192 61.2482 27.4749 61.3294 27.4675C61.3516 27.7334 61.2777 28.2504 61.1079 29.0185L61.2334 29.0111C61.7209 28.3464 61.9498 27.8885 61.9277 27.6374L62.0311 27.63C62.1492 27.6226 62.2748 27.7555 62.4225 28.0436C62.2748 28.1027 61.7578 29.277 60.8715 31.5739L60.9971 31.7807L61.1226 31.7733C62.2083 29.0259 62.8878 27.5044 63.1684 27.2164C64.5938 27.0909 67.0606 26.8397 70.5613 26.4631L70.7829 26.3301C70.7903 26.404 70.8346 26.4409 70.9159 26.4335L71.1448 26.4114L71.3664 26.2784C71.3738 26.3523 71.4181 26.3892 71.4993 26.3818L74.1507 26.1529C74.8523 26.0938 75.1847 25.8796 75.1551 25.5177C75.1478 25.4217 75.5613 25.3109 76.3959 25.1928C76.4772 25.1854 76.5953 25.2075 76.7578 25.2592C76.7504 25.1928 77.1714 25.1263 78.0133 25.0524C78.0355 24.6093 78.1758 24.373 78.4269 24.3508L78.4048 24.1366C78.1684 24.1588 77.9026 24.2179 77.5924 24.3213C77.0385 24.2917 76.684 24.2474 76.5362 24.1957C76.3885 24.277 76.2777 24.3213 76.1965 24.3287L74.3501 24.3878L74.1286 24.5059C74.1212 24.4394 74.0769 24.4099 73.9956 24.4173L73.8922 24.4247L73.6559 24.5428C73.6485 24.4764 73.4565 24.4247 73.0724 24.373L72.8361 24.5133L72.3782 24.5502L72.3708 24.4321C74.7489 24.1736 75.9232 23.8486 75.8937 23.4646C76.0488 23.4498 76.13 23.5236 76.1448 23.6787L76.839 23.5015L76.8169 23.2873L71.1226 23.4424C71.13 23.5163 71.0931 23.5606 71.0119 23.568L70.3176 23.5089C70.1404 23.5236 69.9927 23.5753 69.8745 23.664L69.616 23.568C68.8996 23.627 68.3678 23.7157 68.0133 23.8265C67.5259 23.7895 66.9868 23.7969 66.3885 23.8486L65.1108 23.9594L64.52 23.8929C64.4904 23.5163 65.2216 21.6625 66.7283 18.339C67.164 17.2164 67.5628 16.5148 67.9469 16.2489C68.0281 16.2415 68.1463 16.2711 68.3088 16.3375L69.2172 16.0273L69.6825 16.1012C70.4653 16.0347 71.3737 15.8132 72.4151 15.4291C72.6736 15.407 72.8656 15.4217 73.006 15.4808L73.7002 15.3183L75.7681 15.1411C76.647 15.0672 77.5998 14.8752 78.6337 14.5576L78.6116 14.3434C78.2275 14.3804 78.0281 14.3139 78.0133 14.1588C77.9912 13.8708 77.7105 13.7526 77.1714 13.7969L77.1492 13.5827L77.7179 13.4202L79.2098 13.2947L79.1876 13.0805C79.1286 13.0879 78.8258 13.0805 78.2645 13.0584L78.2423 12.8294L78.8184 12.7777C78.9735 12.7629 79.0399 12.6891 79.0252 12.5414C78.2497 12.5635 77.8583 12.5266 77.8509 12.4232C72.4447 12.6891 69.7342 12.7408 69.7194 12.5709C69.6382 12.5783 69.5274 12.63 69.3797 12.7186L69.2393 12.4971C70.6721 9.45422 71.5141 7.91803 71.7578 7.89587C71.7652 8.01404 71.7061 8.20607 71.5732 8.46456L71.5806 8.56057L71.8095 8.53841C72.3782 7.17948 72.8582 6.47785 73.2571 6.44831C74.9557 6.3006 73.0207 6.18982 76.6544 5.62113C76.8021 5.6876 76.9055 5.71714 76.9794 5.70976C78.4048 5.42172 80.3915 5.11892 82.9395 4.80872L82.9247 4.59454L81.5658 4.7201L81.551 4.50592C81.7135 4.49115 81.8464 4.43945 81.9572 4.35082L81.9646 4.46899C82.0385 4.46161 82.1419 4.40991 82.2748 4.32128C82.5111 4.29912 82.6884 4.32128 82.8139 4.38775C83.2866 4.2622 83.6707 4.18834 83.9513 4.1588L84.8006 4.07756C85.0074 3.94462 85.1035 3.82645 85.0961 3.71567L85.0887 3.61966C84.8745 3.64181 84.6308 3.62704 84.3427 3.57534C84.3354 3.45717 84.3944 3.37593 84.5348 3.33901L86.1153 3.19129L86.8391 3.00666C86.8464 3.0879 86.8834 3.11744 86.9424 3.11744C87.0163 3.11005 87.1197 3.05836 87.2526 2.96973C87.2896 2.97711 87.3339 2.97711 87.3708 2.9845C87.2748 3.18391 87.164 3.47194 87.0532 3.84861L86.8464 3.86338C86.8317 3.72305 86.7947 3.5975 86.7283 3.48672L86.6249 3.4941C84.7046 8.84122 83.8479 11.3301 82.0754 15.4365C81.7504 16.4852 81.4771 17.0687 81.2408 17.1942C81.2482 17.3124 81.3221 17.3715 81.4476 17.3567C81.4919 17.8737 81.3738 18.3833 81.0857 18.8855C80.2659 21.2489 79.7194 22.5414 79.4388 22.7777L79.6234 23.8929C79.6308 24.0111 79.5717 24.0776 79.4461 24.0923L79.2541 24.1071C79.2246 23.7969 79.1138 23.6492 78.9144 23.6714L78.811 23.6787C78.5599 24.0702 78.3679 24.5207 78.2423 25.0451L78.4343 25.0303C78.6928 24.8604 78.811 24.661 78.7888 24.4321L79.1729 24.3951L79.3944 24.4764C79.2172 24.757 79.1359 24.9786 79.1507 25.1485L79.2541 25.3257L79.003 25.9166L79.0104 26.0126C79.232 25.9904 79.4757 26.0643 79.7342 26.2194C79.9114 26.2046 80.1034 26.1233 80.3176 25.983C80.5392 25.9609 81.3664 25.9535 82.7918 25.9535L83.5082 25.7098C84.3797 25.7024 84.52 25.7245 85.2733 25.6581L85.5835 25.6285L85.746 25.5177L85.7534 25.6137C86.5436 25.5473 86.5953 25.599 87.2157 25.6728L87.2231 25.7688L86.7874 25.8058L86.8021 25.9904C86.9351 25.9756 87.0532 25.9387 87.1492 25.8575C87.26 25.8501 87.3265 25.9092 87.3339 26.0421C87.1566 26.0569 86.9572 26.1012 86.7356 26.175L86.5436 26.1086C86.2408 26.1898 86.3073 26.212 86.1005 26.2267L85.7977 26.1677C85.8051 26.2194 85.7755 26.2563 85.7238 26.2563C85.7312 26.3745 85.7977 26.4335 85.9085 26.4262L86.2187 26.3966L87.8361 26.2563L88.4491 26.1233C88.4565 26.175 88.4786 26.2046 88.5303 26.1972L88.8258 26.0864L89.3797 26.0421C89.808 26.0052 89.8006 25.9756 90.7312 25.8279C90.7238 25.7688 90.746 25.7467 90.7903 25.7393L90.7977 25.8205C92.3117 25.562 92.4077 25.5473 92.6515 25.466L92.6736 25.5104C93.0503 25.4217 92.8361 25.4439 92.9395 25.37C92.9469 25.4365 92.969 25.466 93.006 25.466L93.2718 25.4439L93.2571 25.2445L92.7179 25.2371L92.7105 25.2223C92.6884 25.2297 92.6736 25.2297 92.6515 25.2371H92.5776V25.2519C92.2157 25.3257 92.2083 25.274 91.972 25.2962L90.6204 25.37L90.6131 25.274L91.3664 25.1706L91.6396 25.1485L91.7947 25.0377L91.8021 25.1337C92.8656 25.0451 93.2423 25.3109 98.1611 24.2622C98.4269 24.24 98.4048 24.0185 98.5746 23.5606C98.486 23.568 98.3974 23.5458 98.3162 23.5015C97.91 23.6566 97.6958 23.5827 96.9129 23.7083C96.8464 23.7157 96.7947 23.6566 96.7726 23.5384L96.7652 23.4572L97.5185 23.4793C97.6588 23.4646 97.9321 23.4424 98.3383 23.2135C98.3383 23.2799 98.1906 23.3168 98.2792 23.3095ZM61.9129 23.8929L61.5658 23.9225C61.551 23.7821 61.7356 23.2504 62.1197 22.342L62.3486 22.3198C62.356 22.534 62.2157 23.0584 61.9129 23.8929ZM62.3339 22.209L62.3265 22.113C62.3191 21.9948 62.393 21.9136 62.5554 21.8767L62.5628 21.9727C62.5702 22.113 62.4964 22.1942 62.3339 22.209ZM66.9498 25.7762L66.9572 25.8722L66.3811 25.9239L66.3738 25.8279L66.9498 25.7762ZM66.2556 25.7171C66.263 25.8353 66.0857 25.9683 65.7017 26.1012L64.9927 26.0495L64.7637 26.0716L64.7416 25.8575L66.2556 25.7171ZM70.9232 4.23265L70.5761 4.2622L70.5687 4.14403C70.5613 4.02586 70.6278 3.94462 70.7755 3.90769L70.9011 3.90031L71.1374 3.99632C71.1448 4.13664 71.0783 4.21788 70.9232 4.23265ZM76.2039 3.19868L76.3147 3.19129L76.3294 3.40547L76.0119 3.43502C76.0045 3.31685 76.0636 3.23561 76.2039 3.19868ZM74.8745 3.66397L74.3501 3.60488L74.3427 3.50887C75.0296 3.44979 75.2585 3.37593 75.6795 3.25776C75.6869 3.339 75.7608 3.36855 75.8937 3.35378L75.9085 3.56796L75.7017 3.59011C75.5392 3.60488 75.3989 3.58273 75.2807 3.51626C75.1551 3.5975 75.0222 3.6492 74.8745 3.66397ZM75.5318 5.57682L75.5244 5.48081L76.3738 5.39957L76.3811 5.49558L75.5318 5.57682ZM76.4402 4.83827L76.4328 4.7201L76.8464 4.68317L76.8538 4.80134L76.4402 4.83827ZM76.5362 3.3907L76.4255 3.39809L76.5215 3.16914L77.4668 3.08051L77.4742 3.19868C77.2305 3.22084 76.9129 3.28731 76.5362 3.3907ZM77.0163 5.42911L77.0015 5.21493L77.4151 5.178C77.5554 5.16323 77.6293 5.2297 77.6367 5.37741L77.0163 5.42911ZM79.52 2.017L78.9882 2.16471L78.8922 2.17209C78.6411 2.19425 78.3162 2.18686 77.9321 2.14994C78.619 2.10562 79.2763 2.05392 79.52 2.017ZM78.9513 4.38036L78.9587 4.47638L78.2275 4.54285L78.2201 4.44683L78.9513 4.38036ZM80.1478 4.94905C80.1404 4.86042 80.0001 4.80134 79.712 4.7718L78.9809 4.97859L78.4195 5.00075C78.294 4.91212 78.2275 4.85304 78.2201 4.80872L78.8701 4.84565L80.3324 4.60932L81.0783 4.63886L81.0857 4.75703C80.7164 4.79395 80.4063 4.86042 80.1478 4.94905ZM87.6736 3.00666C87.7622 3.01404 87.8213 3.01404 87.8435 3.01404C88.102 2.76293 88.39 2.56353 88.7224 2.4232C88.4565 3.59011 88.0429 4.45422 87.4742 5.01552L87.0606 4.76441C87.4077 3.88553 87.6145 3.30208 87.6736 3.00666ZM86.4033 5.18539L86.5067 5.178C86.3664 5.44388 86.2408 5.5842 86.1374 5.59159L86.1153 5.31094C86.1817 5.31094 86.2777 5.26663 86.4033 5.18539ZM85.5835 7.14255C85.7829 6.34491 85.9749 5.8944 86.1522 5.77623L86.1596 5.87224C86.0562 6.61079 85.8937 7.00223 85.6795 7.03177L85.7165 7.49706C85.5392 7.74816 85.458 7.94019 85.4653 8.0879L85.3619 8.09528L85.3029 7.45274C85.421 7.43797 85.517 7.33457 85.5835 7.14255ZM85.2659 8.20607C85.2733 8.31685 85.1995 8.57534 85.0518 8.97416L84.9484 8.98155L84.9262 8.7009C85.0665 8.37593 85.1847 8.21345 85.2659 8.20607ZM79.3058 25.503L79.2984 25.4217L79.4904 25.407L79.5126 25.6876C79.4092 25.695 79.3354 25.6359 79.3058 25.503ZM87.8213 25.7245C87.8139 25.6581 87.7844 25.6285 87.7179 25.6359L87.2379 25.6802L87.2305 25.5842H87.2748L88.4122 25.4882L88.4196 25.5842C88.0872 25.599 87.8878 25.6507 87.8213 25.7245ZM87.2526 25.4882C87.297 25.5103 87.2748 25.5325 87.2526 25.5473C87.2305 25.5399 87.2009 25.5177 87.2526 25.4882ZM87.3117 24.1588L86.6766 24.2105L86.6692 24.1145L87.2453 24.0628L87.7475 23.9372C87.7549 23.9963 87.7844 24.0185 87.8509 24.0111C88.4491 23.9077 88.39 23.8781 88.678 23.856C88.7741 23.8486 88.8331 23.9077 88.8405 24.0259L87.3117 24.1588ZM89.5348 23.9668C89.1803 23.9298 89.1581 23.9003 88.907 23.9225L88.8996 23.8412L89.4683 23.7895L89.4757 23.8708C89.4166 23.8781 89.6308 23.8929 89.5348 23.9668ZM89.5791 23.8634L89.5717 23.7821L89.8819 23.7526L89.8893 23.8338L89.5791 23.8634ZM90.2659 23.8043L90.2586 23.7231C90.3102 23.7157 90.3841 23.6787 90.4801 23.6049C90.6352 23.5901 90.7164 23.6935 90.7312 23.8117L90.2659 23.8043ZM91.1448 23.6935L91.1374 23.5975L91.5141 23.568L91.5215 23.664L91.1448 23.6935ZM91.6692 23.6492C91.6618 23.5384 91.7061 23.4719 91.8021 23.4572L91.9277 23.6197C91.9203 23.568 91.9424 23.5384 91.9868 23.531L92.0828 23.7083L91.6692 23.6492ZM86.0931 26.0569L86.0783 25.8722L86.0193 25.8796L86.034 26.0643L86.0931 26.0569ZM99.0695 22.6965C99.1286 22.6595 99.1581 22.6226 99.0178 22.6005C98.9513 22.6743 99.0916 22.6965 98.9439 22.7039L98.9513 22.7703C98.9661 22.7555 99.003 22.7334 99.0325 22.7112L98.9513 22.7777V22.7851L98.7962 22.9845L99.1064 22.8737H99.1433L99.1286 22.6891L99.0695 22.6965ZM99.6086 23.1174L99.5495 23.1248L99.5643 23.3095L100 23.2725C99.9927 23.1544 99.7046 23.1174 99.6086 23.1174ZM98.9365 22.7925L98.9439 22.7851V22.7777C98.9439 22.7777 98.9365 22.7851 98.9365 22.7925Z" fill="black"/>
    <path d="M70.5835 9.12189L70.5908 9.24006L70.8346 9.21791C70.8272 9.14405 70.8567 9.02588 70.9084 8.87817L70.8863 8.66399C70.7829 8.67138 70.6795 8.82647 70.5835 9.12189ZM68.2496 3.50889L68.2275 3.29471L67.8804 3.32426L67.9025 3.53844L68.2496 3.50889ZM61.4771 16.1898C61.4623 15.9904 60.8419 15.2149 59.616 13.8486C59.5938 13.5975 60.0148 13.2209 60.8789 12.726L63.3456 10.5768C63.8996 9.87522 64.2245 8.73785 64.3205 7.15734L64.291 6.79545C64.195 5.70239 63.4047 4.82352 61.9055 4.15143C61.0192 3.55321 59.4239 3.22086 57.1196 3.16177C55.2142 3.32426 52.7253 4.00372 49.6603 5.20756C48.8183 5.81318 47.8582 6.41879 46.7799 7.0244L46.7947 7.20904C46.8611 7.20166 46.9646 7.16473 47.0827 7.08349C47.2083 7.06872 47.2821 7.1278 47.2895 7.24597L47.4741 7.14996L47.5628 7.14257L47.5702 7.22381C47.5775 7.31983 46.9128 7.8442 45.5687 8.78216L45.6721 8.97418L45.5835 8.98157L45.3619 8.90033C45.3693 8.9668 45.2733 9.01111 45.0886 9.02588L45.096 9.10712L45.3102 9.373C45.2437 9.38039 45.1403 9.35084 45 9.29914C44.6898 9.32869 44.387 9.49117 44.0842 9.80136L44.2097 9.25483C44.6603 7.31244 44.9705 5.59161 45.1329 4.09974L45.1108 4.00372C44.8006 3.80431 44.4978 3.52366 44.2171 3.16916C44.2245 2.94021 44.2245 2.80727 44.2171 2.77773L44.195 2.69649L44.1064 2.71864C43.1315 4.18098 41.2555 6.67728 38.4712 10.2076C36.3515 12.7186 35.2585 14.1145 35.192 14.3952C34.3279 15.2888 33.9143 15.8279 33.9586 16.0126C33.7297 16.1603 33.6337 16.308 33.6706 16.4705C33.6041 16.4853 33.5598 16.4631 33.5451 16.3966C33.1758 16.9949 32.6292 17.3789 31.8981 17.5488L31.13 17.726C31.0266 17.7482 30.9749 17.822 30.9823 17.9476L31.0044 18.0436L31.2925 17.9771L31.3146 18.0584L30.6647 18.3095L29.5126 18.5754L28.9069 18.6123C28.8183 18.7009 29.387 18.6049 29.1654 18.6566L28.4121 18.8339C27.9542 18.9373 27.7031 18.9003 27.6588 18.7157L27.5702 18.7378C27.5849 18.8191 27.5923 18.8782 27.5775 18.9299L27.5332 18.7452L26.9276 18.8856C26.8833 18.6049 26.0635 17.5857 24.4756 15.8279C24.4461 15.4882 25.0074 14.9934 26.1521 14.3508L29.387 11.5074C30.1108 10.5768 30.5391 9.08496 30.6795 7.03179L30.6352 6.55173C30.5096 5.10417 29.4609 3.93725 27.4889 3.03622C26.322 2.24597 24.2245 1.82499 21.1965 1.75852C18.6854 1.9727 15.4062 2.86635 11.3737 4.4247C10.2659 5.22972 9.00295 6.02736 7.58493 6.81761L7.60709 7.06872C7.7031 7.06133 7.82866 7.00963 7.98375 6.92101C8.14623 6.90624 8.23486 6.98009 8.24963 7.1278L8.50074 6.98748L8.62629 6.98009L8.63368 7.09826C8.64106 7.21643 7.76219 7.90328 5.98227 9.15882L6.1226 9.38039L5.99705 9.38777L5.72378 9.29176C5.73117 9.36561 5.60561 9.41731 5.34712 9.43947L5.36189 9.57241L5.65731 9.89737C5.5613 9.90476 5.42836 9.87522 5.25849 9.81613C4.68242 9.86783 4.12112 10.2814 3.56721 11.0643L3.70753 11.2859C4.18759 10.8427 4.46824 10.6212 4.54948 10.6138L4.57903 10.9757C4.49778 10.983 4.37223 11.0347 4.20236 11.1234L4.50517 11.5813C5.08863 10.9535 5.73117 10.4144 6.43279 9.96384C6.77991 10.0525 6.96455 10.1633 6.97194 10.2814L7.23781 10.2593C9.14328 8.84863 11.0266 7.82943 12.8951 7.20166L12.9173 7.45276C12.5702 7.96975 12.3338 8.23563 12.2083 8.2504C12.223 8.42765 12.2821 8.58275 12.3929 8.71569C12.4225 9.03327 11.5731 11.1751 9.85229 15.1337C5.94535 24.3361 2.66617 31.1455 0 35.5473C0.00738552 35.6359 0.0590847 35.7541 0.155096 35.9018C0.812408 35.7467 1.226 35.5842 1.40325 35.4291L1.54358 35.4144L1.56573 35.6655L1.80945 35.6433L2.06056 35.503C2.06795 35.5768 2.14919 35.6138 2.31906 35.599L2.34121 35.8501C2.36337 36.0938 2.22304 36.4631 1.92762 36.9727C1.66174 37.2755 1.37371 37.9107 1.0709 38.8782L1.07829 38.9963L1.32201 38.9742C2.38552 37.7851 3.19055 36.6182 3.74446 35.4808C6.84638 34.5724 9.20975 33.6788 10.8493 32.7999C12.4963 32.6596 13.7518 32.2238 14.6086 31.5074L14.5938 31.3745L13.9734 31.5591L13.8331 31.5739L13.8183 31.4409C15.0295 31.2563 15.8641 30.9904 16.3294 30.6212C18.6854 28.8043 20.4653 27.5192 21.6691 26.7585C24.1433 24.9417 25.7533 23.1692 26.4845 21.4483C26.6174 21.4188 26.7504 21.3892 26.8981 21.3523C27.2452 21.3375 27.4372 21.3302 27.4889 21.3154C27.4742 21.2489 27.5037 21.212 27.5702 21.1972C28.1241 21.1381 27.8582 21.2342 28.2127 21.1529L29.1433 20.9387L29.2984 20.9018L29.2245 20.9461C29.3279 20.9609 29.4387 20.9535 29.5643 20.924L29.6307 21.1972L25.3988 27.9254L24.4609 29.0997L24.003 30.6359L24.0916 30.6138L24.5495 30.4217L24.4018 31.02L24.4461 31.1972L24.5716 31.3523C24.5126 31.3671 24.4904 31.404 24.5052 31.4705L24.5273 31.5665L24.7194 31.5222C25 31.2785 25.1182 31.0569 25.0739 30.8575C25.3767 30.9092 25.5761 30.9313 25.6795 30.9018L25.7016 30.9978C25.517 31.0421 25.421 31.1898 25.4062 31.4409L25.4284 31.537L25.5318 31.5148C27.0679 29.8383 30.8346 24.0997 33.8552 20.2076C33.7592 19.7866 35.3323 19.2031 38.582 18.4498L38.6854 18.4277C38.8035 18.9373 38.5524 20.1706 37.9321 22.1278C37.5332 23.3095 37.3412 23.9594 37.3708 24.0628C36.8538 25.6359 36.61 26.4853 36.6396 26.6182L35.4874 30.3922C34.7415 32.3272 34.1728 34.3582 33.774 36.5C33.8405 36.4853 33.9439 36.4926 34.0916 36.5296L34.2541 36.3892C34.2688 36.4557 34.3131 36.4779 34.3796 36.4631L34.3131 36.1898L34.8154 36.1751C34.9631 36.1381 35.0886 35.9535 35.192 35.6138C35.1699 35.1042 35.2733 34.8309 35.5022 34.7718C35.8124 33.5606 36.0044 32.955 36.0709 32.9328C36.3589 31.729 36.5731 31.0421 36.7134 30.8723C37.1492 29.3065 37.4668 28.5015 37.6736 28.4498L37.7179 28.6418L37.4003 29.4616C36.8464 31.921 36.2851 33.8634 35.7164 35.2888L35.8789 35.9978L35.9823 35.9757C37.356 33.0215 39.3353 27.1721 41.9128 18.4277C41.9867 17.6596 42.356 17.0613 43.0133 16.6404L42.8656 16.4853L42.8434 16.404C43.1388 16.3375 43.3456 16.2194 43.4638 16.0569C43.449 15.9904 43.1905 15.8944 42.6883 15.7615L43.9734 10.2519C44.2541 10.0008 44.4165 9.86783 44.4682 9.86783L44.4904 10.1485C44.4239 10.1559 44.3205 10.1928 44.2024 10.274L44.4461 10.6212C44.8892 10.1411 45.3693 9.72751 45.8936 9.38039C46.1595 9.45424 46.2925 9.54287 46.3072 9.63149L46.4993 9.61672C47.9616 8.54582 49.3944 7.77773 50.805 7.31244L50.8198 7.49708C50.5613 7.88851 50.384 8.08792 50.288 8.0953C50.3028 8.22824 50.3397 8.34641 50.4062 8.44981C50.4284 8.69353 49.7932 10.3183 48.4934 13.3316C45.5244 20.311 43.0354 25.4734 41.0118 28.8265C41.0192 28.8929 41.0635 28.9816 41.1448 29.0997C41.6396 28.9816 41.9572 28.856 42.0827 28.7378L42.1713 28.7305L42.1861 28.9151L42.3929 28.9003L42.5775 28.8043C42.5849 28.856 42.6514 28.8782 42.777 28.8708L42.7917 29.0702C42.8065 29.2474 42.7031 29.5281 42.4741 29.9121C42.26 30.1411 42.0384 30.6212 41.8021 31.3523L41.8095 31.4483L42.0015 31.4336C42.8065 30.5325 43.4195 29.6463 43.8405 28.7748C46.1965 28.0805 47.9911 27.4085 49.2319 26.7438C50.4948 26.633 51.4476 26.308 52.0975 25.7615L52.0901 25.6655L51.61 25.8058L51.5066 25.8132L51.4993 25.7172C52.4151 25.5842 53.0576 25.3774 53.4047 25.1042C55.192 23.7305 56.5436 22.7482 57.4594 22.1721C60.3102 20.0968 61.6396 18.1027 61.4771 16.1898ZM60.9897 16.3154L61.0561 17.0613C60.9675 17.246 60.8715 17.342 60.7829 17.3494L60.6721 16.0791C60.8789 16.1529 60.9823 16.2268 60.9897 16.3154ZM5.06647 10.3036L4.94092 10.311L4.91876 10.082L5.42836 10.0377L5.43575 10.1559C5.35451 10.1633 5.22895 10.2076 5.06647 10.3036ZM2.57755 35.2002C2.28213 35.0672 2.01625 35.0155 1.7873 35.0377L1.75776 34.6758C1.74298 34.5355 1.82422 34.4395 2.00148 34.4025C2.16396 34.3878 2.25997 34.5059 2.27474 34.7423C2.7031 34.2179 2.93944 33.952 2.98375 33.9446L3.25702 34.0554C3.16839 34.794 2.93944 35.1706 2.57755 35.2002ZM29.1728 7.37891C29.0473 7.39368 28.7962 7.00225 28.4343 6.22677L28.4121 5.99782C28.6485 5.97566 28.8922 6.35971 29.1507 7.14996L29.1728 7.37891ZM28.8183 4.62411L28.7149 4.86783L25.1034 3.36118C27.5111 3.44242 28.7518 3.8634 28.8183 4.62411ZM13.5672 17.7186L13.0576 17.763L13.0355 17.534L13.5451 17.4897L13.5672 17.7186ZM13.1536 9.85306L13.2792 9.84567L13.3087 10.2076C13.1905 10.215 13.0355 10.3922 12.8434 10.7319L12.8213 10.4808C13.0502 10.2076 13.1684 10.0008 13.1536 9.85306ZM12.0827 12.3789L12.127 12.859L12.0015 12.8664L11.9572 12.3863L12.0827 12.3789ZM11.5214 13.2799L11.7651 13.2578C11.743 13.6566 11.6322 13.8708 11.4328 13.8856L11.3072 13.8929C11.4623 13.6271 11.5362 13.4203 11.5214 13.2799ZM11.1004 14.5355L11.2408 14.5207L11.2482 14.6389L11.0192 15.0229L10.7755 15.0451L10.7681 14.9269C11.0118 14.9048 11.1226 14.7792 11.1004 14.5355ZM10.6869 15.6655L10.613 16.2711L10.4874 16.2785L10.4357 15.6802L10.6869 15.6655ZM6.54357 27.4454C6.38109 28.2726 6.20384 28.6935 6.0192 28.7083L6.01182 28.5901C5.9675 28.1839 6.14476 27.7999 6.54357 27.4454ZM5.78287 29.0924L5.79025 29.2105C5.80502 29.373 5.73117 29.469 5.56869 29.4764L5.5613 29.3582C5.54653 29.2179 5.62038 29.1293 5.78287 29.0924ZM5.5613 32.5118L5.94535 32.4749L5.96012 32.6079C5.86411 32.6152 5.73855 32.6669 5.58346 32.7556L5.33973 32.7777C5.32496 32.6522 5.4062 32.5562 5.5613 32.5118ZM16.4919 29.1367C14.3353 30.2002 13.065 30.924 12.6883 31.3006C10.3545 32.113 9.19498 32.6152 9.21713 32.8147C7.1418 33.6344 5.77548 34.2401 5.11817 34.6167C4.96307 34.6315 4.74151 34.5724 4.44609 34.4395C4.40916 34.0185 4.60118 33.6788 5.00739 33.4055C5.36928 33.376 5.7164 33.4277 6.04875 33.568C6.43279 33.3686 7.10488 33.147 8.05761 32.9107L8.03545 32.6596L7.26736 32.726C7.36337 32.5931 8.10192 32.246 9.4904 31.6847L9.87445 31.6477L9.88183 31.7659C9.22452 31.825 8.86263 32.017 8.78139 32.3641C8.79616 32.5192 8.88479 32.5857 9.04727 32.5709C9.5421 32.2607 9.78582 32.0761 9.77843 32.0244C10.7164 31.8472 13.3087 30.4882 17.5554 27.955L17.5775 28.1839C17.5849 28.2947 17.223 28.6049 16.4919 29.1367ZM9.97784 31.2785C10.5982 31.2268 11.13 30.9757 11.5731 30.5399C11.7504 30.5251 11.8464 30.5916 11.8538 30.7467C11.551 30.7762 10.9675 31.0274 10.1182 31.5148L9.99261 31.5222L9.97784 31.2785ZM20.4874 23.2061L17.2304 25.791C14.808 27.3789 13.5081 28.1765 13.3161 28.1913C9.46086 30.311 7.06056 31.4114 6.12999 31.4926L5.98966 31.5074C6.10783 31.0717 7.82127 27.5635 11.1448 20.9609C12.6071 20.8353 14.9114 20.1559 18.0502 18.9151L18.8183 18.8486C20.4062 18.7083 21.5953 19.0185 22.3781 19.757L22.4225 20.2371C21.839 21.9284 21.1891 22.9181 20.4874 23.2061ZM14.1211 19.6241L14.6455 19.5798L14.6529 19.698L14.1285 19.7423L14.1211 19.6241ZM21.4845 18.376L21.8685 18.339C22.223 18.5089 22.4077 18.6566 22.4225 18.7895L22.4298 18.9077C22.0901 18.9373 21.7725 18.76 21.4845 18.376ZM22.5258 12.4454C22.1861 12.8516 21.2555 13.5458 19.7341 14.5207C19.2319 14.565 17.3634 15.2888 14.1285 16.7068C13.966 16.633 13.7962 16.6034 13.6115 16.6182L13.5894 16.3892C13.5524 15.924 13.7592 15.3405 14.2171 14.6315C14.4682 13.3021 14.7415 12.5414 15.0443 12.3568L17.74 6.29324C17.7105 5.91657 18.2866 5.62854 19.4682 5.42913L19.8523 5.3922L19.8818 5.73932C21.0414 5.56207 21.7651 5.45867 22.0458 5.43652C24.1876 5.25188 25.3028 5.68762 25.3914 6.72898L25.6352 6.70683L25.5835 6.09383L25.8493 6.07167C26.4771 6.41879 26.8168 6.83977 26.8612 7.3346C26.8907 7.67433 26.7061 8.0953 26.3146 8.59752C26.1521 8.61229 26.0561 8.49412 26.0414 8.25779L25.7755 8.27994L25.7164 9.01849C24.6307 10.6433 23.8405 11.4779 23.353 11.5222C22.9099 12.1352 22.6366 12.438 22.5258 12.4454ZM24.1802 16.6921C23.9586 16.5443 23.7814 16.4779 23.6485 16.4853L23.6189 16.1234L23.8626 16.1012L24.4018 16.4188C24.4239 16.5887 24.3501 16.6773 24.1802 16.6921ZM25.8936 18.7231C26.13 18.8191 26.2703 18.9225 26.2999 19.0185L26.1817 19.048L26.1891 19.0554C26.1669 19.0554 26.1374 19.0628 26.1152 19.0702L25.938 19.2105L25.8936 18.7231ZM26.0561 19.7423L26.034 19.6463L26.3442 19.5724L26.3663 19.6684L26.0561 19.7423ZM26.8021 20.5768C27.1196 20.5251 27.2747 20.503 27.8656 20.37L27.8877 20.4661L26.7651 20.7246C26.7799 20.6729 26.7947 20.6212 26.8021 20.5768ZM27.8951 21.0421C27.4225 21.0864 27.5258 21.0274 26.7725 21.1972L26.7504 21.1012L27.6957 20.7984L28.1462 20.695L28.1905 20.8723C27.9838 20.9166 28.1315 20.9166 27.8951 21.0421ZM28.8922 20.8058C28.7814 20.8353 28.6928 20.7836 28.6411 20.6581L28.9291 20.5916C29.0547 20.5621 29.1359 20.6138 29.1654 20.7393L28.8922 20.8058ZM31.5953 17.8959L31.5731 17.7999L32.0384 17.6891L32.0827 17.8664L31.5953 17.8959ZM34.483 35.6064C34.5126 35.4734 34.5199 35.3774 34.5052 35.311L34.6086 35.2888C34.7341 35.2593 34.808 35.3036 34.8375 35.4217L34.8597 35.5178L34.483 35.6064ZM36.5066 18.6566L36.2999 18.6197C35.9675 18.7526 35.6869 18.8486 35.4579 18.9003L35.2659 18.9446C35.1551 18.9742 35.0665 18.9299 35.0222 18.8117L36.3737 18.5015L36.8168 18.2947L36.9646 18.4646C36.7504 18.5089 36.5953 18.5754 36.5066 18.6566ZM37.548 18.3243L37.5258 18.2282C37.5923 18.2135 37.6809 18.1618 37.777 18.0658L38.7371 17.8442L38.7592 17.9402C38.2496 18.0658 37.8434 18.1913 37.548 18.3243ZM37.6957 16.3819C37.6292 16.3966 37.5406 16.4557 37.4298 16.5443C37.4151 16.4779 37.2821 16.4779 37.031 16.537C36.9867 16.3523 37.6957 16.0938 39.1654 15.7541L39.3722 15.7098L39.4165 15.887C38.3826 16.1898 37.8065 16.3597 37.6957 16.3819ZM40.2806 13.5901C40.1772 14.7644 39.7637 15.4291 39.0325 15.599L39.0103 15.503L38.3604 15.7541L38.0724 15.8206C37.9247 15.8575 37.7917 15.8501 37.6736 15.8132L37.6145 15.5547C37.5923 15.4587 38.5303 14.1588 40.4357 11.6625L40.6573 11.6994C40.7386 12.0392 40.613 12.6669 40.2806 13.5901ZM44.8523 9.67581L44.7637 9.68319L44.7489 9.49855L45.1329 9.46163L45.1403 9.55764C45.0739 9.57241 44.9778 9.60934 44.8523 9.67581ZM42.969 28.5901C42.7474 28.4867 42.548 28.4424 42.3781 28.4572L42.356 28.1765C42.3486 28.0805 42.4077 28.0141 42.5332 27.9771C42.6588 27.9624 42.7326 28.051 42.7474 28.243C43.065 27.8368 43.2422 27.63 43.2792 27.63L43.4786 27.7113C43.4047 28.2726 43.2349 28.568 42.969 28.5901ZM63.161 7.46753C63.065 7.47492 62.8804 7.1795 62.5923 6.58127L62.5775 6.39663C62.7622 6.38186 62.9542 6.6699 63.1462 7.26074L63.161 7.46753ZM62.8951 5.35528L62.8065 5.5473L60.0739 4.40254C61.8981 4.46163 62.8434 4.7792 62.8951 5.35528ZM51.3072 15.3036L50.9232 15.3405L50.9084 15.1559L51.2925 15.1189L51.3072 15.3036ZM50.9897 9.32869L51.0931 9.3213L51.1152 9.60195C51.0192 9.60934 50.901 9.74228 50.7607 10.0008L50.7459 9.81613C50.9158 9.60195 50.997 9.43947 50.9897 9.32869ZM50.1846 11.2489L50.2142 11.6108L50.1108 11.6182L50.0812 11.2563L50.1846 11.2489ZM49.7489 11.9358L49.9409 11.921C49.9188 12.2312 49.8375 12.3937 49.6972 12.4085L49.5938 12.4158C49.7046 12.209 49.7563 12.0466 49.7489 11.9358ZM49.4387 12.8811L49.5273 12.8737L49.5347 12.9698L49.3648 13.2652L49.1728 13.2799L49.1654 13.1839C49.3648 13.1692 49.4535 13.0658 49.4387 12.8811ZM49.1285 13.7378L49.062 14.2105L48.9734 14.2179L48.9365 13.7526L49.1285 13.7378ZM45.9749 22.6965C45.8493 23.3169 45.7164 23.6344 45.5761 23.6492L45.5687 23.568C45.5465 23.2578 45.6795 22.9624 45.9749 22.6965ZM45.3914 23.9446L45.3988 24.0259C45.4136 24.1588 45.3545 24.2327 45.2216 24.2401L45.2142 24.1441C45.2068 24.048 45.2659 23.9816 45.3914 23.9446ZM45.2289 26.5443L45.5244 26.5222L45.5318 26.6182C45.4653 26.6256 45.3619 26.6625 45.2437 26.729L45.0517 26.7438C45.0443 26.6404 45.1034 26.5739 45.2289 26.5443ZM53.5229 23.9816C51.8981 24.7866 50.9306 25.3331 50.6278 25.6138C48.8552 26.2342 47.9764 26.6182 47.9911 26.7733C46.418 27.4011 45.384 27.8516 44.8966 28.1396C44.7784 28.147 44.6086 28.1027 44.387 27.9993C44.3575 27.6817 44.5052 27.4232 44.8154 27.2312C45.096 27.209 45.3619 27.246 45.6056 27.3494C45.901 27.2017 46.4106 27.0392 47.1344 26.8545L47.1196 26.6699L46.5214 26.7216C46.5953 26.6182 47.164 26.3523 48.2201 25.924L48.5155 25.9018L48.5229 25.983C48.0207 26.0274 47.74 26.1751 47.6809 26.4409C47.6883 26.5591 47.7622 26.6182 47.8877 26.6034C48.257 26.3597 48.4343 26.2194 48.4343 26.1751C49.1433 26.0495 51.1078 25.0155 54.3353 23.0805L54.3501 23.2652C54.3501 23.339 54.0768 23.5754 53.5229 23.9816ZM48.5746 25.6064C49.0547 25.5621 49.4609 25.3774 49.8006 25.0525C49.9261 25.0451 50 25.0968 50.0074 25.215C49.7858 25.2371 49.3501 25.4217 48.6928 25.7762L48.5894 25.7836L48.5746 25.6064ZM56.5657 19.469L54.1063 21.4483C52.2674 22.6522 51.2703 23.2578 51.1152 23.2726C48.1905 24.8826 46.3737 25.7172 45.6573 25.7762L45.5539 25.7836C45.6425 25.4513 46.9498 22.7851 49.4756 17.7777C50.5761 17.6817 52.3191 17.1573 54.712 16.212L55.3102 16.1603C56.514 16.0569 57.4151 16.2932 58.0059 16.8619L58.0354 17.2238C57.5849 18.4941 57.0975 19.2401 56.5657 19.469ZM51.7356 16.7511L52.1196 16.7142L52.127 16.8102L51.743 16.8472L51.7356 16.7511ZM57.3264 15.7984L57.6219 15.7762C57.8951 15.9092 58.0354 16.0274 58.0428 16.1234L58.0502 16.2046C57.7917 16.2268 57.548 16.0938 57.3264 15.7984ZM58.1019 11.3006C57.8434 11.6108 57.1418 12.1426 55.997 12.8811C55.613 12.9181 54.195 13.4646 51.743 14.5281C51.6248 14.4838 51.4919 14.469 51.3516 14.4764L51.3368 14.2918C51.3072 13.9373 51.4623 13.4941 51.8021 12.955C51.9941 11.9358 52.2083 11.3671 52.4298 11.2342L54.4904 6.62559C54.4682 6.35232 54.904 6.13075 55.7902 5.96089L56.0857 5.93873L56.1078 6.21938C56.9793 6.07906 57.5258 5.99782 57.7474 5.97566C59.3722 5.83533 60.2216 6.1603 60.288 6.95793L60.4801 6.94316L60.4431 6.50003L60.6352 6.48526C61.1078 6.74375 61.3589 7.05395 61.3885 7.42322C61.4106 7.6891 61.2777 8.01406 60.997 8.39073C60.8715 8.4055 60.7976 8.31687 60.7829 8.12485L60.5908 8.13962L60.5318 8.69353C59.712 9.94169 59.1137 10.5842 58.7371 10.6138C58.4047 11.0643 58.1979 11.2932 58.1019 11.3006ZM58.966 14.373L58.9439 14.0924L59.1359 14.0776L59.5495 14.3287C59.5569 14.4469 59.4978 14.5133 59.3722 14.5281C59.195 14.4173 59.062 14.3656 58.966 14.373ZM24.5864 32.3124L24.3944 32.3568L24.2319 32.4971C24.2614 32.6152 24.3353 32.6596 24.4609 32.63C24.5864 32.6005 24.6381 32.5266 24.6086 32.4084L24.5864 32.3124ZM23.8552 30.8575L23.8774 30.9535C24.003 30.924 24.0547 30.8501 24.0251 30.7319L24.003 30.6359C23.8848 30.6655 23.8331 30.7393 23.8552 30.8575ZM29.0842 21.0347L29.2245 20.9461C29.195 20.9461 29.1728 20.9387 29.1507 20.9313C29.099 20.9461 29.0768 20.983 29.0842 21.0347ZM29.0546 18.4867L29.2762 18.435L29.2319 18.243L29.0103 18.2947L29.0546 18.4867ZM81.2482 25.9461L80.7459 25.887L80.6573 26.0791L80.6647 26.1751L83.6558 25.924L83.6411 25.7393L81.2482 25.9461ZM83.9808 25.7172L83.9956 25.9018H84.0251L84.0103 25.7172H83.9808ZM96.5288 24.0776L96.5436 24.2622L96.8685 24.3213L96.8538 24.1367L96.5288 24.0776ZM96.0709 24.1145C93.8257 24.6167 93.5451 24.5281 93.0724 24.565L93.0872 24.7497L93.294 24.7349L93.4047 24.7275L93.3752 24.7053L93.6189 24.6093C95.842 24.3656 96.1004 24.4542 96.0783 24.2031L96.0709 24.1145ZM82.5923 20.8501L82.3929 20.7836C82.2304 21.2194 82.1492 21.4779 82.1566 21.5517L82.164 21.633C82.3191 21.6256 82.4594 21.3597 82.5923 20.8501ZM79.8892 19.3952L79.8818 19.2991L79.7784 19.3065L79.5938 19.4247L79.6972 19.602C79.8375 19.5872 79.904 19.5207 79.8892 19.3952ZM85.7607 25.4661L85.7459 25.2814L85.6869 25.2888L85.7016 25.4734L85.7607 25.4661ZM97.9468 22.7186L98.0872 22.7039C98.1684 22.6965 98.2053 22.63 98.1979 22.5118L98.1167 22.3346C97.6071 22.3789 97.3708 22.4011 96.9572 22.63L96.9498 22.534L96.3368 22.5931C96.322 22.4085 96.2703 22.3124 96.1891 22.3198L95.8715 22.3494C95.5022 22.3789 95.325 22.3641 95.1403 22.5045C95.1329 22.438 95.1108 22.4085 95.0739 22.4085L94.7194 22.438L94.5126 22.5562C94.5052 22.4897 94.483 22.4601 94.4461 22.4601L94.3205 22.5709L94.3131 22.4749L93.8183 22.438L93.7001 22.4454L93.7149 22.63L93.966 22.6965L94.2024 22.6817C94.2836 22.7334 94.3722 22.7482 94.4756 22.7408L94.6824 22.6374L94.6898 22.7186C93.5303 23.0067 93.5377 22.955 92.74 23.0879C92.6514 23.0288 92.5849 22.9993 92.5406 23.0067L92.5259 23.0215C92.4372 23.0141 92.3855 22.955 92.3781 22.859L92.7917 22.8073C92.8213 22.8073 92.8434 22.8368 93.0724 22.8811C93.4047 22.7186 93.4195 22.6522 93.5968 22.6374L93.582 22.4528C92.4446 22.6743 92.9025 22.5266 91.4771 22.6522L91.4106 22.6596L91.3959 22.4749C93.2275 22.2534 92.6145 22.3789 93.2422 22.2017C93.2496 22.2681 93.2718 22.2977 93.3087 22.2977C93.3826 22.2238 93.4638 22.1869 93.5598 22.1721L93.6854 22.1647C94.3279 22.113 94.5421 22.2386 95.8124 21.8841L95.8198 21.9653L96.0266 21.8619L96.2186 21.8472C96.2038 21.6625 96.4845 21.633 96.5805 21.6256L96.5657 21.4262C94.3353 21.8767 93.7518 21.7511 93.1315 21.9284L93.1241 21.8472C92.5406 21.9505 92.5185 21.9062 92.3708 21.9136C92.3264 21.921 92.26 21.9579 92.1861 22.0318C92.1787 21.9653 92.1566 21.9358 92.1123 21.9358C92.0901 21.9358 92.0827 21.9432 92.0753 21.9432L90.1846 22.2534C90.1773 22.2017 90.1551 22.1721 90.1108 22.1795C89.1285 22.3863 89.3944 22.4232 88.0798 22.5414C88.0207 22.5488 87.9394 22.5783 87.836 22.6448C87.8287 22.5931 87.7991 22.5635 87.7326 22.5709L86.9276 22.6374L86.3885 22.7703C86.3811 22.7186 86.3516 22.6891 86.2851 22.6965C85.9823 22.7777 85.7164 22.8294 85.5022 22.8442H85.4874C85.3545 22.859 85.5539 22.8073 85.4505 22.763L85.288 22.859C85.0517 22.8811 85.1773 22.8442 84.3648 22.8516C82.9394 23.0288 83.0945 23.051 82.9394 23.0584L82.4077 23.0215C82.4151 23.0731 82.3855 23.1101 82.3264 23.1101C81.7208 23.0288 81.4106 22.9328 81.4033 22.822C81.4845 22.246 81.6248 21.9505 81.8242 21.9358L81.9276 21.9284L81.839 22.1204L81.9424 22.113C82.1344 22.0096 82.223 21.9136 82.2157 21.825L82.2009 21.6256L82.0089 21.6404L81.9941 21.4557C81.9793 21.3154 82.0015 21.1898 82.0532 21.0864L82.4889 20.3848L82.5037 20.5695L82.7105 20.5547L82.6957 20.37L82.5776 20.2002C82.7327 20.0672 82.8508 19.9934 82.9468 19.986L82.9394 19.89L82.6588 19.9121L82.6366 19.6315C83.1979 18.4646 83.4638 17.7851 83.449 17.5931L83.6485 17.6743C83.774 17.6669 83.8331 17.5931 83.8257 17.4601L83.6337 17.4749L83.6263 17.3937C83.6115 17.2534 83.6411 17.1204 83.7001 17.0022C84.003 16.6847 84.1433 16.3671 84.1137 16.0347C84.1728 16.0274 84.2024 16.0569 84.2098 16.1234C84.4682 15.9757 84.6677 15.5842 84.8154 14.9343C85.2733 14.1071 85.9232 12.4528 86.7725 9.97861C88.3973 5.60638 88.3309 5.14109 88.5598 4.10712L88.3678 4.12189C88.3826 4.25483 88.353 4.38039 88.2939 4.49855C88.161 4.44686 88.0576 4.41731 87.9838 4.4247L87.9764 4.34346C87.9468 3.9668 88.1019 3.51628 88.4564 2.98452L88.5451 2.97714L88.7075 3.61229L88.8996 3.59752C88.8922 3.55321 88.9439 3.3021 89.0473 2.83681C89.0399 2.7408 88.966 2.68172 88.8183 2.67433L88.6337 2.7925C88.6189 2.65956 88.6263 2.31244 88.6485 1.75852L88.5524 1.76591C88.39 1.60343 88.3087 1.47049 88.3013 1.35971L87.2452 1.4631C87.2378 1.38925 87.2009 1.27847 87.127 1.13814C87.1197 1.04213 87.356 0.946117 87.8434 0.850105L88.0576 0.931346L88.257 0.813178C88.2644 0.879648 88.3013 0.909189 88.3752 0.901804L88.5746 0.783636C88.582 0.850105 88.6189 0.879647 88.6928 0.872262L88.7888 0.864876L88.774 0.650696C88.6263 0.665467 88.2349 0.665467 87.6145 0.643311L87.4151 0.77625L87.4077 0.658081C82.452 1.06429 79.6381 1.29324 78.966 1.35971C78.8774 1.36709 78.5303 1.35971 77.9173 1.34494C77.9247 1.42618 77.8508 1.47049 77.7031 1.48526L77.4889 1.38925L76.7651 1.57389C76.5953 1.58866 76.3072 1.58127 75.9084 1.53696C75.7976 1.62559 75.6647 1.67728 75.5022 1.69205C75.4136 1.69944 76.5583 1.63297 77.6219 1.55912C77.5111 1.64774 77.3412 1.69944 77.1049 1.7216C76.9424 1.73637 76.8021 1.71421 76.6839 1.64774C76.5214 1.7216 75.997 1.83977 75.1182 2.01702L74.904 1.93578L71.4476 2.46753C71.3146 2.40107 71.1595 2.37891 70.9823 2.39368C70.7976 2.40845 70.4874 2.47492 70.0591 2.59309L68.39 3.28733L68.5155 3.49412C68.5967 3.48674 68.7149 3.44242 68.8552 3.36118L69.4461 3.41288L69.3722 3.9668C68.8257 4.21052 68.5081 4.57241 68.4195 5.03031C67.5997 5.3922 67.1935 5.6507 67.1935 5.80579L67.2009 5.9018L67.3264 5.89442L67.548 5.77625L67.8065 6.08644L67.8434 6.5148C67.8582 6.64774 66.4771 9.55025 63.7149 15.2223C61.322 20.6876 60.0665 23.6788 59.9483 24.2179C59.1285 24.4469 58.6558 24.7792 58.5155 25.2223C58.5303 25.3627 58.774 25.4587 59.2467 25.4956L59.2688 25.7098L59.0546 26.0643L59.0916 26.4926C59.1137 26.7142 59.712 26.8841 60.8863 27.0022C60.8789 26.9284 60.9158 26.8841 60.997 26.8767C61.0192 27.1426 60.9453 27.6596 60.7755 28.4277L60.901 28.4203C61.3885 27.7556 61.6174 27.2977 61.5953 27.0466L61.6987 27.0392C61.8168 27.0318 61.9424 27.1647 62.0901 27.4528C61.9424 27.5118 61.4254 28.6861 60.5391 30.983L60.6647 31.1898L60.7902 31.1825C61.8759 28.435 62.5554 26.9136 62.836 26.6256C64.2614 26.5 66.7282 26.2489 70.229 25.8723L70.4505 25.7393C70.4579 25.8132 70.5022 25.8501 70.5835 25.8427L70.8124 25.8206L71.034 25.6876C71.0414 25.7615 71.0857 25.7984 71.1669 25.791L73.8183 25.5621C74.5199 25.503 74.8523 25.2888 74.8227 24.9269C74.8154 24.8309 75.229 24.7201 76.0635 24.602C76.1448 24.5946 76.2629 24.6167 76.4254 24.6684C76.418 24.602 76.839 24.5355 77.6809 24.4616C77.7031 24.0185 77.8434 23.7822 78.0945 23.76L78.0724 23.5458C77.8361 23.568 77.5702 23.6271 77.26 23.7305C76.7061 23.7009 76.3516 23.6566 76.2038 23.6049C76.0561 23.6861 75.9454 23.7305 75.8641 23.7378L74.0177 23.7969L73.7962 23.9151C73.7888 23.8486 73.7445 23.8191 73.6632 23.8265L73.5598 23.8339L73.3235 23.952C73.3161 23.8856 73.1241 23.8339 72.74 23.7822L72.5037 23.9225L72.0458 23.9594L72.0384 23.8412C74.4165 23.5828 75.5908 23.2578 75.5613 22.8737C75.7164 22.859 75.7976 22.9328 75.8124 23.0879L76.5066 22.9107L76.4845 22.6965L70.7902 22.8516C70.7976 22.9254 70.7607 22.9697 70.6795 22.9771L69.9852 22.9181C69.808 22.9328 69.6603 22.9845 69.5421 23.0731L69.2836 22.9771C68.5672 23.0362 68.0354 23.1248 67.6809 23.2356C67.1935 23.1987 66.6544 23.2061 66.0561 23.2578L64.7784 23.3686L64.1876 23.3021C64.1581 22.9254 64.8892 21.0717 66.3959 17.7482C66.8316 16.6256 67.2304 15.924 67.6145 15.6581C67.6957 15.6507 67.8139 15.6802 67.9764 15.7467L68.8848 15.4365L69.3501 15.5104C70.1329 15.4439 71.0414 15.2223 72.0827 14.8383C72.3412 14.8161 72.5332 14.8309 72.6736 14.89L73.3678 14.7275L75.4357 14.5503C76.3146 14.4764 77.2674 14.2844 78.3013 13.9668L78.2792 13.7526C77.8951 13.7895 77.6957 13.7231 77.6809 13.568C77.6588 13.2799 77.3781 13.1618 76.839 13.2061L76.8168 12.9919L77.3855 12.8294L78.8774 12.7039L78.8552 12.4897C78.7962 12.4971 78.4934 12.4897 77.9321 12.4675L77.9099 12.2386L78.486 12.1869C78.6411 12.1721 78.7075 12.0983 78.6928 11.9505C77.9173 11.9727 77.5259 11.9358 77.5185 11.8324C72.1123 12.0983 69.4018 12.15 69.387 11.9801C69.3058 11.9875 69.195 12.0392 69.0473 12.1278L68.9069 11.9062C70.3397 8.8634 71.1817 7.32721 71.4254 7.30505C71.4328 7.42322 71.3737 7.61524 71.2482 7.87374L71.2555 7.96975L71.4845 7.94759C72.0532 6.58866 72.5332 5.88703 72.932 5.85749C74.6307 5.70978 72.6957 5.599 76.3294 5.03031C76.4771 5.09678 76.5805 5.12632 76.6544 5.11894C78.0798 4.8309 80.0665 4.5281 82.6145 4.2179L82.5997 4.00372L81.2408 4.12928L81.226 3.9151C81.3885 3.90033 81.5214 3.84863 81.6322 3.76L81.6396 3.87817C81.7134 3.87078 81.8168 3.81909 81.9498 3.73046C82.1861 3.7083 82.3634 3.73046 82.4889 3.79693C82.9616 3.67138 83.3456 3.59752 83.6263 3.56798L84.4756 3.48674C84.6824 3.3538 84.7784 3.23563 84.771 3.12485L84.7637 3.02884C84.5495 3.05099 84.3058 3.03622 84.0177 2.98452C84.0103 2.86635 84.0694 2.78511 84.2098 2.74818L85.7903 2.60047L86.514 2.41584C86.5214 2.49708 86.5583 2.52662 86.6174 2.52662C86.6913 2.51923 86.7947 2.46754 86.9276 2.37891C86.9645 2.38629 87.0089 2.38629 87.0458 2.39368C86.9498 2.59309 86.839 2.88112 86.7282 3.25779L86.5214 3.27256C86.5066 3.13223 86.4697 3.00668 86.4033 2.8959L86.2999 2.90328C84.3796 8.2504 83.5229 10.7393 81.7504 14.8457C81.4254 15.8944 81.1521 16.4779 80.9158 16.6034C80.9232 16.7216 80.997 16.7807 81.1226 16.7659C81.1669 17.2829 81.0487 17.7925 80.7607 18.2947C79.9409 20.6581 79.3944 21.9506 79.1137 22.1869L79.2984 23.3021C79.3058 23.4203 79.2467 23.4867 79.1211 23.5015L78.9291 23.5163C78.8996 23.2061 78.7888 23.0584 78.5894 23.0805L78.486 23.0879C78.2349 23.4794 78.0428 23.9299 77.9173 24.4542L78.1093 24.4395C78.3678 24.2696 78.486 24.0702 78.4638 23.8412L78.8479 23.8043L79.0694 23.8856C78.8922 24.1662 78.8109 24.3878 78.8257 24.5576L78.9291 24.7349L78.678 25.3257L78.6854 25.4217C78.9069 25.3996 79.1507 25.4734 79.4092 25.6285C79.5864 25.6138 79.7784 25.5325 79.9926 25.3922C80.2142 25.37 81.0414 25.3627 82.4668 25.3627L83.1832 25.1189C84.0547 25.1116 84.195 25.1337 84.9483 25.0672L85.2585 25.0377L85.421 24.9269L85.4284 25.0229C86.2186 24.9565 86.2703 25.0082 86.8907 25.082L86.8981 25.178L86.4623 25.215L86.4771 25.3996C86.61 25.3848 86.7282 25.3479 86.8242 25.2666C86.935 25.2593 87.0015 25.3183 87.0089 25.4513C86.8316 25.4661 86.6322 25.5104 86.4106 25.5842L86.2186 25.5178C85.9158 25.599 85.9823 25.6212 85.7755 25.6359L85.4727 25.5768C85.4801 25.6285 85.4505 25.6655 85.3988 25.6655C85.4062 25.7836 85.4727 25.8427 85.5835 25.8353L85.8936 25.8058L87.5111 25.6655L88.1241 25.5325C88.1315 25.5842 88.1536 25.6138 88.2053 25.6064L88.5007 25.4956L89.0547 25.4513C89.483 25.4144 89.4756 25.3848 90.4062 25.2371C90.3988 25.178 90.421 25.1559 90.4653 25.1485L90.4727 25.2297C91.9867 24.9712 92.0827 24.9565 92.3264 24.8752L92.3486 24.9195C92.7253 24.8309 92.5111 24.8531 92.6145 24.7792C92.6219 24.8457 92.644 24.8752 92.6809 24.8752L92.9468 24.8531L92.9321 24.6537L92.3929 24.6463L92.3855 24.6315C92.3634 24.6389 92.3486 24.6389 92.3264 24.6463H92.2526V24.661C91.8907 24.7349 91.8833 24.6832 91.647 24.7053L90.2954 24.7792L90.288 24.6832L91.0414 24.5798L91.3146 24.5576L91.4697 24.4469L91.4771 24.5429C92.5406 24.4542 92.9173 24.7201 97.836 23.6714C98.1019 23.6492 98.0798 23.4277 98.2496 22.9697C98.161 22.9771 98.0724 22.955 97.9911 22.9107C97.5849 23.0658 97.3708 22.9919 96.5879 23.1175C96.5214 23.1248 96.4697 23.0658 96.4476 22.9476L96.4402 22.8664L97.1935 22.8885C97.3338 22.8737 97.6071 22.8516 98.0133 22.6226C98.0133 22.6891 97.8582 22.726 97.9468 22.7186ZM61.5805 23.3021L61.2334 23.3316C61.2186 23.1913 61.4032 22.6596 61.7873 21.7511L62.0163 21.729C62.0236 21.9432 61.8833 22.4675 61.5805 23.3021ZM62.0015 21.6182L61.9941 21.5222C61.9867 21.404 62.0606 21.3228 62.223 21.2859L62.2304 21.3819C62.2378 21.5222 62.164 21.6034 62.0015 21.6182ZM66.6174 25.1854L66.6248 25.2814L66.0487 25.3331L66.0414 25.2371L66.6174 25.1854ZM65.9232 25.1263C65.9306 25.2445 65.7533 25.3774 65.3693 25.5104L64.6603 25.4587L64.4313 25.4808L64.4092 25.2666L65.9232 25.1263ZM70.5908 3.64183L70.2437 3.67138L70.2363 3.55321C70.2289 3.43504 70.2954 3.3538 70.4431 3.31687L70.5687 3.30949L70.805 3.4055C70.8124 3.54582 70.7459 3.62706 70.5908 3.64183ZM75.8715 2.60786L75.9823 2.60047L75.997 2.81465L75.6795 2.8442C75.6721 2.72603 75.7312 2.64479 75.8715 2.60786ZM74.5421 3.07315L74.0177 3.01406L74.0103 2.91805C74.6972 2.85897 74.9261 2.78511 75.3471 2.66694C75.3545 2.74818 75.4284 2.77773 75.5613 2.76296L75.5761 2.97714L75.3693 2.99929C75.2068 3.01406 75.0665 2.99191 74.9483 2.92544C74.8227 3.00668 74.6898 3.05838 74.5421 3.07315ZM75.1994 4.986L75.192 4.88999L76.0414 4.80875L76.0488 4.90476L75.1994 4.986ZM76.1078 4.24745L76.1004 4.12928L76.514 4.09235L76.5214 4.21052L76.1078 4.24745ZM76.2038 2.79988L76.0931 2.80727L76.1891 2.57832L77.1344 2.48969L77.1418 2.60786C76.8981 2.63002 76.5805 2.69649 76.2038 2.79988ZM76.6839 4.83829L76.6691 4.62411L77.0827 4.58718C77.223 4.57241 77.2969 4.63888 77.3043 4.78659L76.6839 4.83829ZM79.1876 1.42618L78.6558 1.57389L78.5598 1.58127C78.3087 1.60343 77.9838 1.59604 77.5997 1.55912C78.2866 1.5148 78.9439 1.4631 79.1876 1.42618ZM78.6189 3.78954L78.6263 3.88556L77.8951 3.95203L77.8877 3.85601L78.6189 3.78954ZM79.8154 4.35823C79.808 4.2696 79.6677 4.21052 79.3796 4.18098L78.6485 4.38777L78.0872 4.40993C77.9616 4.3213 77.8951 4.26222 77.8877 4.2179L78.5377 4.25483L80 4.01849L80.7459 4.04804L80.7533 4.16621C80.384 4.20313 80.0739 4.2696 79.8154 4.35823ZM87.3412 2.41584C87.4298 2.42322 87.4889 2.42322 87.5111 2.42322C87.7696 2.17211 88.0576 1.9727 88.39 1.83238C88.1241 2.99929 87.7105 3.8634 87.1418 4.4247L86.7282 4.17359C87.0753 3.29471 87.2821 2.71126 87.3412 2.41584ZM86.0709 4.59457L86.1743 4.58718C86.034 4.85306 85.9084 4.99338 85.805 5.00077L85.7829 4.72012C85.8493 4.72012 85.9454 4.67581 86.0709 4.59457ZM85.2511 6.55173C85.4505 5.75409 85.6425 5.30358 85.8198 5.18541L85.8272 5.28142C85.7238 6.01997 85.5613 6.41141 85.3471 6.44095L85.3841 6.90624C85.2068 7.15734 85.1256 7.34937 85.1329 7.49708L85.0295 7.50446L84.9705 6.86192C85.0886 6.84715 85.1846 6.74375 85.2511 6.55173ZM84.9335 7.61524C84.9409 7.72603 84.8671 7.98452 84.7194 8.38334L84.616 8.39073L84.5938 8.11008C84.7341 7.78511 84.8523 7.62263 84.9335 7.61524ZM78.9734 24.9121L78.966 24.8309L79.1581 24.8161L79.1802 25.0968C79.0768 25.1042 79.003 25.0451 78.9734 24.9121ZM87.4889 25.1337C87.4815 25.0672 87.452 25.0377 87.3855 25.0451L86.9055 25.0894L86.8981 24.9934H86.9424L88.0798 24.8974L88.0872 24.9934C87.7548 25.0082 87.5554 25.0599 87.4889 25.1337ZM86.9202 24.8974C86.9646 24.9195 86.9424 24.9417 86.9202 24.9565C86.8981 24.9491 86.8685 24.9269 86.9202 24.8974ZM86.9793 23.568L86.3442 23.6197L86.3368 23.5237L86.9129 23.472L87.4151 23.3464C87.4225 23.4055 87.452 23.4277 87.5185 23.4203C88.1167 23.3169 88.0576 23.2873 88.3456 23.2652C88.4417 23.2578 88.5007 23.3169 88.5081 23.435L86.9793 23.568ZM89.2024 23.376C88.8479 23.339 88.8257 23.3095 88.5746 23.3316L88.5672 23.2504L89.1359 23.1987L89.1433 23.2799C89.0842 23.2873 89.2984 23.3021 89.2024 23.376ZM89.2467 23.2726L89.2393 23.1913L89.5495 23.1618L89.5569 23.243L89.2467 23.2726ZM89.9335 23.2135L89.9262 23.1322C89.9779 23.1248 90.0517 23.0879 90.1477 23.0141C90.3028 22.9993 90.384 23.1027 90.3988 23.2209L89.9335 23.2135ZM90.8124 23.1027L90.805 23.0067L91.1817 22.9771L91.1891 23.0731L90.8124 23.1027ZM91.3368 23.0584C91.3294 22.9476 91.3737 22.8811 91.4697 22.8664L91.5953 23.0288C91.5879 22.9771 91.61 22.9476 91.6544 22.9402L91.7504 23.1175L91.3368 23.0584ZM98.6041 22.2017L98.6115 22.1943V22.1869C98.6115 22.1869 98.6041 22.1943 98.6041 22.2017ZM98.7371 22.1056C98.7962 22.0687 98.8257 22.0318 98.6854 22.0096C98.6189 22.0835 98.7592 22.1056 98.6115 22.113L98.6189 22.1795C98.6337 22.1647 98.6706 22.1426 98.7001 22.1204L98.6189 22.1869V22.1943L98.4638 22.3937L98.774 22.2829H98.8109L98.7962 22.0983L98.7371 22.1056ZM99.2762 22.5266L99.2171 22.534L99.2319 22.7186L99.6676 22.6817C99.6603 22.5635 99.3722 22.5266 99.2762 22.5266Z" fill="#F9DC3E"/>
</svg>
