<svg xmlns="http://www.w3.org/2000/svg" width="100" height="100" viewBox="0 0 100 114" fill="none">
	<path d="M9.10056 102.484L0 0.40979H100L90.8897 102.468L49.9389 113.821L9.10056 102.484Z" fill="#264DE4"/>
	<path d="M83.0903 95.9691L90.8757 8.75574H50V105.143L83.0903 95.9691Z" fill="#2965F1"/>
	<path d="M20.8631 46.6136L21.985 59.1324H49.9999V46.6136H20.8631ZM19.7465 33.794H49.9999V21.2749H18.6084L19.7465 33.794ZM49.9999 79.1266L49.945 79.1412L36.0026 75.3765L35.1114 65.3919H22.5441L24.2982 85.0486L49.9424 92.1678L49.9999 92.1516V79.1266Z" fill="#EBEBEB"/>
	<path d="M49.9569 46.6136V59.1324H65.3726L63.9195 75.3685L49.9569 79.137V92.1615L75.6214 85.0486L75.8097 82.9334L78.7513 49.9752L79.057 46.6136L81.317 21.2749H49.9569V33.794H67.5974L66.458 46.6136H49.9569Z" fill="#F5F5F5"/>
</svg>
