<svg xmlns="http://www.w3.org/2000/svg" width="100" height="100" viewBox="0 0 100 42" fill="none">
    <g clip-path="url(#clip0_572_3579)">
        <path d="M0.912819 26.3287C0.439152 24.6014 0.197998 22.8074 0.197998 21.0004C0.197998 12.7515 5.37175 5.20905 13.0732 2.23474L14.0829 4.85155C7.45373 7.41236 3.00126 13.9016 3.00126 21.0004C3.00126 22.5575 3.20793 24.0996 3.61485 25.5857L0.912819 26.3287Z" fill="#69D3A7"/>
        <path d="M35.7295 13.0315C32.7324 7.27027 26.8332 3.69073 20.3375 3.69073C18.0359 3.69073 15.7989 4.13441 13.6932 5.00668L12.6189 2.41571C15.0669 1.4013 17.6634 0.884399 20.3375 0.884399C27.8839 0.884399 34.735 5.04113 38.2163 11.735L35.7295 13.0315Z" fill="url(#paint0_linear_572_3579)"/>
        <path d="M14.3244 16.8504C15.95 16.8504 17.2741 17.7183 17.9544 19.2324L18.0082 19.3508L20.7383 18.4226L20.6801 18.2826C19.623 15.7046 17.188 14.1022 14.3244 14.1022C12.3113 14.1022 10.675 14.7483 9.32289 16.075C7.97942 17.3931 7.29907 19.0515 7.29907 21.0049C7.29907 22.9412 7.97942 24.5909 9.32289 25.909C10.675 27.2357 12.3113 27.8819 14.3244 27.8819C17.188 27.8819 19.623 26.2795 20.6801 23.7036L20.7383 23.5636L18.0039 22.6332L17.9523 22.7559C17.343 24.2442 15.9866 25.1337 14.3244 25.1337C13.1919 25.1337 12.236 24.7374 11.4781 23.9577C10.7116 23.1673 10.3241 22.1744 10.3241 21.0071C10.3241 19.8311 10.703 18.8577 11.4781 18.0306C12.2338 17.2467 13.1919 16.8504 14.3244 16.8504Z" fill="#F5F5F5"/>
        <path d="M47.9655 16.0772C46.706 14.7677 45.1342 14.1022 43.2911 14.1022C41.4612 14.1022 39.954 14.7548 38.8086 16.0406V14.3563H35.8589V32.7084H38.8086V25.9435C39.954 27.2293 41.4589 27.8819 43.2911 27.8819C45.1342 27.8819 46.708 27.2163 47.9675 25.9047C49.2077 24.5866 49.8342 22.939 49.8342 21.0049C49.8322 19.0515 49.2054 17.3952 47.9655 16.0772ZM45.6531 23.9534C44.8974 24.7352 43.9393 25.1294 42.8089 25.1294C41.6615 25.1294 40.7313 24.7438 39.9626 23.9534C39.1962 23.163 38.8086 22.1701 38.8086 21.0028C38.8086 19.801 39.1853 18.8275 39.9626 18.0263C40.729 17.2337 41.6592 16.8504 42.8089 16.8504C43.9414 16.8504 44.8974 17.2467 45.6531 18.0263C46.4132 18.8103 46.7813 19.7838 46.7813 21.0028C46.7813 22.2046 46.4109 23.1695 45.6531 23.9534Z" fill="#F5F5F5"/>
        <path d="M54.6353 15.9371V14.3563H51.6855V27.6255H54.6353V20.1391C54.6353 18.9395 55.1174 18.022 56.0692 17.4125C57.0143 16.8073 58.1491 16.6953 59.5378 17.0743L59.7163 17.1239V14.2852L59.6065 14.2594C57.7422 13.8136 55.8712 14.4554 54.6353 15.9371Z" fill="#F5F5F5"/>
        <path d="M67.3683 14.1022C65.4243 14.1022 63.7749 14.7655 62.466 16.075C61.1396 17.4017 60.468 19.0601 60.468 21.0049C60.468 22.9412 61.1482 24.5909 62.4919 25.909C63.8439 27.2357 65.4801 27.8819 67.4933 27.8819C70.2212 27.8819 72.5657 26.4948 73.7672 24.171L73.8361 24.0374L71.3407 22.9304L71.2804 23.0488C70.5571 24.4488 69.1683 25.2844 67.5709 25.2844C65.4953 25.2844 63.9062 24.0159 63.4758 22.0366H74.1764L74.1893 21.9095C74.4217 19.7687 73.8706 17.9121 72.5551 16.3895C71.2459 14.8711 69.4999 14.1022 67.3683 14.1022ZM63.564 19.6675C64.0873 17.8562 65.5643 16.6974 67.3683 16.6974C69.222 16.6974 70.6991 17.8562 71.1772 19.6675H63.564Z" fill="#F5F5F5"/>
        <path d="M82.0693 19.7385C80.4613 19.437 79.0725 19.1742 79.0725 18.0543C79.0725 17.1648 80.0176 16.5445 81.3696 16.5445C82.8619 16.5445 83.68 17.1863 83.8716 18.5066L83.8932 18.6551L86.8426 18.037L86.8214 17.9035C86.4251 15.5581 84.3366 14.1 81.3719 14.1C79.8843 14.1 78.6245 14.4855 77.63 15.2458C76.6136 16.0017 76.0992 16.9882 76.0992 18.1813C76.0992 19.9086 77.1929 21.2052 79.0294 21.6489C79.5053 21.7609 80.009 21.8513 80.4955 21.9418C82.3236 22.2756 84.0504 22.5922 84.0504 23.8241C84.0504 24.7739 82.9478 25.4351 81.3719 25.4351C79.7679 25.4351 78.8831 24.7933 78.6656 23.4709L78.6418 23.3245L75.6943 23.9426L75.7179 24.0783C76.1463 26.4582 78.2587 27.8797 81.3696 27.8797C82.9501 27.8797 84.3044 27.4855 85.3895 26.7102C86.4745 25.9435 87.0237 24.9549 87.0237 23.7725C87.0237 20.6711 84.2785 20.1542 82.0693 19.7385Z" fill="#F5F5F5"/>
        <path d="M94.8477 19.7385C93.2393 19.437 91.8508 19.1742 91.8508 18.0543C91.8508 17.1648 92.7959 16.5445 94.1479 16.5445C95.6402 16.5445 96.4583 17.1863 96.65 18.5066L96.6712 18.6551L99.6209 18.037L99.5994 17.9035C99.2034 15.5581 97.1149 14.1 94.1502 14.1C92.6623 14.1 91.4028 14.4855 90.4083 15.2458C89.3919 16.0017 88.8773 16.9882 88.8773 18.1813C88.8773 19.9086 89.9712 21.2052 91.8077 21.6489C92.2836 21.7609 92.7873 21.8513 93.2738 21.9418C95.1017 22.2756 96.8284 22.5922 96.8284 23.8241C96.8284 24.7739 95.7261 25.4351 94.1502 25.4351C92.5462 25.4351 91.6612 24.7933 91.4439 23.4709L91.4201 23.3245L88.4727 23.9426L88.4962 24.0783C88.9247 26.4582 91.0367 27.8797 94.1479 27.8797C95.7284 27.8797 97.0827 27.4855 98.1678 26.7102C99.2528 25.9435 99.802 24.9549 99.802 23.7725C99.802 20.6711 97.0569 20.1542 94.8477 19.7385Z" fill="#F5F5F5"/>
        <path d="M31.4234 14.3558L27.5329 24.2135L23.6165 14.3558H20.4128L25.9052 27.8103L21.9975 37.2997L24.7986 37.8575L34.4507 14.3558H31.4234Z" fill="#F5F5F5"/>
        <path d="M22.499 36.0768L21.8164 37.7311C21.6808 38.0584 21.3708 38.2803 21.022 38.2952C20.7916 38.3038 20.5591 38.3104 20.3244 38.3104C12.2914 38.3061 5.18427 32.6351 3.42309 24.8214L0.688721 25.4395C1.67696 29.8225 4.15726 33.8004 7.67318 36.6435C11.23 39.5185 15.7105 41.1058 20.2942 41.1145C20.3007 41.1145 20.3351 41.1145 20.3351 41.1145C20.6043 41.1145 20.8713 41.1081 21.1382 41.0972C22.5765 41.0369 23.8618 40.1346 24.4109 38.7972L25.3022 36.6349L22.499 36.0768Z" fill="url(#paint1_linear_572_3579)"/>
    </g>
    <defs>
        <linearGradient id="paint0_linear_572_3579" x1="18.2419" y1="-0.414203" x2="33.5513" y2="15.927" gradientUnits="userSpaceOnUse">
            <stop offset="0.0939" stop-color="#58D09E"/>
            <stop offset="0.9883" stop-color="#58D09E" stop-opacity="0"/>
        </linearGradient>
        <linearGradient id="paint1_linear_572_3579" x1="-0.016332" y1="30.1533" x2="29.1955" y2="37.9179" gradientUnits="userSpaceOnUse">
            <stop offset="0.0774" stop-color="#58D09E"/>
            <stop offset="0.7617" stop-color="#1B1E2E"/>
        </linearGradient>
        <clipPath id="clip0_572_3579">
            <rect width="100" height="40.5172" fill="white" transform="translate(0 0.782227)"/>
        </clipPath>
    </defs>
</svg>
