<svg xmlns="http://www.w3.org/2000/svg" width="100" height="100" viewBox="0 0 100 38" fill="none">
	<path d="M7.5468 11.7471C7.35205 11.7471 7.30336 11.6498 7.40074 11.5037L8.42319 10.1891C8.52057 10.0431 8.76401 9.94568 8.95877 9.94568H26.3405C26.5353 9.94568 26.584 10.0917 26.4866 10.2378L25.6589 11.5037C25.5615 11.6498 25.3181 11.7958 25.172 11.7958L7.5468 11.7471Z" fill="#00ACD7"/>
	<path d="M0.194754 16.2266C4.06288e-07 16.2266 -0.0486885 16.1293 0.0486882 15.9832L1.07114 14.6686C1.16852 14.5225 1.41196 14.4252 1.60672 14.4252H23.8086C24.0034 14.4252 24.1008 14.5712 24.0521 14.7173L23.6626 15.8858C23.6139 16.0806 23.4191 16.178 23.2244 16.178L0.194754 16.2266Z" fill="#00ACD7"/>
	<path d="M11.9775 20.706C11.7827 20.706 11.734 20.5599 11.8314 20.4139L12.513 19.1967C12.6104 19.0506 12.8052 18.9045 12.9999 18.9045H22.7376C22.9324 18.9045 23.0297 19.0506 23.0297 19.2454L22.9324 20.4139C22.9324 20.6086 22.7376 20.7547 22.5915 20.7547L11.9775 20.706Z" fill="#00ACD7"/>
	<path d="M62.5161 10.8708C59.4487 11.6499 57.3551 12.2341 54.3364 13.0131C53.6061 13.2079 53.5574 13.2566 52.9244 12.5262C52.1941 11.6985 51.6585 11.163 50.6361 10.6761C47.5687 9.16675 44.5987 9.60495 41.8235 11.4064C38.5127 13.5487 36.8086 16.7135 36.8573 20.6572C36.906 24.5523 39.5838 27.7657 43.4302 28.3013C46.741 28.7395 49.5163 27.571 51.7072 25.0879C52.1454 24.5523 52.5349 23.968 53.0218 23.2864C51.269 23.2864 49.0781 23.2864 43.625 23.2864C42.6025 23.2864 42.3591 22.6534 42.6999 21.8257C43.3328 20.3164 44.5014 17.7846 45.183 16.5187C45.3291 16.2266 45.6699 15.7397 46.4002 15.7397C48.8833 15.7397 58.0367 15.7397 64.1228 15.7397C64.0254 17.0543 64.0254 18.3689 63.8306 19.6834C63.2951 23.189 61.9805 26.4024 59.8382 29.2264C56.3326 33.8518 51.7559 36.7244 45.962 37.5034C41.1905 38.1363 36.7599 37.2113 32.8648 34.29C29.2619 31.5634 27.217 27.9605 26.6814 23.4811C26.0485 18.1741 27.6065 13.4026 30.8199 9.21544C34.2768 4.68742 38.8535 1.8148 44.4527 0.792346C49.0294 -0.0353565 53.4113 0.500217 57.3551 3.17808C59.9356 4.88217 61.7857 7.21921 63.0029 10.0431C63.2951 10.4813 63.1003 10.7248 62.5161 10.8708Z" fill="#00ACD7"/>
	<path d="M78.6319 37.7955C74.2013 37.6981 70.1602 36.4322 66.752 33.5109C63.8793 31.0278 62.0779 27.8631 61.4936 24.114C60.6172 18.6123 62.1266 13.7434 65.4374 9.41015C68.9916 4.73607 73.2762 2.30165 79.0701 1.27919C84.0363 0.402798 88.7104 0.889682 92.9463 3.7623C96.7927 6.39147 99.1784 9.94573 99.8114 14.6198C100.639 21.1927 98.7402 26.5485 94.2122 31.1252C90.9988 34.3873 87.055 36.4322 82.527 37.3573C81.2124 37.6007 79.8978 37.6494 78.6319 37.7955ZM90.2198 18.1254C90.1711 17.4924 90.1711 17.0055 90.0737 16.5187C89.1973 11.6985 84.7667 8.97196 80.1413 10.0431C75.6133 11.0656 72.6919 13.9382 71.6208 18.5149C70.7444 22.3126 72.5946 26.159 76.1001 27.717C78.778 28.8855 81.4559 28.7394 84.0363 27.4249C87.8827 25.4286 89.9763 22.3126 90.2198 18.1254Z" fill="#00ACD7"/>
</svg>
