<svg xmlns="http://www.w3.org/2000/svg" width="100" height="100" viewBox="0 0 100 44" fill="none">
    <path d="M2.49864 2.0927V5.7961C2.77306 5.47201 3.08526 5.1819 3.4286 4.93198C3.7338 4.7171 4.07332 4.55569 4.43264 4.45465C4.81553 4.34703 5.21178 4.29438 5.6095 4.29828C6.18307 4.29439 6.74864 4.43295 7.25545 4.70154C7.65698 4.92592 8.00392 5.23632 8.27141 5.61052C8.53889 5.98471 8.72031 6.41344 8.80265 6.86598C8.86736 7.28802 8.89763 7.71464 8.89318 8.14159V12.9149C8.92325 13.3233 8.80001 13.7282 8.54753 14.0506C8.43421 14.1775 8.29438 14.2779 8.13794 14.3447C7.9815 14.4116 7.81228 14.4432 7.64225 14.4374C6.81927 14.4374 6.40778 13.9326 6.40778 12.9231V8.70122C6.44332 8.06697 6.32177 7.43375 6.0539 6.85775C5.91192 6.6348 5.71002 6.45634 5.47132 6.34281C5.23262 6.22928 4.96677 6.18527 4.70422 6.21582C4.27363 6.21102 3.85273 6.34363 3.50267 6.59439C3.13215 6.85139 2.84584 7.21215 2.67969 7.63135C2.5147 8.27882 2.44812 8.94743 2.48218 9.61473V12.9066C2.5125 13.3112 2.39234 13.7127 2.14476 14.0341C2.03258 14.163 1.89316 14.2652 1.73659 14.3336C1.58002 14.4019 1.41022 14.4345 1.23948 14.4291C0.416501 14.4291 0.00501119 13.9244 0.00501119 12.9149V2.0927C-0.0260123 1.68805 0.0877402 1.28554 0.325973 0.95699C0.440632 0.830594 0.582302 0.731664 0.740453 0.667548C0.898605 0.603433 1.06917 0.57578 1.23948 0.586649C1.41359 0.577106 1.58761 0.606928 1.74862 0.673893C1.90962 0.740858 2.05346 0.843247 2.16945 0.97345C2.4141 1.296 2.5313 1.69741 2.49864 2.10093V2.0927ZM17.6991 13.0383C17.1641 13.4657 16.5746 13.82 15.9461 14.0917C15.3445 14.3328 14.7013 14.453 14.0533 14.4456C13.4823 14.4522 12.918 14.3224 12.4073 14.067C11.9457 13.8351 11.558 13.4788 11.288 13.0383C11.0279 12.6152 10.891 12.1278 10.893 11.631C10.8789 10.9878 11.1115 10.3635 11.5432 9.88631C12.0168 9.38108 12.6398 9.04076 13.3208 8.91519L14.4977 8.6683C15.1231 8.54211 15.6718 8.42415 16.1436 8.31442C16.6155 8.20469 17.101 8.07576 17.6003 7.92762C17.6134 7.41653 17.476 6.91285 17.2053 6.47918C16.9981 6.29024 16.7492 6.15297 16.4789 6.0786C16.2086 6.00422 15.9245 5.99484 15.6498 6.05123C15.1582 6.02159 14.6668 6.11198 14.2179 6.31458C13.8785 6.51512 13.5954 6.79823 13.3949 7.13756C13.1644 7.4887 12.9998 7.72187 12.9011 7.83709C12.816 7.90467 12.7184 7.95474 12.6139 7.9844C12.5093 8.01406 12.4 8.02274 12.2921 8.00992C12.0251 8.01368 11.7665 7.91671 11.5679 7.73833C11.469 7.65291 11.3904 7.54656 11.3377 7.42699C11.2851 7.30742 11.2597 7.17763 11.2634 7.04703C11.2751 6.5818 11.44 6.13343 11.7325 5.77141C12.1166 5.30559 12.6201 4.95287 13.1891 4.75092C13.9788 4.45995 14.8169 4.32306 15.6581 4.34766C16.5361 4.31235 17.413 4.4436 18.2422 4.73446C18.8291 4.95441 19.3073 5.39422 19.5754 5.9607C19.8613 6.66823 19.9931 7.42852 19.9622 8.19097C19.9622 8.77803 19.9622 9.27182 19.9622 9.67233C19.9622 10.0783 19.9622 10.531 19.9622 11.0302C19.961 11.5063 20.0275 11.9802 20.1598 12.4375C20.2742 12.7653 20.3515 13.1048 20.3902 13.4498C20.3853 13.5859 20.3502 13.7192 20.2876 13.8402C20.225 13.9612 20.1364 14.0667 20.0281 14.1493C19.8028 14.3532 19.509 14.4649 19.2051 14.4621C18.9149 14.4459 18.6428 14.3157 18.448 14.1C18.1524 13.7759 17.8981 13.4166 17.6908 13.0301L17.6991 13.0383ZM17.5345 9.43367C17.0122 9.61113 16.4789 9.75409 15.9379 9.86162C15.2411 10.0098 14.7583 10.1195 14.4894 10.1908C14.2069 10.2695 13.9455 10.41 13.7241 10.6023C13.6067 10.7043 13.5134 10.8309 13.4508 10.9732C13.3882 11.1155 13.3578 11.2699 13.362 11.4253C13.36 11.6071 13.3973 11.7872 13.4711 11.9533C13.545 12.1194 13.6537 12.2678 13.7899 12.3882C14.1 12.6615 14.5045 12.8033 14.9174 12.7832C15.3921 12.7888 15.861 12.6786 16.2835 12.4622C16.6642 12.2833 16.9845 11.9973 17.2053 11.6393C17.4718 11.0574 17.5879 10.4178 17.5427 9.77932L17.5345 9.43367ZM24.752 5.67266V5.97716C25.1313 5.45024 25.6233 5.01448 26.1922 4.70154C26.7487 4.42362 27.3644 4.28522 27.9863 4.29828C28.6003 4.28751 29.2068 4.43488 29.7475 4.72623C30.2378 5.00641 30.6289 5.43204 30.8667 5.94424C31.0325 6.25134 31.1412 6.58594 31.1877 6.93182C31.2423 7.37957 31.267 7.83046 31.2617 8.2815V12.9231C31.2918 13.3315 31.1686 13.7364 30.9161 14.0588C30.8007 14.1809 30.6616 14.2781 30.5074 14.3445C30.3532 14.4109 30.187 14.4452 30.019 14.4452C29.8511 14.4452 29.6849 14.4109 29.5307 14.3445C29.3764 14.2781 29.2374 14.1809 29.122 14.0588C28.8715 13.7386 28.7484 13.3369 28.7763 12.9313V8.75883C28.825 8.11003 28.7207 7.45887 28.4718 6.85775C28.3304 6.62982 28.1264 6.44734 27.8842 6.33208C27.642 6.2168 27.3718 6.17359 27.1057 6.20759C26.6808 6.21517 26.2691 6.35625 25.9288 6.61085C25.5532 6.8766 25.2663 7.24945 25.1059 7.68073C24.9524 8.36351 24.8915 9.06384 24.9248 9.76286V12.8902C24.9526 13.2996 24.8263 13.7047 24.5709 14.0259C24.4558 14.15 24.3155 14.248 24.1593 14.3133C24.0032 14.3786 23.8348 14.4097 23.6656 14.4045C23.4974 14.4091 23.3302 14.3761 23.1764 14.3077C23.0226 14.2394 22.8861 14.1374 22.7768 14.0094C22.5263 13.6892 22.4032 13.2876 22.4312 12.882V5.72204C22.4033 5.34195 22.5144 4.96466 22.7439 4.66039C22.8477 4.54586 22.9749 4.45498 23.1169 4.39393C23.2589 4.33287 23.4124 4.30306 23.5669 4.30651C23.7749 4.30419 23.9797 4.35822 24.1594 4.46288C24.3447 4.57428 24.4934 4.73731 24.5874 4.93198C24.7004 5.16518 24.7568 5.42177 24.752 5.68089V5.67266ZM40.619 13.0136V12.7667C40.3244 13.114 39.9933 13.4285 39.6314 13.7049C39.3095 13.9447 38.951 14.1309 38.5698 14.2563C38.1656 14.3857 37.7433 14.4496 37.3189 14.4456C36.7483 14.4488 36.1848 14.3192 35.6729 14.067C35.1586 13.8075 34.7087 13.4364 34.3561 12.9807C33.9811 12.4885 33.7019 11.9301 33.5332 11.3348C33.3361 10.6669 33.239 9.97358 33.2451 9.2773C33.1654 7.96275 33.5726 6.66487 34.3891 5.63151C34.7601 5.20279 35.2226 4.8627 35.7425 4.63625C36.2623 4.4098 36.8263 4.30275 37.3929 4.32297C38.0197 4.30362 38.6424 4.43041 39.2117 4.69331C39.7567 4.98132 40.2448 5.36617 40.6519 5.82902V2.14208C40.6225 1.73226 40.7295 1.32423 40.9564 0.981678C41.0598 0.851081 41.193 0.747091 41.3447 0.678376C41.4964 0.609661 41.6624 0.578212 41.8288 0.586649C41.9921 0.576839 42.1556 0.604347 42.3067 0.667087C42.4579 0.729826 42.5928 0.826152 42.7011 0.948761C42.9219 1.25701 43.0294 1.63201 43.0056 2.0104V13.0136C43.0349 13.399 42.9173 13.7812 42.6764 14.0835C42.5717 14.1968 42.4443 14.2868 42.3025 14.3478C42.1608 14.4087 42.0078 14.4393 41.8535 14.4374C41.6978 14.4382 41.5437 14.4056 41.4017 14.3417C41.2597 14.2778 41.1331 14.1841 41.0305 14.067C40.7632 13.7818 40.6158 13.4046 40.619 13.0136ZM35.6811 9.35137C35.6638 9.94296 35.7703 10.5316 35.9939 11.0796C36.1603 11.5076 36.4459 11.8788 36.8168 12.1495C37.1696 12.3865 37.5852 12.5126 38.0102 12.5116C38.4356 12.5147 38.8529 12.3947 39.2117 12.166C39.5973 11.9077 39.8979 11.5412 40.0758 11.1125C40.3373 10.5562 40.4749 9.94966 40.4791 9.33491C40.4955 8.74795 40.386 8.16428 40.1581 7.62312C39.9717 7.18372 39.6668 6.80478 39.2775 6.52856C38.923 6.28068 38.5004 6.14846 38.0678 6.14999C37.628 6.14344 37.1979 6.2791 36.8415 6.53678C36.467 6.82119 36.1815 7.20664 36.0186 7.64781C35.8083 8.18502 35.7049 8.75809 35.7141 9.33491L35.6811 9.35137ZM45.4746 12.9231V2.0927C45.4422 1.68537 45.5625 1.28055 45.812 0.95699C45.9229 0.829374 46.0612 0.728348 46.2165 0.661392C46.3717 0.594436 46.5401 0.563265 46.709 0.570189C46.8797 0.56324 47.0497 0.593502 47.2075 0.658874C47.3652 0.724246 47.5069 0.823166 47.6226 0.948761C47.875 1.27115 47.9983 1.67608 47.9682 2.08447V12.9149C47.996 13.3243 47.8697 13.7294 47.6143 14.0506C47.4992 14.1747 47.3589 14.2727 47.2027 14.338C47.0466 14.4033 46.8782 14.4344 46.709 14.4291C46.5408 14.4338 46.3737 14.4008 46.2199 14.3324C46.0661 14.2641 45.9295 14.1621 45.8202 14.0341C45.5717 13.716 45.4486 13.3177 45.4746 12.9149V12.9231ZM57.5148 9.97683H52.6345C52.6299 10.4964 52.7483 11.0097 52.9801 11.4747C53.1684 11.8722 53.4672 12.2071 53.8409 12.4392C54.2145 12.6712 54.6472 12.7907 55.087 12.7832C55.3649 12.7859 55.6419 12.7499 55.9099 12.6762C56.1636 12.6027 56.405 12.4917 56.6259 12.347C56.8514 12.2039 57.0659 12.0444 57.2679 11.8697C57.4654 11.7051 57.7178 11.4747 58.025 11.1784C58.183 11.059 58.3788 11.0005 58.5764 11.0138C58.8016 11.0058 59.0217 11.0821 59.1936 11.2278C59.2746 11.3028 59.338 11.3949 59.3793 11.4973C59.4206 11.5998 59.4387 11.7101 59.4323 11.8203C59.4194 12.1132 59.3285 12.3973 59.1689 12.6433C58.9525 12.9814 58.6731 13.2747 58.346 13.5074C57.9406 13.8112 57.4871 14.0448 57.0045 14.1987C56.4036 14.3905 55.7752 14.4822 55.1446 14.4703C54.4636 14.5041 53.7829 14.3966 53.1455 14.1543C52.5082 13.9121 51.9279 13.5406 51.4412 13.063C50.9773 12.5638 50.6182 11.9767 50.385 11.3364C50.1518 10.6961 50.0492 10.0155 50.0833 9.33491C50.077 8.63819 50.1883 7.9454 50.4124 7.28569C50.6129 6.67489 50.9411 6.11379 51.3753 5.63974C51.8085 5.18067 52.3404 4.82609 52.9308 4.60279C53.585 4.35446 54.2802 4.23161 54.98 4.24068C55.8432 4.22325 56.6955 4.43632 57.4489 4.85791C58.1093 5.23324 58.6511 5.78641 59.0126 6.45449C59.3702 7.08148 59.5602 7.79011 59.564 8.51193C59.564 9.1374 59.3857 9.5434 59.029 9.72994C58.5501 9.928 58.0318 10.0125 57.5148 9.97683ZM52.6345 8.56131H57.1609C57.1589 7.86146 56.9146 7.18388 56.4696 6.64377C56.2635 6.43786 56.0161 6.27789 55.7438 6.17435C55.4715 6.07081 55.1803 6.02604 54.8895 6.043C54.6032 6.03416 54.3184 6.0869 54.0543 6.19764C53.7903 6.30839 53.553 6.47456 53.3587 6.68492C52.9225 7.21664 52.6686 7.87441 52.6345 8.56131ZM63.72 2.0104V5.82079C64.1351 5.37429 64.6185 4.9965 65.152 4.70154C65.7148 4.42636 66.3365 4.29354 66.9626 4.31474C67.7314 4.2985 68.4886 4.50423 69.1434 4.90729C69.7877 5.32112 70.2947 5.91687 70.6001 6.61908C70.9628 7.45444 71.1397 8.35862 71.1186 9.26907C71.1264 9.97356 71.0293 10.6753 70.8306 11.3512C70.6618 11.9466 70.3826 12.5049 70.0076 12.9972C69.6507 13.451 69.1947 13.817 68.6743 14.067C68.1375 14.323 67.5491 14.4525 66.9543 14.4456C66.5833 14.4376 66.2151 14.3795 65.8598 14.2728C65.5695 14.192 65.2924 14.0701 65.0368 13.9107C64.8191 13.7775 64.6151 13.6231 64.4278 13.4498C64.2632 13.2852 64.0437 13.0465 63.7694 12.7338V12.9807C63.7967 13.3647 63.676 13.7446 63.432 14.0424C63.327 14.1559 63.1997 14.2467 63.0581 14.309C62.9166 14.3713 62.7637 14.4038 62.609 14.4045C62.4538 14.4074 62.2997 14.3766 62.1576 14.3141C62.0155 14.2515 61.8887 14.1588 61.786 14.0424C61.5572 13.7377 61.4461 13.3607 61.4733 12.9807V2.11739C61.445 1.71285 61.5521 1.3104 61.7778 0.97345C61.8761 0.850219 62.0015 0.751246 62.1442 0.684178C62.2869 0.61711 62.4431 0.583741 62.6008 0.586649C62.7673 0.576535 62.934 0.604648 63.0881 0.668836C63.2421 0.733023 63.3795 0.831586 63.4896 0.95699C63.6844 1.26849 63.7657 1.63764 63.72 2.00217V2.0104ZM63.8352 9.41721C63.7817 10.237 64.0241 11.0488 64.5183 11.7051C64.7333 11.9696 65.0061 12.1814 65.3156 12.324C65.6252 12.4667 65.9634 12.5365 66.3042 12.5281C66.6237 12.5287 66.9389 12.4546 67.2247 12.3117C67.5105 12.1688 67.7589 11.9611 67.9501 11.7051C68.4433 11.0179 68.6766 10.178 68.6085 9.33491C68.6166 8.77377 68.5218 8.2159 68.3287 7.68895C68.1644 7.2508 67.879 6.86834 67.5057 6.58616C67.1538 6.32582 66.7254 6.18976 66.2877 6.19936C65.8352 6.19263 65.392 6.3279 65.0203 6.58616C64.6393 6.86828 64.3432 7.2498 64.1644 7.68895C63.9404 8.23991 63.8312 8.8308 63.8435 9.42544L63.8352 9.41721ZM79.4224 13.0383C78.8875 13.4657 78.298 13.82 77.6695 14.0917C77.0679 14.3328 76.4247 14.453 75.7766 14.4456C75.2057 14.4522 74.6414 14.3224 74.1307 14.067C73.6691 13.8351 73.2814 13.4788 73.0114 13.0383C72.7513 12.6152 72.6144 12.1278 72.6164 11.631C72.6023 10.9878 72.8349 10.3635 73.2666 9.88631C73.7402 9.38108 74.3632 9.04076 75.0442 8.91519L76.2211 8.6683C76.8465 8.54211 77.3952 8.42415 77.867 8.31442C78.3389 8.20469 78.8244 8.07576 79.3237 7.92762C79.3368 7.41653 79.1994 6.91285 78.9287 6.47918C78.7242 6.29396 78.4795 6.15887 78.2138 6.08459C77.9481 6.01031 77.6688 5.99889 77.3979 6.05123C76.9063 6.02159 76.4148 6.11198 75.9659 6.31458C75.6266 6.51512 75.3435 6.79823 75.143 7.13756C74.9125 7.4887 74.7479 7.72187 74.6492 7.83709C74.5641 7.90467 74.4665 7.95474 74.3619 7.9844C74.2574 8.01406 74.1481 8.02274 74.0402 8.00992C73.7704 8.00048 73.5144 7.88865 73.3242 7.69718C73.2253 7.61176 73.1467 7.50541 73.094 7.38584C73.0414 7.26628 73.016 7.13648 73.0197 7.00588C73.0314 6.54065 73.1963 6.09228 73.4888 5.73027C73.8729 5.26444 74.3764 4.91172 74.9454 4.70977C75.7351 4.4188 76.5732 4.28191 77.4144 4.30651C78.2924 4.27121 79.1693 4.40245 79.9985 4.69331C80.5854 4.91326 81.0636 5.35307 81.3318 5.91955C81.6176 6.62708 81.7494 7.38737 81.7186 8.14982C81.7186 8.73688 81.7186 9.23067 81.7186 9.63118C81.7186 10.0372 81.7186 10.4898 81.7186 10.9891C81.7224 11.4861 81.8001 11.9798 81.949 12.454C82.0611 12.7711 82.1383 13.0995 82.1794 13.4333C82.1745 13.5695 82.1395 13.7028 82.0769 13.8237C82.0142 13.9447 81.9256 14.0503 81.8173 14.1329C81.592 14.3368 81.2982 14.4484 80.9943 14.4456C80.7041 14.4294 80.432 14.2993 80.2372 14.0835C79.9196 13.7684 79.6431 13.4145 79.4142 13.0301L79.4224 13.0383ZM79.2579 9.43367C78.7356 9.61113 78.2023 9.75409 77.6613 9.86162C76.9645 10.0098 76.4817 10.1195 76.2128 10.1908C75.9303 10.2695 75.6689 10.41 75.4475 10.6023C75.3301 10.7043 75.2368 10.8309 75.1742 10.9732C75.1116 11.1155 75.0812 11.2699 75.0854 11.4253C75.0834 11.6071 75.1207 11.7872 75.1945 11.9533C75.2684 12.1194 75.3771 12.2678 75.5133 12.3882C75.8234 12.6615 76.2279 12.8033 76.6408 12.7832C77.1155 12.7888 77.5844 12.6786 78.0069 12.4622C78.3876 12.2833 78.7079 11.9973 78.9287 11.6393C79.1952 11.0574 79.3113 10.4178 79.2661 9.77932L79.2579 9.43367ZM86.7058 10.8327V12.9149C86.7336 13.3243 86.6073 13.7294 86.3519 14.0506C86.2368 14.1747 86.0965 14.2727 85.9403 14.338C85.7842 14.4033 85.6158 14.4344 85.4466 14.4291C85.2792 14.4337 85.1128 14.4014 84.9593 14.3345C84.8057 14.2677 84.6686 14.168 84.5578 14.0424C84.3054 13.72 84.1821 13.315 84.2122 12.9066V5.96893C84.2122 4.87162 84.6182 4.32297 85.4302 4.32297C85.6009 4.30746 85.7728 4.33558 85.9297 4.40467C86.0866 4.47377 86.2234 4.58158 86.3272 4.718C86.5365 5.06821 86.6421 5.47058 86.6317 5.8784C86.8707 5.44195 87.1824 5.04951 87.5535 4.718C87.9122 4.43954 88.3591 4.29934 88.8126 4.32297C89.345 4.32633 89.8683 4.46208 90.3351 4.718C90.5464 4.80207 90.7287 4.94551 90.8601 5.13099C90.9916 5.31646 91.0665 5.53604 91.0758 5.76319C91.0809 5.90442 91.0556 6.04509 91.0017 6.17571C90.9477 6.30633 90.8664 6.42385 90.7631 6.52033C90.5833 6.70516 90.3378 6.81162 90.08 6.8166C89.8549 6.78305 89.6342 6.7251 89.4216 6.64377C89.1224 6.53859 88.8087 6.4803 88.4917 6.47095C88.1679 6.45683 87.8497 6.55899 87.5946 6.75899C87.3422 6.9789 87.1544 7.26341 87.0515 7.58197C86.9117 8.02015 86.8234 8.47308 86.7881 8.93165C86.7332 9.44738 86.7058 10.0783 86.7058 10.8245V10.8327ZM99.9969 11.1619C100.026 11.7939 99.8471 12.418 99.4874 12.9383C99.1276 13.4587 98.6069 13.8466 98.0053 14.0424C97.2396 14.3132 96.4307 14.4416 95.6187 14.4209C94.8306 14.441 94.0467 14.3011 93.3143 14.0094C92.7597 13.798 92.2712 13.443 91.8988 12.9807C91.618 12.6292 91.4592 12.1959 91.4462 11.7462C91.4445 11.6162 91.4691 11.4872 91.5186 11.367C91.5681 11.2468 91.6414 11.1378 91.7342 11.0467C91.8316 10.9508 91.9475 10.8758 92.0748 10.8263C92.2022 10.7768 92.3383 10.7537 92.4749 10.7587C92.5826 10.7492 92.691 10.7611 92.7941 10.7936C92.8972 10.826 92.9929 10.8785 93.0757 10.9479C93.2383 11.1062 93.3745 11.2896 93.4789 11.4911C93.6975 11.8953 94.0146 12.2378 94.4007 12.4869C94.847 12.7278 95.3508 12.8416 95.8573 12.8161C96.2911 12.8326 96.7193 12.7148 97.0836 12.4787C97.221 12.4015 97.3368 12.2909 97.4202 12.1571C97.5037 12.0234 97.552 11.8707 97.5609 11.7133C97.5744 11.5221 97.5346 11.3309 97.446 11.1609C97.3574 10.9909 97.2234 10.8488 97.0589 10.7504C96.5403 10.4814 95.9861 10.2874 95.4129 10.1744C94.6962 10.0068 93.9944 9.7811 93.3143 9.49951C92.8168 9.29481 92.3743 8.97629 92.0222 8.56954C91.694 8.17226 91.5214 7.66915 91.5367 7.15402C91.5362 6.64777 91.6913 6.15362 91.9811 5.7385C92.3119 5.26829 92.7682 4.90044 93.2979 4.67685C93.9638 4.39602 94.6822 4.26132 95.4047 4.28182C95.9895 4.27402 96.573 4.34039 97.1412 4.47934C97.5985 4.58914 98.0349 4.77259 98.4333 5.0225C98.7572 5.21149 99.0376 5.46668 99.2562 5.77141C99.4277 6.01207 99.5224 6.29895 99.5278 6.59439C99.5315 6.72467 99.5078 6.85426 99.4581 6.97477C99.4085 7.09528 99.3341 7.20402 99.2398 7.29393C99.0121 7.48967 98.7162 7.58732 98.4168 7.56551C98.1807 7.5702 97.9505 7.49153 97.7666 7.34331C97.5384 7.14608 97.3315 6.9254 97.1494 6.68492C96.9679 6.44811 96.7413 6.24953 96.4828 6.10061C96.1594 5.9376 95.7993 5.86105 95.4376 5.8784C95.0418 5.86297 94.65 5.96305 94.3101 6.16645C94.1784 6.23466 94.0676 6.33721 93.9893 6.46324C93.9111 6.58928 93.8684 6.73412 93.8657 6.88244C93.8643 7.00813 93.8935 7.13227 93.9509 7.24412C94.0083 7.35597 94.092 7.45216 94.1949 7.52436C94.4639 7.7141 94.765 7.85351 95.0837 7.93585C95.4568 8.04558 95.9671 8.18274 96.6145 8.34734C97.2706 8.49412 97.9063 8.72075 98.5073 9.02218C98.9449 9.24169 99.3252 9.56009 99.6183 9.95215C99.8704 10.3078 100.003 10.7343 99.9969 11.1702V11.1619ZM22.5958 34.2712C23.2116 33.7647 23.6616 33.0853 23.8878 32.3207C24.1043 31.7561 24.0901 31.1291 23.8484 30.5748C23.6067 30.0206 23.1568 29.5835 22.5958 29.358C18.8101 27.4404 16.3658 30.8558 16.0119 31.6623C15.6581 32.4688 15.0244 33.7198 15.4359 36.6002C15.8473 39.4806 17.2217 42.1388 21.5671 43.184C25.7245 44.1494 30.0882 43.6403 33.9117 41.7438C37.7468 39.9168 44.9396 36.7072 46.7502 36.3944C47.9383 36.1032 49.1563 35.9513 50.3795 35.9418V31.5553C49.4305 29.8494 48.0052 28.4569 46.2777 27.5478C44.5502 26.6388 42.5953 26.2526 40.6519 26.4364C33.7142 26.9796 30.9572 30.5513 29.2701 32.082C27.583 33.6128 24.4475 37.2174 22.3571 36.5837C20.2667 35.95 19.666 33.3577 20.4067 32.5511C21.1473 31.7446 21.7234 31.8928 22.1925 32.5511C22.4751 33.0796 22.6168 33.672 22.604 34.2712H22.5958Z" fill="#F5F5F5"/>
    <path d="M77.9166 34.2709C77.3007 33.7644 76.8507 33.0851 76.6245 32.3204C76.4081 31.7558 76.4223 31.1288 76.664 30.5746C76.9057 30.0203 77.3556 29.5833 77.9166 29.3577C81.7023 27.4402 84.1465 30.8555 84.5004 31.6621C84.8543 32.4686 85.488 33.7195 85.0765 36.5999C84.665 39.4804 83.2906 42.1386 78.9453 43.1838C74.7879 44.1492 70.4242 43.6401 66.6006 41.7435C62.7655 39.9165 55.5727 36.7069 53.7621 36.3942C52.574 36.1029 51.3561 35.951 50.1328 35.9416V31.5551C51.0818 29.8492 52.5071 28.4566 54.2346 27.5476C55.9621 26.6385 57.917 26.2523 59.8604 26.4361C66.7981 26.9793 69.5551 30.551 71.2422 32.0818C72.9293 33.6125 76.0649 37.2172 78.1552 36.5835C80.2456 35.9498 80.8464 33.3574 80.1057 32.5509C79.365 31.7444 78.7889 31.8925 78.3198 32.5509C78.0372 33.0794 77.8955 33.6717 77.9083 34.2709H77.9166Z" fill="#F5F5F5"/>
</svg>
