<svg xmlns="http://www.w3.org/2000/svg" width="100" height="100" viewBox="0 0 100 112" fill="none">
	<path d="M93.7391 55.1968C93.7391 49.5195 89.1368 44.9172 83.4592 44.9172C83.0941 44.9172 82.7339 44.9368 82.3789 44.974L96.498 3.33105H36.4962L50.5958 44.9378C50.3889 44.9253 50.181 44.9172 49.9711 44.9172C44.2938 44.9172 39.6913 49.5195 39.6913 55.1968C39.6913 59.7861 42.6988 63.671 46.8496 64.9929C44.6573 68.7905 41.8986 72.2108 38.7666 75.1658C34.5078 79.1836 29.6336 82.23 24.3617 84.1075C18.0854 80.8831 15.1213 73.7124 17.7959 67.425C18.0977 66.715 18.4062 65.9954 18.7007 65.2789C23.248 64.2176 26.6361 60.1413 26.6361 55.2707C26.6361 49.5933 22.0339 44.991 16.3563 44.991C10.6789 44.991 6.07641 49.5933 6.07641 55.2707C6.07641 58.7522 7.80876 61.8272 10.4565 63.6869C7.9122 69.4799 4.17208 75.5427 3.00688 82.5695C1.61046 90.9907 3.00237 99.9296 10.2858 104.978C27.2482 116.734 45.6608 97.6896 65.0744 92.9023C72.1103 91.1672 79.8333 91.4469 86.0321 87.8567C90.6871 85.1605 93.7559 80.6925 94.6268 75.6762C95.4872 70.7207 94.2329 65.7868 91.3482 61.786C92.8402 60.0017 93.7391 57.7047 93.7391 55.1968Z" fill="#99425B"/>
	<path d="M92.1532 75.2466C91.397 79.6015 88.7073 83.4057 84.7737 85.6841C81.1068 87.8078 76.7127 88.4418 72.0605 89.1126C69.5681 89.4719 66.991 89.8437 64.4733 90.4646C57.8163 92.1061 51.3684 95.3089 45.133 98.4061C32.6543 104.604 21.8776 109.957 11.716 102.914C4.27262 97.7553 4.61633 88.2106 5.48351 82.9801C6.28717 78.1343 8.45989 73.6716 10.5611 69.3556C10.9241 68.6094 11.2799 67.877 11.6261 67.151C12.6675 67.567 13.7752 67.8509 14.9298 67.98C12.791 75.0387 16.1545 82.7137 23.2145 86.3406L24.1806 86.837L25.2039 86.4727C30.7851 84.485 35.9279 81.2955 40.4895 76.9917C43.438 74.2099 45.9733 71.1324 48.0569 67.8439C48.6815 67.938 49.3205 67.9875 49.971 67.9875C56.4505 67.9875 61.8162 63.1435 62.6465 56.8872C65.2988 56.79 68.116 56.7893 70.7835 56.8862C71.6133 63.143 76.9793 67.9875 83.4591 67.9875C86.1683 67.9875 88.6815 67.1384 90.7518 65.696C92.1891 68.6383 92.7256 71.9488 92.1532 75.2466ZM16.3561 47.5016C20.6403 47.5016 24.1253 50.9869 24.1253 55.2708C24.1253 56.8096 23.6739 58.2444 22.8986 59.4528C21.6069 61.4669 19.4124 62.8475 16.8899 63.0197C16.7134 63.0317 16.5356 63.04 16.3561 63.04C15.4016 63.04 14.487 62.8658 13.6414 62.5497C11.9309 61.9095 10.5056 60.6823 9.60901 59.1151C8.96001 57.9806 8.58693 56.6687 8.58693 55.2708C8.58693 50.9869 12.0722 47.5016 16.3561 47.5016ZM42.2018 55.197C42.2018 51.3047 45.079 48.0728 48.8179 47.5139C49.1942 47.4574 49.5793 47.4278 49.971 47.4278C52.4616 47.4278 54.679 48.6078 56.1013 50.436C56.4548 50.8902 56.7613 51.3831 57.0081 51.9093C57.4768 52.9085 57.7402 54.0223 57.7402 55.197C57.7402 55.8181 57.6649 56.4219 57.5266 57.0012C56.7693 60.1708 54.0666 62.5934 50.7548 62.9268C50.4972 62.9527 50.2356 62.9662 49.971 62.9662C48.4199 62.9662 46.9748 62.5075 45.7604 61.7212C43.6213 60.3356 42.2018 57.9296 42.2018 55.197ZM74.6276 45.9586C72.9633 47.5511 71.7255 49.5857 71.1092 51.8737C68.2322 51.7657 65.1815 51.7657 62.3211 51.8737C61.6641 49.4351 60.3013 47.2837 58.4683 45.6495L66.5074 29.3938L74.6276 45.9586ZM39.9979 5.84186H92.9955L80.4782 42.76C79.9356 42.8903 79.4064 43.0542 78.8927 43.2513L66.5272 18.0263L54.1269 43.1007C53.5909 42.9161 53.0385 42.7675 52.4731 42.6548L39.9979 5.84186ZM91.2283 55.197C91.2283 55.9761 91.1118 56.728 90.8976 57.438C90.3875 59.1272 89.3169 60.5746 87.9032 61.5643C86.6428 62.4465 85.1108 62.9662 83.4591 62.9662C79.8719 62.9662 76.8458 60.5216 75.9562 57.211C75.7835 56.5683 75.6899 55.8935 75.6899 55.197C75.6899 54.135 75.9045 53.1224 76.2919 52.1998C76.4915 51.7243 76.7406 51.2749 77.0265 50.8526C78.4247 48.7891 80.7842 47.4278 83.4591 47.4278C83.7044 47.4278 83.9464 47.4406 84.1859 47.4629C88.1304 47.8305 91.2283 51.1581 91.2283 55.197ZM96.2496 55.197C96.2496 48.9525 91.7505 43.7424 85.8246 42.6292L100 0.820557H32.9945L47.1915 42.7143C41.4712 43.9872 37.1805 49.0989 37.1805 55.197C37.1805 59.7759 39.6005 63.7982 43.2271 66.0583C41.4827 68.6574 39.414 71.103 37.0437 73.3395C33.284 76.8863 29.0957 79.5759 24.5803 81.3457C20.0322 78.4888 18.1096 73.1012 20.1063 68.4075L20.2627 68.0397C20.3606 67.81 20.4585 67.5798 20.5562 67.3496C25.5516 65.6072 29.1467 60.8525 29.1467 55.2708C29.1467 48.2179 23.4088 42.4803 16.3561 42.4803C9.30347 42.4803 3.56562 48.2179 3.56562 55.2708C3.56562 58.8307 5.02883 62.0543 7.38382 64.3754C6.95701 65.285 6.5076 66.2102 6.0464 67.1575C3.89326 71.58 1.45291 76.5925 0.529994 82.1586C-1.30303 93.213 1.65376 102.05 8.85557 107.041C13.2259 110.07 17.6637 111.261 22.1299 111.261C30.5396 111.261 39.0464 107.036 47.3667 102.903C53.3589 99.927 59.5552 96.8492 65.6756 95.3398C67.9528 94.7782 70.2962 94.4402 72.7773 94.0825C77.6969 93.3727 82.7842 92.6391 87.2903 90.0293C92.5137 87.0037 96.0894 81.9287 97.1004 76.1057C97.9684 71.1067 96.924 66.0998 94.3764 61.8537C95.5639 59.9133 96.2496 57.6338 96.2496 55.197Z" fill="#F5F5F5"/>
</svg>
