<svg xmlns="http://www.w3.org/2000/svg" width="100" height="100" viewBox="0 0 100 101" fill="none">
  <path d="M100 0.0407715H0V100.041H100V0.0407715Z" fill="#F1DC50"/>
  <path d="M50 45.874C50 65.6624 50 76.7735 50 79.2074C50 82.8582 47.8213 87.5407 41.6667 87.5407C31.7276 87.5407 31.25 79.2074 31.25 79.2074M86.6249 56.3575C84.1245 52.1463 80.81 50.0407 76.6814 50.0407C70.2348 50.0407 66.6667 54.2074 66.6667 58.374C66.6667 62.5407 68.75 66.7074 77.1184 68.7907C82.4436 70.1164 87.5 72.9574 87.5 79.2074C87.5 85.4574 82.0189 87.5407 77.0833 87.5407C70.7757 87.5407 66.609 84.7629 64.5833 79.2074" stroke="#333333" stroke-width="8.33333"/>
</svg>
