<svg xmlns="http://www.w3.org/2000/svg" width="100" height="100" viewBox="0 0 100 70" fill="none">
    <path d="M30.6103 56.3632H27.903C27.8073 51.7935 27.5436 47.4974 27.1125 43.4718H27.0885L22.9666 56.3632H20.9054L16.8081 43.4718H16.7846C16.4806 47.3368 16.2891 51.6339 16.2096 56.3632H13.7419C13.901 50.6122 14.3007 45.2207 14.9394 40.188H18.2949L22.2002 52.0734H22.2242L26.1536 40.188H29.3641C30.0673 46.0828 30.4826 51.4749 30.6103 56.3632ZM42.3513 44.4291C41.249 50.4108 39.7946 54.7571 37.9898 57.4701C36.5836 59.5585 35.0429 60.6038 33.3652 60.6038C32.9179 60.6038 32.366 60.4688 31.712 60.201V58.7586C32.0317 58.8047 32.4068 58.8308 32.8378 58.8308C33.6215 58.8308 34.2514 58.6153 34.7316 58.1832C35.306 57.6569 35.5933 57.0652 35.5933 56.4108C35.5933 55.9619 35.3693 55.0443 34.9226 53.6548L31.9516 44.4286H34.6113L36.7437 51.3289C37.2229 52.8957 37.4227 53.9896 37.3427 54.6127C38.5088 51.4984 39.3233 48.1027 39.7873 44.4281H42.3513V44.4291Z" fill="#5D87A1"/>
    <path d="M78.3883 56.3631H70.698V40.1879H73.285V54.372H78.3883V56.3631ZM68.6849 56.7539L65.7114 55.2864C65.975 55.0699 66.2272 54.8355 66.4542 54.564C67.7182 53.0793 68.3486 50.8836 68.3486 47.9755C68.3486 42.6242 66.2486 39.9473 62.0473 39.9473C59.9871 39.9473 58.38 40.6263 57.2306 41.9849C55.9678 43.4707 55.3374 45.6585 55.3374 48.5509C55.3374 51.3942 55.8961 53.48 57.0141 54.8031C58.0368 56.0016 59.5785 56.6016 61.6402 56.6016C62.4093 56.6016 63.115 56.5075 63.7579 56.3176L67.6292 58.5713L68.6849 56.7539ZM59.0522 53.1264C58.3973 52.0728 58.0698 50.3809 58.0698 48.0482C58.0698 43.9755 59.307 41.9368 61.7841 41.9368C63.0789 41.9368 64.0279 42.4244 64.6347 43.3974C65.2887 44.4526 65.6177 46.1293 65.6177 48.4296C65.6177 52.5357 64.3794 54.5891 61.9039 54.5891C60.6086 54.5896 59.6596 54.1036 59.0522 53.1264ZM54.21 51.8797C54.21 53.2514 53.7067 54.3767 52.7012 55.2582C51.6947 56.136 50.345 56.576 48.6537 56.576C47.0717 56.576 45.5378 56.0706 44.0531 55.0652L44.7484 53.6762C46.0259 54.316 47.1826 54.6341 48.221 54.6341C49.1956 54.6341 49.9573 54.418 50.5098 53.9896C51.0617 53.5595 51.3908 52.9564 51.3908 52.1936C51.3908 51.2326 50.7206 50.4112 49.4912 49.7233C48.3575 49.1008 46.0902 47.7992 46.0902 47.7992C44.8614 46.9035 44.2461 45.942 44.2461 44.3579C44.2461 43.0469 44.7049 41.9886 45.6231 41.1835C46.5422 40.3752 47.7282 39.9724 49.182 39.9724C50.6835 39.9724 52.0484 40.3747 53.2777 41.1709L52.6542 42.5604C51.6026 42.1136 50.5647 41.8902 49.5409 41.8902C48.7117 41.8902 48.0714 42.0896 47.6262 42.4898C47.1773 42.8884 46.9006 43.3985 46.9006 44.0241C46.9006 44.9805 47.5849 45.8123 48.8477 46.5138C49.9966 47.1374 52.3204 48.4615 52.3204 48.4615C53.5806 49.3555 54.21 50.3082 54.21 51.8797Z" fill="#F8981D"/>
    <path d="M81.636 34.7704C80.0718 34.7306 78.8607 34.8881 77.8442 35.3181C77.5508 35.4353 77.0841 35.4353 77.0433 35.8062C77.2018 35.9632 77.2201 36.2164 77.3577 36.4329C77.5921 36.8237 78.0007 37.3495 78.3737 37.6236C78.7833 37.9375 79.1945 38.2483 79.6256 38.5219C80.3857 38.9922 81.2473 39.2658 81.9881 39.7345C82.4197 40.0071 82.8487 40.3597 83.2808 40.6532C83.4932 40.8096 83.6292 41.0633 83.9049 41.1611V41.1015C83.7668 40.9257 83.7276 40.6715 83.5921 40.4758L83.0051 39.9098C82.438 39.1481 81.7333 38.4831 80.9732 37.937C80.3475 37.5059 78.979 36.92 78.7252 36.1991L78.6855 36.1593C79.1155 36.119 79.6256 35.9632 80.0341 35.8434C80.6991 35.6681 81.3054 35.7079 81.9876 35.5326C82.3015 35.4541 82.6127 35.3558 82.9277 35.259V35.0827C82.574 34.7306 82.3219 34.2629 81.9499 33.9302C80.9549 33.0707 79.8584 32.23 78.7252 31.5263C78.1184 31.1345 77.3378 30.8824 76.6918 30.5491C76.459 30.4314 76.0666 30.3733 75.9295 30.1777C75.579 29.7476 75.3818 29.1816 75.1276 28.6726C74.5626 27.5986 74.0138 26.4068 73.5262 25.2711C73.1736 24.5094 72.9591 23.7487 72.5291 23.044C70.515 19.7221 68.3277 17.71 64.9659 15.7352C64.2435 15.324 63.384 15.1487 62.4658 14.9332L60.9995 14.8558C60.6866 14.7187 60.3732 14.3467 60.1002 14.171C58.9848 13.4678 56.1133 11.9439 55.293 13.9559C54.7646 15.2277 56.0745 16.478 56.5245 17.1231C56.8567 17.5709 57.2872 18.0804 57.5195 18.5889C57.6571 18.9211 57.6958 19.2737 57.8334 19.6248C58.1462 20.4848 58.4386 21.4416 58.8498 22.2442C59.0643 22.6533 59.2982 23.0833 59.5723 23.4537C59.7293 23.6702 60.0023 23.766 60.062 24.1191C59.7894 24.5083 59.768 25.0958 59.6115 25.5844C58.9084 27.7926 59.1831 30.5282 60.1797 32.151C60.4915 32.6396 61.2354 33.7152 62.2304 33.3029C63.1114 32.9514 62.9163 31.8376 63.1695 30.8609C63.2275 30.625 63.1893 30.4701 63.3065 30.3153V30.3535C63.5791 30.9001 63.8543 31.4269 64.1069 31.9752C64.7133 32.932 65.769 33.9292 66.6484 34.592C67.1166 34.9456 67.4875 35.5504 68.074 35.7664V35.7079H68.0353C67.9165 35.5326 67.7428 35.4541 67.5869 35.3181C67.2343 34.966 66.844 34.536 66.5704 34.1457C65.7512 33.0508 65.0261 31.8387 64.3826 30.5878C64.0677 29.981 63.7962 29.3176 63.5425 28.7118C63.4242 28.478 63.4242 28.1254 63.2281 28.0077C62.934 28.4372 62.5056 28.8091 62.2911 29.3354C61.9191 30.1771 61.8804 31.2125 61.7423 32.2891L61.6654 32.3268C61.0429 32.1703 60.8263 31.5263 60.5898 30.9797C60.0044 29.5912 59.9061 27.3626 60.4141 25.7607C60.5501 25.3511 61.1386 24.061 60.9037 23.6708C60.786 23.2967 60.3947 23.0838 60.1802 22.7893C59.928 22.4189 59.6518 21.9501 59.4761 21.539C59.0073 20.4451 58.7714 19.2329 58.2665 18.1395C58.0306 17.63 57.621 17.1027 57.2893 16.6334C56.9168 16.1061 56.5072 15.7346 56.2127 15.1095C56.1154 14.8945 55.9788 14.5429 56.1352 14.3091C56.1734 14.1521 56.2529 14.0935 56.4088 14.0543C56.662 13.8403 57.3856 14.1124 57.6393 14.2301C58.3638 14.523 58.9696 14.7966 59.5744 15.2068C59.848 15.403 60.1415 15.7744 60.4925 15.8722H60.9037C61.5278 16.0082 62.2315 15.9099 62.819 16.0867C63.8543 16.4194 64.7923 16.9075 65.6335 17.4343C68.1932 19.0577 70.3041 21.3642 71.7292 24.1191C71.963 24.568 72.0624 24.9792 72.2759 25.4474C72.6876 26.4058 73.1966 27.383 73.6052 28.321C74.0159 29.2391 74.4072 30.1766 74.9936 30.9394C75.2861 31.3495 76.4611 31.5645 76.9879 31.7795C77.3776 31.9548 77.9845 32.1107 78.336 32.3257C79.0009 32.7353 79.6632 33.2056 80.2884 33.6561C80.5997 33.8904 81.5779 34.3791 81.636 34.7704ZM61.701 17.7869C61.4312 17.7841 61.1622 17.8172 60.9011 17.8853V17.9245H60.9388C61.0962 18.2368 61.3698 18.4534 61.565 18.726C61.7224 19.0394 61.859 19.3501 62.0133 19.6629L62.051 19.6242C62.3267 19.4291 62.4637 19.1163 62.4637 18.647C62.345 18.5089 62.3267 18.3739 62.2278 18.2368C62.1127 18.0412 61.859 17.9439 61.701 17.7869Z" fill="#5D87A1"/>
    <path d="M83.4973 56.3606H83.9022V54.3789H83.2948L82.7994 55.7313L82.2611 54.3789H81.6762V56.3606H82.0586V54.8529H82.0801L82.644 56.3606H82.9354L83.4973 54.8529V56.3606ZM80.2355 56.3606H80.6639V54.7148H81.2247V54.3784H79.6511V54.7148H80.2344L80.2355 56.3606Z" fill="#F8981D"/>
</svg>
