<svg xmlns="http://www.w3.org/2000/svg" width="100" height="109" viewBox="0 0 100 109" fill="none">
    <path fill-rule="evenodd" clip-rule="evenodd" d="M50.1076 0.807495L0 18.2007L7.17343 84.6776L50.1076 108.065V0.807495Z" fill="#412846"/>
    <path fill-rule="evenodd" clip-rule="evenodd" d="M49.8926 0.807495L100 18.2007L92.8267 84.6776L49.8926 108.065V0.807495Z" fill="#4B314F"/>
    <path fill-rule="evenodd" clip-rule="evenodd" d="M74.9754 37.5099L74.9664 37.4814C77.2543 40.028 78.4296 43.0517 78.492 46.5527C78.5545 50.0536 77.3792 53.7468 74.9393 57.6206C76.7629 56.203 78.8688 53.1431 81.2501 48.4763C82.2788 57.9341 78.4567 65.1182 69.7481 70.0382C72.5285 69.7819 76.22 67.9513 80.7984 64.5402C75.9126 76.3032 66.929 82.5095 53.8478 83.1592C41.2055 83.1558 33.0157 75.5585 33.0221 75.5633C27.8245 71.518 24.2483 66.4194 22.3058 60.2904C19.1972 56.8955 19.1662 56.5314 18.8455 55.175C18.5249 53.8184 19.0481 53.4394 19.9587 52.1121C20.5659 51.2272 20.7088 49.9541 20.397 48.3159C19.623 47.2426 19.1774 45.5617 19.06 43.2731C19.06 42.1671 19.7979 41.0002 21.2743 39.7724C22.7505 38.5445 23.6562 37.6002 23.9843 36.9502C24.2345 36.5956 24.3312 35.0591 24.2743 32.3403C24.259 29.6699 25.7417 28.217 28.7224 27.9818C33.1933 27.6287 35.7148 24.2663 37.1195 22.7371C38.0559 21.7176 39.4419 21.2221 41.1898 21.2126C43.6509 21.0972 45.89 22.0406 47.8189 23.9873C52.6234 23.7389 57.5448 25.0345 62.5313 27.8414C69.6175 32.0509 73.4849 36.6095 74.1333 41.4942C73.3738 47.9226 64.7381 47.7546 48.2649 40.9885C39.6443 43.4303 35.406 48.7218 35.5468 56.8628C35.541 64.3334 39.1566 69.7619 46.3689 73.1429C42.8536 69.6917 41.3566 66.7909 41.8608 64.3887C49.1725 73.0477 57.5009 76.2841 66.8318 74.0986C62.718 74.2422 59.4594 72.9185 57.007 70.1076C63.3141 69.9543 69.2679 67.0265 74.8745 61.2945C71.6381 63.87 68.2514 64.8451 64.6657 64.2317C74.3774 56.5965 77.814 47.6892 74.9754 37.5099ZM57.3488 36.3353C58.1361 36.3353 58.7743 35.6971 58.7743 34.9098C58.7743 34.1225 58.1361 33.4843 57.3488 33.4843C56.5615 33.4843 55.9233 34.1225 55.9233 34.9098C55.9233 35.6971 56.5615 36.3353 57.3488 36.3353Z" fill="#BA2BD2"/>
</svg>
