<svg xmlns="http://www.w3.org/2000/svg" width="100" height="100" viewBox="0 0 100 63" fill="none">
    <g clip-path="url(#clip0_572_3482)">
        <path d="M49.4264 62.0588C49.0963 62.0588 48.7686 61.9723 48.4792 61.8057L45.4643 60.0207C45.014 59.7689 45.2337 59.6798 45.3823 59.6285C45.9827 59.4183 46.1045 59.3708 46.7454 59.0069C46.8127 58.9684 46.9009 58.982 46.9698 59.0227L49.286 60.3971C49.3696 60.4423 49.4883 60.4423 49.5659 60.3971L58.5967 55.1843C58.6804 55.1368 58.7346 55.0396 58.7346 54.9401V44.519C58.7346 44.415 58.6804 44.3224 58.5949 44.2704L49.5677 39.0621C49.484 39.0123 49.3733 39.0123 49.2896 39.0621L40.2642 44.2704C40.1767 44.3201 40.1211 44.4173 40.1211 44.5168V54.9379C40.1211 55.0374 40.1753 55.1323 40.2612 55.1798L42.7343 56.6084C44.077 57.2798 44.8976 56.4886 44.8976 55.6929V45.4074C44.8976 45.2605 45.0129 45.1475 45.1598 45.1475H46.3037C46.4461 45.1475 46.5636 45.2605 46.5636 45.4074V55.6974C46.5636 57.4878 45.5871 58.5163 43.8894 58.5163C43.3672 58.5163 42.9558 58.5163 41.8074 57.9512L39.4384 56.5858C38.8529 56.2467 38.4912 55.6138 38.4912 54.9379V44.5168C38.4912 43.8386 38.8529 43.2057 39.4384 42.8711L48.4783 37.656C49.0502 37.3328 49.8098 37.3328 50.3772 37.656L59.4058 42.8734C59.989 43.2102 60.3529 43.8409 60.3529 44.519V54.9401C60.3529 55.6161 59.989 56.2467 59.4058 56.5858L50.3772 61.8009C50.0878 61.9682 49.76 62.0541 49.4255 62.0541" fill="#689F63"/>
        <path d="M52.2157 54.878C48.2643 54.878 47.4358 53.0641 47.4358 51.5428C47.4358 51.3981 47.5524 51.2828 47.6973 51.2828H48.8638C48.9926 51.2828 49.1011 51.3766 49.1215 51.5039C49.2978 52.6925 49.8222 53.292 52.2116 53.292C54.115 53.292 54.9243 52.862 54.9243 51.8527C54.9243 51.2717 54.6937 50.84 51.7369 50.5506C49.2639 50.3065 47.7358 49.7617 47.7358 47.7837C47.7358 45.9617 49.2729 44.8767 51.8477 44.8767C54.7389 44.8767 56.1721 45.8803 56.353 48.0369C56.3597 48.1115 56.3326 48.1838 56.2829 48.2381C56.2332 48.2901 56.1631 48.3217 56.0907 48.3217H54.9175C54.7954 48.3217 54.6892 48.2358 54.6643 48.1183C54.3818 46.8682 53.6991 46.4681 51.8432 46.4681C49.7657 46.4681 49.5239 47.1915 49.5239 47.734C49.5239 48.3918 49.8087 48.584 52.6118 48.9547C55.3877 49.3232 56.7056 49.8431 56.7056 51.7939C56.7056 53.7606 55.0645 54.8886 52.2026 54.8886M63.2024 43.8368H63.5053C63.754 43.8368 63.8015 43.6628 63.8015 43.561C63.8015 43.2943 63.6184 43.2943 63.5166 43.2943H63.2047L63.2024 43.8368ZM62.834 42.9823H63.5053C63.7359 42.9823 64.188 42.9823 64.188 43.4977C64.188 43.8572 63.9574 43.9318 63.8195 43.977C64.0886 43.9951 64.1066 44.1714 64.1428 44.42C64.1609 44.576 64.1903 44.845 64.2445 44.9354H63.8308C63.8195 44.845 63.7563 44.3477 63.7563 44.3206C63.7291 44.2098 63.6907 44.1556 63.5528 44.1556H63.2115V44.9377H62.834V42.9823ZM62.0269 43.9544C62.0269 44.7636 62.6802 45.4192 63.4827 45.4192C64.292 45.4192 64.9453 44.7501 64.9453 43.9544C64.9453 43.1428 64.283 42.4986 63.4805 42.4986C62.6893 42.4986 62.0247 43.1338 62.0247 43.9521M65.2256 43.9589C65.2256 44.9174 64.4412 45.6995 63.485 45.6995C62.5356 45.6995 61.7444 44.9264 61.7444 43.9589C61.7444 42.9733 62.5536 42.2183 63.485 42.2183C64.4231 42.2183 65.2233 42.9755 65.2233 43.9589" fill="#689F63"/>
        <path fill-rule="evenodd" clip-rule="evenodd" d="M21.4607 21.283C21.4607 20.8671 21.2414 20.4851 20.8825 20.2782L11.3077 14.7693C11.1461 14.6743 10.965 14.6246 10.7814 14.6178H10.6824C10.4989 14.6246 10.3178 14.6743 10.1535 14.7693L0.579152 20.2782C0.222438 20.4862 0 20.8682 0 21.2842L0.0210231 36.1224C0.0210231 36.3281 0.127269 36.5202 0.308112 36.622C0.484435 36.7305 0.705968 36.7305 0.882291 36.622L6.57434 33.3623C6.93377 33.1484 7.15304 32.7704 7.15304 32.3586V25.4266C7.15304 25.0129 7.37232 24.6309 7.73061 24.4252L10.1539 23.0295C10.3339 22.9255 10.5314 22.874 10.7326 22.874C10.9306 22.874 11.1327 22.9251 11.3077 23.0293L13.7299 24.4245C14.0884 24.6302 14.3086 25.0123 14.3086 25.4259V32.3574C14.3086 32.7689 14.5308 33.1486 14.8884 33.3611L20.5768 36.6186C20.7554 36.7248 20.9776 36.7248 21.1555 36.6186C21.331 36.5168 21.4422 36.3247 21.4422 36.119L21.4607 21.283ZM66.6418 29.0087C66.6418 29.112 66.5869 29.2076 66.4971 29.2587L63.2085 31.1544C63.1192 31.2057 63.0089 31.2057 62.9198 31.1544L59.6307 29.2587C59.5403 29.2074 59.486 29.1118 59.486 29.0087V25.2119C59.486 25.1083 59.5403 25.0129 59.6284 24.9609L62.9153 23.0621C63.0057 23.0101 63.1165 23.0101 63.2069 23.0621L66.496 24.9609C66.5864 25.0129 66.6407 25.1083 66.6407 25.2119L66.6418 29.0087ZM67.5302 0.887036C67.3507 0.787119 67.1323 0.789832 66.9551 0.893139C66.7788 0.997124 66.6698 1.18701 66.6698 1.39272V16.0863C66.6698 16.2309 66.593 16.3643 66.4677 16.4367C66.3434 16.509 66.1885 16.509 66.0631 16.4367L63.6646 15.0552C63.3075 14.8486 62.8676 14.8486 62.5091 15.0552L52.9311 20.5829C52.5733 20.7887 52.3524 21.1707 52.3524 21.5821V32.6407C52.3524 33.0544 52.5733 33.4341 52.9311 33.6421L62.5091 39.1737C62.8667 39.3794 63.307 39.3794 63.6658 39.1737L73.2437 33.6399C73.6009 33.4319 73.8224 33.0521 73.8224 32.6384V5.07786C73.8224 4.6583 73.5941 4.27243 73.2279 4.0674L67.5302 0.887036ZM99.4249 25.1119C99.7807 24.9053 99.9997 24.5238 99.9997 24.1123V21.4322C99.9997 21.0199 99.7805 20.6395 99.424 20.4319L89.9071 14.9072C89.5477 14.6992 89.1069 14.6992 88.7474 14.9072L79.1718 20.4342C78.8123 20.6422 78.5931 21.0219 78.5931 21.4356V32.4897C78.5931 32.9056 78.8169 33.2899 79.1763 33.4956L88.6909 38.9187C89.0413 39.1199 89.4708 39.1221 89.8257 38.9255L95.5811 35.7268C95.7619 35.6251 95.8772 35.4329 95.8772 35.2249C95.8772 35.017 95.7664 34.8226 95.5856 34.7208L85.9511 29.1916C85.7703 29.0898 85.6595 28.8977 85.6595 28.692V25.2243C85.6595 25.0172 85.768 24.8264 85.9489 24.7234L88.9464 22.994C89.1249 22.8901 89.3442 22.8901 89.5228 22.994L92.5225 24.7234C92.7011 24.8251 92.8119 25.0172 92.8119 25.2229V27.9492C92.8119 28.1549 92.9227 28.347 93.1012 28.451C93.2798 28.5527 93.5014 28.5527 93.6799 28.4487L99.4249 25.1119Z" fill="#F5F5F5"/>
        <path fill-rule="evenodd" clip-rule="evenodd" d="M89.1873 24.5948C89.2551 24.5548 89.3401 24.5548 89.4088 24.5948L91.2466 25.655C91.3154 25.6948 91.3574 25.7681 91.3574 25.8472V27.9698C91.3574 28.0489 91.3154 28.1222 91.2466 28.162L89.4088 29.2222C89.3401 29.2622 89.2551 29.2622 89.1873 29.2222L87.3506 28.162C87.2805 28.1222 87.2375 28.0489 87.2375 27.9698V25.8472C87.2375 25.7681 87.2782 25.6948 87.3483 25.655L89.1873 24.5948Z" fill="#689F63"/>
        <mask id="mask0_572_3482" style="mask-type:luminance" maskUnits="userSpaceOnUse" x="26" y="14" width="22" height="26">
            <path d="M36.3326 14.9623L26.8089 20.4593C26.4522 20.665 26.2334 21.0448 26.2334 21.4553V32.4569C26.2334 32.8676 26.4522 33.2472 26.8089 33.4529L36.3333 38.9542C36.6893 39.1592 37.1283 39.1592 37.4839 38.9542L47.0067 33.4529C47.3616 33.2472 47.5809 32.8674 47.5809 32.4569V21.4553C47.5809 21.0448 47.3616 20.665 47.0044 20.4593L37.483 14.9623C37.3044 14.8599 37.1055 14.8086 36.9066 14.8086C36.7076 14.8086 36.5087 14.8599 36.3301 14.9623" fill="white"/>
        </mask>
        <g mask="url(#mask0_572_3482)">
            <path d="M57.2049 19.5259L30.3688 6.37183L16.6089 34.4419L43.4443 47.5967L57.2049 19.5259Z" fill="url(#paint0_linear_572_3482)"/>
        </g>
        <mask id="mask1_572_3482" style="mask-type:luminance" maskUnits="userSpaceOnUse" x="26" y="14" width="22" height="26">
            <path d="M26.4692 33.1554C26.5603 33.2737 26.6743 33.3761 26.8083 33.4529L34.9779 38.1718L36.3388 38.954C36.5422 39.0715 36.7742 39.1213 37.002 39.1043C37.078 39.0982 37.1539 39.084 37.2281 39.0629L47.2726 20.6711C47.1957 20.5875 47.1058 20.5174 47.0049 20.4586L40.769 16.8576L37.4727 14.961C37.3791 14.9067 37.2776 14.8683 37.1743 14.8412L26.4692 33.1554Z" fill="white"/>
        </mask>
        <g mask="url(#mask1_572_3482)">
            <path d="M14.8662 23.4165L33.8152 49.0631L58.8756 30.5479L39.9255 4.90198L14.8662 23.4165Z" fill="url(#paint1_linear_572_3482)"/>
        </g>
        <mask id="mask2_572_3482" style="mask-type:luminance" maskUnits="userSpaceOnUse" x="26" y="14" width="22" height="26">
            <path d="M36.7928 14.815C36.6329 14.8308 36.4767 14.8805 36.3327 14.9623L26.8362 20.4435L37.0765 39.0953C37.2189 39.0749 37.359 39.0274 37.4856 38.9542L47.0093 33.4529C47.3032 33.2825 47.5044 32.994 47.5654 32.6672L37.1262 14.8337C37.0493 14.8186 36.9725 14.8107 36.8934 14.8107C36.8617 14.8107 36.8301 14.8122 36.7984 14.8152" fill="white"/>
        </mask>
        <g mask="url(#mask2_572_3482)">
            <path d="M26.8359 14.8107V39.0957H47.5613V14.8107H26.8359Z" fill="url(#paint2_linear_572_3482)"/>
        </g>
    </g>
    <defs>
        <linearGradient id="paint0_linear_572_3482" x1="43.7788" y1="12.9282" x2="30.0198" y2="40.9964" gradientUnits="userSpaceOnUse">
            <stop offset="0.3" stop-color="#3E863D"/>
            <stop offset="0.5" stop-color="#55934F"/>
            <stop offset="0.8" stop-color="#5AAD45"/>
        </linearGradient>
        <linearGradient id="paint1_linear_572_3482" x1="24.4543" y1="36.3868" x2="49.5157" y2="17.8694" gradientUnits="userSpaceOnUse">
            <stop offset="0.57" stop-color="#3E863D"/>
            <stop offset="0.72" stop-color="#619857"/>
            <stop offset="1" stop-color="#76AC64"/>
        </linearGradient>
        <linearGradient id="paint2_linear_572_3482" x1="26.8429" y1="26.9539" x2="47.5652" y2="26.9539" gradientUnits="userSpaceOnUse">
            <stop offset="0.16" stop-color="#6BBF47"/>
            <stop offset="0.38" stop-color="#79B461"/>
            <stop offset="0.47" stop-color="#75AC64"/>
            <stop offset="0.7" stop-color="#659E5A"/>
            <stop offset="0.9" stop-color="#3E863D"/>
        </linearGradient>
        <clipPath id="clip0_572_3482">
            <rect width="100" height="61.2447" fill="white" transform="translate(0 0.813843)"/>
        </clipPath>
    </defs>
</svg>
