<svg xmlns="http://www.w3.org/2000/svg" width="100" height="101" viewBox="0 0 100 101" fill="none">
    <path d="M74.1524 73.2332C74.7891 67.9324 74.5977 67.1589 78.543 68.0144L79.5469 68.1042C82.582 68.241 86.5508 67.616 88.9219 66.5339C93.9414 64.2058 96.918 60.3152 91.9688 61.3386C80.6797 63.6667 79.8594 59.8425 79.8594 59.8425C91.7852 42.1472 96.7735 19.6863 92.4649 14.1902C80.7305 -0.809812 60.4141 6.28394 60.0742 6.47144L59.9649 6.49097C57.7383 6.02222 55.2774 5.74878 52.4258 5.70972C47.3164 5.63159 43.4414 7.04956 40.4961 9.28003C40.4961 9.28003 4.25783 -5.64965 5.94142 28.0574C6.30079 35.2293 16.2149 82.3542 28.0508 68.0964C32.3828 62.8855 36.5625 58.4832 36.5625 58.4832C38.6328 59.8621 41.1211 60.5652 43.7266 60.3113L43.9297 60.1394C43.8696 60.8146 43.8972 61.4947 44.0117 62.1628C40.9649 65.5691 41.8633 66.1668 35.7695 67.4207C29.6055 68.6902 33.2305 70.9519 35.5899 71.5457C38.457 72.2644 45.0899 73.28 49.5742 67.0066L49.3945 67.7214C50.5899 68.6785 50.5078 74.5964 50.6836 78.823C50.8594 83.0496 51.1367 86.9988 52 89.323C52.8633 91.6472 53.875 97.6433 61.8828 95.9636C68.5742 94.53 73.6914 92.4636 74.1602 73.2683" fill="black"/>
    <path d="M74.1524 73.2332C74.7891 67.9324 74.5977 67.1589 78.543 68.0144L79.5469 68.1042C82.582 68.241 86.5508 67.616 88.9219 66.5339C93.9414 64.2058 96.918 60.3152 91.9688 61.3386C80.6797 63.6667 79.8594 59.8425 79.8594 59.8425C91.7852 42.1472 96.7735 19.6863 92.4649 14.1902C80.7305 -0.809812 60.4141 6.28394 60.0742 6.47144L59.9649 6.49097C57.7383 6.02222 55.2774 5.74878 52.4258 5.70972C47.3164 5.63159 43.4414 7.04956 40.4961 9.28003C40.4961 9.28003 4.25783 -5.64965 5.94142 28.0574C6.30079 35.2293 16.2149 82.3542 28.0508 68.0964C32.3828 62.8855 36.5625 58.4832 36.5625 58.4832C38.6328 59.8621 41.1211 60.5652 43.7266 60.3113L43.9297 60.1394C43.8696 60.8146 43.8972 61.4947 44.0117 62.1628C40.9649 65.5691 41.8633 66.1668 35.7695 67.4207C29.6055 68.6902 33.2305 70.9519 35.5899 71.5457C38.457 72.2644 45.0899 73.28 49.5742 67.0066L49.3945 67.7214C50.5899 68.6785 50.5078 74.5964 50.6836 78.823C50.8594 83.0496 51.1367 86.9988 52 89.323C52.8633 91.6472 53.875 97.6433 61.8828 95.9636C68.5742 94.53 73.6914 92.4636 74.1602 73.2683" stroke="black" stroke-width="5.3725"/>
    <path d="M91.9336 61.3739C80.6446 63.702 79.8242 59.8778 79.8242 59.8778C91.75 42.1825 96.7383 19.7215 92.4336 14.2254C80.6992 -0.774564 60.3828 6.32309 60.043 6.50669L59.9336 6.52622C57.4522 6.02831 54.9293 5.76543 52.3985 5.74106C47.2891 5.66294 43.4141 7.08091 40.4688 9.31137C40.4688 9.31137 4.22659 -5.61831 5.91409 28.0887C6.27346 35.2606 16.1875 82.3856 28.0235 68.1278C32.3828 62.8856 36.5625 58.4832 36.5625 58.4832C38.6328 59.8622 41.1211 60.5653 43.7266 60.3114L43.9297 60.1395C43.87 60.8147 43.8976 61.4948 44.0117 62.1629C40.9649 65.5692 41.8633 66.1668 35.7696 67.4207C29.6055 68.6903 33.2305 70.952 35.5899 71.5457C38.4571 72.2645 45.0899 73.2801 49.5742 67.0067L49.3946 67.7215C50.5899 68.6786 51.4258 73.9442 51.2852 78.7176C51.1446 83.4911 51.0508 86.7645 51.9883 89.327C52.9258 91.8895 53.8633 97.6473 61.8711 95.9676C68.5625 94.534 72.0274 90.8114 72.5156 84.6161C72.8594 80.2098 73.6328 80.8582 73.6875 76.9207L74.3125 75.0536C75.0274 69.077 74.4297 67.1512 78.5508 68.0497L79.5547 68.1395C82.5899 68.2762 86.5625 67.6512 88.8907 66.5692C93.9102 64.2411 96.8828 60.3504 91.9336 61.3739Z" fill="#336791"/>
    <path d="M50.0547 64.7605C49.7422 75.8777 50.1328 87.073 51.2187 89.7605C52.3047 92.448 54.6367 97.7684 62.6484 96.0574C69.3398 94.6238 71.7773 91.8465 72.832 85.7176L75.3047 66.1199M40.4531 9.03007C40.4531 9.03007 4.18749 -5.79805 5.87499 27.909C6.23436 35.0809 16.1484 82.2059 27.9844 67.948C32.3047 62.741 36.2109 58.6668 36.2109 58.6668M60.0391 6.32304C58.7891 6.71366 80.2109 -1.50899 92.3906 14.0496C96.6875 19.5457 91.707 42.0066 79.7812 59.7019" stroke="#F5F5F5" stroke-width="1.79" stroke-linecap="round" stroke-linejoin="round"/>
    <path d="M79.7852 59.6941C79.7852 59.6941 80.5664 63.5222 91.8945 61.1863C96.8438 60.1628 93.8633 64.0535 88.8477 66.3816C84.7305 68.2957 75.4961 68.7839 75.3438 66.1472C74.9531 59.3308 80.2031 61.4011 79.8242 59.6941C79.4805 58.155 77.1289 56.6472 75.582 52.8816C74.2266 49.6003 56.9883 24.405 80.3633 28.1433C81.2227 27.9675 74.2695 5.87768 52.3945 5.55737C30.5195 5.23706 31.2109 32.4519 31.2109 32.4519" stroke="#F5F5F5" stroke-width="1.79" stroke-linecap="round" stroke-linejoin="bevel"/>
    <path d="M43.9337 62.03C40.8868 65.4362 41.7853 66.0339 35.6915 67.2878C29.5274 68.5573 33.1524 70.8191 35.5118 71.4128C38.379 72.1316 45.0118 73.1472 49.4962 66.8698C50.8634 64.9558 49.4884 61.9089 47.6134 61.1355C46.7071 60.7605 45.4962 60.2917 43.9415 62.0339L43.9337 62.03Z" stroke="#F5F5F5" stroke-width="1.79" stroke-linejoin="round"/>
    <path d="M43.7344 61.9715C43.4219 59.9676 44.3907 57.5886 45.4258 54.7996C46.9805 50.6199 50.5665 46.4402 47.6993 33.1707C45.5626 23.2879 31.2149 31.1121 31.2149 32.4519C31.2149 33.7918 31.8633 39.2488 30.9805 45.5965C29.8204 53.8855 36.254 60.8933 43.6602 60.1785" stroke="#F5F5F5" stroke-width="1.79" stroke-linecap="round" stroke-linejoin="round"/>
    <path d="M40.3203 32.2527C40.2539 32.7098 41.1602 33.9324 42.336 34.0965C43.5117 34.2605 44.5156 33.3074 44.582 32.8465C44.6485 32.3855 43.7422 31.8855 42.5664 31.7215C41.3906 31.5574 40.3789 31.7996 40.3203 32.2527Z" fill="#F5F5F5" stroke="#F5F5F5" stroke-width="0.5975"/>
    <path d="M76.1172 31.3191C76.1797 31.7762 75.2774 32.9988 74.1016 33.1629C72.9258 33.3269 71.9141 32.3738 71.8555 31.9129C71.7969 31.4519 72.6953 30.9519 73.8711 30.7879C75.0469 30.6238 76.0586 30.866 76.1172 31.3191Z" fill="#F5F5F5" stroke="#F5F5F5" stroke-width="0.2975"/>
    <path d="M80.3203 28.1511C80.5156 31.7449 79.5469 34.1863 79.4219 38.0105C79.2422 43.5652 82.0703 49.9246 77.8086 56.2917" stroke="#F5F5F5" stroke-width="1.79" stroke-linecap="round" stroke-linejoin="round"/>
</svg>
