<svg xmlns="http://www.w3.org/2000/svg" width="100" height="101" viewBox="0 0 100 101" fill="none">
    <path d="M99.9616 48.1212C99.9281 46.836 99.8601 45.5172 99.7929 44.2321C99.7253 42.9133 99.6913 41.5945 99.5566 40.2757C99.3202 38.4826 99.0839 36.6566 98.6788 34.8979C98.3749 33.4437 97.8687 32.0572 97.3624 30.6707C96.721 29.047 96.0796 27.3901 95.2695 25.8346C93.9527 23.332 92.2312 21.0998 90.6445 18.7662C89.5976 17.278 88.248 16.0605 87.2351 14.539C86.6609 13.6597 85.8171 12.9153 84.9734 12.2391C83.623 11.1571 82.205 10.176 80.7874 9.22973C79.7069 8.48502 78.6269 7.77513 77.4788 7.13256C76.5675 6.62499 75.5882 6.21918 74.6429 5.7797C73.5632 5.27214 72.5167 4.66361 71.3015 4.42685C70.9976 4.35915 70.7272 4.2578 70.4237 4.15683C69.6472 3.88563 68.9042 3.58156 68.128 3.34481C66.9468 2.97304 65.7991 2.53278 64.5835 2.22871C63.4022 1.92425 62.187 1.72115 60.9718 1.55209C59.6214 1.34938 58.2374 1.28207 56.887 1.14627C56.0093 1.04492 55.1315 0.943562 54.2874 0.909516C53.005 0.842206 51.6882 0.842206 50.4054 0.80816C49.7639 0.774505 49.0889 0.706803 48.4475 0.740458C47.4686 0.774505 46.4897 0.875861 45.51 1.01126C44.5655 1.11301 43.6202 1.28168 42.7085 1.41708C41.5948 1.55209 40.4807 1.61979 39.3667 1.7552C38.3198 1.8906 37.2401 2.09331 36.1936 2.26237C35.8221 2.33007 35.4507 2.46586 35.0796 2.53278C34.2694 2.70223 33.4253 2.76993 32.6147 3.04035C31.1635 3.47982 29.712 3.98738 28.294 4.52821C26.9776 5.06943 25.6948 5.6443 24.446 6.32092C23.1631 7.03081 21.9479 7.87649 20.7323 8.68851C19.5846 9.46571 18.437 10.2777 17.3229 11.1571C16.2428 12.0024 15.2299 12.9494 14.251 13.8964C13.7108 14.4373 13.2721 15.0798 12.7655 15.6887C11.9217 16.6694 11.0776 17.6165 10.2674 18.6308C9.59243 19.4765 8.98422 20.3558 8.3436 21.2352C7.19516 22.7907 6.21664 24.448 5.30531 26.105C4.93383 26.7812 4.59633 27.4578 4.25844 28.134C3.75219 29.1488 3.21234 30.1299 2.73968 31.1779C2.40218 31.8881 2.13187 32.6657 1.92953 33.4437C1.45238 35.1077 0.991029 36.7761 0.545542 38.4489C0.140463 39.9368 0.0389009 41.4931 0.0053071 43.0146C-0.0286773 44.3671 0.106479 45.6863 0.241635 47.0391C0.275229 47.3773 0.0728853 47.7831 0.477964 48.0535C0.511558 48.0535 0.477964 48.1889 0.443979 48.2225C0.342417 48.426 0.443979 48.6284 0.646714 48.6961C0.646714 48.6961 0.680308 48.7301 0.680308 48.7638H0.511558C0.409995 49.0682 0.747886 49.305 0.612729 49.6431C0.579136 49.7108 0.714292 49.8458 0.78148 49.9476C0.78148 50.0493 0.747886 50.1843 0.78148 50.2857C0.815464 50.5901 0.95062 50.8942 0.95062 51.2327C0.95062 51.4695 1.15296 51.7399 1.22015 51.9767C1.25414 52.0784 1.22015 52.2471 1.15296 52.3148C0.95062 52.5515 0.984214 52.7546 1.28812 52.89C1.3557 52.9237 1.45687 53.0587 1.45687 53.1264C1.45687 53.3299 1.38929 53.5322 1.35531 53.7353C1.42289 53.803 1.45687 53.8703 1.42289 53.938C1.42289 54.0398 1.32132 54.1415 1.3557 54.2088C1.62523 54.7497 1.72679 55.3586 1.76078 55.9671C1.76078 56.1025 1.82836 56.2379 1.89554 56.407C1.92953 56.407 2.0307 56.407 2.09828 56.4406L1.89515 57.0495C2.06429 56.9478 2.19945 56.9141 2.36781 56.8464C2.46937 57.2863 2.57093 57.6921 2.7057 58.0639C2.73968 58.1316 2.80726 58.1993 2.90843 58.2674C2.87445 58.3347 2.87445 58.4697 2.80687 58.5038C2.94203 59.1123 3.00961 59.6875 3.24594 60.2624C3.27992 60.2624 3.31351 60.2284 3.34711 60.2284C3.24554 59.6199 3.17836 58.9773 3.07718 58.3684V58.1656C3.07718 58.1656 3.14476 58.1316 3.17836 58.1316C3.21234 58.267 3.27992 58.4361 3.27992 58.5374C3.54945 58.5374 3.95492 58.7065 4.22484 58.7065C4.25883 58.6051 4.29242 58.4697 4.32641 58.4024C4.12328 58.1993 3.95492 57.8948 3.75219 57.6921C3.81976 57.9625 3.75219 58.0639 3.75219 58.1656C3.61742 58.0979 3.44867 58.0302 3.27953 57.9625C3.41469 57.7935 3.54984 57.6244 3.75219 57.4213C3.75219 57.1172 3.58344 56.8464 3.11078 56.8805C3.31351 56.8128 3.51625 56.7114 3.75219 56.6437C3.78617 56.7455 3.81976 56.8464 3.85375 56.9141C4.12328 56.4406 3.71859 56.0689 3.71859 55.5953C3.75219 55.0205 3.41469 54.4456 3.31351 53.8367C3.14476 52.8896 3.17836 51.4695 3.07718 50.5224C3.07718 50.4547 2.97562 50.387 2.90843 50.3193C2.87445 50.3534 2.70531 50.7929 2.67211 50.8269C2.77328 51.6385 2.87445 52.4502 2.94164 53.2618C2.90843 53.2618 2.87445 53.2618 2.87445 53.2955C2.73968 52.5852 2.60453 51.8412 2.43578 51.0296C2.40218 51.2664 2.3682 51.3677 2.3682 51.5031C2.26664 51.4695 2.23343 51.4354 2.06429 51.3677C2.19945 51.6722 2.33461 51.8753 2.43539 52.112C2.19945 52.0103 1.92953 52.0443 1.92953 52.0443V52.9914C1.59203 52.6529 1.49046 52.3825 1.32171 52.1461C1.25414 51.8753 1.22015 51.6045 1.15296 51.3341L1.25414 51.3C1.22054 51.165 1.15257 51.0633 1.15257 50.9619C1.11481 50.6919 1.08121 50.4213 1.05179 50.1503C1.08539 50.1166 1.22054 50.0826 1.28812 50.0153L1.01781 49.6094C1.28812 49.6431 1.45687 49.6768 1.62562 49.6768C1.62562 49.6094 1.65921 49.5754 1.62562 49.5417C1.28812 49.2373 1.52406 48.9665 1.65921 48.6965C1.72679 48.5607 1.96312 48.527 2.03031 48.3916C2.30062 47.8844 2.73968 47.4786 2.73968 46.836C2.73968 46.5316 2.84086 46.1935 2.87445 45.889C2.94203 45.3141 3.00961 44.7393 3.04359 44.1644C3.11078 43.4208 3.04359 42.6761 3.21234 41.9662C3.48187 40.7825 3.81976 39.5987 4.19125 38.4153C4.46078 37.57 4.76508 36.7579 5.10258 35.9127C5.60922 34.5938 6.08148 33.275 6.72289 32.0232C7.63461 30.1972 8.6811 28.4385 9.6936 26.6462C10.335 25.5301 11.01 24.4821 11.719 23.3993C12.3944 22.3509 13.0694 21.2688 13.8459 20.2881C14.926 18.9016 16.1077 17.6165 17.4241 16.4663C18.7745 15.2493 20.0569 13.9978 21.5088 12.8817C23.3995 11.4275 25.3909 10.1423 27.5178 9.02624C29.2393 8.11325 31.0284 7.40297 32.8178 6.72635C33.9655 6.28688 35.2143 6.08456 36.396 5.712C37.7464 5.27214 39.0968 5.06943 40.5143 5.03538C41.426 5.00173 42.3034 4.90037 43.2151 4.79901C44.0253 4.73131 44.8354 4.66361 45.7132 4.56226C45.6474 4.64609 45.5908 4.73674 45.5444 4.83267C45.1729 5.37389 44.7678 5.91472 44.3968 6.45594C44.0928 6.8958 43.7553 7.36892 43.4514 7.80879C42.9112 8.51906 42.3374 9.22934 41.8311 9.97327C41.0546 11.0894 40.3456 12.2391 39.5354 13.3552C38.7253 14.4373 37.8475 15.452 37.0038 16.5004C35.8897 17.9546 34.8432 19.4425 33.7292 20.8967C32.7163 22.2836 31.6362 23.6024 30.6573 24.9889C29.7796 26.2063 29.003 27.4915 28.1592 28.743C26.91 30.603 25.6612 32.4294 24.412 34.289C23.4331 35.7062 22.4428 37.1154 21.4413 38.5166C21.3737 38.6184 21.2725 38.652 21.1713 38.7193C21.1038 38.787 20.9682 38.8547 20.9682 38.9228C20.9014 39.1592 20.9014 39.3963 20.7999 39.5987C20.5299 40.1062 20.26 40.6134 19.9561 41.0869C19.7874 41.3573 19.551 41.5941 19.3483 41.8645C19.2807 41.8308 19.2467 41.7972 19.1795 41.7972C19.3147 41.4587 19.8885 41.256 19.6186 40.7488C19.4499 41.0192 19.2807 41.256 19.112 41.5264L18.7069 42.338C18.842 42.4398 19.078 42.5071 18.842 42.7102C18.7405 42.8792 18.6389 43.0819 18.5381 43.2514C18.5721 43.2514 18.5721 43.285 18.6057 43.285C18.7069 43.1496 18.8085 43.0483 18.9096 42.9133C18.9432 42.9133 18.9772 42.9469 19.0108 42.9469C18.9092 43.285 18.7069 43.5895 18.5381 43.894C18.403 44.1644 18.0655 44.3675 17.8292 44.5702C17.8631 44.6039 18.0995 44.7056 18.1331 44.7393C18.2342 44.6039 18.2682 44.6716 18.3694 44.5365C18.437 44.6383 18.5381 44.4688 18.5721 44.5702C18.6733 44.4348 18.7745 44.3334 18.8085 44.2321C18.9432 43.894 19.146 43.6232 19.4834 43.4885C19.6186 43.4205 19.7198 43.3187 19.821 43.2174C20.8338 42.169 21.8803 41.155 22.7917 40.0385C24.2096 38.3135 25.4924 36.5212 26.8424 34.7625C27.4167 34.019 28.0917 33.2747 28.6991 32.5644C28.7667 32.5984 28.8342 32.5984 28.8682 32.6321C28.8006 33.3424 28.7331 34.0863 28.6991 34.7966C28.5975 36.0477 28.5303 37.2992 28.4292 38.5847C28.3956 39.0915 28.4292 39.5987 28.3956 40.1062C28.3956 40.2412 28.294 40.3426 28.294 40.478C28.294 40.8161 28.3956 41.1883 28.3956 41.5268C28.294 42.7779 28.1592 43.9953 28.0577 45.2464C28.0241 45.5172 28.1592 45.7876 28.2268 46.0244C28.1928 45.9908 28.1592 45.9567 28.0577 45.889C28.0577 47.8508 28.4288 49.7789 28.1253 51.7062C28.2604 51.6722 28.328 51.6385 28.328 51.5708C28.3616 51.3341 28.4292 51.0973 28.4292 50.8606C28.4631 50.6578 28.4292 50.4547 28.4292 50.218V49.8799C28.4631 49.2709 28.5979 48.6284 28.5303 48.0198C28.4631 47.3432 28.4631 46.701 28.5979 46.0581C28.6655 45.788 28.5643 45.4495 28.7331 45.1114V45.6186C28.6991 47.5463 28.7667 49.474 28.4967 51.4018C28.4631 51.5708 28.5979 51.8753 28.2268 51.8412C28.1928 51.8412 28.1592 52.0103 28.0917 52.112C27.9229 52.4502 28.294 52.8896 27.9565 53.2277C27.8889 53.2955 28.0241 53.5999 28.0577 53.803C28.0577 53.8703 28.0917 53.938 28.0577 53.9721C27.9229 54.2088 27.9229 54.2088 28.1253 54.2425C28.1592 54.9864 28.2268 55.663 28.2604 56.3729H28.3616C28.8006 55.0878 28.5303 53.769 28.7667 52.4502C28.8006 52.991 28.8342 53.5322 28.8006 54.1071C28.8006 54.9864 28.7667 55.8321 28.7331 56.7114C28.7331 56.8805 28.6991 57.0495 28.6655 57.2186C28.5639 57.6921 28.5303 58.1656 28.3616 58.6051C28.2268 58.9432 28.294 59.4508 28.294 59.8566V61.1414C28.294 61.1754 28.3956 61.2768 28.3956 61.4122C28.4292 61.7166 28.2604 62.0211 28.3616 62.3592C28.3956 62.4269 28.328 62.5283 28.294 62.596C28.2604 62.6977 28.2268 62.7987 28.2604 62.9L28.3616 63.4076C28.3616 63.4413 28.3956 63.4753 28.4292 63.5426C28.4631 63.4076 28.4631 63.3059 28.4631 63.2726C29.037 63.3399 28.7327 63.8471 29.003 64.1179C28.8682 64.1852 28.7667 64.2196 28.7667 64.2529C28.8006 64.3883 28.8682 64.4896 28.8682 64.625C28.8682 64.9291 28.8342 65.2003 28.8006 65.5044C28.8006 66.282 28.7667 67.06 28.7667 67.8039C28.7667 67.9056 28.8006 68.0074 28.8006 68.1083C28.8006 68.176 28.7667 68.2437 28.7667 68.3451V69.0554H28.9018C28.8342 69.1571 28.7667 69.2581 28.6655 69.3594C28.6319 69.3594 28.5303 69.3594 28.5303 69.3258V65.0645H28.0241C27.9565 67.0936 28.1253 68.92 27.7542 70.8137C27.3491 70.8477 27.2139 70.9154 26.7753 70.9154C25.7284 70.9154 24.6823 70.9154 23.6358 70.9491C22.3866 70.9491 21.171 70.9831 19.9221 70.9831C19.3147 70.9831 18.6733 71.0504 18.0655 71.0504C17.2553 71.0504 16.4116 70.9491 15.6014 70.9491C14.3522 70.9491 13.1366 71.0508 11.8881 71.0845C10.9764 71.1181 10.0651 71.1181 9.15375 71.1522C8.54594 71.1858 7.93813 71.2199 7.3307 71.2872C7.06078 71.3212 6.82445 71.4226 6.48656 71.5239C6.385 71.5239 6.14906 71.4903 5.94672 71.5239C5.60922 71.5916 5.30531 71.7947 4.96781 71.862C4.46117 71.9638 4.32641 72.0988 4.39359 72.6064V72.9445C4.32335 72.877 4.24375 72.8201 4.15726 72.7754C4.12367 72.7754 4.09008 72.8091 4.09008 72.8091C4.12367 72.9108 4.19125 72.9781 4.22484 73.0799C4.36 73.0122 4.52875 72.8431 4.66391 72.8431H5.13656C5.06898 72.8431 5.035 73.0458 4.93344 73.2149C5.13715 73.1385 5.3399 73.0596 5.54164 72.9781C5.57523 73.0799 5.57523 73.2149 5.57523 73.2489C6.04789 73.2149 6.48656 73.0799 6.89164 73.1812C8.20805 73.5194 9.55883 73.6548 10.9088 73.7898C11.7866 73.8575 12.6307 73.8915 13.5084 73.9252C14.7573 73.9929 16.0065 74.0606 17.2553 74.0606C18.3018 74.0606 19.3147 73.9592 20.3608 73.9592C21.8127 73.9592 23.2643 74.0265 24.7159 74.061C25.0198 74.061 25.3573 74.0265 25.6948 74.0265H28.1592C30.3534 73.9592 32.5475 73.9252 34.7421 73.8575C35.9909 73.8238 37.2733 73.7561 38.5229 73.7225L42.3706 73.6207C43.8565 73.5871 45.3417 73.5871 46.7932 73.553C47.9073 73.553 48.9878 73.5194 50.1014 73.4857C51.3507 73.4517 52.6335 73.3503 53.8823 73.2826C54.5577 73.2489 55.2327 73.1812 55.9081 73.1135C56.7183 73.0458 57.562 72.9445 58.3722 72.9104C59.587 72.8431 60.8366 72.8091 62.0518 72.7414C63.571 72.64 65.0901 72.5046 66.6429 72.4714C68.0608 72.4033 69.5124 72.4373 70.93 72.4033C72.1792 72.3696 73.428 72.3019 74.7108 72.2682L76.8378 72.1665C76.8378 72.1665 78.2554 72.1329 78.9644 72.0651C80.1792 71.9974 81.3948 71.862 82.6101 71.8284C83.3866 71.7947 84.1632 71.8284 84.9394 71.7947C86.1886 71.7607 87.4714 71.693 88.7202 71.693C89.1929 71.693 89.6995 71.7607 90.307 71.7947C90.037 72.0315 89.8683 72.1665 89.6656 72.3356C89.8007 72.3696 89.9351 72.4373 90.0706 72.5046C90.0706 72.5387 90.037 72.5723 90.037 72.64C89.8683 72.64 89.6995 72.6741 89.5304 72.6741C89.4632 72.8431 89.3956 72.9104 89.328 73.2493H89.9355C89.6995 73.2493 89.4968 73.553 89.2605 73.7561C89.2945 73.7898 89.328 73.7898 89.3616 73.8238C88.9905 73.6884 88.7542 73.7561 88.6191 74.1283C88.7202 74.1619 88.7878 74.1619 88.8886 74.1619C88.8554 74.2637 88.8218 74.3654 88.7878 74.5C88.7542 74.5677 88.7202 74.6354 88.7202 74.7368L88.6187 74.6355C88.6187 74.5677 88.6187 74.5 88.5855 74.4323C88.3823 74.6358 88.0788 74.7709 88.2476 75.2103C88.1128 75.278 87.9441 75.3457 87.7749 75.4471C87.8089 75.5148 87.8765 75.5825 87.9101 75.6838C87.6066 75.7175 87.3027 75.7856 87.3702 76.1574C87.505 76.191 87.6398 76.2591 87.7413 76.2924C87.5726 76.3601 87.4038 76.4614 87.2351 76.5291C87.2011 76.5968 87.1675 76.7659 87.0999 76.7999C86.6273 76.9017 86.8976 77.0703 87.0323 77.2394C86.9308 77.3071 86.83 77.3748 86.7288 77.4085C86.83 77.4425 86.8976 77.4762 86.9651 77.5439C86.8636 77.6116 86.796 77.6456 86.7288 77.6793C86.796 77.7129 86.8976 77.781 86.9312 77.781C86.796 77.882 86.6273 78.0174 86.4249 78.1864C86.4249 78.2541 86.4249 78.2882 86.4585 78.3555C86.3237 78.4909 86.1886 78.6259 86.0534 78.829C85.9187 79.0317 85.8511 79.3025 85.6823 79.5052C84.9734 80.2832 84.4667 81.1962 83.5554 81.8051C83.2179 82.0419 82.914 82.346 82.6101 82.6504C82.0026 83.2257 81.4624 83.8679 80.821 84.4091C79.9773 85.1194 79.0995 85.7619 78.1878 86.4049C77.0741 87.1821 75.9601 87.9601 74.846 88.704C74.2382 89.1098 73.5632 89.4143 72.9218 89.7864C72.2804 90.1582 71.673 90.4967 71.0312 90.8685C70.6261 91.1393 70.255 91.5111 69.8159 91.7142C68.7019 92.1877 67.5206 92.5935 66.3729 93.033C66.2714 93.0666 66.2042 93.1007 66.1026 93.1347C65.2589 93.5065 64.4487 93.9123 63.6046 94.2168C62.828 94.4872 62.0183 94.6903 61.2077 94.8594C60.9378 94.9271 60.6335 94.8594 60.3304 94.893C59.7561 94.9948 59.1819 95.1298 58.6085 95.1975C57.1233 95.401 55.6378 95.5356 54.1526 95.7387C53.2749 95.8404 52.4307 96.0091 51.553 96.1105C50.9456 96.1445 50.3042 96.0768 49.6964 96.0768C49.2577 96.0768 48.785 96.1786 48.346 96.1105C47.6374 96.0091 46.928 95.8404 46.2194 95.7046C46.0507 95.671 45.8143 95.6033 45.6792 95.671C45.4093 95.806 45.1729 95.6033 44.903 95.671C44.7343 95.7046 44.5655 95.5696 44.3964 95.5696C44.2616 95.5356 44.0928 95.6033 43.9237 95.5696C43.5526 95.4679 43.2151 95.3329 42.81 95.3665C42.405 95.4006 41.9999 95.1975 41.5608 95.0965C40.9534 94.9607 40.3796 94.8253 39.7718 94.6903C39.5354 94.6226 39.3331 94.5212 39.0967 94.3858C39.0292 94.4195 38.9276 94.4876 38.7928 94.4876C38.2186 94.3858 37.6452 94.3522 37.1049 94.1491C36.6323 93.98 36.1936 93.7433 35.687 93.811C35.5522 93.8446 35.4507 93.7769 35.3159 93.7769C35.2143 93.6419 35.1128 93.3711 35.012 93.3711C34.3362 93.4051 33.9315 92.8303 33.3577 92.6612C33.0538 92.5595 32.8178 92.2214 32.5139 92.12C31.7714 91.8155 31.1635 91.173 30.3198 91.0716C30.0495 91.0376 29.7796 90.9025 29.4756 90.8008C29.5768 90.9362 29.6444 91.0376 29.7452 91.1393L29.678 91.2066C28.7667 90.6658 27.8553 90.1246 26.9436 89.6178C26.8088 89.5833 26.7077 89.4483 26.6061 89.3806L25.6948 88.7717C25.5932 88.704 25.3909 88.6027 25.3909 88.6363C25.1885 88.8735 24.9858 88.6704 24.851 88.6027C23.9393 87.9601 22.8928 87.5543 22.0151 86.844C21.644 86.5399 21.2049 86.3368 20.935 85.9647C20.4624 85.3898 19.8881 84.984 19.2471 84.6458C18.7409 84.3758 18.2682 84.071 17.7956 83.7665C17.5592 83.5975 17.3229 83.3947 17.3229 83.023C17.3229 82.7858 17.2213 82.5495 16.9178 82.6845C16.7827 82.4814 16.6479 82.2446 16.4792 82.1769C16.0741 82.0079 15.8034 81.7038 15.4999 81.4334C15.1963 81.1626 14.96 80.7904 14.5885 80.6554C13.9135 80.3846 13.5084 79.8101 13.1034 79.3366C12.1581 78.2201 11.3139 77.0026 10.4362 75.8188C10.369 75.7175 10.2338 75.6498 10.1327 75.5488L10.0987 75.5825C10.2674 75.9206 10.4362 76.2251 10.6053 76.5632C10.5713 76.5968 10.5038 76.6309 10.4702 76.6649C10.267 76.4278 10.0311 76.1914 9.82875 75.9543C9.79477 75.9883 9.76118 76.022 9.72719 76.022L12.1581 79.8774C12.3604 80.1819 12.5291 80.4859 12.7319 80.7904C12.6935 80.8324 12.6477 80.8669 12.5967 80.8921C12.2256 80.8244 11.8881 80.5536 11.719 80.2492C11.4155 79.7084 11.0776 79.3702 10.4026 79.4375C10.335 79.2008 10.2674 78.9304 10.2338 78.694C10.0987 78.694 9.9975 78.694 9.76118 78.66C10.2338 79.4039 10.6389 80.0465 11.0776 80.7904C10.9088 80.689 10.8077 80.6213 10.7401 80.5877C11.3479 81.2303 11.7866 82.0419 12.5631 82.4477C12.7319 83.2253 13.6096 83.5975 13.812 84.3418C13.6432 84.3077 13.5084 84.2737 13.3393 84.24C13.0694 83.9019 12.7651 83.5638 12.462 83.1916C12.5291 83.4284 12.6307 83.6311 12.7655 83.8006C13.1706 84.3077 13.542 84.8149 14.0147 85.2548C14.1834 85.4238 14.4198 85.4915 14.4198 85.7956C14.4874 85.7279 14.5549 85.6942 14.6893 85.6265C14.6221 85.7619 14.5885 85.83 14.5549 85.931C14.6897 85.931 14.7913 85.9647 14.8924 85.9647C14.96 86.1682 14.8584 86.4722 15.2635 86.4045C15.2975 86.4045 15.3311 86.4382 15.3651 86.4722C15.5338 86.9117 15.8038 86.9117 16.1752 86.7426C16.2428 86.709 16.4116 86.7426 16.4448 86.8103C16.6139 87.1821 16.8502 87.2162 17.1542 86.9457C17.1542 87.1148 17.1877 87.2839 17.1877 87.4193H17.3229C17.3229 87.3516 17.2893 87.2498 17.2893 87.0807C17.4581 87.2161 17.5588 87.2842 17.6268 87.3515C17.9643 87.8251 18.2682 88.2645 18.7409 88.6363C19.3823 89.1775 19.9557 89.7524 20.5635 90.2604C21.7452 91.2407 23.0616 92.0527 24.3784 92.7962C25.9987 93.7092 27.5514 94.6903 29.2057 95.5692C31.1971 96.618 33.3241 97.3279 35.5182 97.8355C36.3284 98.0045 37.105 98.1736 37.9151 98.3763C38.6241 98.5798 39.3331 98.8839 40.0417 99.0533C41.1221 99.2897 42.2362 99.4924 43.3163 99.6955C43.5526 99.7291 43.7889 99.7632 44.0585 99.7972V99.8646C44.3628 99.8646 44.7343 99.7291 44.8018 99.8305C44.9706 100.101 45.1053 99.9659 45.3081 99.9323C45.5444 99.8646 45.8143 99.8646 46.0843 99.8646C47.0296 99.8982 47.9409 100.101 48.8862 100.034C49.0889 100.034 49.3929 99.8646 49.5616 100.203C49.6292 100.169 49.6628 100.135 49.7304 100.101C49.8651 100.067 50.0343 100.067 50.169 100.034V100.101C50.1014 100.135 50.0343 100.135 49.8991 100.169C50.0679 100.203 50.1686 100.236 50.2702 100.271C50.203 100.338 50.1686 100.338 50.1014 100.372C50.0343 100.405 49.9327 100.439 49.7979 100.541C51.0128 100.778 52.1608 100.812 53.1737 100.541V100.338H53.3085C53.3085 100.405 53.3425 100.473 53.3761 100.541C54.9288 100.676 56.4479 100.473 57.8995 99.9659C58.0347 100.135 58.1358 100.372 58.3386 100.034C58.4061 99.9323 58.5749 99.8982 58.7097 99.8646C59.0136 99.7969 59.385 99.6614 59.655 99.7632C59.9589 99.8649 60.06 99.5938 60.2964 99.5938C60.6812 99.5951 61.0654 99.5612 61.444 99.4924C61.6468 99.4587 61.8491 99.357 62.0854 99.2897C62.0854 99.2556 62.0854 99.222 62.0518 99.1879C61.8155 99.1543 61.5456 99.1206 61.3429 99.1206C61.7479 98.9175 62.1194 98.7489 62.4905 98.5794C62.4905 98.6131 62.5245 98.6131 62.5245 98.6471C62.4229 98.6808 62.3558 98.8162 62.2206 98.8162H62.6933C62.5917 98.8162 62.4569 99.1206 62.2882 99.3233C63.503 99.0189 64.6175 98.7485 65.6976 98.478V98.4103C65.5628 98.444 65.4612 98.444 65.3601 98.478C65.3265 97.7678 66.1022 98.0045 66.3729 97.5987C66.035 97.7005 65.6972 97.8014 65.3601 97.8691V97.8014C66.5077 97.2943 67.6894 96.7871 68.8366 96.2795C68.8366 96.3136 68.871 96.3136 68.871 96.3472C68.6679 96.4826 68.4659 96.584 68.162 96.753C68.3643 96.7871 68.4995 96.7871 68.6007 96.8207C68.6007 96.9225 68.6007 96.9898 68.5671 97.0242C69.1409 96.9898 69.0058 96.4826 69.1745 96.1782C69.2761 96.2118 69.4108 96.2799 69.5124 96.2459C69.8159 96.1782 70.0862 96.0768 70.3897 95.9758C70.7276 95.8741 71.0651 95.7723 71.4026 95.6369C71.9429 95.4002 72.4491 95.0961 72.9894 94.8253C73.0905 94.7916 73.2589 94.8253 73.3944 94.8253C73.4956 94.8253 73.5632 94.7576 73.6308 94.6903C73.7655 94.5885 73.9003 94.3858 74.0019 94.4195C74.4745 94.4872 74.812 94.3181 74.9472 93.8787C74.9812 93.8787 74.9812 93.8446 75.0147 93.8446C75.1835 93.7096 75.3522 93.5746 75.521 93.4728C76.264 93.0666 76.9726 92.6612 77.7155 92.255C77.7491 92.2213 77.8167 92.255 77.8843 92.255C77.9855 92.255 78.1206 92.255 78.1878 92.2213C78.6269 92.0182 79.0315 91.7819 79.437 91.5451C79.3355 91.5111 79.437 91.4774 79.0995 91.4434V91.3757C79.437 91.3084 79.5382 91.2743 79.7409 91.2066L79.6733 91.1393C80.5511 90.26 81.6652 89.6174 82.5089 88.8735C82.6777 88.9071 82.7452 88.9408 82.8464 88.9408C82.8804 88.8394 82.8804 88.7381 82.8804 88.6707C83.0151 88.5013 83.1499 88.2982 83.3191 88.1632C84.0612 87.4866 84.8722 86.9117 85.5472 86.2014C86.5261 85.2207 87.4714 84.2064 88.3491 83.158C89.1593 82.211 89.9695 81.2639 90.6445 80.2155C91.5898 78.7613 92.3999 77.2735 93.2437 75.7515C93.8515 74.6691 94.3917 73.5874 94.9991 72.5046C95.0667 72.4033 95.2019 72.2682 95.303 72.2682C96.2144 72.1665 97.1261 72.0988 98.0038 71.9974C98.2062 71.9638 98.4425 71.8284 98.6452 71.7274C98.5437 71.558 98.4761 71.3549 98.3749 71.1858C98.2402 70.9827 98.0374 70.814 97.9023 70.6109C97.7675 70.4419 97.6663 70.2392 97.5648 70.0361C97.4632 69.867 97.3624 69.7316 97.2609 69.5625C97.0585 69.1908 96.8558 68.819 96.6866 68.4128C96.6534 68.3111 96.5859 68.142 96.6195 68.041C97.2273 66.7222 97.4632 65.3017 98.0374 63.9829C98.6113 62.6296 98.7796 61.1077 99.0503 59.6535C99.2867 58.267 99.4214 56.8805 99.5902 55.4936C99.6917 54.5129 99.8265 53.5659 99.8605 52.5852C100.063 51.0296 99.9952 49.5758 99.9616 48.1212ZM15.0944 85.8633C14.8588 85.5933 14.6561 85.2884 14.4198 85.018L14.5209 84.9163C14.892 85.3225 15.2639 85.7279 15.635 86.1678C15.4327 86.0664 15.1963 85.9987 15.0948 85.8633H15.0944ZM15.635 86.1678C15.7362 86.1341 15.8377 86.1341 15.9389 86.1001C16.0401 86.2691 16.1077 86.4722 16.2084 86.6753C15.7358 86.6413 15.4999 86.4382 15.635 86.1678ZM50.7429 100.135V100.034C51.3843 99.9659 51.9921 99.8982 52.6335 99.8309V99.9326C52.0073 100.034 51.3762 100.101 50.7429 100.135ZM59.2499 99.2556C58.7772 99.3574 58.271 99.4247 57.7983 99.4924C57.6296 99.5264 57.4272 99.6959 57.3597 99.391C57.2921 99.4247 57.2245 99.4247 57.1565 99.4587C57.3257 99.9659 57.7308 99.5605 58.0683 99.7632C57.3257 99.8649 56.6167 99.9323 55.9081 100.034V99.9659C56.1104 99.9323 56.3468 99.8982 56.5495 99.8646V99.7632C56.2116 99.7291 55.8737 99.6955 55.5366 99.6955C55.435 99.6955 55.3003 99.8309 55.1991 99.8646C55.0639 99.8982 54.9288 99.9323 54.76 99.9323C54.1858 99.9659 53.6124 99.9659 53.0722 100C53.0386 100 52.9706 99.9659 52.9374 99.9659V99.8646C55.1991 99.5601 57.4272 99.2556 59.689 98.9516C59.7225 99.0189 59.7225 99.0866 59.7561 99.1543C59.5538 99.1543 59.4186 99.222 59.2499 99.256V99.2556ZM59.7561 98.9175C60.5327 98.8162 61.2417 98.7485 61.9843 98.6475C60.4315 99.0866 59.9253 99.1543 59.7561 98.9175ZM30.3534 30.6374C31.4339 29.1492 32.5475 27.6609 33.628 26.139C33.9655 25.6995 34.2354 25.226 34.5733 24.7866C34.6745 24.6511 34.8092 24.5834 34.9784 24.448L34.9444 24.3807C35.0796 24.2113 35.2139 24.0763 35.2819 23.9409C35.4507 23.6708 35.5522 23.366 35.687 23.0615C35.721 22.9938 35.8221 22.9265 35.8221 22.9265C36.2948 23.1629 36.2948 22.6557 36.4635 22.4867C36.766 22.1457 37.0587 21.796 37.3413 21.4383C37.5436 21.1682 37.7464 20.9311 37.9151 20.6266C37.9487 20.5253 37.8475 20.3566 37.8135 20.2208H37.7128C37.8139 20.1531 37.9151 20.0518 38.0163 19.9841C38.0503 19.9841 38.0503 19.9841 38.0839 19.9504C38.2866 19.6459 38.4889 19.3415 38.6917 19.0711C39.0968 18.5299 39.5354 17.9886 40.0081 17.5151C39.9405 17.6842 39.8729 17.8536 39.8057 17.9886C39.8393 17.9886 39.8393 18.0227 39.8729 18.0227C40.278 17.4815 40.7167 16.9743 41.1221 16.4331C41.0882 16.3994 41.0546 16.3654 41.0206 16.3654C40.8522 16.5344 40.7171 16.7035 40.5479 16.8725C40.5143 16.8389 40.4807 16.8052 40.4464 16.8052C40.7846 16.3654 41.1221 15.9259 41.4596 15.4183C41.5272 15.5201 41.5948 15.6551 41.7292 15.9259C41.8647 15.5874 41.9999 15.3506 42.101 15.1143C41.9995 15.216 41.8647 15.317 41.7635 15.4183L41.662 15.317L42.2698 14.404C42.9112 13.4906 43.5526 12.544 44.194 11.6306C44.4303 11.2925 44.7343 11.0221 44.9362 10.6839C45.578 9.39879 46.5909 8.38405 47.3671 7.20026C47.5362 6.96389 47.7721 6.76079 47.9749 6.55768C48.1436 6.35497 48.2788 6.42267 48.4139 6.59173C49.3253 7.74148 50.2366 8.92527 51.1479 10.075C51.8233 10.9207 52.4983 11.7323 53.1397 12.6113C53.9163 13.6937 54.6589 14.7758 55.4354 15.8582C56.3132 17.1093 57.1909 18.3608 58.0347 19.6463C59.3175 21.5396 60.5327 23.4337 61.8155 25.3274C62.7608 26.7143 63.7062 28.0667 64.6175 29.4536H62.8956C61.3093 29.4196 59.6886 29.2842 58.1022 29.3519C55.9417 29.4536 53.7475 29.69 51.5866 29.8591C48.8522 30.0958 46.0843 30.1299 43.3503 30.1299C42.371 30.1299 41.3921 30.2649 40.4128 30.3326C39.2315 30.4003 38.0839 30.468 36.9022 30.502C35.5182 30.5693 34.1678 30.6038 32.7839 30.637C32.0077 30.6711 31.1971 30.6374 30.3534 30.6374ZM69.0733 46.1939V46.4983C69.0397 46.4983 69.0058 46.532 68.9382 46.532C68.8034 46.0585 68.6683 45.5513 68.4995 45.0778C68.162 44.0971 67.7905 43.1164 67.1831 42.237C66.5073 41.29 65.9003 40.3093 65.2249 39.3286C65.0561 39.0919 64.8198 38.8888 64.6175 38.6861C63.9085 37.9081 63.1995 37.0964 62.2882 36.522C60.9378 35.6767 59.5538 34.966 58.0683 34.3571C57.6632 34.188 57.2921 33.9853 56.887 33.7486H57.6972L63.4698 33.6472C64.7187 33.6132 65.9339 33.6132 67.1831 33.5455C67.487 33.5455 67.6558 33.6472 67.8245 33.9176C68.1284 34.4248 68.4319 34.932 68.7694 35.4399C68.8034 35.5068 68.871 35.6086 68.871 35.7099C68.871 36.4539 68.871 37.2322 68.9046 37.9758C68.9386 38.7538 69.0058 39.4981 69.0397 40.2757C69.0397 41.0533 68.9722 41.8649 69.0058 42.6765C69.0397 43.827 69.0733 45.0101 69.0733 46.1939ZM32.7499 34.8643C34.3366 34.7966 35.8553 34.6948 37.4085 34.6275C38.6233 34.5598 39.8725 34.5258 41.0878 34.4584C41.5944 34.4244 42.0671 34.3907 42.5733 34.4584C42.0331 34.7289 41.4932 34.9993 41.0206 35.3378C40.4128 35.7432 39.8389 36.2848 39.2311 36.7243C38.6237 37.1638 38.0835 37.705 37.5772 38.2799C36.9358 39.0578 36.2268 39.7341 35.5518 40.478C35.0792 41.0192 34.5389 41.5268 34.1339 42.1013C33.5596 42.8456 33.0538 43.6572 32.5135 44.5025C32.6823 41.2896 32.8846 38.1108 32.7499 34.8643ZM54.7936 67.3981C53.7132 67.6685 52.5995 67.9733 51.485 68.1083C50.5397 68.2437 49.5612 68.2101 48.5823 68.2101C47.7046 68.2101 46.8604 68.176 45.9827 68.1083C45.0038 68.007 44.0249 67.9052 43.0796 67.4658C42.2694 67.094 41.4257 66.7555 40.6155 66.3497C39.8053 65.9439 38.9944 65.4703 38.3874 64.7264C37.9483 64.1852 37.3405 63.7457 36.8007 63.2722C36.899 63.6798 37.1537 64.0322 37.5096 64.2529C37.3409 64.4564 37.1046 64.3546 36.7671 63.8134C36.6655 63.8807 36.5639 63.9152 36.4967 63.9484C36.5983 63.7117 36.6995 63.4753 36.8007 63.2722C36.6659 63.0022 36.4967 62.6973 36.362 62.4269C36.0905 61.9834 35.8315 61.5322 35.5854 61.0741C35.5178 60.9723 35.5178 60.871 35.4503 60.7696C35.2815 60.5665 35.1128 60.3638 34.9776 60.1607C34.7077 59.7549 34.4714 59.3154 34.1339 58.9096C34.1339 59.0113 34.1674 59.1123 34.1674 59.2477C34.1339 59.2477 34.1003 59.2813 34.1003 59.2813L33.3913 57.5567C33.3573 57.5567 33.3573 57.5567 33.3237 57.5908L33.9315 59.8226C33.8975 59.8226 33.8639 59.8566 33.8299 59.8566C33.7284 59.7212 33.6276 59.5858 33.56 59.4167C33.4924 59.1467 33.2901 59.1467 33.121 59.2477C33.0194 59.3154 32.9522 59.5521 32.9862 59.6535C33.2225 60.2288 33.4924 60.8033 33.7624 61.3785C33.8299 61.5812 33.8975 61.7503 33.9987 61.9538C34.0327 62.0211 34.1339 62.0884 34.1339 62.1902C34.269 62.4606 34.3702 62.731 34.5389 62.9677C34.8428 63.3736 35.1803 63.7794 35.4842 64.1852C35.7882 64.591 36.0581 65.0309 36.328 65.4367C36.362 65.5044 36.4632 65.5044 36.4967 65.5384C36.6659 66.0452 37.2397 66.4174 37.6448 66.2147C37.746 66.9922 38.5897 67.2634 38.9276 68.007C38.5962 67.8717 38.2696 67.725 37.9483 67.5671C37.9147 67.6012 37.9147 67.6348 37.8811 67.7025C38.2862 67.9052 38.6913 68.1083 39.0624 68.3451C39.3999 68.5478 39.7378 68.7509 40.0413 68.9877C40.4468 69.3594 40.919 69.5629 41.4932 69.698C41.4593 69.5962 41.4257 69.5625 41.4257 69.5625C42.3204 69.9788 43.2094 70.4072 44.0925 70.8477C40.5815 70.9154 36.8346 70.9831 32.9518 71.0504C32.9518 70.4078 32.9186 69.7993 32.9186 69.1567C32.9186 68.8867 32.9862 68.6496 32.9522 68.3788C32.8507 66.8232 32.8507 65.2676 32.6487 63.7457C32.4456 62.1224 32.4456 60.5328 32.4799 58.9096C32.5135 58.0302 32.446 57.1172 32.4124 56.2379C32.4124 55.0541 32.4124 53.9044 32.446 52.7206C32.446 52.5515 32.5135 52.4161 32.5811 52.2471H32.6823C32.7159 52.3148 32.6823 52.4161 32.7499 52.4506C32.851 52.5515 33.0194 52.7206 33.0874 52.6869C33.2901 52.5515 33.5936 52.4161 33.6612 52.2134C33.8299 51.8076 33.8975 51.3681 33.8975 50.9619C33.8975 50.6578 34.0327 50.4547 34.1671 50.2516C34.235 50.1503 34.2686 50.0489 34.3366 49.9135C34.2014 49.8122 34.0663 49.7445 33.8975 49.6094C34.0327 49.2377 33.9987 48.7974 34.5053 48.5947C34.5729 48.5607 34.5729 48.3916 34.6065 48.2902C34.6401 48.0202 34.6741 47.7154 34.7077 47.445C34.7753 47.5467 34.8089 47.58 34.8764 47.6477C34.9104 47.58 34.944 47.5463 34.944 47.5463C34.944 47.4109 34.9104 47.1405 34.944 47.1405C35.3491 47.0728 35.1803 46.6333 35.3831 46.4302C35.4167 46.3966 35.3491 46.2948 35.3491 46.2275C35.3491 46.1598 35.3491 46.0581 35.3831 46.0581C35.8553 45.9567 35.7882 45.4495 36.0917 45.2128C36.1932 45.1451 36.2268 45.0437 36.362 44.8747C36.6315 45.3482 36.1589 45.5849 36.1257 45.9234C36.6995 45.5849 36.8678 44.7733 36.5307 44.5365C36.6659 44.4348 36.8003 44.2998 36.9018 44.1648C37.2729 43.7586 37.6784 43.3864 38.0159 42.9806C38.2522 42.6761 38.387 42.3044 38.6237 41.9999C38.7589 41.8308 39.0288 41.6954 39.2311 41.5941C39.8389 41.256 40.4128 40.8838 40.7843 40.3089C40.8518 40.2412 40.953 40.1735 41.0538 40.1062C41.1553 40.0385 41.3581 40.0385 41.3917 39.9368C41.4257 39.8695 41.3241 39.7004 41.2565 39.5987C41.3917 39.531 41.5268 39.3959 41.7968 39.2605C41.6952 39.464 41.662 39.5987 41.5944 39.7341L41.7632 39.9031C42.0671 39.6664 42.5397 39.3959 42.8432 39.1928C42.8432 39.1592 42.6745 39.0238 42.6745 39.0238C42.4721 39.1255 42.1682 39.2946 41.8643 39.4296C41.9319 39.3282 41.9319 39.2605 41.9655 39.2269C42.4382 38.9224 42.9108 38.618 43.4171 38.3816C44.5987 37.84 45.7803 37.2992 46.9616 36.7916C47.1643 36.6902 47.4343 36.7579 47.6706 36.7579C47.7718 36.7579 47.8393 36.7579 47.9409 36.7243C48.4807 36.5552 49.021 36.3862 49.5612 36.2508C49.803 36.1839 50.0526 36.1498 50.3034 36.1494C51.3167 36.1831 52.3292 36.1831 53.3421 36.2512C53.7807 36.2844 54.1858 36.3862 54.5909 36.5212C55.0975 36.6902 55.6374 36.927 56.11 37.1638C56.6806 37.4696 57.233 37.8084 57.7643 38.1785C58.7433 38.8211 59.6546 39.531 60.6335 40.1062C61.5788 40.6815 62.321 41.4587 62.9292 42.338C63.6714 43.3868 64.5159 44.3338 64.8534 45.6186L65.3597 47.8508C65.4608 48.2566 65.6972 48.6624 65.596 49.1359C65.4272 49.9812 65.2921 50.8605 65.1573 51.7062C65.0897 52.0443 65.0222 52.3825 65.0558 52.7206C65.1233 53.7694 64.7183 54.682 64.3132 55.629C64.178 55.9335 63.9757 56.2379 63.8069 56.576C63.8405 56.6097 64.0433 56.7114 64.0765 56.7114L64.3808 56.1025C64.4144 56.1025 64.4144 56.1025 64.4483 56.1366C64.2796 56.6101 64.1444 57.1172 63.9757 57.5908C63.5706 58.6395 63.1655 59.7212 62.6593 60.7359C62.389 61.3112 61.9163 61.7847 61.5788 62.3252C61.2413 62.7987 60.9714 63.3059 60.6335 63.7457C60.33 64.1179 60.0261 64.4896 59.621 64.7605C58.7093 65.4367 57.7643 66.1129 56.785 66.6545C56.1776 67.0263 55.4686 67.229 54.7936 67.3981ZM36.8007 65.6057L36.7671 65.6394C36.6995 65.6057 36.5983 65.5717 36.5307 65.5044L35.7206 64.2873C35.653 64.1856 35.619 64.0838 35.653 63.9484C36.0161 64.5141 36.3989 65.0669 36.8007 65.6057ZM57.7979 70.2392C59.3171 69.5962 60.5663 68.6832 61.714 67.6348C61.8827 67.4658 62.0515 67.2967 62.2542 67.1613C63.6718 66.282 64.7183 65.0645 65.6636 63.7117C66.7437 62.1561 67.4526 60.3974 68.3304 58.7405C68.3979 58.6051 68.4655 58.4697 68.5331 58.3687C68.4655 62.2238 68.9042 66.0116 69.4104 69.833C65.596 69.9684 61.714 70.1042 57.7979 70.2392ZM92.0284 69.2244C91.9945 69.2921 91.9269 69.3594 91.8933 69.4271C91.8593 69.3594 91.8593 69.2581 91.8257 69.1231C91.6226 69.6639 91.1843 69.3935 90.8804 69.3935C89.0577 69.4271 87.2007 69.4271 85.378 69.4271C83.6226 69.4271 81.8335 69.4271 80.078 69.4612C79.5038 69.4612 78.8964 69.5962 78.3226 69.6302C76.9386 69.698 75.5546 69.732 74.1702 69.7653C74.0687 69.7653 73.9679 69.5962 73.7991 69.4612C73.7655 69.5289 73.6976 69.6302 73.596 69.7653C73.5628 69.698 73.4952 69.6302 73.4276 69.5289C73.3994 69.621 73.3655 69.7113 73.3261 69.7993H73.2253C73.1577 69.3258 73.0222 68.8863 73.0222 68.4128C73.0222 67.3981 73.1237 66.3837 73.1577 65.369C73.1913 64.8955 73.1577 64.456 73.1577 64.0161C73.2929 64.1179 73.394 64.1852 73.5288 64.2869C73.5964 64.1515 73.664 64.0502 73.7316 63.9484C73.7316 63.9484 73.664 63.9148 73.5964 63.8471C73.664 63.8134 73.7316 63.7457 73.7316 63.7121C73.7655 63.6103 73.8327 63.509 73.8327 63.4413C73.8327 63.2045 73.7655 63.0018 73.7312 62.7987C73.7655 62.7987 73.7991 62.7987 73.8327 62.765L74.0355 63.7794H74.1366C74.0019 63.5426 74.4405 63.3399 74.069 63.0691C74.0355 63.0354 74.103 62.8323 74.103 62.731C74.0015 62.5283 73.9343 62.3252 73.8327 62.0547C73.8667 62.0211 73.9679 61.987 74.069 61.9534C73.9343 61.8857 73.8327 61.818 73.7316 61.7839C74.0691 61.4799 74.069 61.3108 73.7655 60.9723C73.8327 60.9387 73.9003 60.9387 73.9003 60.905C73.9003 60.6005 73.9003 60.2961 73.8327 59.9916C73.7655 59.6535 73.9343 59.2481 73.4276 59.045C73.459 59.1414 73.5045 59.2325 73.5628 59.3154C73.5628 59.3154 73.4612 59.349 73.3597 59.4171C72.9214 59.0109 73.1913 58.4701 73.0901 57.8612C73.3265 57.9289 73.4952 57.9966 73.664 58.0639C73.5964 57.8275 73.4276 57.5567 73.3265 57.2523H73.1913V55.0205C73.1913 55.0541 73.4276 55.0541 73.5624 55.0878C73.5624 55.0541 73.5964 55.0205 73.5964 54.9864C73.4948 54.851 73.3601 54.7164 73.2253 54.5469L73.2929 54.4792C73.0226 54.1411 73.1577 53.6676 73.1577 53.5663V51.1987C73.4952 51.5368 72.989 51.9766 73.4952 52.1794V51.8412H73.4616C73.4276 51.3341 73.4276 50.8269 73.3941 50.3193H73.3265C73.2929 50.387 73.2929 50.4211 73.2589 50.4884H73.1913C73.2589 47.8167 73.3265 45.1451 73.3941 42.4057C73.7316 42.8456 74.103 43.2514 74.3394 43.6909C75.1155 45.1114 76.1284 46.3289 77.0737 47.614C77.8839 48.7301 78.6265 49.9476 79.369 51.0973C80.2804 52.4838 81.1581 53.8703 82.0698 55.2572C82.7479 56.3074 83.4457 57.3446 84.1628 58.3684C84.8042 59.2813 85.4792 60.1607 86.1546 61.04C86.7284 61.818 87.3359 62.596 87.9097 63.3736C88.5851 64.3206 89.2601 65.2676 89.9355 66.1806C90.273 66.6541 90.6441 67.1276 91.0155 67.6012C91.2179 67.8716 91.5218 68.0747 91.7245 68.2437C91.6906 68.2437 91.657 68.2437 91.5894 68.2097C91.6905 68.3451 91.7581 68.4464 91.8257 68.5142C92.1968 68.7169 92.2308 68.92 92.0284 69.2244ZM93.7499 60.7696V60.5328C93.7499 60.6005 93.7835 60.7019 93.7499 60.7696ZM94.8976 45.8557C94.864 45.8557 94.6613 45.6522 94.6277 45.6186C94.5937 45.7203 94.6277 45.8213 94.5601 45.9567C94.5265 45.8554 94.2902 45.889 94.2902 45.7877C94.2562 46.2612 94.4925 46.7347 94.4589 47.2082C94.5601 47.1405 94.9652 47.1065 95.0663 47.0051C95.1003 47.0391 95.1675 47.0728 95.2015 47.0728C94.5265 47.58 94.6952 48.0875 94.9984 48.6624C95.0663 48.7974 95.2691 49.0682 95.0663 49.3386C94.9987 49.4063 95.1003 49.6094 95.1339 49.7785H95.2351V49.8458L94.9316 49.9476C94.864 49.8458 94.4589 49.6431 94.4589 49.474V51.1987C94.7964 51.3004 94.7964 51.7739 94.9316 52.0103C94.9987 51.9089 95.0327 51.8412 95.0663 51.7403L95.1003 51.7735C95.0663 51.977 95.0327 52.1794 94.9652 52.3825C94.8976 52.6869 94.83 52.9577 94.7964 53.2618C94.7964 53.2955 94.864 53.3635 94.864 53.3968C94.4925 54.2425 94.6952 55.1895 94.5601 56.0689C94.4585 56.7114 94.5601 57.3877 94.4925 58.0639C94.4249 58.6392 94.2902 59.2477 94.155 59.8226C94.1214 59.9243 94.0534 59.958 93.8851 60.0261C93.9523 59.6199 93.9187 59.349 93.8511 58.9773C93.8175 58.9773 93.3784 58.7405 93.3448 58.7405C93.3448 59.214 93.6144 59.8566 93.7159 60.3974C93.6144 60.3638 93.2097 60.1274 93.1761 60.1274C93.1085 60.5328 93.1085 61.0744 93.0745 61.5135C93.0409 61.8516 92.737 62.1561 92.7034 62.5283C92.7034 62.731 92.9398 62.8664 92.9058 63.2045H93.1761C93.1761 62.5283 93.48 61.9193 93.48 61.2091H93.5812C93.6148 61.2768 93.7163 61.3445 93.6823 61.3785C93.6148 61.7503 93.48 62.1561 93.5136 62.5283C93.5136 62.731 93.6824 62.9341 93.6148 63.1708C93.5472 63.3736 93.5132 63.5767 93.48 63.8807C93.446 63.7117 93.4124 63.6444 93.4124 63.5426C93.3784 63.5426 93.0749 63.509 93.0409 63.509C93.0073 63.7117 93.2773 63.9148 93.2437 64.0842C93.2097 64.1179 93.1761 64.1179 93.1085 64.1515L91.9945 62.5283C91.1167 61.2431 90.239 59.958 89.3613 58.6392C89.1343 58.3163 88.9313 57.9771 88.7538 57.6244C87.707 55.8321 86.5597 54.1071 85.2769 52.4502C84.2976 51.1987 83.5214 49.8458 82.6097 48.527C81.7659 47.2759 80.9218 46.0581 80.078 44.807C79.7741 44.4011 79.403 44.029 79.1327 43.5899C78.255 42.203 77.4788 40.7825 76.6011 39.3959C75.8585 38.2458 75.048 37.1301 74.2718 36.014C73.9939 35.6248 73.7238 35.2302 73.4616 34.8302C73.4276 34.7625 73.3941 34.6948 73.3941 34.5935C73.3265 33.8499 73.2589 33.1056 73.2253 32.3953C73.2253 31.7187 73.2929 31.0425 73.2929 30.3322V29.7237C73.2929 29.5546 73.3265 29.4192 73.3265 29.2501C73.3601 29.2161 73.3941 29.1488 73.4276 29.1147C72.4487 29.1147 71.4362 29.0811 70.4569 29.1147C69.8159 29.1488 69.478 28.878 69.039 28.4049C67.7565 26.9503 66.8112 25.2937 65.6972 23.7378C64.6503 22.2495 63.5706 20.7953 62.4901 19.3411C61.6128 18.1573 60.7351 17.0076 59.8573 15.8238C58.8784 14.4713 57.9331 13.1184 56.9198 11.7656C55.705 10.1423 54.4561 8.51906 53.2069 6.8958C52.6327 6.15147 51.9917 5.44159 51.3503 4.66361C51.7889 4.73131 52.194 4.79901 52.5995 4.83267L54.2198 4.93442C55.4347 5.03616 56.6503 5.10308 57.8655 5.27214C58.8784 5.40754 59.8909 5.61065 60.9374 5.7797C63.1655 6.15147 65.3593 6.7604 67.4866 7.47067C68.7355 7.87649 69.9507 8.41771 71.1659 8.92488C73.9003 10.041 76.4999 11.3934 79.0651 12.814C79.8757 13.2535 80.348 13.9637 80.9558 14.6063C81.8335 15.5197 82.7112 16.4327 83.555 17.3797C84.5339 18.4958 85.4456 19.6456 86.3905 20.7953C87.2343 21.81 88.1124 22.8244 88.9562 23.8391C89.2265 24.1436 89.4288 24.5154 89.6652 24.8535C90.2054 25.6651 90.8128 26.4431 91.2855 27.3228C91.6234 27.965 91.8257 28.7089 92.062 29.4192C92.3995 30.468 92.737 31.4823 93.0749 32.5307C93.3129 33.3216 93.5156 34.1226 93.6823 34.9316C93.8175 35.4728 93.7835 36.0477 93.9519 36.5889C94.155 37.2992 93.9519 38.0767 94.155 38.787C94.1886 38.8547 94.2226 38.9561 94.2562 39.0238C94.3913 39.1592 94.4925 39.2942 94.2902 39.4973C94.2562 39.531 94.2562 39.6664 94.2902 39.7677C94.3573 39.7004 94.3913 39.6327 94.4589 39.531C94.4589 39.5987 94.4925 39.6327 94.4925 39.6664C94.4925 39.8018 94.4589 39.9368 94.4925 40.0722C94.4925 40.1399 94.5601 40.2412 94.5937 40.3089C94.6613 40.2412 94.7288 40.2076 94.864 40.1062C95.1675 41.256 95.2015 42.4057 95.2015 43.5895C95.2015 44.7056 95.4038 45.8213 94.9316 46.9041C95.0327 46.5316 94.7964 46.1939 94.8976 45.8557Z" fill="#DD3735"/>
    <path d="M73.4377 59.1178C73.4713 59.1178 73.5052 59.1519 73.5052 59.1519L73.4713 59.1178C73.4713 59.0842 73.4713 59.0842 73.4377 59.1178ZM78.7713 92.5313C78.4002 92.8018 78.0287 93.0385 77.556 93.1399C77.5224 93.1062 77.5224 93.0722 77.4884 93.0385C77.8599 92.8018 78.265 92.565 78.6365 92.3282C78.6701 92.3959 78.7377 92.4636 78.7713 92.5313ZM15.4759 46.7062C15.847 46.2327 16.2185 45.7591 16.6235 45.286C16.6571 45.3197 16.9275 45.3874 16.961 45.421C16.59 45.8945 16.0833 46.5371 15.7122 47.0443C15.6446 46.977 15.5435 46.7402 15.4759 46.7062ZM5.88877 63.2777C5.61846 62.7029 5.34854 62.0939 5.07861 61.5191C5.11221 61.4854 5.34854 61.3837 5.38213 61.3837C5.75361 61.9249 5.92236 62.5675 6.19229 63.1423C6.19229 63.1423 5.92236 63.2777 5.88877 63.2777ZM14.497 47.0443C14.2942 47.3487 14.0919 47.6869 13.8892 47.9913C13.8556 47.9577 13.4841 48.1267 13.4505 48.0927C13.6528 47.7886 14.1591 47.2474 14.3618 46.9429C14.3954 46.977 14.4294 47.0106 14.497 47.0443ZM75.1591 93.9179C75.1931 93.9179 75.1931 93.8838 75.2267 93.8838C75.463 93.9178 75.7334 93.9515 76.0033 93.9515C75.5642 94.256 75.2943 94.2223 75.1591 93.9179ZM14.5642 48.4648C14.5982 48.3635 14.6657 48.2617 14.7329 48.1604C14.8005 48.1604 14.9021 48.1267 14.9021 48.1267C15.0368 47.89 15.0368 47.7209 15.172 47.5178C15.1384 47.4842 15.1044 47.4842 15.0708 47.4501C14.8681 47.5855 14.6657 47.7546 14.463 47.89C14.5306 47.9577 14.5306 47.9913 14.5306 48.059C14.2607 48.0254 14.1591 48.1604 14.0243 48.5325C13.9903 48.6339 13.8216 48.6676 13.6528 48.803C13.6192 48.8707 13.5853 49.0397 13.5177 49.2088L13.5517 49.2428C13.5027 49.2875 13.4453 49.3219 13.3829 49.3442C13.1802 49.5469 12.9439 49.7163 12.7415 49.9191C12.7075 50.0204 12.6739 50.1222 12.6739 50.2235C12.9103 49.9868 13.3153 49.5469 13.6192 49.2765L13.6528 49.3101C13.788 49.1074 13.8892 48.9043 14.0243 48.7016C14.0579 48.7353 14.0579 48.7693 14.0919 48.803C13.9903 49.0734 13.8892 49.3778 13.788 49.6486C13.7204 49.6823 13.6192 49.75 13.6192 49.7163C13.4841 49.8177 13.3829 49.9527 13.2478 50.0545L12.6403 50.4603C12.3024 50.7647 11.9649 51.0351 11.5939 51.3396C11.3575 51.7114 11.1212 52.0495 10.8509 52.4894C11.256 52.388 11.3575 52.5571 11.3235 52.8952C11.7962 52.9629 11.8298 52.5907 11.9649 52.3203C11.9989 52.2526 12.0325 52.1172 12.1001 52.0835C12.404 51.8131 12.7415 51.5764 13.079 51.3056C13.1466 51.2379 13.1466 51.1028 13.1466 51.0011C13.1466 50.9674 12.9778 50.9674 12.8767 50.9338C13.1802 50.5953 13.6192 50.0204 13.9232 49.6486C14.0919 49.5469 14.2607 49.4119 14.2607 49.3101C14.2267 48.9384 14.463 48.837 14.7329 48.7016C14.5982 48.6002 14.5642 48.4985 14.5642 48.4648Z" fill="#DD3735"/>
    <path d="M15.2394 48.0924C15.1042 48.3292 14.9695 48.5323 14.8343 48.769L14.6316 48.6673C14.4968 49.4453 14.0242 50.1219 13.5515 50.2569C13.6867 50.3246 13.8214 50.3923 13.923 50.3583C14.0242 50.3246 14.0917 50.1555 14.1589 50.0542L15.0706 48.735L15.3745 48.2278L15.2394 48.0924ZM3.99798 62.939C4.16673 62.939 4.33548 62.973 4.53821 62.973C4.53821 62.8376 4.70696 62.8717 4.70696 62.7362H4.80813C4.80813 62.9053 4.84212 63.0407 4.84212 63.2098H4.13313C4.09915 63.1757 3.96438 62.973 3.99798 62.939ZM3.72805 61.3834C3.62688 61.282 3.45774 61.1807 3.45774 61.0789C3.42415 60.9439 3.52532 60.7749 3.62688 60.6058C3.69407 60.8422 3.72805 61.0453 3.79563 61.282C3.76165 61.3157 3.72805 61.3497 3.72805 61.3834ZM4.5718 59.2189C4.70696 59.5574 4.84212 59.9292 4.97688 60.2673C4.94329 60.2673 4.74055 60.369 4.70696 60.4027C4.5718 60.0646 4.40305 59.6924 4.26829 59.3543C4.30188 59.3207 4.50423 59.2189 4.5718 59.2189ZM79.7164 91.5504C79.8851 91.4827 80.0879 91.4486 80.3578 91.3809C80.0539 91.6177 79.8176 91.7868 79.6152 91.9899C79.5812 91.9558 79.5477 91.9222 79.5141 91.9222C79.5812 91.7868 79.6488 91.6854 79.7164 91.55V91.5504ZM38.2285 20.0903C38.4308 19.9549 38.5996 19.8535 38.8023 19.7181L38.8699 19.7858C38.6671 20.0566 38.4984 20.3271 38.2621 20.6652C38.2285 20.4284 38.2285 20.293 38.1945 20.124C38.1609 20.124 38.1945 20.124 38.2285 20.0903ZM48.1191 37.2027C48.423 37.0677 48.7269 36.9323 49.0984 36.7632C49.0644 36.9659 49.0644 37.1013 49.0644 37.2367C48.9632 37.2027 48.8281 37.169 48.7269 37.169C48.5246 37.2027 48.1531 37.4735 47.9843 37.5071C47.9504 37.5071 48.1191 37.2367 48.1191 37.2027ZM73.4375 65.8814C73.5051 66.2195 74.1465 66.3886 73.5051 66.7267C73.6062 66.7944 73.7074 66.8285 73.809 66.8962C73.809 66.9298 73.775 66.9975 73.7414 67.0312C73.6738 67.0652 73.5387 67.1329 73.4711 67.0989C73.4375 67.0989 73.3699 66.9635 73.3699 66.8962C73.3699 66.5917 73.4039 66.2872 73.4375 65.8814Z" fill="#DD3735"/>
</svg>
