<svg xmlns="http://www.w3.org/2000/svg" width="100" height="100" viewBox="0 0 100 41" fill="none">
    <g clip-path="url(#clip0_572_3517)">
        <path d="M60.8947 27.1295H63.5416V17.4273H60.8947V27.1295ZM60.7822 14.9192C60.7822 14.0572 61.2624 13.6263 62.2228 13.6263C63.1828 13.6263 63.6633 14.0572 63.6633 14.9192C63.6633 15.3301 63.5432 15.6497 63.3032 15.8783C63.063 16.1069 62.7029 16.2209 62.2228 16.2209C61.2624 16.2209 60.7822 15.787 60.7822 14.9192Z" fill="#0C344B"/>
        <path fill-rule="evenodd" clip-rule="evenodd" d="M50.1851 21.5319C51.0389 20.8087 51.4654 19.7647 51.4654 18.3993C51.4654 17.0859 51.0649 16.098 50.2636 15.4355C49.4623 14.7736 48.2923 14.442 46.7531 14.442H42.7006V27.1295H45.3907V22.6167H46.545C48.1186 22.6167 49.332 22.2554 50.1851 21.5319ZM46.276 20.4125H45.3907V16.6465H46.6143C47.3491 16.6465 47.8884 16.7966 48.2329 17.0975C48.577 17.3985 48.7492 17.8642 48.7492 18.4949C48.7492 19.1194 48.5439 19.5953 48.133 19.9222C47.722 20.2492 47.1034 20.4125 46.276 20.4125Z" fill="#0C344B"/>
        <path d="M59.4906 17.3231C59.2534 17.271 58.9556 17.245 58.5968 17.245C57.9949 17.245 57.4382 17.4114 56.9264 17.7439C56.4168 18.0739 55.9976 18.5258 55.7068 19.0588H55.5769L55.1862 17.4273H53.1815V27.1295H55.8285V22.1917C55.8285 21.4106 56.0641 20.803 56.5354 20.3691C57.0073 19.9352 57.6652 19.7182 58.51 19.7182C58.8168 19.7182 59.0769 19.7473 59.2911 19.8049L59.4906 17.3231ZM71.8229 26.5222C72.5146 26.0013 72.8602 25.2438 72.8602 24.2485C72.8602 23.7683 72.7766 23.3546 72.6086 23.0074C72.441 22.6602 72.1802 22.3538 71.8275 22.0875C71.4748 21.8215 70.9193 21.5353 70.1612 21.2286C69.3108 20.8872 68.7599 20.6295 68.5083 20.4561C68.2567 20.2826 68.1305 20.0773 68.1305 19.8399C68.1305 19.4176 68.5212 19.2065 69.3022 19.2065C69.7417 19.2065 70.1728 19.273 70.5951 19.4056C71.0173 19.5392 71.4718 19.7096 71.9578 19.918L72.756 18.0089C71.651 17.4999 70.5142 17.2453 69.3454 17.2453C68.1188 17.2453 67.1719 17.4809 66.5039 17.9525C65.835 18.4241 65.501 19.0906 65.501 19.9526C65.501 20.4561 65.5806 20.8799 65.74 21.224C65.8987 21.5684 66.1534 21.8736 66.5039 22.1396C66.8532 22.4059 67.4021 22.6952 68.1479 23.0074C68.6685 23.2274 69.0853 23.4196 69.3979 23.5844C69.7101 23.7496 69.9301 23.897 70.0576 24.0272C70.1848 24.1575 70.2482 24.3266 70.2482 24.535C70.2482 25.0902 69.768 25.3679 68.8074 25.3679C68.3388 25.3679 67.7964 25.2897 67.1805 25.1338C66.564 24.9775 66.0103 24.7838 65.5184 24.5521V26.7391C65.9678 26.9289 66.4363 27.07 66.9158 27.1599C67.4134 27.2555 68.0149 27.3033 68.7209 27.3033C70.0974 27.3033 71.1316 27.0431 71.8229 26.5222ZM83.346 27.1295H80.699V21.4627C80.699 20.7628 80.5817 20.2376 80.3479 19.8877C80.1131 19.5377 79.7445 19.3624 79.241 19.3624C78.5644 19.3624 78.0726 19.6113 77.7659 20.1089C77.4591 20.6065 77.3059 21.425 77.3059 22.5649V27.1295H74.659V17.4273H76.6811L77.0369 18.6684H77.1846C77.4447 18.2228 77.821 17.8741 78.3125 17.6225C78.8044 17.3709 79.3685 17.245 80.005 17.245C81.4571 17.245 82.4405 17.7197 82.9556 18.6684H83.1897C83.4502 18.217 83.8335 17.867 84.3397 17.6182C84.846 17.3694 85.4171 17.245 86.0536 17.245C87.1528 17.245 87.9847 17.5272 88.5486 18.0911C89.1127 18.6552 89.3946 19.5592 89.3946 20.803V27.1295H86.7391V21.4627C86.7391 20.7628 86.6217 20.2376 86.3879 19.8877C86.1532 19.5377 85.7846 19.3624 85.2811 19.3624C84.6333 19.3624 84.1488 19.5941 83.8274 20.0568C83.5065 20.5198 83.346 21.2543 83.346 22.261V27.1295Z" fill="#0C344B"/>
        <path fill-rule="evenodd" clip-rule="evenodd" d="M97.3661 25.8103L97.8781 27.1295H99.7265V20.6641C99.7265 19.507 99.3793 18.6451 98.6853 18.0782C97.9909 17.5113 96.9929 17.2275 95.6911 17.2275C94.3318 17.2275 93.0935 17.5198 91.9769 18.1042L92.8533 19.8919C93.9004 19.4231 94.8117 19.189 95.587 19.189C96.5936 19.189 97.097 19.6808 97.097 20.6641V21.0895L95.4135 21.1415C93.9613 21.1936 92.8753 21.4642 92.1546 21.953C91.4345 22.442 91.0745 23.2014 91.0745 24.231C91.0745 25.2146 91.342 25.9724 91.877 26.5047C92.4123 27.037 93.1453 27.303 94.0772 27.303C94.835 27.303 95.4497 27.1945 95.921 26.9775C96.3926 26.7606 96.851 26.3717 97.2965 25.8103H97.3661ZM96.073 22.6688L97.097 22.6342V23.4324C97.097 24.0171 96.9132 24.4856 96.5458 24.8383C96.1787 25.1913 95.6881 25.3678 95.0749 25.3678C94.2187 25.3678 93.7906 24.9946 93.7906 24.2485C93.7906 23.7275 93.9785 23.3402 94.3548 23.0855C94.7308 22.8312 95.3035 22.6921 96.073 22.6688ZM29.1885 31.9647L11.5752 37.174C11.0371 37.3334 10.5214 36.8679 10.6344 36.3252L16.9267 6.19078C17.0444 5.62756 17.8233 5.53808 18.0691 6.05993L29.7196 30.7999C29.9393 31.2666 29.6886 31.817 29.1885 31.9647ZM32.209 30.7359L18.7193 2.09012V2.0895C18.5517 1.73676 18.2918 1.43595 17.9671 1.21897C17.6423 1.00198 17.265 0.876922 16.8749 0.857038C16.054 0.809235 15.3186 1.20514 14.9036 1.87899L0.273401 25.5753C0.0511394 25.9333 -0.0644877 26.3471 -0.0599288 26.7685C-0.0553699 27.1898 0.0691861 27.6011 0.299141 27.9541L7.45063 39.0322C7.87688 39.6935 8.61537 40.0762 9.38298 40.0762C9.60055 40.0762 9.81934 40.0456 10.0345 39.9818L30.7933 33.8422C31.1058 33.7506 31.395 33.5931 31.6414 33.3801C31.8877 33.1672 32.0855 32.9038 32.2213 32.6079C32.3554 32.3136 32.4237 31.9937 32.4216 31.6704C32.4195 31.3471 32.3469 31.0284 32.209 30.7359Z" fill="#0C344B"/>
    </g>
    <defs>
        <clipPath id="clip0_572_3517">
            <rect width="100" height="39.28" fill="white" transform="translate(0 0.796265)"/>
        </clipPath>
    </defs>
</svg>
