<svg xmlns="http://www.w3.org/2000/svg" width="100" height="100" viewBox="0 0 100 110" fill="none">
    <path d="M98.9093 44.13C98.9093 37.5954 90.7261 31.4026 78.1794 27.5623C81.0748 14.7744 79.7881 4.60041 74.1176 1.34311C72.8106 0.579051 71.2829 0.217118 69.6139 0.217118V4.70094C70.5388 4.70094 71.2829 4.88191 71.906 5.2237C74.6405 6.79202 75.827 12.7637 74.9017 20.4445C74.681 22.3345 74.319 24.3251 73.8766 26.3558C69.9354 25.3907 65.6327 24.6468 61.1087 24.1642C58.3945 20.4445 55.5795 17.0665 52.7443 14.1109C59.2991 8.01854 65.4519 4.6808 69.6342 4.6808V0.197021C64.1045 0.197021 56.8663 4.13795 49.5476 10.9742C42.2285 4.17814 34.9903 0.277456 29.461 0.277456V4.76124C33.623 4.76124 39.7956 8.07888 46.3504 14.131C43.5355 17.0867 40.7205 20.4445 38.0462 24.1642C33.5021 24.6468 29.1993 25.3907 25.2585 26.3759C24.7959 24.3653 24.4542 22.4149 24.2128 20.545C23.2681 12.8643 24.434 6.89255 27.1487 5.30413C27.7516 4.9422 28.5357 4.78138 29.461 4.78138V0.297553C27.7718 0.297553 26.2436 0.659486 24.9168 1.42355C19.2667 4.6808 18.0001 14.8347 20.9154 27.5824C8.40908 31.4429 0.265869 37.6157 0.265869 44.13C0.265869 50.665 8.44927 56.8579 20.9958 60.698C18.1004 73.4861 19.3871 83.6598 25.0576 86.9172C26.3646 87.681 27.8923 88.043 29.5815 88.043C35.1107 88.043 42.3494 84.1022 49.6681 77.2659C56.9868 84.0622 64.2254 87.9629 69.7547 87.9629C71.4434 87.9629 72.9716 87.601 74.2988 86.8367C79.9486 83.5793 81.2156 73.4254 78.2999 60.6782C90.7661 56.8377 98.9093 50.6448 98.9093 44.13ZM72.7306 30.719C71.9865 33.3129 71.0617 35.9867 70.0159 38.661C69.1917 37.0528 68.3272 35.4441 67.3821 33.8354C66.4573 32.227 65.4717 30.6587 64.4866 29.1306C67.3416 29.5528 70.0964 30.0756 72.7306 30.719ZM63.5213 52.1325C61.9531 54.8472 60.3449 57.4208 58.6759 59.8136C55.6798 60.0748 52.644 60.2155 49.5876 60.2155C46.5514 60.2155 43.5152 60.0748 40.5397 59.8334C38.8708 57.4406 37.2419 54.8873 35.6737 52.1928C34.1454 49.559 32.7584 46.8847 31.4914 44.1907C32.7382 41.4962 34.1454 38.8017 35.6539 36.1679C37.2221 33.4537 38.8303 30.8799 40.4993 28.4871C43.4954 28.2257 46.5312 28.085 49.5876 28.085C52.6238 28.085 55.66 28.2257 58.6355 28.467C60.3044 30.8598 61.9333 33.4132 63.5015 36.1077C65.0297 38.7415 66.4168 41.4157 67.6838 44.1102C66.4168 46.8043 65.0297 49.4987 63.5213 52.1325ZM70.0159 49.519C71.0714 52.1393 71.9975 54.8099 72.7908 57.5211C70.1566 58.1644 67.3821 58.7076 64.5069 59.1297C65.492 57.5817 66.477 55.9933 67.4023 54.3644C68.3272 52.7561 69.1917 51.1272 70.0159 49.519ZM49.6276 70.9728C47.7577 69.0422 45.8878 66.8908 44.0381 64.5385C45.8478 64.619 47.6975 64.6792 49.5674 64.6792C51.4575 64.6792 53.3274 64.6392 55.1573 64.5385C53.4314 66.7813 51.5854 68.9292 49.6276 70.9728ZM34.6683 59.1297C31.8133 58.7076 29.0586 58.1847 26.4248 57.5413C27.1685 54.9475 28.0938 52.2733 29.1391 49.599C29.9637 51.2077 30.8283 52.8164 31.7729 54.4246C32.7179 56.0333 33.6833 57.6015 34.6683 59.1297ZM49.5274 17.2877C51.3973 19.2179 53.2672 21.3694 55.1168 23.7219C53.3072 23.6414 51.4575 23.5811 49.5876 23.5811C47.6975 23.5811 45.8275 23.6213 43.9981 23.7219C45.7239 21.4791 47.5697 19.3312 49.5274 17.2877ZM34.6481 29.1306C33.663 30.6788 32.6779 32.2672 31.7531 33.8956C30.8283 35.5043 29.9637 37.113 29.1391 38.7212C28.0835 36.101 27.1576 33.4303 26.3646 30.719C28.9984 30.0957 31.7729 29.5528 34.6481 29.1306ZM16.4517 54.3041C9.33401 51.2679 4.72955 47.2871 4.72955 44.13C4.72955 40.9733 9.33401 36.9723 16.4517 33.9563C18.1809 33.2122 20.071 32.5487 22.0214 31.9254C23.1674 35.8662 24.6754 39.968 26.5453 44.1705C24.6956 48.3527 23.2074 52.4342 22.0816 56.3552C20.0912 55.7316 18.2011 55.0482 16.4517 54.3041ZM27.2692 83.0366C24.5347 81.4684 23.3482 75.4967 24.2735 67.8157C24.4947 65.926 24.8561 63.9351 25.2986 61.9043C29.2398 62.8696 33.5425 63.6137 38.0665 64.0961C40.7807 67.8157 43.5957 71.1936 46.4309 74.1493C39.8761 80.2419 33.7233 83.5793 29.541 83.5793C28.6364 83.5595 27.8725 83.3783 27.2692 83.0366ZM74.9624 67.7154C75.9071 75.396 74.7412 81.3677 72.0265 82.9561C71.4236 83.3181 70.6395 83.479 69.7142 83.479C65.5522 83.479 59.3796 80.1614 52.8248 74.1092C55.6397 71.1535 58.4547 67.7959 61.129 64.0758C65.6731 63.5934 69.9759 62.8493 73.9167 61.8642C74.3793 63.8951 74.7412 65.8455 74.9624 67.7154ZM82.7033 54.3041C80.9741 55.0482 79.084 55.7118 77.1336 56.335C75.9875 52.3942 74.4796 48.2924 72.6096 44.09C74.4598 39.9078 75.9475 35.8262 77.0733 31.9053C79.0642 32.5286 80.9539 33.2122 82.7235 33.9563C89.8412 36.9921 94.4456 40.9733 94.4456 44.13C94.4254 47.2871 89.821 51.2882 82.7033 54.3041Z" fill="#61DAFB"/>
    <path d="M49.5673 53.319C54.6425 53.319 58.7563 49.2051 58.7563 44.13C58.7563 39.0553 54.6425 34.9414 49.5673 34.9414C44.4926 34.9414 40.3787 39.0553 40.3787 44.13C40.3787 49.2051 44.4926 53.319 49.5673 53.319ZM4.745 103.864H1.71174V109.088H0V96.1745H4.27494C5.72946 96.1745 6.847 96.5059 7.62747 97.1681C8.41387 97.83 8.8071 98.7939 8.8071 100.059C8.8071 100.863 8.58832 101.564 8.15076 102.161C7.71914 102.759 7.11604 103.205 6.34146 103.5L9.37473 108.982V109.088H7.54766L4.745 103.864ZM1.71174 102.472H4.32817C5.1737 102.472 5.84478 102.253 6.34146 101.815C6.84403 101.378 7.09532 100.792 7.09532 100.059C7.09532 99.2611 6.85585 98.6492 6.37693 98.2234C5.9039 97.7976 5.21803 97.5818 4.31927 97.5759H1.71174V102.472ZM14.927 109.266C13.626 109.266 12.5676 108.84 11.7517 107.988C10.9357 107.131 10.5277 105.987 10.5277 104.556V104.254C10.5277 103.303 10.708 102.454 11.0687 101.709C11.4353 100.958 11.9438 100.372 12.5942 99.953C13.2506 99.5272 13.9601 99.3141 14.7228 99.3141C15.9705 99.3141 16.9403 99.7251 17.6318 100.547C18.3238 101.369 18.6695 102.545 18.6695 104.077V104.76H12.1685C12.1921 105.706 12.4671 106.472 12.9933 107.057C13.5255 107.636 14.1995 107.926 15.0156 107.926C15.5951 107.926 16.0856 107.808 16.4876 107.572C16.89 107.335 17.2416 107.022 17.5432 106.631L18.5454 107.412C17.7411 108.647 16.5352 109.266 14.927 109.266ZM14.7228 100.662C14.0606 100.662 13.5048 100.905 13.0554 101.39C12.606 101.869 12.3281 102.543 12.2217 103.412H17.0289V103.288C16.9817 102.454 16.7569 101.809 16.3549 101.354C15.9525 100.893 15.4085 100.662 14.7228 100.662ZM26.5012 109.088C26.4063 108.899 26.3294 108.562 26.2705 108.077C25.5076 108.869 24.5971 109.266 23.5387 109.266C22.5928 109.266 21.8154 109 21.2062 108.467C20.6033 107.929 20.3016 107.249 20.3016 106.427C20.3016 105.428 20.6801 104.654 21.4368 104.104C22.1994 103.548 23.2699 103.27 24.6475 103.27H26.244V102.516C26.244 101.943 26.0723 101.487 25.7297 101.15C25.3866 100.807 24.8808 100.636 24.2127 100.636C23.6273 100.636 23.1368 100.783 22.7407 101.079C22.3446 101.375 22.1463 101.733 22.1463 102.152H20.4967C20.4967 101.674 20.6653 101.212 21.0021 100.769C21.3451 100.319 21.8064 99.9647 22.3859 99.7044C22.9713 99.4445 23.6125 99.3141 24.3103 99.3141C25.4163 99.3141 26.2822 99.592 26.909 100.148C27.5357 100.698 27.8608 101.458 27.8846 102.427V106.844C27.8846 107.725 27.997 108.426 28.2218 108.946V109.088H26.5012ZM23.7784 107.838C24.2927 107.838 24.7806 107.705 25.2418 107.438C25.7027 107.172 26.0367 106.827 26.244 106.401V104.432H24.9577C22.9475 104.432 21.9422 105.02 21.9422 106.197C21.9422 106.711 22.1139 107.113 22.4565 107.403C22.7996 107.693 23.2402 107.838 23.7784 107.838ZM34.3059 107.926C34.8913 107.926 35.4029 107.749 35.8404 107.394C36.2779 107.039 36.5202 106.596 36.5674 106.064H38.1199C38.0902 106.613 37.9009 107.137 37.552 107.634C37.2032 108.13 36.736 108.527 36.1506 108.822C35.5711 109.118 34.9565 109.266 34.3059 109.266C32.9993 109.266 31.9585 108.831 31.1838 107.962C30.4155 107.086 30.031 105.892 30.031 104.378V104.104C30.031 103.169 30.2023 102.339 30.5454 101.612C30.8884 100.884 31.379 100.319 32.0178 99.9175C32.6621 99.5151 33.422 99.3141 34.2969 99.3141C35.3733 99.3141 36.2662 99.6365 36.9757 100.281C37.691 100.926 38.0722 101.762 38.1199 102.791H36.5674C36.5202 102.17 36.2837 101.662 35.8579 101.265C35.4384 100.863 34.9178 100.662 34.2969 100.662C33.4633 100.662 32.8159 100.964 32.3546 101.567C31.8996 102.164 31.6717 103.031 31.6717 104.166V104.476C31.6717 105.582 31.8996 106.433 32.3546 107.03C32.8101 107.628 33.4606 107.926 34.3059 107.926ZM42.1906 97.1681V99.4917H43.9823V100.76H42.1906V106.711C42.1906 107.095 42.2707 107.385 42.4303 107.58C42.5899 107.769 42.8619 107.864 43.2463 107.864C43.4351 107.864 43.6955 107.829 44.0264 107.758V109.088C43.5947 109.206 43.1753 109.266 42.767 109.266C42.0342 109.266 41.4811 109.044 41.1084 108.6C40.7362 108.157 40.55 107.527 40.55 106.711V100.76H38.8024V99.4917H40.55V97.1681H42.1906ZM60.5943 109.088H58.8822L52.3814 99.137V109.088H50.6697V96.1745H52.3814L58.9002 106.17V96.1745H60.5943V109.088ZM69.2861 109.088C69.1912 108.899 69.1144 108.562 69.0555 108.077C68.2925 108.869 67.382 109.266 66.3237 109.266C65.3777 109.266 64.5999 109 63.9911 108.467C63.3882 107.929 63.0865 107.249 63.0865 106.427C63.0865 105.428 63.4646 104.654 64.2217 104.104C64.9843 103.548 66.0548 103.27 67.4324 103.27H69.0289V102.516C69.0289 101.943 68.8572 101.487 68.5141 101.15C68.1715 100.807 67.6657 100.636 66.9976 100.636C66.4122 100.636 65.9217 100.783 65.5256 101.079C65.1295 101.375 64.9312 101.733 64.9312 102.152H63.2816C63.2816 101.674 63.4502 101.212 63.787 100.769C64.13 100.319 64.5913 99.9647 65.1709 99.7044C65.7563 99.4445 66.3974 99.3141 67.0952 99.3141C68.2008 99.3141 69.0671 99.592 69.6939 100.148C70.3206 100.698 70.6457 101.458 70.6695 102.427V106.844C70.6695 107.725 70.7819 108.426 71.0067 108.946V109.088H69.2861ZM66.5633 107.838C67.0776 107.838 67.5655 107.705 68.0268 107.438C68.4876 107.172 68.8217 106.827 69.0289 106.401V104.432H67.7426C65.7324 104.432 64.7271 105.02 64.7271 106.197C64.7271 106.711 64.8988 107.113 65.2414 107.403C65.5845 107.693 66.0251 107.838 66.5633 107.838ZM75.4677 97.1681V99.4917H77.2594V100.76H75.4677V106.711C75.4677 107.095 75.5478 107.385 75.7074 107.58C75.867 107.769 76.139 107.864 76.5234 107.864C76.7122 107.864 76.9726 107.829 77.3039 107.758V109.088C76.8718 109.206 76.4524 109.266 76.0441 109.266C75.3113 109.266 74.7583 109.044 74.3855 108.6C74.0133 108.157 73.8271 107.527 73.8271 106.711V100.76H72.08V99.4917H73.8271V97.1681H75.4677ZM80.9669 109.088H79.3258V99.4917H80.9669V109.088ZM79.1927 96.946C79.1927 96.6803 79.2727 96.4555 79.4324 96.2721C79.5978 96.0886 79.8401 95.9974 80.1594 95.9974C80.479 95.9974 80.7214 96.0886 80.8868 96.2721C81.0523 96.4555 81.135 96.6803 81.135 96.946C81.135 97.2122 81.0523 97.4339 80.8868 97.6115C80.7214 97.7886 80.479 97.8776 80.1594 97.8776C79.8401 97.8776 79.5978 97.7886 79.4324 97.6115C79.2727 97.4339 79.1927 97.2122 79.1927 96.946ZM86.7672 106.862L89.1438 99.4917H90.8204L87.3791 109.088H86.1283L82.652 99.4917H84.3281L86.7672 106.862ZM96.257 109.266C94.9563 109.266 93.8979 108.84 93.0819 107.988C92.2659 107.131 91.8581 105.987 91.8581 104.556V104.254C91.8581 103.303 92.0384 102.454 92.399 101.709C92.7654 100.958 93.2739 100.372 93.9245 99.953C94.5809 99.5272 95.2904 99.3141 96.0529 99.3141C97.3006 99.3141 98.2704 99.7251 98.9623 100.547C99.6538 101.369 100 102.545 100 104.077V104.76H93.4987C93.5225 105.706 93.7972 106.472 94.3237 107.057C94.8556 107.636 95.53 107.926 96.3456 107.926C96.9252 107.926 97.4161 107.808 97.8181 107.572C98.22 107.335 98.5721 107.022 98.8737 106.631L99.8759 107.412C99.0716 108.647 97.8653 109.266 96.257 109.266ZM96.0529 100.662C95.3911 100.662 94.8349 100.905 94.3858 101.39C93.9362 101.869 93.6583 102.543 93.5522 103.412H98.3589V103.288C98.3117 102.454 98.0869 101.809 97.685 101.354C97.283 100.893 96.739 100.662 96.0529 100.662Z" fill="#61DAFB"/>
</svg>
