<svg xmlns="http://www.w3.org/2000/svg" width="100" height="115" viewBox="0 0 100 115" fill="none">
    <path d="M100 57.4464C100 50.8218 91.704 44.5438 78.9849 40.6506C81.9201 27.6869 80.6156 17.373 74.8675 14.0709C73.5426 13.2963 71.9935 12.9294 70.3017 12.9294V17.4749C71.2393 17.4749 71.9935 17.6583 72.6254 18.0049C75.3975 19.5947 76.6001 25.6486 75.6625 33.4349C75.4382 35.351 75.0713 37.3689 74.6229 39.4276C70.6278 38.4492 66.2658 37.695 61.6796 37.2058C58.9278 33.4349 56.0742 30.0106 53.2002 27.0142C59.8451 20.8381 66.0824 17.4545 70.3221 17.4545V12.9091C64.7167 12.9091 57.3787 16.9042 49.9592 23.8345C42.5397 16.9449 35.2018 12.9906 29.5964 12.9906V17.536C33.8157 17.536 40.0734 20.8993 46.7183 27.0346C43.8647 30.0309 41.011 33.4349 38.3 37.2058C33.6934 37.695 29.3314 38.4492 25.3363 39.448C24.8675 37.4097 24.521 35.4325 24.2764 33.5369C23.3184 25.7505 24.5006 19.6967 27.2523 18.0864C27.8638 17.7195 28.6588 17.5564 29.5964 17.5564V13.011C27.8842 13.011 26.3351 13.3779 24.9898 14.1524C19.2621 17.4545 17.978 27.748 20.9335 40.671C8.2552 44.5846 0 50.8422 0 57.4464C0 64.0709 8.29596 70.3489 21.0151 74.2421C18.0799 87.2058 19.3844 97.5197 25.1325 100.822C26.4574 101.596 28.0065 101.963 29.7187 101.963C35.3241 101.963 42.662 97.9682 50.0815 91.0379C57.501 97.9274 64.839 101.882 70.4444 101.882C72.1565 101.882 73.7057 101.515 75.051 100.74C80.7786 97.4382 82.0628 87.1447 79.1072 74.2217C91.7448 70.3285 100 64.0505 100 57.4464ZM73.4611 43.8508C72.7069 46.4802 71.7693 49.1912 70.7093 51.9021C69.8736 50.2715 68.9971 48.6408 68.0391 47.0102C67.1015 45.3795 66.1027 43.7896 65.104 42.2405C67.9984 42.6685 70.7909 43.1985 73.4611 43.8508ZM64.1256 65.5589C62.5357 68.3106 60.905 70.9197 59.2132 73.3453C56.1761 73.6102 53.0982 73.7529 50 73.7529C46.9221 73.7529 43.8443 73.6102 40.8276 73.3656C39.1358 70.94 37.4847 68.3514 35.8948 65.62C34.3457 62.9498 32.9393 60.2389 31.6551 57.5075C32.9189 54.7762 34.3457 52.0448 35.8744 49.3746C37.4643 46.6229 39.095 44.0138 40.7868 41.5882C43.8239 41.3232 46.9018 41.1806 50 41.1806C53.0779 41.1806 56.1557 41.3232 59.1724 41.5678C60.8642 43.9934 62.5153 46.5821 64.1052 49.3135C65.6543 51.9837 67.0607 54.6946 68.3449 57.426C67.0607 60.1573 65.6543 62.8887 64.1256 65.5589ZM70.7093 62.9091C71.81 65.6404 72.7477 68.3718 73.5222 71.0216C70.852 71.6738 68.0391 72.2242 65.1243 72.6522C66.1231 71.0827 67.1219 69.4724 68.0595 67.8214C68.9972 66.1908 69.8736 64.5397 70.7093 62.9091ZM50.0408 84.6579C48.1451 82.7011 46.2495 80.5201 44.3742 78.1353C46.2087 78.2168 48.084 78.278 49.9796 78.278C51.8956 78.278 53.7913 78.2372 55.6461 78.1353C53.8117 80.5201 51.916 82.7011 50.0408 84.6579ZM34.8757 72.6522C31.9812 72.2242 29.1887 71.6942 26.5185 71.042C27.2727 68.4125 28.2104 65.7016 29.2703 62.9906C30.106 64.6212 30.9825 66.2519 31.9405 67.8826C32.8985 69.5132 33.8769 71.1031 34.8757 72.6522ZM49.9389 30.2348C51.8345 32.1916 53.7301 34.3726 55.6054 36.7574C53.7709 36.6759 51.8956 36.6147 50 36.6147C48.084 36.6147 46.1883 36.6555 44.3335 36.7574C46.168 34.3726 48.0636 32.1916 49.9389 30.2348ZM34.8553 42.2405C33.8565 43.81 32.8577 45.4203 31.9201 47.0713C30.9825 48.702 30.106 50.3326 29.2703 51.9633C28.1696 49.2319 27.232 46.5006 26.4574 43.8508C29.1276 43.2189 31.9405 42.6685 34.8553 42.2405ZM16.4085 67.7603C9.19283 64.6824 4.52507 60.6465 4.52507 57.4464C4.52507 54.2462 9.19283 50.1899 16.4085 47.1325C18.1614 46.3783 20.0775 45.7056 22.0546 45.0738C23.2165 49.0689 24.7452 53.227 26.6408 57.4871C24.7656 61.7268 23.2572 65.8646 22.1158 69.8393C20.0978 69.2075 18.1818 68.5144 16.4085 67.7603ZM27.3746 96.8879C24.6025 95.298 23.3999 89.2441 24.3375 81.4578C24.5618 79.5417 24.9287 77.5238 25.3771 75.4651C29.3722 76.4435 33.7342 77.1977 38.3204 77.6869C41.0722 81.4578 43.9258 84.8821 46.7998 87.8785C40.1549 94.0546 33.9177 97.4382 29.6779 97.4382C28.7607 97.4178 27.9861 97.2344 27.3746 96.8879ZM75.7236 81.3559C76.6816 89.1422 75.4994 95.1961 72.7477 96.8063C72.1362 97.1732 71.3412 97.3363 70.4036 97.3363C66.1843 97.3363 59.9266 93.9731 53.2817 87.8377C56.1353 84.8414 58.989 81.4374 61.7 77.6665C66.3066 77.1773 70.6686 76.4231 74.6637 75.4243C75.1325 77.483 75.4994 79.4602 75.7236 81.3559ZM83.5711 67.7603C81.8182 68.5144 79.9022 69.1871 77.925 69.819C76.7631 65.8239 75.2344 61.6657 73.3388 57.4056C75.214 53.1659 76.7224 49.0281 77.8638 45.0534C79.8818 45.6852 81.7978 46.3783 83.5915 47.1325C90.8072 50.2103 95.4749 54.2462 95.4749 57.4464C95.4545 60.6465 90.7868 64.7028 83.5711 67.7603Z" fill="#61DAFB"/>
    <path d="M49.9797 66.7615C55.1243 66.7615 59.2948 62.5909 59.2948 57.4463C59.2948 52.3017 55.1243 48.1312 49.9797 48.1312C44.8351 48.1312 40.6646 52.3017 40.6646 57.4463C40.6646 62.5909 44.8351 66.7615 49.9797 66.7615Z" fill="#61DAFB"/>
</svg>
