<svg xmlns="http://www.w3.org/2000/svg" width="100" height="100" viewBox="0 0 100 94" fill="none">
    <path d="M69.2893 65.248C72.9797 64.8723 75.7794 61.7447 75.652 57.991C75.525 54.238 72.3433 51.2353 68.5257 51.2353H68.2713C64.326 51.3603 61.2723 54.6133 61.3997 58.4917C61.527 60.3683 62.2903 61.9947 63.4357 63.1207C59.109 71.5033 52.4917 77.6337 42.566 82.7633C35.8213 86.2663 28.8227 87.5177 21.8238 86.642C16.0973 85.8913 11.6434 83.3893 8.84337 79.26C4.77146 73.1297 4.38983 66.4986 7.82577 59.868C10.2437 55.1136 14.0609 51.6103 16.4789 49.8586C15.9699 48.2323 15.2062 45.48 14.8246 43.4783C-3.62735 56.615 -1.71837 74.381 3.88086 82.7633C8.08007 89.019 16.6062 92.8977 26.023 92.8977C28.568 92.8977 31.113 92.647 33.6583 92.022C49.947 88.894 62.2907 79.3853 69.2893 65.248ZM91.6863 49.734C82.015 38.599 67.7623 32.4686 51.4737 32.4686H49.438C48.2927 30.2166 45.8747 28.715 43.2023 28.715H42.9477C39.003 28.8403 35.9493 32.093 36.0763 35.9716C36.2037 39.725 39.3847 42.7276 43.2023 42.7276H43.4567C46.2563 42.6026 48.6743 40.851 49.6923 38.4737H51.9827C61.6543 38.4737 70.8163 41.226 79.0883 46.606C85.4507 50.7346 90.032 56.1147 92.577 62.6203C94.7403 67.875 94.613 73.0047 92.3223 77.3837C88.7593 84.0143 82.7787 87.6427 74.8887 87.6427C69.7983 87.6427 64.963 86.1413 62.4177 85.0153C61.018 86.2663 58.4727 88.268 56.691 89.5197C62.1633 92.0217 67.7623 93.398 73.107 93.398C85.3233 93.398 94.3587 86.7667 97.7947 80.136C101.485 72.8793 101.23 60.3683 91.6863 49.734ZM27.041 67.3743C27.1684 71.1277 30.3497 74.13 34.1673 74.13H34.422C38.3667 74.0053 41.4207 70.7523 41.2933 66.874C41.1663 63.1203 37.9847 60.118 34.1673 60.118H33.913C33.6583 60.118 33.2763 60.118 33.0223 60.2426C27.8047 51.7353 25.6414 42.4773 26.4051 32.4683C26.9137 24.9615 29.459 18.4556 33.913 13.0756C37.603 8.44648 44.7293 6.19451 49.5653 6.06971C63.054 5.81931 68.78 22.3339 69.162 28.965C70.8163 29.3403 73.616 30.2163 75.525 30.842C73.9977 10.574 61.2723 0.0645752 49.0563 0.0645752C37.603 0.0645752 27.041 8.19688 22.8414 20.2075C16.9879 36.2216 20.8055 51.6103 27.9316 63.7463C27.2957 64.622 26.9137 65.998 27.041 67.3743Z" fill="#764ABC"/>
</svg>
