<svg xmlns="http://www.w3.org/2000/svg" width="100" height="101" viewBox="0 0 100 101" fill="none">
    <path d="M99.3153 49.5062L95.1184 46.9062C95.0832 46.4985 95.0436 46.0912 94.9997 45.6844L98.6059 42.3188C98.7878 42.1519 98.9236 41.9411 99.0004 41.7066C99.0771 41.4721 99.0922 41.2217 99.0442 40.9797C98.9961 40.7376 98.8866 40.512 98.7261 40.3246C98.5656 40.1371 98.3596 39.9941 98.1278 39.9094L93.5153 38.1844C93.4002 37.7861 93.2804 37.3892 93.156 36.9938L96.0309 32.997C96.1754 32.7975 96.2665 32.5643 96.2954 32.3197C96.3243 32.075 96.2902 31.8271 96.1962 31.5994C96.1023 31.3717 95.9516 31.1718 95.7586 31.0188C95.5655 30.8657 95.3366 30.7646 95.0934 30.7251L90.2278 29.9345C90.0404 29.5657 89.8435 29.2032 89.6435 28.8407L91.6872 24.3564C91.7916 24.1325 91.8366 23.8855 91.8178 23.6392C91.7989 23.3928 91.7169 23.1555 91.5797 22.9501C91.4424 22.7447 91.2546 22.5782 91.0342 22.4665C90.8138 22.3548 90.5684 22.3018 90.3216 22.3127L85.3873 22.4845C85.1318 22.1659 84.8714 21.8513 84.606 21.5408L85.7404 16.7314C85.798 16.4917 85.7932 16.2412 85.7263 16.0038C85.6594 15.7665 85.5327 15.5503 85.3584 15.376C85.184 15.2016 84.9678 15.0749 84.7305 15.0081C84.4931 14.9412 84.2426 14.9363 84.0029 14.9939L79.1967 16.1252C78.8842 15.8627 78.5717 15.6033 78.2498 15.344L78.4217 10.4127C78.4325 10.1659 78.3795 9.9205 78.2678 9.70014C78.1562 9.47977 77.9896 9.2919 77.7842 9.15465C77.5788 9.0174 77.3415 8.93541 77.0952 8.91657C76.8488 8.89773 76.6018 8.94269 76.3779 9.04712L71.8936 11.0909C71.5314 10.8907 71.1667 10.6949 70.7999 10.5034L70.0092 5.64089C69.9699 5.398 69.8691 5.16921 69.7164 4.97623C69.5638 4.78325 69.3643 4.63248 69.137 4.53825C68.9097 4.44401 68.6621 4.40943 68.4177 4.43779C68.1733 4.46615 67.9402 4.5565 67.7405 4.70027L63.7405 7.57525C63.3464 7.44998 62.9505 7.33018 62.553 7.21588L60.828 2.60341C60.7429 2.37203 60.5999 2.16635 60.4126 2.00607C60.2252 1.84579 59.9999 1.73627 59.7582 1.68798C59.5164 1.63969 59.2663 1.65425 59.0318 1.73027C58.7972 1.80629 58.5861 1.94123 58.4187 2.12216L55.0531 5.73464C54.6468 5.69089 54.2406 5.64714 53.8312 5.61589L51.2312 1.41592C51.1019 1.20658 50.9211 1.03378 50.7062 0.913945C50.4912 0.794106 50.2492 0.731201 50.0031 0.731201C49.757 0.731201 49.515 0.794106 49.3001 0.913945C49.0851 1.03378 48.9044 1.20658 48.775 1.41592L46.175 5.61589C45.7688 5.64714 45.3594 5.69089 44.9532 5.73464L41.5876 2.12529C41.4191 1.94674 41.2081 1.81389 40.9742 1.73918C40.7404 1.66446 40.4914 1.65033 40.2507 1.69811C40.0099 1.74589 39.7852 1.85402 39.5976 2.01236C39.41 2.1707 39.2657 2.37407 39.1782 2.60341L37.4532 7.21588C37.0532 7.33151 36.6563 7.45338 36.2657 7.57838L32.2658 4.70027C32.0667 4.55398 31.8334 4.46143 31.5882 4.43155C31.343 4.40168 31.0943 4.43548 30.866 4.52969C30.6377 4.62391 30.4375 4.77536 30.2847 4.96945C30.132 5.16353 30.0318 5.3937 29.9939 5.63776L29.2001 10.5034C28.8345 10.694 28.472 10.8909 28.1064 11.0909L23.6252 9.04712C23.4015 8.94283 23.1548 8.89788 22.9088 8.91658C22.6627 8.93528 22.4256 9.017 22.2203 9.15387C22.015 9.29075 21.8484 9.47817 21.7365 9.6981C21.6246 9.91803 21.5712 10.1631 21.5814 10.4096L21.7533 15.3471C21.4346 15.6033 21.119 15.8627 20.8065 16.1283L16.0002 14.9939C15.7606 14.9384 15.5108 14.9447 15.2743 15.0123C15.0378 15.0799 14.8224 15.2065 14.6484 15.3802C14.4743 15.554 14.3473 15.7692 14.2793 16.0056C14.2113 16.2419 14.2045 16.4917 14.2596 16.7314L15.394 21.5408C15.1284 21.8533 14.869 22.1658 14.6127 22.4845L9.67841 22.3127C9.43219 22.3036 9.18776 22.3578 8.96838 22.4699C8.749 22.582 8.56197 22.7485 8.42509 22.9533C8.28821 23.1582 8.20603 23.3946 8.18637 23.6402C8.16671 23.8858 8.21023 24.1324 8.31279 24.3564L10.3565 28.8439C10.1597 29.2032 9.96278 29.5657 9.77216 29.9376L4.90969 30.7251C4.66629 30.7642 4.43696 30.865 4.24354 31.0178C4.05012 31.1707 3.89906 31.3705 3.80476 31.5983C3.71045 31.826 3.67604 32.0742 3.70481 32.319C3.73357 32.5638 3.82455 32.7972 3.96907 32.997L6.84405 36.9938C6.71905 37.3875 6.60031 37.7844 6.48468 38.1813L1.87221 39.9094C1.64167 39.9956 1.43698 40.1392 1.27757 40.3267C1.11817 40.5142 1.00935 40.7394 0.961443 40.9808C0.913538 41.2222 0.928141 41.4718 1.00386 41.706C1.07959 41.9402 1.21391 42.1511 1.39409 42.3188L5.00344 45.6844C4.95656 46.0906 4.91594 46.4969 4.88157 46.9062L0.684718 49.5062C0.475379 49.6356 0.302583 49.8163 0.182744 50.0313C0.0629047 50.2462 0 50.4882 0 50.7343C0 50.9804 0.0629047 51.2224 0.182744 51.4374C0.302583 51.6523 0.475379 51.8331 0.684718 51.9624L4.88157 54.5593C4.91594 54.9687 4.95656 55.378 5.00344 55.7843L1.39409 59.1499C1.21391 59.3175 1.07959 59.5285 1.00386 59.7626C0.928141 59.9968 0.913538 60.2465 0.961443 60.4879C1.00935 60.7293 1.11817 60.9544 1.27757 61.1419C1.43698 61.3295 1.64167 61.4731 1.87221 61.5592L6.48468 63.2842C6.60031 63.6842 6.72218 64.0811 6.84718 64.4717L3.96907 68.4717C3.8253 68.6714 3.73494 68.9045 3.70659 69.1489C3.67823 69.3933 3.71281 69.6409 3.80704 69.8682C3.90128 70.0955 4.05205 70.295 4.24503 70.4476C4.43801 70.6003 4.6668 70.7011 4.90969 70.7404L9.77216 71.5311C9.96278 71.8998 10.1565 72.2654 10.3597 72.6248L8.31279 77.1091C8.21023 77.3332 8.16671 77.5797 8.18637 77.8253C8.20603 78.0709 8.28821 78.3074 8.42509 78.5122C8.56197 78.7171 8.749 78.8835 8.96838 78.9956C9.18776 79.1078 9.43219 79.1619 9.67841 79.1529L14.6127 78.981C14.869 79.3029 15.1284 79.6154 15.394 79.9279L14.2596 84.7372C14.2015 84.9772 14.2061 85.2281 14.2731 85.4657C14.3401 85.7034 14.4672 85.9198 14.6421 86.094C14.817 86.2683 15.0338 86.3946 15.2717 86.4607C15.5096 86.5268 15.7605 86.5306 16.0002 86.4716L20.8065 85.3403C21.119 85.606 21.4346 85.8622 21.7533 86.1185L21.5814 91.0559C21.5721 91.3022 21.6261 91.5467 21.7382 91.7661C21.8503 91.9856 22.0169 92.1726 22.2219 92.3093C22.427 92.446 22.6636 92.5278 22.9093 92.5469C23.155 92.566 23.4015 92.5218 23.6252 92.4184L28.1095 90.3747C28.4689 90.5747 28.8345 90.7715 29.2033 90.9622L29.9939 95.8215C30.0317 96.0656 30.1317 96.2959 30.2842 96.4903C30.4368 96.6846 30.6367 96.8365 30.8648 96.9312C31.093 97.026 31.3417 97.0605 31.587 97.0315C31.8323 97.0024 32.0661 96.9107 32.2658 96.7653L36.2626 93.884C36.6563 94.009 37.0532 94.134 37.4501 94.2465L39.1751 98.859C39.2598 99.0908 39.4028 99.2968 39.5902 99.4573C39.7777 99.6178 40.0033 99.7273 40.2454 99.7754C40.4874 99.8234 40.7377 99.8083 40.9723 99.7316C41.2068 99.6548 41.4176 99.519 41.5844 99.3371L44.9532 95.7278C45.3594 95.7746 45.7657 95.8153 46.175 95.8528L48.775 100.05C48.9049 100.258 49.0859 100.43 49.3008 100.55C49.5156 100.669 49.7573 100.732 50.0031 100.732C50.2489 100.732 50.4906 100.669 50.7055 100.55C50.9204 100.43 51.1013 100.258 51.2312 100.05L53.8281 95.8496C54.2375 95.8153 54.6468 95.7746 55.0531 95.7278L58.4187 99.3371C58.5856 99.5182 58.7962 99.6534 59.0304 99.7297C59.2645 99.806 59.5143 99.8209 59.7559 99.7729C59.9974 99.7249 60.2226 99.6156 60.4098 99.4556C60.597 99.2956 60.7399 99.0901 60.8249 98.859L62.553 94.2465C62.9499 94.134 63.3468 94.009 63.7405 93.884L67.7405 96.7653C67.9406 96.9082 68.1739 96.9977 68.4183 97.0255C68.6626 97.0532 68.91 97.0182 69.1371 96.9237C69.3641 96.8293 69.5634 96.6785 69.716 96.4856C69.8686 96.2928 69.9695 96.0642 70.0092 95.8215L70.803 90.959C71.1686 90.7716 71.5311 90.5715 71.8936 90.3747L76.3779 92.4184C76.6019 92.5219 76.8487 92.5661 77.0946 92.5469C77.3406 92.5276 77.5775 92.4455 77.7826 92.3085C77.9877 92.1714 78.1542 91.984 78.2661 91.7641C78.378 91.5442 78.4316 91.2993 78.4217 91.0528L78.2498 86.1153C78.5686 85.8653 78.8842 85.606 79.1967 85.3403L84.0029 86.4716C84.2424 86.5299 84.493 86.5257 84.7304 86.4593C84.9678 86.3929 85.1842 86.2665 85.3587 86.0923C85.5331 85.9181 85.6599 85.702 85.7268 85.4647C85.7936 85.2274 85.7983 84.9769 85.7404 84.7372L84.6091 79.9279C84.8716 79.6154 85.131 79.3029 85.3873 78.981L90.3247 79.1529C90.5713 79.1631 90.8163 79.1097 91.0362 78.9978C91.2562 78.8859 91.4436 78.7193 91.5805 78.514C91.7173 78.3087 91.799 78.0716 91.8177 77.8255C91.8364 77.5795 91.7915 77.3328 91.6872 77.1091L89.6435 72.6248C89.8435 72.2654 90.0372 71.8998 90.2278 71.5311L95.0903 70.7404C95.3341 70.7027 95.5641 70.6028 95.7581 70.4504C95.9522 70.2981 96.1037 70.0983 96.1982 69.8704C96.2927 69.6425 96.327 69.3941 96.2977 69.1492C96.2684 68.9042 96.1765 68.6709 96.0309 68.4717L93.156 64.4717C93.2802 64.0773 93.4 63.6814 93.5153 63.2842L98.1278 61.5592C98.3596 61.4745 98.5656 61.3315 98.7261 61.1441C98.8866 60.9566 98.9961 60.731 99.0442 60.489C99.0922 60.2469 99.0771 59.9966 99.0004 59.7621C98.9236 59.5275 98.7878 59.3167 98.6059 59.1499L94.9966 55.7843C95.0403 55.378 95.0809 54.9687 95.1184 54.5593L99.3153 51.9624C99.5246 51.8331 99.6974 51.6523 99.8173 51.4374C99.9371 51.2224 100 50.9804 100 50.7343C100 50.4882 99.9371 50.2462 99.8173 50.0313C99.6974 49.8163 99.5246 49.6356 99.3153 49.5062ZM71.2186 84.331C70.4656 84.1479 69.8137 83.6782 69.4016 83.0219C68.9896 82.3655 68.85 81.5743 69.0125 80.8165C69.1749 80.0588 69.6266 79.3943 70.2715 78.9646C70.9164 78.5348 71.7036 78.3736 72.4655 78.5154C73.2214 78.696 73.8766 79.1654 74.291 79.823C74.7053 80.4805 74.8459 81.2742 74.6825 82.034C74.5192 82.7939 74.065 83.4597 73.417 83.889C72.7691 84.3182 71.982 84.4769 71.2186 84.331ZM69.7905 74.6842C69.4429 74.6098 69.0841 74.6047 68.7345 74.6691C68.3849 74.7334 68.0514 74.866 67.7531 75.0593C67.4548 75.2526 67.1975 75.5027 66.9959 75.7955C66.7942 76.0882 66.6522 76.4178 66.578 76.7654L65.0874 83.7216C60.3483 85.8708 55.2036 86.979 50 86.9716C44.5 86.9716 39.2813 85.7528 34.597 83.5747L33.1064 76.6216C33.0325 76.2738 32.8908 75.9438 32.6893 75.6507C32.4878 75.3577 32.2305 75.1072 31.9322 74.9136C31.6338 74.72 31.3002 74.5871 30.9505 74.5226C30.6007 74.458 30.2417 74.463 29.8939 74.5373L23.7533 75.856C22.6123 74.6818 21.5516 73.4321 20.5783 72.1154H50.4562C50.7937 72.1154 51.0187 72.0529 51.0187 71.7467V61.178C51.0187 60.8686 50.7937 60.8092 50.4562 60.8092H41.7188V54.1062H51.1687C52.0312 54.1062 55.7812 54.3531 56.9812 59.1468C57.3562 60.6186 58.1812 65.4155 58.7437 66.9498C59.3062 68.6717 61.5937 72.1123 64.0312 72.1123H78.9186C79.1 72.1107 79.2809 72.0929 79.4592 72.0592C78.4279 73.4623 77.2936 74.7904 76.0748 76.0279L69.7936 74.681L69.7905 74.6842ZM28.4689 84.1841C27.707 84.3258 26.9199 84.1647 26.275 83.7349C25.6301 83.3052 25.1784 82.6407 25.0159 81.883C24.8534 81.1252 24.9931 80.334 25.4051 79.6776C25.8171 79.0212 26.469 78.5516 27.222 78.3685C27.6041 78.2868 27.9985 78.2812 28.3827 78.352C28.767 78.4228 29.1335 78.5685 29.4614 78.7809C29.7893 78.9933 30.0722 79.2682 30.2938 79.59C30.5155 79.9117 30.6716 80.2739 30.7533 80.656C30.8349 81.0381 30.8405 81.4325 30.7698 81.8167C30.699 82.2009 30.5533 82.5675 30.3409 82.8954C30.1284 83.2233 29.8535 83.5061 29.5318 83.7278C29.2101 83.9494 28.8478 84.1056 28.4658 84.1872L28.4689 84.1841ZM17.1346 38.225C17.2928 38.5815 17.3793 38.9655 17.389 39.3554C17.3988 39.7452 17.3317 40.1331 17.1915 40.497C17.0514 40.8609 16.8409 41.1936 16.5722 41.4762C16.3034 41.7587 15.9817 41.9856 15.6252 42.1438C15.2688 42.302 14.8847 42.3884 14.4949 42.3982C14.1051 42.4079 13.7172 42.3408 13.3533 42.2007C12.9894 42.0605 12.6567 41.8501 12.3741 41.5813C12.0916 41.3126 11.8647 40.9908 11.7065 40.6344C11.387 39.9146 11.3665 39.0973 11.6496 38.3624C11.9327 37.6275 12.4961 37.0352 13.2159 36.7157C13.9357 36.3962 14.7529 36.3757 15.4878 36.6588C16.2227 36.9418 16.8151 37.5052 17.1346 38.225ZM13.6503 46.4844L20.0471 43.6406C20.7035 43.3481 21.2171 42.8069 21.4749 42.1361C21.7327 41.4652 21.7137 40.7194 21.4221 40.0625L20.1065 37.0844H25.2877V60.4405H14.8346C13.5442 55.9083 13.1441 51.1695 13.6503 46.4844ZM41.7219 44.2156V37.3313H54.0593C54.6968 37.3313 58.5593 38.0688 58.5593 40.9563C58.5593 43.3531 55.5968 44.2156 53.1594 44.2156H41.7219ZM86.5622 50.4125C86.5622 51.325 86.5279 52.2281 86.4591 53.1249H82.7091C82.3341 53.1249 82.1842 53.3749 82.1842 53.7406V55.4624C82.1842 59.5186 79.8967 60.3999 77.8935 60.6249C75.9873 60.8374 73.8686 59.8249 73.6092 58.6561C72.4842 52.3281 70.6092 50.975 67.6468 48.6375C71.3217 46.3062 75.1467 42.8625 75.1467 38.2532C75.1467 33.2751 71.7342 30.1407 69.4092 28.6032C66.1468 26.4532 62.5343 26.022 61.5593 26.022H22.7658C28.1261 20.0266 35.3159 15.9687 43.2188 14.4783L47.7906 19.2752C48.825 20.3564 50.5406 20.4002 51.6187 19.3627L56.7374 14.469C61.952 15.448 66.8913 17.5494 71.2129 20.6272C75.5346 23.7051 79.1353 27.686 81.7654 32.2938L78.2623 40.2063C77.9716 40.8633 77.953 41.6087 78.2107 42.2793C78.4684 42.95 78.9814 43.4912 79.6373 43.7844L86.3841 46.7781C86.4997 47.975 86.5622 49.1843 86.5622 50.4125ZM47.7938 10.3971C48.0758 10.1275 48.4082 9.91606 48.772 9.77498C49.1357 9.63391 49.5238 9.56592 49.9138 9.57492C50.3039 9.58392 50.6884 9.66972 51.0453 9.82742C51.4022 9.98512 51.7245 10.2116 51.9937 10.494C52.2634 10.7767 52.4747 11.1098 52.6156 11.4742C52.7565 11.8386 52.8242 12.2272 52.8149 12.6178C52.8056 13.0084 52.7195 13.3933 52.5614 13.7506C52.4034 14.1079 52.1765 14.4306 51.8937 14.7002C51.6118 14.9695 51.2795 15.1806 50.9159 15.3214C50.5522 15.4622 50.1644 15.5299 49.7746 15.5206C49.3848 15.5113 49.0006 15.4252 48.6441 15.2673C48.2876 15.1094 47.9657 14.8827 47.6969 14.6002C47.1537 14.0293 46.8589 13.2664 46.877 12.4786C46.8952 11.6908 47.2248 10.9423 47.7938 10.3971ZM82.5529 38.3688C82.8728 37.649 83.4656 37.0857 84.2008 36.803C84.936 36.5202 85.7534 36.5411 86.4732 36.861C87.193 37.1809 87.7562 37.7737 88.039 38.5089C88.3218 39.244 88.3009 40.0615 87.981 40.7813C87.8226 41.1377 87.5955 41.4594 87.3128 41.7281C87.03 41.9967 86.6972 42.2071 86.3331 42.3471C85.9691 42.4871 85.581 42.554 85.1911 42.5441C84.8012 42.5341 84.4171 42.4475 84.0607 42.2891C83.7043 42.1307 83.3826 41.9036 83.1139 41.6209C82.8452 41.3381 82.6349 41.0052 82.4949 40.6412C82.3549 40.2772 82.2879 39.8891 82.2979 39.4992C82.3078 39.1093 82.3945 38.7252 82.5529 38.3688Z" fill="#F5F5F5"/>
</svg>
