<svg xmlns="http://www.w3.org/2000/svg" width="100" height="100" viewBox="0 0 100 107" fill="none">
    <path d="M6.65905 65.1561C4.68036 58.9918 4.10959 52.4849 5.25114 45.7878C5.74581 43.01 6.50685 40.3464 7.34398 37.6447C7.34398 37.6447 12.5951 20.4073 30.3653 12.5306C30.3653 12.5306 36.4916 9.29618 45.7001 9.06787C45.7001 9.06787 44.4444 7.85021 43.6454 7.31748C39.3075 4.42555 32.8387 3.47426 28.9193 7.5458C27.7397 8.76345 26.7504 10.0953 25.6469 11.3129C24.3912 12.6828 22.8691 13.8243 21.1187 14.4712C19.5966 15.042 18.0746 14.9278 16.5145 15.1942C14.9163 15.4606 13.2801 16.0313 11.9863 17.0587C10.5784 18.2003 10.0076 19.7224 9.8554 21.4727C9.70319 22.8426 9.74124 24.2505 9.66514 25.6204C9.47488 29.6539 8.18112 30.7954 5.28919 33.0405C4.07153 33.9537 3.04414 35.1714 2.2831 36.4651C-2.6226e-06 40.4986 3.65297 44.6843 3.84322 48.7558C3.88128 49.593 3.80517 50.4301 3.50076 51.2292C3.19634 52.1044 2.58752 52.6752 2.09284 53.3982C1.40791 54.3494 0.951291 55.491 1.14155 56.6706C1.33181 57.8502 1.94064 58.9537 2.51141 59.9811C3.61491 61.8076 4.98478 63.4438 6.43074 65.0039C6.50685 65.0039 6.58295 65.08 6.65905 65.1561Z" fill="#E32286"/>
    <path d="M79.2618 79.768C88.0137 75.9628 91.7428 69.3799 91.7428 69.3799C99.924 58.2307 97.1462 46.4727 97.1462 46.4727C91.9331 57.8121 87.1766 60.9324 87.1766 60.9324C100 41.4118 87.2527 29.6158 87.2527 29.6158C92.4658 40.7269 85.5404 54.2733 85.5404 54.2733C79.7185 66.526 71.4612 70.9019 71.4612 70.9019C80.6698 72.6143 87.443 66.4118 87.443 66.4118C74.239 80.6812 59.9316 79.9963 59.9316 79.9963C65.9437 86.7315 74.962 86.1607 74.962 86.1607C63.166 88.9385 52.0929 85.0191 42.9985 77.4468C41.2862 76.0389 39.65 74.5169 38.1279 72.8806C38.1279 72.8806 36.758 71.4347 36.4917 71.0541L36.4536 71.0161C36.2634 78.0557 43.6074 84.6006 43.6074 84.6006C34.3988 80.7954 30.1751 72.5382 30.1751 72.5382C30.1751 72.5382 23.9727 61.9598 28.4628 49.8974C32.9529 37.835 46.5373 35.2474 46.5373 35.2474C57.7626 40.6888 67.2755 42.4012 67.2755 42.4012C87.3288 45.7497 86.1873 35.9324 86.1873 35.9324C86.3775 27.4849 73.6302 18.5047 73.6302 18.5047C50.9133 1.64775 30.3653 12.5306 30.3653 12.5306C12.5952 20.4073 7.34404 37.6447 7.34404 37.6447C6.5069 40.3464 5.74586 43.01 5.25119 45.7878C3.31055 57.0892 6.24054 67.7817 12.5952 77.2946C22.4886 92.0587 38.5465 97.1576 38.5465 97.1576C62.3288 105.225 78.5769 93.3525 78.5769 93.3525C93.5313 83.0785 96.5373 71.2063 96.5373 71.2063C84.4749 80.6432 79.2618 79.768 79.2618 79.768ZM60.6926 24.2505C61.8341 24.2505 62.7474 25.1637 62.7474 26.3053C62.7474 27.4468 61.8341 28.3601 60.6926 28.3601C59.551 28.3601 58.6378 27.4468 58.6378 26.3053C58.6378 25.1637 59.551 24.2505 60.6926 24.2505Z" fill="url(#paint0_linear_572_3527)"/>
    <path d="M86.1491 35.8943C86.3394 27.4468 73.592 18.4666 73.592 18.4666C50.8751 1.64774 30.3272 12.5305 30.3272 12.5305C12.557 20.4073 7.30589 37.6447 7.30589 37.6447C6.27849 40.5747 5.36525 45.0648 5.36525 45.0648C4.26175 50.6964 4.75642 55.9095 4.75642 55.9095C5.21304 60.8943 6.31654 64.2429 6.31654 64.2429C7.45809 67.8197 7.99082 68.9232 7.99082 68.9232C7.95276 68.8091 7.76251 67.9719 7.76251 67.9719C7.76251 67.9719 6.16433 60.2855 7.64835 52.9034C7.64835 52.9034 8.94211 45.217 14.1933 39.2809C14.1933 39.2809 22.7168 27.1424 38.5844 31.8989C38.5844 31.8989 42.0091 33.1165 43.1887 33.7254C44.3683 34.2961 46.4231 35.1713 46.4231 35.1713C57.6484 40.6127 67.1613 42.3251 67.1613 42.3251C87.2907 45.7117 86.1491 35.8943 86.1491 35.8943ZM60.6925 28.3981C59.5509 28.3981 58.6377 27.4849 58.6377 26.3433C58.6377 25.2018 59.5509 24.2885 60.6925 24.2885C61.834 24.2885 62.7473 25.2018 62.7473 26.3433C62.7473 27.4849 61.834 28.3981 60.6925 28.3981Z" fill="url(#paint1_radial_572_3527)"/>
    <path d="M47.6789 20.5975L34.7032 16.5641C34.6271 16.5641 34.2466 16.3738 33.5617 16.5641C33.5617 16.5641 25.9133 18.5047 27.2451 22.6904C27.2451 22.6904 28.0442 25.316 30.2131 27.8654L44.4825 27.1805L47.6789 20.5975Z" fill="url(#paint2_linear_572_3527)"/>
    <defs>
        <linearGradient id="paint0_linear_572_3527" x1="15.752" y1="92.706" x2="63.102" y2="42.3338" gradientUnits="userSpaceOnUse">
            <stop stop-color="#E01D84"/>
            <stop offset="0.401" stop-color="#DF1D85"/>
            <stop offset="0.77" stop-color="#932C87"/>
            <stop offset="1" stop-color="#5D2F88"/>
        </linearGradient>
        <radialGradient id="paint1_radial_572_3527" cx="0" cy="0" r="1" gradientUnits="userSpaceOnUse" gradientTransform="translate(67.8674 28.9702) rotate(0.136937) scale(46.2642 38.6861)">
            <stop stop-color="#E01D84"/>
            <stop offset="0.139" stop-color="#DE1E85"/>
            <stop offset="0.285" stop-color="#D62085"/>
            <stop offset="0.434" stop-color="#C92386"/>
            <stop offset="0.586" stop-color="#B72786"/>
            <stop offset="0.739" stop-color="#9D2B87"/>
            <stop offset="0.891" stop-color="#7C2E88"/>
            <stop offset="1" stop-color="#5D2F88"/>
        </radialGradient>
        <linearGradient id="paint2_linear_572_3527" x1="27.0594" y1="22.1714" x2="47.6678" y2="22.1714" gradientUnits="userSpaceOnUse">
            <stop stop-color="#E01D84"/>
            <stop offset="0.238" stop-color="#DA1E85"/>
            <stop offset="0.658" stop-color="#C72085"/>
            <stop offset="0.999" stop-color="#B52284"/>
        </linearGradient>
    </defs>
</svg>
