<svg xmlns="http://www.w3.org/2000/svg" width="100" height="76" viewBox="0 0 100 76" fill="none">
	<g clip-path="url(#clip0_572_3532)">
		<path d="M86.0533 44.0405C82.5667 44.0587 79.5363 44.8984 76.9989 46.1398C76.0679 44.296 75.1369 42.6531 74.9726 41.4483C74.7901 40.0427 74.571 39.1847 74.7901 37.5052C75.0092 35.8258 75.9949 33.4344 75.9767 33.2519C75.9584 33.0693 75.7576 32.2113 73.7496 32.1931C71.7415 32.1748 70.0073 32.5764 69.8065 33.1058C69.6057 33.6352 69.2224 34.84 68.9668 36.0813C68.62 37.9068 64.9507 44.4238 62.8514 47.8375C62.176 46.5049 61.5918 45.3366 61.4641 44.4056C61.2815 42.9999 61.0625 42.142 61.2815 40.4625C61.5006 38.7831 62.4863 36.3917 62.4681 36.2091C62.4498 36.0266 62.249 35.1686 60.241 35.1504C58.233 35.1321 56.4987 35.5337 56.2979 36.0631C56.0971 36.5925 55.8781 37.8338 55.4582 39.0386C55.0384 40.2435 50.1643 51.1233 48.8865 53.9346C48.2293 55.3767 47.6634 56.5268 47.2618 57.3117C47.2618 57.3117 47.2435 57.3665 47.1888 57.4578C46.8419 58.1332 46.6411 58.4983 46.6411 58.4983C46.6411 58.4983 46.6411 58.4983 46.6411 58.5165C46.3673 59.0094 46.0752 59.4658 45.9292 59.4658C45.8197 59.4658 45.6189 58.1514 45.9657 56.3625C46.6959 52.5837 48.4301 46.7057 48.4119 46.5049C48.4119 46.3953 48.7404 45.3731 47.2801 44.8437C45.8562 44.3143 45.345 45.1905 45.2173 45.1905C45.0895 45.1905 44.9982 45.5008 44.9982 45.5008C44.9982 45.5008 46.5864 38.8926 41.9679 38.8926C39.0836 38.8926 35.1041 42.0507 33.1326 44.8984C31.8912 45.5739 29.2443 47.016 26.4148 48.5677C25.3377 49.1701 24.2242 49.7725 23.1837 50.3384C23.1107 50.2654 23.0376 50.1741 22.9646 50.1011C17.3786 44.1317 7.04639 39.9149 7.48451 31.901C7.6488 28.9802 8.65282 21.3132 27.3275 12.0032C42.6981 4.42746 54.9288 6.52676 57.0464 11.1817C60.0767 17.8265 50.4929 30.1668 34.6112 31.9558C28.5506 32.6312 25.3743 30.2946 24.571 29.4183C23.7313 28.5056 23.6035 28.4508 23.2932 28.6334C22.7821 28.9072 23.1106 29.7287 23.2932 30.2033C23.7678 31.4446 25.7211 33.6352 29.0252 34.7122C31.946 35.6615 39.0471 36.1909 47.6451 32.8685C57.2654 29.1445 64.7864 18.794 62.5776 10.123C60.3688 1.32414 45.7649 -1.57838 31.946 3.33217C23.7313 6.25294 14.823 10.8532 8.41551 16.8407C0.803238 23.9601 -0.401581 30.1485 0.0912997 32.7407C1.86202 41.9412 14.5491 47.9287 19.624 52.3647C19.3684 52.5107 19.1311 52.6385 18.9303 52.748C16.3929 54.0076 6.71781 59.0642 4.30817 64.4129C1.56994 70.4735 4.74628 74.8181 6.84559 75.4023C13.3626 77.2095 20.0621 73.9601 23.6583 68.5932C27.2545 63.2263 26.8164 56.2529 25.1552 53.0583C25.1369 53.0218 25.1187 52.9853 25.0822 52.9488C25.7393 52.5655 26.4148 52.1639 27.0719 51.7805C28.368 51.0138 29.6459 50.3019 30.7412 49.7177C30.1205 51.4154 29.6641 53.4417 29.4451 56.3625C29.1713 59.7944 30.5769 64.2486 32.4206 66.001C33.2421 66.7677 34.2096 66.786 34.8303 66.786C36.9843 66.786 37.9518 64.997 39.0289 62.8795C40.3432 60.2873 41.5298 57.2752 41.5298 57.2752C41.5298 57.2752 40.0511 65.4169 44.0672 65.4169C45.5276 65.4169 47.0062 63.5184 47.6634 62.5509C47.6634 62.5691 47.6634 62.5691 47.6634 62.5691C47.6634 62.5691 47.6999 62.5144 47.7729 62.3866C47.919 62.1493 48.0102 62.0032 48.0102 62.0032C48.0102 62.0032 48.0102 61.985 48.0102 61.9667C48.5944 60.9444 49.9088 58.6261 51.862 54.7743C54.3812 49.809 56.8091 43.6023 56.8091 43.6023C56.8091 43.6023 57.0281 45.1175 57.7766 47.6367C58.2147 49.1153 59.1274 50.74 59.8576 52.3099C59.2735 53.1314 58.9084 53.5877 58.9084 53.5877C58.9084 53.5877 58.9084 53.5877 58.9266 53.606C58.452 54.2267 57.9409 54.9021 57.375 55.5593C55.3852 57.9324 53.0121 60.6524 52.6835 61.4373C52.3001 62.3683 52.3914 63.0437 53.1216 63.5914C53.651 63.993 54.6002 64.0478 55.5677 63.993C57.3567 63.8652 58.6163 63.4271 59.237 63.1533C60.2045 62.8064 61.3363 62.277 62.3951 61.4921C64.3483 60.0499 65.5349 57.9872 65.4254 55.2672C65.3706 53.7703 64.8777 52.2734 64.2753 50.8678C64.4579 50.6122 64.6221 50.3566 64.8047 50.1011C67.8898 45.5921 70.2812 40.6451 70.2812 40.6451C70.2812 40.6451 70.5002 42.1602 71.2486 44.6794C71.6137 45.9572 72.3622 47.3446 73.0194 48.6954C70.1169 51.0503 68.3279 53.7885 67.689 55.5775C66.5389 58.8999 67.4334 60.3968 69.1311 60.7436C69.8978 60.9079 70.9931 60.5428 71.7963 60.196C72.8186 59.8674 74.0234 59.3015 75.1734 58.4618C77.1267 57.0196 79.007 55.0116 78.8974 52.2916C78.8427 51.0503 78.5141 49.8272 78.0577 48.6407C80.5221 47.6184 83.6985 47.0525 87.751 47.5271C96.4403 48.5494 98.1563 53.9711 97.8277 56.2529C97.4991 58.5348 95.6736 59.7761 95.0712 60.1595C94.4688 60.5428 94.268 60.6706 94.3228 60.9444C94.3958 61.346 94.6879 61.3278 95.199 61.2548C95.9109 61.127 99.7627 59.411 99.927 55.2124C100.201 49.8455 95.0895 43.9857 86.0533 44.0405ZM19.0216 66.6399C16.1373 69.7798 12.1212 70.9663 10.387 69.9623C8.52503 68.8853 9.25523 64.2486 12.7967 60.9262C14.9507 58.8999 17.7255 57.0196 19.5692 55.8696C19.9891 55.614 20.6097 55.2489 21.3582 54.7926C21.486 54.7195 21.559 54.683 21.559 54.683C21.705 54.5918 21.8511 54.5005 21.9971 54.4092C23.2932 59.1555 22.0519 63.3358 19.0216 66.6399ZM40.0146 52.3647C39.0106 54.8108 36.9113 61.0722 35.6335 60.7254C34.5382 60.4333 33.8627 55.687 35.4144 50.9956C36.1994 48.6407 37.8606 45.8294 38.8281 44.7341C40.398 42.9817 42.1322 42.3975 42.5521 43.1095C43.0814 44.0405 40.6353 50.8313 40.0146 52.3647ZM57.3385 60.6524C56.9186 60.8714 56.517 61.0175 56.3345 60.9079C56.2067 60.8349 56.517 60.5428 56.517 60.5428C56.517 60.5428 58.6893 58.2062 59.5473 57.1474C60.0402 56.5268 60.6243 55.7966 61.245 54.9751C61.245 55.0481 61.245 55.1394 61.245 55.2124C61.245 58.0054 58.5433 59.8857 57.3385 60.6524ZM70.701 57.6038C70.3907 57.3847 70.4454 56.6546 71.486 54.3727C71.8876 53.4782 72.8368 51.9813 74.4615 50.5392C74.6441 51.1233 74.7718 51.6892 74.7536 52.2186C74.7353 55.7418 72.2162 57.0562 70.701 57.6038Z" fill="#CD6799"/>
	</g>
	<defs>
		<clipPath id="clip0_572_3532">
			<rect width="100" height="74.9544" fill="white" transform="translate(0 0.958984)"/>
		</clipPath>
	</defs>
</svg>
