<svg xmlns="http://www.w3.org/2000/svg" width="100" height="134" viewBox="0 0 100 134" fill="none">
    <path d="M42.069 133.377C29.5762 132.477 17.2288 129.332 9.65623 125.122C5.34289 122.725 2.05673 119.778 0.767225 117.151L0 115.589V66.5737V17.5587L0.6071 16.326C3.32013 10.8179 11.9787 5.8522 24.0655 2.87276C28.1684 1.86131 34.0915 0.854062 38.9236 0.346144C43.8579 -0.172642 56.9365 -0.0937122 61.8585 0.485322C74.9401 2.02223 86.0717 5.46299 92.9317 10.0901C95.5772 11.8745 98.2918 14.7297 99.2115 16.695L100 18.3801L99.9325 67.2468L99.865 116.114L99.2321 117.4C98.884 118.107 97.8325 119.498 96.8955 120.491C91.1913 126.538 78.9559 131.011 62.9071 132.917C59.636 133.306 45.425 133.619 42.069 133.377ZM65.0912 91.3778C65.0432 91.2525 63.1756 89.5888 60.9411 87.6805C58.7066 85.7721 56.7821 84.1211 56.6644 84.0115C56.5468 83.9018 56.9596 83.5138 57.5819 83.149C58.2041 82.7843 59.3962 81.7696 60.231 80.8941C62.6724 78.3341 63.8243 75.1718 63.8243 71.0296C63.8243 66.9518 62.582 63.6616 60.0937 61.1501C57.5859 58.6185 54.7065 57.5307 50.5132 57.5307C44.0497 57.5307 39.0858 61.3022 37.5014 67.4167C36.9564 69.5199 36.9593 73.7696 37.5071 75.6345C38.9359 80.4989 42.8274 84.0318 47.6705 84.8614C49.3094 85.1422 49.5313 85.2632 50.6487 86.4848C51.3128 87.2108 52.6754 88.6599 53.6769 89.7051L55.4977 91.6054H60.3382C63.0005 91.6054 65.1393 91.503 65.0912 91.3778ZM48.4913 77.8248C47.326 77.2172 46.8855 76.7457 46.221 75.3948C45.7077 74.3514 45.62 73.7579 45.6142 71.2918C45.6085 68.786 45.6882 68.2445 46.2241 67.1564C47.1008 65.3758 48.3091 64.5329 50.1781 64.3977C52.7797 64.209 54.2815 65.4858 55.0685 68.5543C56.0335 72.3164 54.9723 76.3162 52.6571 77.6436C51.4425 78.34 49.6307 78.4189 48.4913 77.8248ZM27.0361 84.808C32.1111 83.8456 34.992 80.8942 34.992 76.6575C34.992 72.8989 33.1321 70.7088 27.9917 68.414C25.0491 67.1003 23.9832 66.2758 23.9832 65.3124C23.9832 64.5139 24.9947 63.6389 26.1722 63.419C27.3219 63.2044 30.3713 63.734 32.172 64.4614L33.6814 65.0711V61.7301V58.3887L32.0432 58.0253C31.0307 57.8007 28.9032 57.666 26.4733 57.6728C23.0313 57.6728 22.3574 57.7567 21.0621 58.2711C17.2785 59.7731 15.4831 62.3318 15.5118 66.1806C15.5387 69.7837 17.4395 72.0312 22.1702 74.0531C24.9614 75.2461 26.0802 76.1546 26.0802 77.228C26.0802 79.5093 22.2791 79.7901 18.2548 77.8061C17.1527 77.2627 16.1625 76.7739 16.0543 76.7197C15.9462 76.6656 15.8578 78.2264 15.8578 80.1881C15.8578 83.739 15.8616 83.7561 16.5045 84.0009C18.9254 84.9213 24.2763 85.3314 27.0361 84.808ZM85.0555 81.5141V78.4998H80.4685H75.8815V68.1463V57.7929H71.8188H67.7561V71.1607V84.5284H76.4057H85.0555V81.5141ZM56.7473 28.6917C64.8207 28.1317 70.8725 27.0745 76.198 25.2939C81.5034 23.52 84.6374 21.3736 85.3385 19.0338C85.6086 18.1322 85.5892 17.7902 85.2118 16.8016C83.5192 12.3697 74.064 8.96467 59.6158 7.5841C53.4355 6.99344 42.1957 7.18492 36.3029 7.98092C27.3113 9.19581 20.0142 11.4524 16.7696 14.0216C10.2061 19.2189 17.147 24.9354 33.2883 27.626C40.2872 28.7926 49.3546 29.2046 56.7473 28.6917Z" fill="#00BCF2"/>
</svg>
