<svg xmlns="http://www.w3.org/2000/svg" width="100" height="44" viewBox="0 0 100 44" fill="none">
    <path d="M39.2186 20.1547C37.9112 20.1547 36.8501 20.5432 36.0353 21.3153C35.2205 22.0874 34.8037 23.1059 34.8037 24.347C34.8037 24.9913 34.9079 25.5787 35.1068 26.1187C35.3058 26.6587 35.6279 27.1609 36.0448 27.6109C36.4617 28.0609 37.3143 28.6767 38.5791 29.5057C40.1281 30.4531 41.1371 31.2205 41.6298 31.8174C42.0874 32.3385 42.3458 33.0047 42.3593 33.698C42.3593 34.5744 42.0751 35.2707 41.4782 35.7965C40.8813 36.3224 40.0903 36.5829 39.1097 36.5829C38.0675 36.5829 37.2148 36.2181 36.3906 35.4934C35.5663 34.7686 35.2205 33.8022 35.2063 32.5943H34.7231V36.9713H35.2063C35.3484 36.5545 35.5569 36.346 35.8221 36.346C35.95 36.346 36.2485 36.4408 36.7696 36.6018C37.9065 37.0092 38.8444 37.2035 39.5834 37.2035C40.8529 37.2035 41.933 36.7582 42.8378 35.8581C43.2738 35.4359 43.6189 34.929 43.8519 34.3685C44.0848 33.8081 44.2008 33.2059 44.1926 32.599C44.1926 31.6137 43.8941 30.7373 43.302 29.9747C42.7099 29.212 41.5682 28.3167 39.8534 27.2982C38.3849 26.4124 37.4233 25.6876 36.9827 25.1286C36.5515 24.604 36.3155 23.9461 36.3148 23.267C36.3026 22.9295 36.3689 22.5937 36.5087 22.2862C36.6484 21.9788 36.8578 21.708 37.1201 21.4953C37.6554 21.0548 38.3517 20.8321 39.2281 20.8321C40.2134 20.8321 41.0282 21.1258 41.6819 21.7132C42.3573 22.3581 42.7635 23.2348 42.8188 24.167H43.302V20.3774H42.852C42.7951 20.5668 42.7478 20.6947 42.7004 20.7563C42.653 20.8179 42.5677 20.8416 42.4398 20.8416C42.2835 20.8416 42.004 20.7753 41.6109 20.6521C40.7582 20.3679 39.9813 20.2258 39.266 20.2258L39.2186 20.1547ZM54.9931 20.1547C53.4014 20.1547 51.9614 20.5337 50.6492 21.2821C49.3514 22.0222 48.2777 23.0991 47.5417 24.3991C46.79 25.6836 46.3958 27.1458 46.4 28.6341C46.3833 30.6121 47.091 32.5279 48.3896 34.0201C49.716 35.5928 51.3171 36.5782 53.1646 36.9571C53.5909 37.1798 54.1925 37.7482 54.9836 38.6625C55.8837 39.7046 56.6321 40.4531 57.2574 40.8984C57.8649 41.3358 58.5403 41.6703 59.2565 41.8884C60.0037 42.1093 60.7796 42.2178 61.5587 42.2105C62.5629 42.2105 63.4535 42.0353 64.2588 41.6753L64.0788 41.2347C63.6193 41.4005 63.1314 41.481 62.6103 41.481C61.9092 41.481 61.2034 41.2442 60.4928 40.7847C59.7823 40.3252 58.8964 39.4346 57.8401 38.1319L56.8074 36.9571C58.8349 36.5639 60.5023 35.5834 61.7955 34.0107C63.0679 32.5116 63.7589 30.605 63.7425 28.6388C63.7641 27.5139 63.5497 26.3969 63.1132 25.3599C62.6767 24.3229 62.0277 23.3888 61.2081 22.618C59.5217 20.9837 57.4516 20.1547 54.9931 20.1547ZM64.8462 20.1547L64.8699 20.6758C65.931 20.6758 66.5279 20.9884 66.6558 21.6137C66.7031 21.8364 66.7268 22.2532 66.7316 22.8454L66.7221 34.2712C66.7126 35.1239 66.5895 35.6686 66.3573 35.9055C66.1252 36.1423 65.7273 36.2845 65.1541 36.346L65.1304 36.8671H75.6941L75.9641 34.2759H75.481C75.3388 34.9865 75.0262 35.4886 74.5241 35.7729C74.0219 36.0571 73.1266 36.1992 71.8381 36.1992H70.8434C69.6828 36.1992 69.0148 35.7823 68.8348 34.9391C68.799 34.7614 68.7816 34.5804 68.7827 34.3991L68.8301 22.8406C68.8301 21.988 68.939 21.4195 69.1617 21.1353C69.3843 20.8511 69.7917 20.6995 70.3791 20.6616L70.3554 20.1405L64.8462 20.1547ZM55.1636 20.78C56.0134 20.7615 56.8553 20.9457 57.6197 21.3172C58.3841 21.6887 59.0491 22.2369 59.5596 22.9164C60.6965 24.3376 61.2555 26.2987 61.2555 28.7762C61.2555 31.1258 60.6871 33.0017 59.5502 34.4133C59.012 35.099 58.3198 35.6481 57.5296 36.016C56.7395 36.3839 55.8737 36.5603 55.0026 36.5308C54.1449 36.5508 53.2952 36.3626 52.5263 35.9823C51.7574 35.6019 51.0921 35.0408 50.5876 34.347C49.4602 32.888 48.9012 30.9931 48.9012 28.6625C48.9012 26.2703 49.4697 24.3991 50.6066 22.9212C51.7435 21.4432 53.2593 20.78 55.1731 20.78H55.1636ZM79.4648 23.2433C79.209 23.2433 79.0101 23.3286 78.8632 23.5038C78.7892 23.5917 78.7376 23.6962 78.7129 23.8085C78.6881 23.9207 78.6909 24.0372 78.7211 24.1481C78.7792 24.4081 78.9267 24.6395 79.138 24.8018C79.3606 24.9913 79.6022 25.086 79.858 25.086C80.1138 25.086 80.2986 24.9913 80.4359 24.8018C80.5733 24.6123 80.6159 24.3991 80.5638 24.1481C80.5117 23.897 80.3743 23.6744 80.1659 23.5038C79.9575 23.3333 79.7159 23.2433 79.4648 23.2433ZM86.4283 24.996C85.9925 26.6824 85.0404 27.5919 83.5861 27.7435L83.605 28.2267H85.3104L85.2867 33.9207L85.3814 35.8771C85.5472 36.6682 86.0683 37.0708 86.9305 37.0708C88.1811 37.0708 89.4885 36.3129 90.8622 34.7828L90.4454 34.4275C89.4506 35.4318 88.579 35.9339 87.8116 35.9339C87.3378 35.9339 87.0536 35.6639 86.9399 35.1286C86.9084 34.9776 86.8941 34.8234 86.8973 34.6691L86.9163 28.2077H89.5216L89.498 27.4356H86.9305V24.9818L86.4283 24.996ZM96.4804 27.1466C95.0261 27.1466 93.8419 27.8572 92.9276 29.2546C92.0133 30.6521 91.7291 32.2153 92.0891 33.9301C92.2393 34.8294 92.6902 35.6511 93.3681 36.2608C94.0124 36.8103 94.8366 37.0803 95.8077 37.0803C96.7173 37.0803 97.9868 36.8434 98.5173 36.3839C99.0479 35.9244 99.5453 35.1665 100 34.1386L99.6353 33.7596C98.9105 35.0955 97.4468 35.7681 96.3383 35.7681C94.8224 35.7681 93.8892 34.9344 93.4961 33.2764C93.4501 33.0527 93.4169 32.8265 93.3966 32.599C95.1967 32.3148 96.5704 31.8079 97.4941 31.0737C98.4179 30.3394 99.3416 29.5578 99.1711 28.743C99.0777 28.2765 98.8122 27.8622 98.4273 27.5825C98.0342 27.2982 97.0062 27.1419 96.4378 27.1419L96.4804 27.1466ZM80.5828 27.2082L77.4468 27.9283V28.4872L78.5364 28.3451C79.0574 28.3451 79.3701 28.582 79.4696 29.0557C79.509 29.273 79.5296 29.4933 79.5312 29.7141L79.498 34.8397C79.4885 35.5502 79.4127 35.9623 79.2517 36.0855C79.0906 36.2087 78.669 36.275 77.9916 36.275L77.9727 36.7582H82.9466L82.9371 36.275C82.2455 36.275 81.8002 36.2276 81.6013 36.1139C81.4023 36.0002 81.2697 35.8155 81.2128 35.5218C81.1654 35.3086 81.1465 34.9439 81.1465 34.4323L81.1654 27.1987H80.597L80.5828 27.2082ZM95.6846 28.1556C95.9878 28.1556 96.2815 28.2741 96.5751 28.5014C96.8689 28.7288 97.0489 28.9846 97.0962 29.2594C97.3805 30.6237 96.1725 31.5616 93.4487 32.0874C93.3729 31.14 93.5434 30.1926 93.984 29.3778C94.4245 28.563 94.9882 28.1462 95.6798 28.1462L95.6846 28.1556Z" fill="#003B57"/>
    <path d="M30.2604 2.53247H3.28753C1.47797 2.53247 0 4.01044 0 5.82V35.5688C0 37.3784 1.47797 38.8564 3.28753 38.8564H21.0516C20.8479 30.017 23.8701 12.864 30.2604 2.54194V2.53247Z" fill="#0F80CC"/>
    <path d="M29.2804 3.4896H3.28807C2.98245 3.48898 2.67972 3.54871 2.39724 3.66538C2.11477 3.78204 1.85812 3.95335 1.64201 4.16945C1.42591 4.38555 1.25461 4.64221 1.13794 4.92468C1.02127 5.20716 0.961539 5.50989 0.962163 5.81551V33.3853C6.85035 31.1257 15.6803 29.1788 21.7911 29.264C23.0227 22.8453 26.6229 10.3157 29.2757 3.48486L29.2804 3.4896Z" fill="url(#paint0_linear_572_3534)"/>
    <path d="M36.5515 1.5569C34.6567 -0.0916067 32.4681 0.571584 30.2606 2.528L29.2801 3.48489C25.5046 7.49719 21.9992 14.9155 20.9097 20.581C21.3834 21.4431 21.6676 22.5374 21.8855 23.4232L22.0276 24.0106L22.1697 24.6738C22.1697 24.6738 22.1366 24.5459 21.9992 24.1433L21.9044 23.8827C21.8867 23.8349 21.8677 23.7875 21.8476 23.7406C21.6013 23.1722 20.9191 21.9595 20.616 21.4337C20.3783 22.1304 20.1541 22.8316 19.9433 23.5369C20.8102 25.1191 21.336 27.8335 21.336 27.8335C21.336 27.8335 21.2886 27.6582 21.0707 27.0424C20.8812 26.4976 19.9149 24.8159 19.6875 24.418C19.2991 25.8581 19.1427 26.8339 19.2848 27.0708C19.5549 27.5303 19.8154 28.3214 20.0428 29.193C20.3974 30.6351 20.6866 32.0924 20.9097 33.5606L20.9428 33.9632C20.8798 35.5919 20.9162 37.2229 21.0518 38.8472C21.2223 40.8983 21.5397 42.6605 21.9518 43.6079L22.2266 43.4563C21.6297 41.5994 21.3834 39.1598 21.4923 36.3507C21.6534 32.0542 22.6434 26.8766 24.4672 21.4763C27.5463 13.3285 31.8334 6.79137 35.7509 3.6649C32.1792 6.88611 27.3473 17.3266 25.8978 21.1921C24.2777 25.5218 23.1313 29.5767 22.4397 33.4753C23.6335 29.8278 27.4942 28.2645 27.4942 28.2645C27.4942 28.2645 29.389 25.9292 31.5965 22.5943L27.3663 23.7217L26.002 24.328C26.002 24.328 29.4838 22.2058 32.4729 21.2489C36.5799 14.7781 41.0564 5.58341 36.5467 1.56637" fill="#003B57"/>
    <defs>
        <linearGradient id="paint0_linear_572_3534" x1="17.2909" y1="4.10542" x2="17.2909" y2="31.7273" gradientUnits="userSpaceOnUse">
            <stop stop-color="#97D9F6"/>
            <stop offset="0.92024" stop-color="#0F80CC"/>
            <stop offset="1" stop-color="#0F80CC"/>
        </linearGradient>
    </defs>
</svg>
