<svg xmlns="http://www.w3.org/2000/svg" width="100" height="101" viewBox="0 0 100 101" fill="none">
    <g clip-path="url(#clip0_572_3539)">
        <path d="M85 0.115234H15C6.71573 0.115234 0 6.83096 0 15.1152V85.1152C0 93.3995 6.71573 100.115 15 100.115H85C93.2843 100.115 100 93.3995 100 85.1152V15.1152C100 6.83096 93.2843 0.115234 85 0.115234Z" fill="#3178C6"/>
        <path d="M45.5078 55.584H58.0078V47.5762H23.0469V55.584H35.5469V91.3262H45.5078V55.584ZM61.9141 89.373C63.4961 90.1934 65.4297 90.7988 67.5781 91.209C69.7266 91.6191 72.0703 91.8145 74.4141 91.8145C76.7578 91.8145 78.9062 91.5996 81.0547 91.1504C83.2031 90.7012 84.9609 89.959 86.5234 89.002C88.1055 87.9668 89.4531 86.6582 90.2344 84.9004C91.0156 83.1426 91.6211 81.1895 91.6211 78.6504C91.6211 76.873 91.3477 75.3301 90.8203 73.9629C90.293 72.5957 89.5312 71.4238 88.4766 70.4473C87.4805 69.4121 86.3281 68.4941 84.9609 67.7129C83.5938 66.9316 82.0312 66.1113 80.2734 65.3691C78.9844 64.8418 77.9297 64.334 76.7578 63.8262C75.7422 63.3184 74.8633 62.8105 74.2188 62.3027C73.4961 61.7754 72.9492 61.2285 72.5586 60.6621C72.168 60.0762 71.9727 59.4316 71.9727 58.709C71.9727 58.0449 72.1465 57.4395 72.5 56.8926C72.8535 56.3457 73.3398 55.8965 73.9648 55.5059C74.5898 55.1152 75.3711 54.8223 76.3086 54.6074C77.2266 54.3926 78.2422 54.2949 79.4336 54.2949C80.2539 54.2949 81.1133 54.3555 81.9727 54.4785C82.8711 54.6016 83.7891 54.791 84.707 55.0449C85.625 55.2988 86.5234 55.6113 87.4414 56.002C88.3008 56.3926 89.1016 56.8418 89.7852 57.3496V48.1699C88.3008 47.6035 86.6602 47.1738 84.9023 46.9004C83.1445 46.627 81.1914 46.4902 78.8477 46.4902C76.5039 46.4902 74.3555 46.7441 72.207 47.2324C70.0586 47.7207 68.3008 48.502 66.7383 49.5762C65.1563 50.6309 64.0039 51.9199 63.0273 53.6777C62.1094 55.3184 61.6602 57.1934 61.6602 59.5371C61.6602 62.4668 62.5 65.0059 64.1992 66.959C65.8789 69.1074 68.4961 70.6699 71.8164 72.2324C73.1641 72.7793 74.3555 73.3262 75.5273 73.8535C76.6992 74.3809 77.6758 74.9277 78.457 75.4941C79.2969 76.0605 79.9609 76.6855 80.4102 77.3496C80.8984 78.0137 81.1523 78.7949 81.1523 79.6934C81.1523 80.3184 81 80.9043 80.7031 81.4512C80.4063 81.998 79.9414 82.4668 79.3164 82.8574C78.6914 83.2481 77.9297 83.5605 76.9727 83.7949C76.0547 84.0098 75.0195 84.127 73.6523 84.127C71.5039 84.127 69.3555 83.7559 67.4023 83.0137C65.2539 82.2715 63.3008 81.1582 61.9141 79.998V89.373Z" fill="#F5F5F5"/>
    </g>
    <defs>
        <clipPath id="clip0_572_3539">
            <rect width="100" height="100" fill="white" transform="translate(0 0.115234)"/>
        </clipPath>
    </defs>
</svg>
