<svg width="43" height="41" viewBox="0 0 43 41" fill="none" xmlns="http://www.w3.org/2000/svg">
<g id="Vector">
<path d="M21.5 22.688C22.7279 22.688 23.7233 21.7085 23.7233 20.5002C23.7233 19.2919 22.7279 18.3124 21.5 18.3124C20.2721 18.3124 19.2766 19.2919 19.2766 20.5002C19.2766 21.7085 20.2721 22.688 21.5 22.688Z" stroke="#0EAB00" stroke-opacity="0.8" stroke-width="1.5" stroke-linecap="round" stroke-linejoin="round"/>
<path d="M39.7314 38.4396C44.267 33.9984 39.7758 22.3377 29.7263 12.4052C19.6324 2.51654 7.78202 -1.90274 3.26864 2.56029C-1.26696 7.00145 3.22418 18.6622 13.2737 28.5947C23.3676 38.4834 35.218 42.9026 39.7314 38.4396Z" stroke="#0EAB00" stroke-opacity="0.8" stroke-width="1.5" stroke-linecap="round" stroke-linejoin="round"/>
<path d="M29.7263 28.5947C39.7758 18.6622 44.267 7.00145 39.7314 2.56029C35.218 -1.90274 23.3676 2.51654 13.2737 12.4052C3.22418 22.3377 -1.26696 33.9984 3.26864 38.4396C7.78202 42.9026 19.6324 38.4834 29.7263 28.5947Z" stroke="#0EAB00" stroke-opacity="0.8" stroke-width="1.5" stroke-linecap="round" stroke-linejoin="round"/>
</g>
</svg>
