<svg xmlns="http://www.w3.org/2000/svg" width="42" height="52" viewBox="0 0 42 52" fill="none">
    <path d="M26 1V11C26 12.3261 26.5268 13.5979 27.4645 14.5355C28.4021 15.4732 29.6739 16 31 16H41M11 41L21 31M11 41V21M11 41H31M28.5 1H6C4.67392 1 3.40215 1.52678 2.46447 2.46447C1.52678 3.40215 1 4.67392 1 6V46C1 47.3261 1.52678 48.5979 2.46447 49.5355C3.40215 50.4732 4.67392 51 6 51H36C37.3261 51 38.5979 50.4732 39.5355 49.5355C40.4732 48.5979 41 47.3261 41 46V13.5L28.5 1Z" stroke="#0EAB00" stroke-width="2" stroke-linecap="round" stroke-linejoin="round"/>
</svg>
