<svg xmlns="http://www.w3.org/2000/svg" width="30" height="30" viewBox="0 0 30 30" fill="none">
    <path fill-rule="evenodd" clip-rule="evenodd" d="M30 15.3792C30 22.1717 25.7075 27.935 19.7512 29.9715C18.99 30.1227 18.75 29.6421 18.75 29.2333V25.013C18.75 23.5776 18.2588 22.642 17.7213 22.1653C21.0613 21.7846 24.57 20.4838 24.57 14.5769C24.57 12.898 23.9887 11.5254 23.0262 10.4489C23.1812 10.0618 23.695 8.49701 22.8787 6.37853C22.8787 6.37853 21.6213 5.96585 18.7575 7.95489C17.5588 7.61399 16.275 7.44354 15 7.43713C13.725 7.44354 12.4425 7.61399 11.2463 7.95489C8.38 5.96585 7.12 6.37853 7.12 6.37853C6.305 8.49573 6.81875 10.0606 6.97375 10.4489C6.015 11.5254 5.42875 12.8967 5.42875 14.5769C5.42875 20.4684 8.93125 21.7872 12.2625 22.1781C11.8325 22.5613 11.4438 23.2405 11.31 24.2338C10.4538 24.6272 8.2825 25.3065 6.945 22.956C6.945 22.956 6.1525 21.4783 4.64625 21.3707C4.64625 21.3707 3.18125 21.3502 4.5425 22.305C4.5425 22.305 5.52625 22.7779 6.20875 24.5555C6.20875 24.5555 7.0775 27.3007 11.25 26.3702V29.2333C11.25 29.6383 11.0075 30.115 10.2587 29.9728C4.2975 27.9389 0 22.1742 0 15.3792C0 6.88604 6.7175 0 15 0C23.2837 0 30 6.88604 30 15.3792Z" fill="#F5F5F5"/>
</svg>
