<?xml version="1.0" encoding="UTF-8"?>
<svg version="1.1" xmlns="http://www.w3.org/2000/svg" width="61" height="61">
<path d="M0 0 C422.4 0 844.8 0 1280 0 C1280 211.2 1280 422.4 1280 640 C857.6 640 435.2 640 0 640 C0 428.8 0 217.6 0 0 Z " fill="#B5111B" transform="translate(0,0)"/>
<path d="M0 0 C0.81484863 0.0714624 1.62969727 0.1429248 2.46923828 0.21655273 C11.96151501 0.97990832 21.35883465 1.11985237 30.875 1.0625 C32.35286304 1.05746663 33.83072777 1.05290702 35.30859375 1.04882812 C38.87243195 1.03798718 42.43620447 1.02082779 46 1 C45.85613458 3.58345563 45.70992586 6.16674691 45.5625 8.75 C45.52318359 9.46027344 45.48386719 10.17054688 45.44335938 10.90234375 C45.20363888 15.06979243 44.89367332 19.2221269 44.51472473 23.37930298 C43.91664848 30.52093522 43.65951744 37.65954818 43.44799805 44.82177734 C43.41662595 45.85605775 43.41662595 45.85605775 43.38462007 46.91123271 C42.94599468 61.55072923 42.83566585 76.18653 42.83274293 90.83241701 C42.83201568 92.895751 42.82985191 94.95907891 42.82724571 97.02241135 C42.8181219 104.26820022 42.81389644 111.51397119 42.81469727 118.75976562 C42.81530303 125.44712222 42.80462102 132.1343995 42.7889536 138.82173598 C42.77581936 144.64081459 42.77051543 150.45986729 42.77115268 156.27896059 C42.7714048 159.72186728 42.76871103 163.16470205 42.75797462 166.60759354 C42.74810764 170.43068298 42.75107641 174.25356696 42.75708008 178.07666016 C42.75146057 179.18229813 42.74584106 180.2879361 42.74005127 181.42707825 C42.80330414 197.38813843 44.77579036 213.8092064 56 226 C77.44627852 244.38252445 104.98403024 246.05576955 132 245 C137.17717498 244.59072934 142.03767711 243.53581857 147 242 C147.64146973 241.80664062 148.28293945 241.61328125 148.94384766 241.4140625 C162.8908012 237.097069 176.59894631 229.89799646 184.234375 216.8984375 C185.2391969 214.95432556 186.1507542 213.01645567 187 211 C187.48622566 209.91519584 187.48622566 209.91519584 187.98227406 208.80847645 C191.63620247 198.72523945 191.29521315 186.84796284 191.2746582 176.2824707 C191.27902223 174.88055657 191.28421089 173.47864481 191.29014587 172.07673645 C191.30338828 168.31083731 191.30412956 164.54503947 191.30158257 160.77912164 C191.3004994 157.59804898 191.30543178 154.41699571 191.310188 151.23592728 C191.32123963 143.69511144 191.32174989 136.15434539 191.31567383 128.61352539 C191.30968353 120.94024132 191.32182793 113.26714291 191.3432439 105.59389049 C191.36113814 98.92725155 191.36681725 92.26067008 191.36360615 85.59400815 C191.36183124 81.6482207 191.3640295 77.70256452 191.37832069 73.7567997 C191.44888587 52.50694059 190.35419803 31.5743492 188.26962566 10.42465496 C188.02082857 7.26455448 187.95001434 4.16798576 188 1 C188.70906494 1.00523682 189.41812988 1.01047363 190.14868164 1.01586914 C209.596808 1.14757471 209.596808 1.14757471 229 0 C229.02712066 1.43739513 229.04645067 2.87493863 229.0625 4.3125 C229.07410156 5.11300781 229.08570313 5.91351563 229.09765625 6.73828125 C229 9 229 9 228 12 C227.89065112 13.41540054 227.83403948 14.83521486 227.81054688 16.25463867 C227.7854026 17.58042686 227.7854026 17.58042686 227.75975037 18.93299866 C227.74622025 19.91803879 227.73269012 20.90307892 227.71875 21.91796875 C227.70074844 22.98554916 227.68274689 24.05312958 227.66419983 25.15306091 C227.60431777 28.83114483 227.55215677 32.50929892 227.5 36.1875 C227.46906553 38.15471036 227.43812599 40.12192066 227.4069109 42.08912659 C227.11164959 60.92237901 226.94570447 79.7562283 226.81201553 98.59124947 C226.78510229 102.34737441 226.75708839 106.1034896 226.72872925 109.85960388 C226.70975986 112.38467394 226.69080849 114.90974413 226.671875 117.43481445 C226.65772899 119.31691636 226.65772899 119.31691636 226.6432972 121.23704052 C226.58763177 128.78145714 226.54122262 136.32586575 226.5013361 143.87038136 C226.47407635 148.6791728 226.43913499 153.48788931 226.40249443 158.29661751 C226.38705486 160.54167728 226.37483964 162.7867621 226.3662281 165.03185844 C226.25160967 194.01262355 226.12292838 226.05011832 204.8828125 248.3046875 C179.81400327 271.74300507 148.33637003 277.16959991 115.1940918 277.24023438 C112.46696943 277.2498956 109.74061712 277.28099454 107.01367188 277.3125 C75.03501807 277.5037748 46.94891137 269.81168088 23.25 247.75 C13.19501699 237.26989822 5.49729181 223.68857441 3.89002991 209.19337463 C3.76416648 208.08149476 3.76416648 208.08149476 3.63576037 206.94715267 C2.78720445 198.87123501 2.69929928 190.83120221 2.69702148 182.71850586 C2.68933337 181.06709896 2.68078206 179.4156959 2.67144775 177.76429749 C2.65335964 174.24563634 2.64120076 170.72702626 2.63390923 167.20832634 C2.62228264 161.6282941 2.59676804 156.04837413 2.56959534 150.46839905 C2.52815918 141.634053 2.49564961 132.79970123 2.46712118 123.96530491 C2.4159867 108.16003429 2.35348172 92.35481298 2.28178078 76.5496226 C2.25709358 71.01867194 2.23755882 65.48773543 2.22239864 59.95675075 C2.2120889 56.50014741 2.19794383 53.04356657 2.18292236 49.58698082 C2.17684394 48.00209849 2.17234228 46.41720907 2.16966438 44.83231735 C2.32075448 26.8027802 2.32075448 26.8027802 0 9 C-0.11936063 5.99688649 -0.04484275 3.00446424 0 0 Z " fill="#FEFDFD" transform="translate(983,316)"/>
<path d="M0 0 C-1.29674482 4.03365325 -2.76505888 7.92055759 -4.4375 11.8125 C-7.92354904 20.12775227 -10.42341111 28.11545789 -12 37 C-15.63221531 35.71159155 -18.75690515 33.98705442 -22.0090332 31.9284668 C-41.8027867 19.42755771 -64.71410613 12.97337465 -88.16796875 16.47265625 C-98.57214788 19.16645147 -106.56315153 26.17407928 -112.3203125 35.03125 C-116.65004076 43.63015088 -116.89558528 55.92572074 -114.42431641 65.1484375 C-106.29450375 87.55107987 -80.84603553 96.85285959 -61.0625 106.5 C-4.24162545 134.2573503 -4.24162545 134.2573503 6.1015625 161.94921875 C12.11854604 183.45852906 7.58658417 205.24484695 -3.03466797 224.30517578 C-15.14358418 245.56468421 -34.09194563 258.01058924 -57.26977539 264.45385742 C-92.52634741 273.55379202 -132.15527614 268.27244107 -164 251 C-163.34792472 246.79686419 -161.90067862 243.31925916 -160.1875 239.4375 C-156.31370193 230.29070764 -154.68191328 220.74520341 -153 211 C-148.94725052 212.37491146 -146.36616879 214.22422409 -143.1875 217.0625 C-124.89085552 232.33429599 -101.19021785 240.60936303 -77.34960938 239.21582031 C-61.47438355 237.7576221 -48.00355702 232.89676458 -37 221 C-29.21817362 211.00649665 -26.45693194 198.4958257 -28 186 C-31.24102893 173.00314661 -40.34923576 164.04980164 -51.43041992 157.19580078 C-61.41261253 151.26916318 -71.92997696 146.47790957 -82.4831543 141.67211914 C-98.45068347 134.38886625 -114.21652491 127.02213917 -128 116 C-129.08667969 115.15888672 -129.08667969 115.15888672 -130.1953125 114.30078125 C-142.37596247 104.36637282 -149.27432058 89.461942 -151 74 C-152.70952282 52.51337855 -147.94761569 31.70322391 -133.75390625 14.9375 C-133.17511719 14.298125 -132.59632813 13.65875 -132 13 C-131.43152344 12.34 -130.86304688 11.68 -130.27734375 11 C-98.36292915 -23.69252713 -39.21411828 -15.01909387 0 0 Z " fill="#FEFCFC" transform="translate(715,326)"/>
<path d="M0 0 C-0.16298584 0.99201416 -0.32597168 1.98402832 -0.49389648 3.00610352 C-1.05824188 6.97294581 -1.12777322 10.90113578 -1.09765625 14.90234375 C-1.0962413 15.6249086 -1.09482635 16.34747345 -1.09336853 17.0919342 C-1.08782225 19.37383365 -1.0752802 21.65563079 -1.0625 23.9375 C-1.05747804 25.49544128 -1.05291636 27.05338412 -1.04882812 28.61132812 C-1.0378705 32.40759081 -1.02064372 36.20377813 -1 40 C-1.83958252 39.91435791 -2.67916504 39.82871582 -3.54418945 39.74047852 C-6.76274874 39.41441748 -9.98169635 39.09254529 -13.20092773 38.77319336 C-14.57478502 38.63610944 -15.94849297 38.49751761 -17.32202148 38.35717773 C-37.92051489 36.25560032 -58.49260576 35.77459144 -79.1875 35.4375 C-87.705625 35.293125 -96.22375 35.14875 -105 35 C-105 61.73 -105 88.46 -105 116 C-86.80875 115.814375 -86.80875 115.814375 -68.25 115.625 C-64.4643457 115.59100098 -60.67869141 115.55700195 -56.77832031 115.52197266 C-32.82916634 115.27672363 -32.82916634 115.27672363 -9 113 C-9.07677979 113.80888672 -9.15355957 114.61777344 -9.23266602 115.45117188 C-10.37462731 127.94078692 -10.0870699 140.47169758 -10 153 C-11.5990404 152.85466247 -13.19807992 152.70931533 -14.79711914 152.56396484 C-15.80710968 152.47250183 -16.81710022 152.38103882 -17.85769653 152.2868042 C-19.82238269 152.10748344 -21.78684281 151.92564784 -23.75094604 151.74005127 C-41.52166745 150.07331174 -59.22139808 149.58570871 -77.0625 149.375 C-79.79104038 149.33761269 -82.51954261 149.29773829 -85.24804688 149.2578125 C-91.83193715 149.16332045 -98.41589336 149.07788399 -105 149 C-104.89200709 161.27510591 -104.77927906 173.55015861 -104.66066074 185.8251667 C-104.60571517 191.52616735 -104.55234375 197.22717331 -104.50268555 202.92822266 C-104.45461957 208.43960453 -104.40226747 213.95093115 -104.34705925 219.46224594 C-104.32682517 221.55513999 -104.30808347 223.64804908 -104.29092598 225.74097061 C-104.20633475 235.94745681 -104.08318476 246.09483007 -103.21716309 256.26989746 C-102.9215491 259.98625881 -102.9023343 263.64743564 -102.9375 267.375 C-102.94652344 268.64085937 -102.95554687 269.90671875 -102.96484375 271.2109375 C-102.97644531 272.13132812 -102.98804688 273.05171875 -103 274 C-103.66032227 273.9285376 -104.32064453 273.8570752 -105.00097656 273.78344727 C-114.26462215 272.88729365 -123.45557148 272.88562503 -132.75 272.9375 C-134.33333191 272.94252903 -135.91666537 272.94708943 -137.5 272.95117188 C-141.33337272 272.96205719 -145.16666854 272.97924304 -149 273 C-149.0931325 267.09470966 -149.05432915 261.29775837 -148.34876537 255.43018723 C-147.35403669 246.98565579 -146.74992908 238.56197563 -146.4440918 230.06542969 C-146.40233417 228.90883221 -146.36057653 227.75223473 -146.31755352 226.56058884 C-145.82624764 211.52350998 -145.83517625 196.48342961 -145.83274293 181.43996906 C-145.83201985 178.91330317 -145.82986259 176.38664233 -145.82724571 173.85997772 C-145.81806029 164.96442838 -145.81390195 156.06889377 -145.81469727 147.17333984 C-145.81529536 139.01253374 -145.8047784 130.85179429 -145.7889536 122.69100499 C-145.7756726 115.57653104 -145.77052181 108.4620783 -145.77115268 101.34759212 C-145.77140185 97.14649128 -145.76888748 92.94544982 -145.75797462 88.74436188 C-145.71071055 69.23817216 -146.12775338 49.83166238 -147.30026722 30.35721207 C-147.88247479 20.55638431 -148.11886543 10.81802975 -148 1 C-146.99200521 1.00138269 -146.99200521 1.00138269 -145.96364689 1.00279331 C-129.58720717 1.02490987 -113.21077221 1.04144143 -96.83432102 1.05181217 C-88.91468836 1.05696111 -80.9950657 1.06397703 -73.07543945 1.07543945 C-66.17000841 1.08542919 -59.2645846 1.09186362 -52.35914654 1.09408849 C-48.70523268 1.09538833 -45.05133953 1.09842795 -41.39743233 1.10573006 C-37.31125101 1.11382926 -33.22510534 1.11398838 -29.13891602 1.11352539 C-27.33600601 1.1189183 -27.33600601 1.1189183 -25.49667358 1.12442017 C-16.94612525 1.11395382 -8.5263604 -0.18141192 0 0 Z " fill="#FEFDFD" transform="translate(920,316)"/>
</svg>
