<svg xmlns="http://www.w3.org/2000/svg" width="58" height="52" viewBox="0 0 58 52" fill="none">
    <path d="M12.1111 37.1111V37.1389M12.1111 26V26.0278M45.4444 37.1111V37.1389M45.4444 26V26.0278M34.3333 51V37.1111C34.3333 35.6377 33.748 34.2246 32.7062 33.1827C31.6643 32.1409 30.2512 31.5556 28.7778 31.5556C27.3044 31.5556 25.8913 32.1409 24.8494 33.1827C23.8075 34.2246 23.2222 35.6377 23.2222 37.1111V51M31.5556 17.6667C31.5556 19.2008 30.3119 20.4444 28.7778 20.4444C27.2437 20.4444 26 19.2008 26 17.6667C26 16.1325 27.2437 14.8889 28.7778 14.8889C30.3119 14.8889 31.5556 16.1325 31.5556 17.6667ZM56.5556 45.4444V12.1111H45.4444L28.7778 1L12.1111 12.1111H1V45.4444C1 46.9179 1.58532 48.3309 2.62718 49.3728C3.66905 50.4147 5.08213 51 6.55556 51H51C52.4734 51 53.8865 50.4147 54.9284 49.3728C55.9702 48.3309 56.5556 46.9179 56.5556 45.4444Z" stroke="#0EAB00" stroke-width="2" stroke-linecap="round" stroke-linejoin="round"/>
</svg>
