<svg xmlns="http://www.w3.org/2000/svg" width="40" height="36.45" viewBox="0 0 55 50" fill="none">
    <path d="M14.7118 19.6752C14.2365 19.3516 13.7601 19.1897 13.2849 19.1897H11.1489V30.8493H13.2861C13.7613 30.8493 14.2378 30.6875 14.713 30.3638C15.1882 30.0402 15.4258 29.5547 15.4258 28.9062V21.1328C15.4246 20.4855 15.1857 19.9989 14.7118 19.6752ZM49.4923 0H5.37667C2.41277 0 0.00734853 2.18638 0 4.88839V45.1116C0.00734853 47.8136 2.41277 50 5.37667 50H49.4923C52.4575 50 54.8617 47.8136 54.869 45.1116V4.88839C54.8617 2.18638 52.4562 0 49.4923 0ZM18.8857 28.9275C18.8857 31.0268 17.4638 34.2076 12.9628 34.2009H7.27994V15.7344H13.0828C17.4234 15.7344 18.8833 18.9107 18.8845 21.0112L18.8857 28.9275ZM31.2165 19.0324H24.691V23.3203H28.6801V26.6205H24.691V30.9074H31.2178V34.2076H23.6022C22.2354 34.24 21.0988 33.2556 21.0646 32.01V18.0469C21.0315 16.8025 22.1129 15.769 23.4785 15.7377H31.2178L31.2165 19.0324ZM43.9099 31.8996C42.2932 35.3315 39.3967 34.6484 38.0997 31.8996L33.3807 15.7388H37.3697L41.0085 28.4308L44.6301 15.7388H48.6203L43.9099 31.8996Z" fill="#0EAB00"/>
</svg>
