<svg xmlns="http://www.w3.org/2000/svg" width="100" height="100" viewBox="0 0 100 124" fill="none">
 <g clip-path="url(#clip0_572_3428)">
  <path d="M26.3738 123.435C26.1622 123.435 25.9338 123.381 25.7753 123.167L18.9848 114.237V123.346H17.4363V112.129C17.4363 111.683 17.8058 111.326 18.2284 111.326C18.4744 111.326 18.6857 111.397 18.8436 111.611L25.6168 120.524V111.451H27.1653V122.649C27.1653 123.114 26.7958 123.435 26.3738 123.435Z" fill="#F5F5F5"/>
  <path d="M39.182 123.542C37.634 123.542 36.0152 123.22 34.5022 122.649L34.8719 121.363C36.2617 121.81 37.7746 122.131 39.182 122.131C41.135 122.131 42.1553 121.434 42.1553 120.452C42.1553 119.559 41.3633 119.113 38.6365 117.827C35.9096 116.541 34.8368 115.719 34.8368 114.112C34.8368 112.094 36.3847 111.272 39.3049 111.272C40.519 111.272 42.3837 111.522 43.4573 111.844L43.2108 113.165C42.0318 112.879 40.5544 112.683 39.3403 112.683C37.2823 112.683 36.4377 113.076 36.4377 114.058C36.4377 115.023 37.0532 115.433 39.9384 116.773C42.9821 118.184 43.7562 118.899 43.7562 120.363C43.7562 122.489 41.7503 123.542 39.182 123.542Z" fill="#F5F5F5"/>
  <path d="M51.093 111.451H52.6939V123.346H51.093V111.451Z" fill="#F5F5F5"/>
  <path d="M66.3116 117.952H62.3351V121.989H66.3116C67.6661 121.989 68.4929 121.131 68.4929 119.934C68.4929 118.809 67.631 117.952 66.3116 117.952ZM65.5371 112.808H62.3351V116.612H65.5371C66.8216 116.612 67.7539 115.791 67.7539 114.648C67.7539 113.522 66.9445 112.808 65.5371 112.808ZM66.3291 123.346H61.5439C61.0863 123.346 60.7344 122.988 60.7344 122.542V112.254C60.7344 111.826 61.0863 111.451 61.5439 111.451H65.5022C67.93 111.451 69.3725 112.647 69.3725 114.523C69.3725 115.541 68.7743 116.487 67.8593 117.041C69.2145 117.452 70.1288 118.577 70.1288 119.934C70.1288 121.827 68.5633 123.346 66.3291 123.346Z" fill="#F5F5F5"/>
  <path d="M77.8171 123.346C77.3779 123.346 77.0259 122.971 77.0259 122.542V111.451H78.6265V121.899H84.9952V123.346L77.8171 123.346Z" fill="#F5F5F5"/>
  <path d="M95.9085 123.542C92.6362 123.542 90.6658 122.328 90.6658 119.881C90.6658 118.72 91.3169 117.613 92.5837 117.095C91.5632 116.452 91.0356 115.541 91.0356 114.54C91.0356 112.326 92.7426 111.272 95.9441 111.272C97.0174 111.272 98.5301 111.397 99.797 111.683L99.6209 113.004C98.2842 112.79 97.0345 112.665 95.8207 112.665C93.7447 112.665 92.6362 113.237 92.6362 114.612C92.6362 115.702 93.6568 116.559 95.0118 116.559H97.7559C98.143 116.559 98.442 116.862 98.442 117.237C98.442 117.63 98.143 117.934 97.7559 117.934H94.8008C93.2521 117.934 92.2675 118.702 92.2675 119.881C92.2675 121.613 93.8684 122.131 95.8738 122.131C96.9647 122.131 98.442 121.989 99.6382 121.703L99.8675 123.006C98.7236 123.328 97.228 123.542 95.9085 123.542Z" fill="#F5F5F5"/>
  <path d="M5.52266 113.681L8.32645 120.707L4.09184 117.32L5.52266 113.681ZM10.5037 122.325L6.19121 111.788C6.06814 111.484 5.82171 111.324 5.52262 111.324C5.22353 111.324 4.95965 111.484 4.83658 111.788L0.103027 123.346H1.722L3.59605 118.581L9.18753 123.167C9.41242 123.351 9.57463 123.435 9.78602 123.435C10.208 123.435 10.5775 123.113 10.5775 122.649C10.5775 122.574 10.551 122.454 10.5037 122.325Z" fill="#F5F5F5"/>
  <path d="M99.9527 50.7804C99.9527 78.3019 77.6441 100.61 50.1222 100.61C22.6026 100.61 0.291748 78.3021 0.291748 50.7804C0.291748 23.2608 22.6027 0.949951 50.1222 0.949951C77.6441 0.949951 99.9527 23.2609 99.9527 50.7804Z" fill="#1A1918"/>
  <path d="M50.961 31.3901L63.8561 63.2168L44.3782 47.8739L50.961 31.3901ZM73.869 70.5483L54.0336 22.8132C53.4674 21.4365 52.3351 20.708 50.961 20.708C49.5843 20.708 48.3696 21.4365 47.8034 22.8132L26.0327 75.1726H33.4801L42.0982 53.5846L67.8165 74.3619C68.8508 75.1982 69.5972 75.5765 70.5674 75.5765C72.5103 75.5765 74.2086 74.1199 74.2086 72.0175C74.2086 71.6754 74.0877 71.1324 73.869 70.5483Z" fill="white"/>
 </g>
 <defs>
  <clipPath id="clip0_572_3428">
   <rect width="100" height="123.047" fill="white" transform="translate(0 0.832031)"/>
  </clipPath>
 </defs>
</svg>
