<svg xmlns="http://www.w3.org/2000/svg" width="100" height="100" viewBox="0 0 100 101" fill="none">
	<path d="M28.278 42.1283C28.278 43.3534 28.4105 44.3468 28.6423 45.0753C28.9072 45.8038 29.2383 46.5985 29.7019 47.4594C29.8674 47.7243 29.9337 47.9892 29.9337 48.221C29.9337 48.5521 29.735 48.8832 29.3045 49.2143L27.2184 50.6051C26.9204 50.8038 26.6224 50.9031 26.3575 50.9031C26.0264 50.9031 25.6953 50.7375 25.3641 50.4395C24.9006 49.9428 24.5032 49.413 24.1721 48.8832C23.841 48.3203 23.5098 47.6912 23.1456 46.9296C20.5628 49.9759 17.3178 51.4991 13.4105 51.4991C10.629 51.4991 8.41049 50.7044 6.78798 49.115C5.16546 47.5256 4.33765 45.4064 4.33765 42.7574C4.33765 39.9428 5.33102 37.6581 7.35089 35.9362C9.37076 34.2143 12.0529 33.3534 15.4635 33.3534C16.5893 33.3534 17.7482 33.4528 18.9734 33.6183C20.1986 33.7839 21.4569 34.0488 22.7814 34.3468V31.9296C22.7814 29.413 22.2516 27.6581 21.2251 26.6316C20.1655 25.6051 18.3774 25.1084 15.8277 25.1084C14.6688 25.1084 13.4767 25.2408 12.2516 25.5388C11.0264 25.8369 9.83434 26.2011 8.6754 26.6647C8.14559 26.8965 7.74824 27.0289 7.51645 27.0951C7.28467 27.1614 7.1191 27.1945 6.98665 27.1945C6.52308 27.1945 6.29129 26.8634 6.29129 26.168V24.5455C6.29129 24.0157 6.35751 23.6183 6.52308 23.3865C6.68864 23.1547 6.98665 22.923 7.45023 22.6912C8.60917 22.0951 9.9999 21.5985 11.6224 21.2011C13.2449 20.7706 14.9668 20.572 16.788 20.572C20.7284 20.572 23.6092 21.466 25.4635 23.2541C27.2847 25.0422 28.2118 27.7574 28.2118 31.3998V42.1283H28.278ZM14.8343 47.1614C15.927 47.1614 17.0529 46.9627 18.2449 46.5653C19.437 46.168 20.4966 45.4395 21.3906 44.4461C21.9204 43.817 22.3178 43.1216 22.5165 42.3269C22.7151 41.5322 22.8476 40.572 22.8476 39.4461V38.0554C21.8873 37.8236 20.8608 37.6249 19.8012 37.4925C18.7416 37.36 17.7151 37.2938 16.6886 37.2938C14.4701 37.2938 12.8476 37.7243 11.7549 38.6183C10.6621 39.5124 10.1323 40.7706 10.1323 42.4263C10.1323 43.9826 10.5297 45.1415 11.3575 45.9362C12.1522 46.764 13.3112 47.1614 14.8343 47.1614ZM41.4237 50.7375C40.8277 50.7375 40.4304 50.6382 40.1655 50.4064C39.9006 50.2077 39.6688 49.7441 39.4701 49.115L31.6886 23.519C31.49 22.8567 31.3906 22.4263 31.3906 22.1945C31.3906 21.6647 31.6555 21.3667 32.1853 21.3667H35.4304C36.0595 21.3667 36.49 21.466 36.7218 21.6978C36.9867 21.8965 37.1853 22.36 37.384 22.9892L42.9469 44.9097L48.1125 22.9892C48.278 22.3269 48.4767 21.8965 48.7416 21.6978C49.0065 21.4991 49.4701 21.3667 50.0661 21.3667H52.7151C53.3443 21.3667 53.7747 21.466 54.0396 21.6978C54.3045 21.8965 54.5363 22.36 54.6688 22.9892L59.9006 45.1746L65.629 22.9892C65.8277 22.3269 66.0595 21.8965 66.2913 21.6978C66.5562 21.4991 66.9867 21.3667 67.5827 21.3667H70.6622C71.192 21.3667 71.49 21.6316 71.49 22.1945C71.49 22.36 71.4569 22.5256 71.4237 22.7243C71.3906 22.923 71.3244 23.1879 71.192 23.5521L63.2118 49.1481C63.0131 49.8104 62.7814 50.2408 62.5165 50.4395C62.2516 50.6382 61.8211 50.7706 61.2582 50.7706H58.4105C57.7814 50.7706 57.3509 50.6713 57.086 50.4395C56.8211 50.2077 56.5893 49.7773 56.4569 49.115L51.3244 27.7574L46.2251 49.0819C46.0595 49.7441 45.8608 50.1746 45.5959 50.4064C45.331 50.6382 44.8674 50.7375 44.2714 50.7375H41.4237ZM83.9734 51.6316C82.2516 51.6316 80.5297 51.4329 78.8741 51.0355C77.2184 50.6382 75.9271 50.2077 75.0661 49.711C74.5363 49.413 74.1721 49.0819 74.0396 48.7839C73.9072 48.4859 73.841 48.1547 73.841 47.8567V46.168C73.841 45.4726 74.1059 45.1415 74.6026 45.1415C74.8012 45.1415 74.9999 45.1746 75.1986 45.2408C75.3972 45.3071 75.6953 45.4395 76.0264 45.572C77.1522 46.0686 78.3774 46.466 79.6688 46.7309C80.9933 46.9958 82.2847 47.1283 83.6092 47.1283C85.6953 47.1283 87.3178 46.764 88.4436 46.0355C89.5694 45.3071 90.1655 44.2475 90.1655 42.8898C90.1655 41.9627 89.8674 41.2011 89.2714 40.572C88.6754 39.9428 87.5496 39.3799 85.9271 38.8501L81.1257 37.36C78.7085 36.5985 76.9204 35.4726 75.8277 33.9826C74.735 32.5256 74.1721 30.9031 74.1721 29.1812C74.1721 27.7905 74.4701 26.5653 75.0661 25.5057C75.6622 24.4461 76.4568 23.519 77.4502 22.7905C78.4436 22.0289 79.5694 21.466 80.8939 21.0687C82.2184 20.6713 83.6092 20.5057 85.0661 20.5057C85.7946 20.5057 86.5562 20.5388 87.2847 20.6382C88.0463 20.7375 88.7416 20.87 89.437 21.0024C90.0992 21.168 90.7284 21.3336 91.3244 21.5322C91.9204 21.7309 92.384 21.9296 92.7151 22.1283C93.1787 22.3932 93.5098 22.6581 93.7085 22.9561C93.9072 23.221 94.0065 23.5852 94.0065 24.0488V25.6051C94.0065 26.3004 93.7416 26.6647 93.2449 26.6647C92.98 26.6647 92.5496 26.5322 91.9867 26.2673C90.0992 25.4064 87.98 24.9759 85.629 24.9759C83.7416 24.9759 82.2516 25.2739 81.2251 25.9031C80.1986 26.5322 79.6688 27.4925 79.6688 28.8501C79.6688 29.7773 79.9999 30.572 80.6621 31.2011C81.3244 31.8302 82.5496 32.4594 84.3045 33.0223L89.0065 34.5124C91.3906 35.274 93.1125 36.3336 94.139 37.6912C95.1655 39.0488 95.6622 40.6051 95.6622 42.3269C95.6622 43.7508 95.3641 45.0422 94.8012 46.168C94.2052 47.2938 93.4105 48.2872 92.384 49.0819C91.3575 49.9097 90.1323 50.5057 88.7085 50.9362C87.2184 51.3998 85.6622 51.6316 83.9734 51.6316Z" fill="#F5F5F5"/>
	<path d="M90.2318 67.7242C79.3378 75.7706 63.5099 80.0421 49.9007 80.0421C30.8278 80.0421 13.6424 72.9891 0.662257 61.2673C-0.364233 60.3401 0.562919 59.0818 1.78808 59.8103C15.8278 67.956 33.1457 72.8898 51.0596 72.8898C63.1457 72.8898 76.4238 70.3732 88.6424 65.2077C90.4636 64.3798 92.0199 66.3997 90.2318 67.7242ZM94.7682 62.5587C93.3775 60.7706 85.5629 61.6977 82.0199 62.1282C80.9603 62.2606 80.7947 61.3335 81.755 60.6381C87.9801 56.2673 98.2119 57.5255 99.404 58.9825C100.596 60.4726 99.0729 70.7043 93.245 75.605C92.351 76.3666 91.4901 75.9692 91.8874 74.9759C93.2119 71.6977 96.1589 64.3136 94.7682 62.5587Z" fill="#FF9900"/>
</svg>
