<svg xmlns="http://www.w3.org/2000/svg" width="100" height="96" viewBox="0 0 100 96" fill="none">
    <g clip-path="url(#clip0_572_3396)">
        <path d="M92.0001 0.916016H8.00008C3.67385 0.916016 0.166748 4.42312 0.166748 8.74935V87.077C0.166748 91.4033 3.67385 94.9104 8.00008 94.9104H92.0001C96.3263 94.9104 99.8334 91.4033 99.8334 87.077V8.74935C99.8334 4.42312 96.3263 0.916016 92.0001 0.916016Z" fill="white"/>
        <path d="M92.0001 0.916016H8.00008C3.67385 0.916016 0.166748 4.42312 0.166748 8.74935V87.077C0.166748 91.4033 3.67385 94.9104 8.00008 94.9104H92.0001C96.3263 94.9104 99.8334 91.4033 99.8334 87.077V8.74935C99.8334 4.42312 96.3263 0.916016 92.0001 0.916016Z" stroke="#E1E2E6"/>
        <path d="M70.317 45.4471C69.2873 44.8804 66.5813 44.6384 64.6143 45.0714C64.5083 43.4694 63.498 42.1194 61.6497 40.9414L60.9657 40.5658L60.5097 41.1288C59.6133 42.2414 59.2357 43.7238 59.3693 45.0711C59.475 45.9011 59.8283 46.8344 60.5097 47.5114C57.9493 48.7258 55.5897 48.4501 45.1387 48.4501H29.0036C28.9564 50.3798 29.3357 54.0918 32.2225 57.1134C32.5413 57.4471 32.8912 57.7701 33.2705 58.0811C35.6177 60.0028 39.1637 61.4121 44.4663 61.4161C52.5557 61.4221 59.4867 57.8468 63.7023 49.2018C65.0897 49.2204 68.752 49.4051 70.544 46.5731C70.588 46.5254 71 45.8221 71 45.8221L70.317 45.4471ZM39.534 43.4554H34.9967V47.1654H39.534V43.4554ZM45.396 43.4554H40.8587V47.1654H45.396V43.4554ZM51.2577 43.4554H46.7203V47.1654H51.2577V43.4554ZM57.119 43.4554H52.5817V47.1654H57.119V43.4554ZM33.672 43.4554H29.1347V47.1654H33.672V43.4554ZM39.534 38.7691H34.9967V42.4794H39.534V38.7691ZM45.396 38.7691H40.8587V42.4794H45.396V38.7691ZM51.2577 38.7691H46.7203V42.4794H51.2577V38.7691ZM51.2577 34.0828H46.7203V37.7928H51.2577V34.0828Z" fill="#1D63ED"/>
    </g>
    <defs>
        <clipPath id="clip0_572_3396">
            <rect width="100" height="94.3333" fill="white" transform="translate(0 0.74939)"/>
        </clipPath>
    </defs>
</svg>
