<svg xmlns="http://www.w3.org/2000/svg" width="100" height="100" viewBox="0 0 100 101" fill="none">
    <path d="M50.3906 3.08984C33.3408 3.08984 19.5312 16.8993 19.5312 33.9316C19.5312 47.5611 28.3725 59.1191 40.6313 63.1928C42.1743 63.4832 42.7401 62.5297 42.7401 61.7098C42.7401 60.9773 42.7144 59.0369 42.7015 56.4667C34.1174 58.3275 32.307 52.3288 32.307 52.3288C30.9029 48.7691 28.8739 47.8182 28.8739 47.8182C26.0786 45.906 29.0899 45.9445 29.0899 45.9445C32.1887 46.1604 33.8166 49.1212 33.8166 49.1212C36.5682 53.8375 41.0402 52.4753 42.8044 51.6862C43.0821 49.6918 43.8767 48.3322 44.7588 47.5611C37.9054 46.7901 30.7023 44.1377 30.7023 32.3202C30.7023 28.9533 31.8981 26.2032 33.8783 24.0443C33.5311 23.2655 32.4896 20.1299 34.1483 15.8815C34.1483 15.8815 36.7328 15.0539 42.6346 19.0428C45.1034 18.3565 47.7264 18.0173 50.3495 18.0019C52.9725 18.0173 55.5956 18.3565 58.0643 19.0428C63.9276 15.0539 66.5121 15.8815 66.5121 15.8815C68.1708 20.1299 67.1293 23.2655 66.8207 24.0443C68.788 26.2032 69.9838 28.9533 69.9838 32.3202C69.9838 44.1686 62.7704 46.7773 55.9042 47.5354C56.9842 48.4607 57.9872 50.3523 57.9872 53.2412C57.9872 57.3688 57.9486 60.6843 57.9486 61.6867C57.9486 62.4963 58.4886 63.4601 60.0702 63.1517C72.4165 59.1063 81.25 47.5406 81.25 33.9316C81.25 16.8993 67.4327 3.08984 50.3906 3.08984Z" fill="black"/>
    <path d="M7.72285 95.668L8.88765 91.4951H14.5283L15.7147 95.668H17.9688L13.0399 79.6523H10.3976L5.46875 95.668H7.72285ZM13.6719 89.8086H8.98438L11.3281 81.6055L13.6719 89.8086ZM26.0496 96.0586C26.6168 96.0586 27.1718 95.98 27.7148 95.8229C28.2577 95.6658 28.7851 95.4301 29.2969 95.1159V93.0223C28.8473 93.4754 28.3597 93.8097 27.8341 94.0253C27.3084 94.2408 26.7136 94.3486 26.0496 94.3486C24.86 94.3486 23.9419 93.9376 23.2952 93.1155C22.6485 92.2933 22.3252 91.126 22.3252 89.6133C22.3252 88.0933 22.6468 86.9241 23.29 86.1056C23.9332 85.2872 24.8531 84.8779 26.0496 84.8779C26.6929 84.8779 27.2686 84.9839 27.777 85.1958C28.2854 85.4078 28.792 85.7512 29.2969 86.2262V84.1107C28.7574 83.7891 28.2214 83.5516 27.6888 83.3982C27.1563 83.2447 26.6099 83.168 26.0496 83.168C24.2514 83.168 22.8456 83.738 21.8324 84.8779C20.8191 86.0179 20.3125 87.5964 20.3125 89.6133C20.3125 91.6302 20.8191 93.2086 21.8324 94.3486C22.8456 95.4886 24.2514 96.0586 26.0496 96.0586ZM41.7969 95.668V94.1106H39.643C38.8314 94.1106 38.2626 93.9376 37.9366 93.5915C37.6106 93.2454 37.4475 92.6345 37.4475 91.7587V85.3175H41.7969V83.8025H37.4475V80.4336H35.533V83.8025H32.4219V85.3175H35.533V91.7587C35.533 93.1925 35.8278 94.2024 36.4174 94.7887C37.0071 95.3749 38.0198 95.668 39.4557 95.668H41.7969ZM52.7344 81.6055V79.2617H50.7812V81.6055H52.7344ZM56.6406 95.668V94.1664H52.7408V83.9492H47.7084V85.4508H50.7748V94.1664H46.875V95.668H56.6406ZM64.0572 96.0586C65.7093 96.0586 66.9696 95.5087 67.838 94.4089C68.7064 93.3091 69.1406 91.7106 69.1406 89.6133C69.1406 87.5233 68.7047 85.9266 67.8327 84.8231C66.9608 83.7197 65.7023 83.168 64.0572 83.168C62.4122 83.168 61.1554 83.7197 60.287 84.8231C59.4186 85.9266 58.9844 87.5233 58.9844 89.6133C58.9844 91.7106 59.4186 93.3091 60.287 94.4089C61.1554 95.5087 62.4122 96.0586 64.0572 96.0586ZM64.057 94.1055C63.0318 94.1055 62.2556 93.7259 61.7284 92.9668C61.2011 92.2077 60.9375 91.0899 60.9375 89.6133C60.9375 88.1298 61.2011 87.0102 61.7284 86.2545C62.2556 85.4989 63.0318 85.1211 64.057 85.1211C65.0895 85.1211 65.8694 85.4989 66.3966 86.2545C66.9239 87.0102 67.1875 88.1298 67.1875 89.6133C67.1875 91.0899 66.9239 92.2077 66.3966 92.9668C65.8694 93.7259 65.0895 94.1055 64.057 94.1055ZM74.5875 95.668V88.9851C74.5875 87.7816 74.8306 86.8578 75.3169 86.2138C75.8032 85.5698 76.4977 85.2478 77.4003 85.2478C78.191 85.2478 78.7718 85.4976 79.1426 85.9974C79.5135 86.4971 79.6989 87.2783 79.6989 88.3411V95.668H81.6406V88.3411C81.6406 86.7364 81.345 85.5381 80.7537 84.7463C80.1625 83.9545 79.2686 83.5586 78.0721 83.5586C77.2674 83.5586 76.5712 83.7328 75.9834 84.0812C75.3956 84.4296 74.9303 84.9416 74.5875 85.6173V83.8436H72.6562V95.668H74.5875ZM90.2305 96.0586C91.7032 96.0586 92.8532 95.717 93.6807 95.0337C94.5081 94.3504 94.9219 93.4023 94.9219 92.1892C94.9219 91.2758 94.6747 90.534 94.1803 89.964C93.6859 89.3941 92.9584 89.0141 91.9977 88.8241L91.2193 88.6706C89.936 88.4148 89.1331 88.1518 88.8105 87.8814C88.488 87.611 88.3267 87.2018 88.3267 86.6537C88.3267 86.0472 88.5423 85.5959 88.9736 85.3C89.4048 85.004 90.0587 84.856 90.9353 84.856C91.5173 84.856 92.0888 84.9401 92.6498 85.1081C93.2108 85.2762 93.7683 85.5283 94.3223 85.8645V83.8914C93.7613 83.6503 93.1898 83.4694 92.6078 83.3488C92.0257 83.2283 91.4192 83.168 90.788 83.168C89.3715 83.168 88.2811 83.4877 87.5167 84.1271C86.7524 84.7665 86.3702 85.6745 86.3702 86.851C86.3702 87.7791 86.6262 88.5117 87.1381 89.0488C87.65 89.5859 88.4634 89.9677 89.5784 90.1942L90.3042 90.3477L90.3883 90.3696C92.1064 90.7277 92.9654 91.3744 92.9654 92.3098C92.9654 92.9602 92.7305 93.4662 92.2607 93.8279C91.7908 94.1897 91.1281 94.3705 90.2726 94.3705C89.6836 94.3705 89.0595 94.2737 88.4003 94.0801C87.7411 93.8864 87.0504 93.5959 86.3281 93.2086V95.2913C87.0714 95.5471 87.7622 95.7389 88.4003 95.8668C89.0384 95.9947 89.6485 96.0586 90.2305 96.0586Z" fill="#F5F5F5"/>
</svg>
