<svg xmlns="http://www.w3.org/2000/svg" width="100" height="100" viewBox="0 0 100 51" fill="none">
    <path d="M54.0584 9.99877L55.0117 10.0154L57.6017 7.42544L57.7267 6.32793C55.6684 4.4971 52.9601 3.38293 49.9959 3.38293C44.6292 3.38293 40.0992 7.0346 38.7576 11.9813C39.0409 11.7838 39.6451 11.9313 39.6451 11.9313L44.8217 11.0796C44.8217 11.0796 45.0884 10.6379 45.2217 10.6654C46.3329 9.44983 47.866 8.704 49.5083 8.58012C51.1506 8.45623 52.7774 8.96362 54.0584 9.99877Z" fill="#EA4335"/>
    <path d="M61.25 11.9905C60.6549 9.80105 59.4339 7.83284 57.7367 6.32715L54.0683 9.99548C54.8212 10.6005 55.4287 11.3667 55.8462 12.2377C56.2637 13.1086 56.4806 14.0621 56.4808 15.028V15.6755C58.2658 15.6755 59.7142 17.128 59.7142 18.9088C59.7142 20.6896 58.2617 22.1421 56.4808 22.1421H50.0125L49.365 22.7921V26.6738L50.0125 27.318H56.4808C58.7085 27.312 60.8431 26.4241 62.4178 24.8483C63.9924 23.2726 64.8789 21.1373 64.8833 18.9096C64.88 16.0463 63.4367 13.5096 61.2417 11.9905H61.25Z" fill="#4285F4"/>
    <path d="M43.5283 27.3237H49.995V22.1471H43.5283C43.0691 22.1473 42.6152 22.0487 42.1975 21.8579L41.2642 22.1437L38.6742 24.7337L38.4475 25.6087C39.9047 26.7276 41.692 27.3314 43.5292 27.3254L43.5283 27.3237Z" fill="#34A853"/>
    <path d="M43.5284 10.5013C41.2985 10.5049 39.161 11.3922 37.5843 12.969C36.0076 14.5457 35.1202 16.6832 35.1167 18.913C35.1167 20.2114 35.4177 21.4922 35.996 22.6547C36.5744 23.8172 37.4144 24.8298 38.45 25.613L42.2 21.863C41.632 21.6074 41.1499 21.1932 40.8116 20.6702C40.4734 20.1472 40.2934 19.5376 40.2934 18.9147C40.2934 17.1297 41.7459 15.6813 43.5267 15.6813C44.1493 15.6824 44.7585 15.8628 45.2814 16.2009C45.8042 16.5391 46.2186 17.0206 46.475 17.588L50.225 13.838C48.6867 11.813 46.2584 10.5047 43.525 10.5047L43.5284 10.5013Z" fill="#FBBC05"/>
    <path d="M10.0001 43.6363C8.2334 43.6363 6.71673 43.0113 5.4384 41.7613C4.16006 40.5113 3.52173 39.0079 3.52173 37.2546C3.52173 35.5013 4.15923 33.9979 5.4384 32.7479C6.71756 31.4979 8.2359 30.8721 10.0001 30.8721C10.8094 30.8603 11.6129 31.0097 12.3639 31.3116C13.1149 31.6135 13.7982 32.0618 14.3742 32.6304L13.1434 33.8613C12.3011 33.0468 11.1707 32.5989 9.99923 32.6154C8.72423 32.6154 7.6409 33.0654 6.75256 33.9713C6.32041 34.4004 5.97968 34.9127 5.75095 35.4771C5.52222 36.0416 5.41023 36.6465 5.42173 37.2554C5.42173 38.5438 5.8634 39.6363 6.75256 40.5388C7.17041 40.9772 7.67473 41.3241 8.23359 41.5574C8.79246 41.7908 9.39369 41.9056 9.99923 41.8946C11.2976 41.8946 12.3701 41.4779 13.2242 40.6163C13.7242 40.1163 14.0576 39.3663 14.1742 38.4204H10.0026V36.6771H15.8726C15.9351 36.9871 15.9559 37.3438 15.9559 37.7604C15.9559 39.4738 15.4534 40.8321 14.4451 41.8396C13.3017 43.0354 11.8201 43.6313 9.9909 43.6313L10.0001 43.6363ZM23.6417 42.4696C22.8417 43.2529 21.8667 43.6363 20.7151 43.6363C19.5634 43.6363 18.5867 43.2446 17.7884 42.4696C16.9901 41.6946 16.5901 40.7088 16.5901 39.5363C16.5901 38.3638 16.9901 37.3863 17.7884 36.6029C18.5867 35.8196 19.5634 35.4363 20.7151 35.4363C21.8667 35.4363 22.8434 35.8279 23.6417 36.6029C24.4401 37.3779 24.8401 38.3663 24.8401 39.5363C24.8401 40.7063 24.4401 41.6863 23.6417 42.4696ZM19.0801 41.3196C19.288 41.5455 19.541 41.7253 19.8228 41.8471C20.1046 41.969 20.4089 42.0303 20.7159 42.0271C21.3492 42.0271 21.8942 41.7921 22.3517 41.3188C22.8092 40.8454 23.0367 40.2521 23.0367 39.5354C23.0367 38.8104 22.8117 38.2121 22.3592 37.7438C21.9067 37.2754 21.3609 37.0438 20.7159 37.0438C20.4083 37.0391 20.1031 37.0989 19.82 37.2195C19.5369 37.3401 19.2823 37.5187 19.0726 37.7438C18.6201 38.2104 18.3951 38.8071 18.3951 39.5354C18.3951 40.2504 18.6226 40.8463 19.0801 41.3188V41.3196ZM32.6409 42.4696C31.8409 43.2529 30.8659 43.6363 29.7142 43.6363C28.5626 43.6363 27.5859 43.2446 26.7876 42.4696C25.9892 41.6946 25.5892 40.7088 25.5892 39.5363C25.5892 38.3638 25.9892 37.3863 26.7876 36.6029C27.5859 35.8196 28.5626 35.4363 29.7142 35.4363C30.8659 35.4363 31.8426 35.8279 32.6409 36.6029C33.4392 37.3779 33.8392 38.3663 33.8392 39.5363C33.8392 40.7063 33.4392 41.6863 32.6409 42.4696ZM28.0792 41.3196C28.2871 41.5455 28.5402 41.7253 28.822 41.8471C29.1038 41.969 29.4081 42.0303 29.7151 42.0271C30.3484 42.0271 30.8934 41.7921 31.3509 41.3188C31.8084 40.8454 32.0359 40.2521 32.0359 39.5354C32.0359 38.8104 31.8109 38.2121 31.3584 37.7438C30.9059 37.2754 30.3601 37.0438 29.7151 37.0438C29.4074 37.0391 29.1022 37.0989 28.8192 37.2195C28.5361 37.3401 28.2815 37.5187 28.0717 37.7438C27.6192 38.2104 27.3942 38.8071 27.3942 39.5354C27.3942 40.2504 27.6217 40.8463 28.0792 41.3188V41.3196ZM38.5567 47.3363C37.6442 47.3363 36.8759 47.0913 36.2534 46.6029C35.6309 46.1146 35.1851 45.5496 34.9151 44.9046L36.4884 44.2521C36.6534 44.6471 36.9051 44.9896 37.2659 45.2804C37.6267 45.5713 38.0492 45.7154 38.5592 45.7154C39.2442 45.7154 39.7826 45.5071 40.1701 45.0929C40.5576 44.6788 40.7534 44.0796 40.7534 43.3013V42.7179H40.6909C40.1909 43.3404 39.4601 43.6529 38.5276 43.6529C37.4792 43.6529 36.5609 43.2529 35.7717 42.4546C35.3884 42.0772 35.0858 41.6259 34.8824 41.1279C34.6789 40.6299 34.5789 40.0958 34.5884 39.5579C34.5788 39.0167 34.6786 38.4792 34.882 37.9775C35.0853 37.4759 35.388 37.0205 35.7717 36.6388C36.5592 35.8363 37.4801 35.4329 38.5276 35.4329C38.9942 35.4329 39.4176 35.5204 39.7959 35.6979C40.1742 35.8754 40.4734 36.0929 40.6909 36.3504H40.7534V35.6888H42.4667V43.0696C42.4667 44.5029 42.1017 45.5729 41.3684 46.2863C40.6351 46.9946 39.7001 47.3529 38.5576 47.3529L38.5567 47.3363ZM38.6817 42.0263C38.9788 42.0315 39.2734 41.9708 39.5441 41.8484C39.8149 41.7261 40.0552 41.5452 40.2476 41.3188C40.6676 40.8463 40.8776 40.2579 40.8776 39.5504C40.8776 38.8354 40.6676 38.2371 40.2476 37.7588C40.0563 37.5305 39.8164 37.3479 39.5455 37.2242C39.2746 37.1005 38.9795 37.0389 38.6817 37.0438C38.0484 37.0438 37.5084 37.2838 37.0634 37.7588C36.6184 38.2338 36.3934 38.8321 36.3934 39.5504C36.3934 40.2554 36.6159 40.8463 37.0634 41.3188C37.5109 41.7913 38.0492 42.0263 38.6817 42.0263ZM45.5167 31.3054V43.3888H43.7109V31.3054H45.5167ZM50.4667 43.6354C49.3034 43.6354 48.3334 43.2404 47.5551 42.4521C46.7767 41.6638 46.3867 40.6888 46.3867 39.5254C46.3867 38.3221 46.7617 37.3338 47.5151 36.5671C47.8685 36.1952 48.2952 35.9007 48.7683 35.7022C49.2413 35.5037 49.7504 35.4054 50.2634 35.4138C50.7609 35.4138 51.2242 35.5038 51.6492 35.6863C52.0444 35.8482 52.4039 36.086 52.7076 36.3863C52.9608 36.6383 53.1855 36.9175 53.3776 37.2188C53.5363 37.4762 53.6719 37.7473 53.7826 38.0288L53.9701 38.4954L48.4751 40.7721C48.8917 41.6021 49.5584 42.0179 50.4684 42.0179C51.2984 42.0179 51.9742 41.6404 52.4917 40.8821L53.8917 41.8171C53.5792 42.2838 53.1392 42.7046 52.5684 43.0779C51.9976 43.4513 51.2951 43.6363 50.4651 43.6363L50.4667 43.6354ZM48.1784 39.4021L51.8451 37.8771C51.7401 37.6171 51.5501 37.4071 51.2617 37.2471C50.9718 37.0847 50.644 37.0019 50.3117 37.0071C49.7817 37.0071 49.2867 37.2238 48.8259 37.6596C48.3651 38.0954 48.1426 38.6779 48.1634 39.4029L48.1784 39.4021ZM63.4534 43.6354C61.8117 43.6354 60.4367 43.0804 59.3267 41.9688C58.2167 40.8571 57.6601 39.4729 57.6601 37.8121C57.6601 36.1513 58.2151 34.7654 59.3267 33.6554C60.4384 32.5454 61.8126 31.9888 63.4534 31.9888C65.1342 31.9888 66.5001 32.5971 67.5476 33.8096L66.5517 34.7763C65.8017 33.8313 64.7601 33.3596 63.4517 33.3596C62.2351 33.3596 61.2134 33.7696 60.3684 34.5904C59.5234 35.4113 59.1151 36.4838 59.1151 37.8121C59.1151 39.1404 59.5317 40.2154 60.3684 41.0371C61.2051 41.8588 62.2292 42.2679 63.4517 42.2679C64.7901 42.2679 65.9326 41.7279 66.8684 40.6496L67.8642 41.6454C67.3424 42.2681 66.6874 42.7656 65.9476 43.1013C65.1629 43.4622 64.3079 43.6449 63.4442 43.6363L63.4534 43.6354ZM70.5834 43.3888H69.1501V32.2413H70.5834V43.3888ZM72.9192 36.6721C73.6567 35.8996 74.5859 35.5113 75.7376 35.5113C76.8892 35.5113 77.8184 35.8988 78.5559 36.6721C79.2934 37.4454 79.6617 38.4221 79.6617 39.5763C79.6617 40.7304 79.2951 41.7071 78.5559 42.4804C77.8167 43.2538 76.8892 43.6413 75.7376 43.6413C74.5859 43.6413 73.6567 43.2538 72.9192 42.4804C72.1817 41.7071 71.8134 40.7304 71.8134 39.5763C71.8134 38.4221 72.1801 37.4454 72.9192 36.6721ZM73.9859 41.5746C74.4859 42.0771 75.0642 42.3296 75.7359 42.3296C76.4076 42.3296 76.9859 42.0771 77.4859 41.5746C77.9859 41.0721 78.2259 40.4038 78.2259 39.5746C78.2259 38.7454 77.9784 38.0763 77.4859 37.5746C76.9934 37.0729 76.4076 36.8196 75.7359 36.8196C75.0642 36.8196 74.4859 37.0721 73.9859 37.5746C73.4859 38.0771 73.2459 38.7454 73.2459 39.5746C73.2459 40.4038 73.4934 41.0729 73.9859 41.5746ZM87.5859 43.3888H86.2151V42.3304H86.1526C85.9359 42.6929 85.6026 43.0029 85.1567 43.2471C84.7109 43.4913 84.2401 43.6304 83.7401 43.6304C82.7842 43.6304 82.0617 43.3404 81.5692 42.7579C81.0767 42.1754 80.8292 41.3971 80.8292 40.4221V35.7504H82.2626V40.1871C82.2626 41.6104 82.8901 42.3204 84.1459 42.3204C84.427 42.3264 84.7054 42.2645 84.9575 42.14C85.2096 42.0156 85.428 41.8322 85.5942 41.6054C85.9647 41.1357 86.1624 40.5528 86.1542 39.9546V35.7504H87.5876V43.3813L87.5859 43.3888ZM92.4426 43.6363C91.4567 43.6363 90.6042 43.2463 89.8892 42.4679C89.1742 41.6896 88.8159 40.7246 88.8159 39.5713C88.8159 38.4179 89.1742 37.4529 89.8892 36.6746C90.6042 35.8963 91.4576 35.5063 92.4426 35.5063C93.0226 35.5063 93.5459 35.6313 94.0092 35.8788C94.4726 36.1263 94.8176 36.4388 95.0451 36.8138H95.1076L95.0451 35.7554V32.2388H96.4784V43.3888H95.1076V42.3304H95.0451C94.8176 42.7029 94.4726 43.0154 94.0092 43.2654C93.5467 43.5104 93.0234 43.6363 92.4426 43.6363ZM92.6759 42.3279C92.9993 42.3323 93.32 42.268 93.6166 42.1391C93.9133 42.0102 94.1792 41.8198 94.3967 41.5804C94.8692 41.0829 95.1051 40.4121 95.1051 39.5804C95.1051 38.7488 94.8701 38.0696 94.3967 37.5804C94.1792 37.3411 93.9133 37.1506 93.6166 37.0218C93.32 36.8929 92.9993 36.8285 92.6759 36.8329C92.0109 36.8329 91.4401 37.0854 90.9626 37.5879C90.4851 38.0904 90.2476 38.7588 90.2476 39.5879C90.2476 40.4171 90.4851 41.0863 90.9626 41.5879C91.1782 41.8281 91.4426 42.0197 91.738 42.1499C92.0334 42.28 92.3531 42.3459 92.6759 42.3429V42.3279Z" fill="#F5F5F5"/>
</svg>
