<svg xmlns="http://www.w3.org/2000/svg" width="100" height="100" viewBox="0 0 100 51" fill="none">
	<g clip-path="url(#clip0_572_3653)">
		<mask id="mask0_572_3653" style="mask-type:luminance" maskUnits="userSpaceOnUse" x="21" y="-57" width="93" height="121">
			<path d="M113.932 -56.512H21.2874V63.3824H113.932V-56.512Z" fill="white"/>
		</mask>
		<g mask="url(#mask0_572_3653)">
			<path d="M51.5195 25.5625C51.4025 28.5747 49.0264 30.921 46.0738 30.921C42.9574 30.921 40.6409 28.3981 40.6409 25.3562C40.6409 22.2845 43.1489 19.7616 46.2057 19.7616C47.5862 19.7616 48.937 20.3551 50.0793 21.423L49.188 22.5206C48.3116 21.7633 47.2586 21.2443 46.2057 21.2443C43.9636 21.2443 42.1235 23.0843 42.1235 25.3562C42.1235 27.6557 43.8594 29.4383 46.0717 29.4383C48.0606 29.4383 49.6199 27.9833 49.9304 26.1135H45.4207V24.7925H51.5216V25.5625H51.5195Z" fill="#F5F5F5"/>
		</g>
		<mask id="mask1_572_3653" style="mask-type:luminance" maskUnits="userSpaceOnUse" x="21" y="-57" width="93" height="121">
			<path d="M113.932 -56.512H21.2874V63.3824H113.932V-56.512Z" fill="white"/>
		</mask>
		<g mask="url(#mask1_572_3653)">
			<path d="M56.6991 24.8351H55.8673C54.9484 24.8351 54.206 25.5796 54.206 26.4964V30.8296H52.7212V23.4077H53.938V24.031C54.3379 23.6311 54.976 23.4077 55.6887 23.4077H57.2905L56.6991 24.8351Z" fill="#F5F5F5"/>
		</g>
		<mask id="mask2_572_3653" style="mask-type:luminance" maskUnits="userSpaceOnUse" x="21" y="-57" width="93" height="121">
			<path d="M113.932 -56.512H21.2874V63.3824H113.932V-56.512Z" fill="white"/>
		</mask>
		<g mask="url(#mask2_572_3653)">
			<path d="M64.787 30.8317H63.5255V29.8957C62.5491 30.8487 61.0112 31.3061 59.4519 30.6211C58.2968 30.1127 57.4374 29.0597 57.2077 27.8174C56.7652 25.4179 58.6117 23.2886 60.9707 23.2886C61.9642 23.2886 62.8555 23.6885 63.5085 24.3415V23.4056H64.7849V30.8317H64.787ZM63.2681 27.6536C63.6191 26.1454 62.4768 24.7755 60.9878 24.7755C59.6965 24.7755 58.6585 25.8285 58.6585 27.1048C58.6585 28.5492 59.9284 29.666 61.4047 29.415C62.313 29.2597 63.0597 28.5534 63.2681 27.6536Z" fill="#F5F5F5"/>
		</g>
		<mask id="mask3_572_3653" style="mask-type:luminance" maskUnits="userSpaceOnUse" x="21" y="-57" width="93" height="121">
			<path d="M113.932 -56.512H21.2874V63.3824H113.932V-56.512Z" fill="white"/>
		</mask>
		<g mask="url(#mask3_572_3653)">
			<path d="M67.7778 22.995V23.4099H70.1369V24.716H67.7778V30.8317H66.3079V23.0397C66.3079 21.406 67.48 20.4424 68.9499 20.4424H70.7304L70.1369 21.8378H68.952C68.2989 21.8378 67.7778 22.3569 67.7778 22.995Z" fill="#F5F5F5"/>
		</g>
		<mask id="mask4_572_3653" style="mask-type:luminance" maskUnits="userSpaceOnUse" x="21" y="-57" width="93" height="121">
			<path d="M113.932 -56.512H21.2874V63.3824H113.932V-56.512Z" fill="white"/>
		</mask>
		<g mask="url(#mask4_572_3653)">
			<path d="M78.0033 30.8317H76.7418V29.8957C75.7655 30.8487 74.2275 31.3061 72.6682 30.6211C71.5131 30.1127 70.6537 29.0597 70.424 27.8174C69.9815 25.4179 71.828 23.2886 74.1871 23.2886C75.1805 23.2886 76.0718 23.6885 76.7248 24.3415V23.4056H78.0012V30.8317H78.0033ZM76.4866 27.6536C76.8376 26.1454 75.6953 24.7755 74.2062 24.7755C72.915 24.7755 71.8769 25.8285 71.8769 27.1048C71.8769 28.5492 73.1468 29.666 74.6231 29.415C75.5293 29.2597 76.2781 28.5534 76.4866 27.6536Z" fill="#F5F5F5"/>
		</g>
		<mask id="mask5_572_3653" style="mask-type:luminance" maskUnits="userSpaceOnUse" x="21" y="-57" width="93" height="121">
			<path d="M113.932 -56.512H21.2874V63.3824H113.932V-56.512Z" fill="white"/>
		</mask>
		<g mask="url(#mask5_572_3653)">
			<path d="M85.9315 26.4369V30.8296H84.4467V26.4369C84.4467 25.5158 83.6894 24.7755 82.7853 24.7755C81.8493 24.7755 81.1091 25.5179 81.1091 26.4369V30.8296H79.6243V23.4077H80.8559V24.0459C81.3899 23.5715 82.1025 23.2886 82.8449 23.2886C84.5658 23.2907 85.9315 24.701 85.9315 26.4369Z" fill="#F5F5F5"/>
		</g>
		<mask id="mask6_572_3653" style="mask-type:luminance" maskUnits="userSpaceOnUse" x="21" y="-57" width="93" height="121">
			<path d="M113.932 -56.512H21.2874V63.3824H113.932V-56.512Z" fill="white"/>
		</mask>
		<g mask="url(#mask6_572_3653)">
			<path d="M94.6593 30.8317H93.3979V29.8957C92.4215 30.8487 90.8835 31.3061 89.3242 30.6211C88.1691 30.1127 87.3097 29.0597 87.08 27.8174C86.6375 25.4179 88.484 23.2886 90.8431 23.2886C91.8365 23.2886 92.7278 23.6885 93.3808 24.3415V23.4056H94.6572V30.8317H94.6593ZM93.1405 27.6536C93.4915 26.1454 92.3491 24.7755 90.8601 24.7755C89.5689 24.7755 88.5308 25.8285 88.5308 27.1048C88.5308 28.5492 89.8007 29.666 91.277 29.415C92.1832 29.2597 92.932 28.5534 93.1405 27.6536Z" fill="#F5F5F5"/>
		</g>
		<mask id="mask7_572_3653" style="mask-type:luminance" maskUnits="userSpaceOnUse" x="5" y="9" width="30" height="33">
			<path d="M18.4711 13.0021C18.4711 13.0021 18.4598 13.0487 18.4454 13.1274C18.312 13.166 18.1786 13.203 18.0451 13.2464C17.8603 13.3026 17.6787 13.3701 17.4938 13.436C17.3122 13.5068 17.1273 13.5775 16.9473 13.6579C16.5841 13.8138 16.224 13.989 15.872 14.1867C15.5312 14.378 15.1953 14.5885 14.869 14.8168C14.8224 14.7943 14.7854 14.7782 14.7854 14.7782C11.4534 13.5052 8.49422 15.037 8.49422 15.037C8.22418 18.5812 9.82511 20.8154 10.1418 21.2205C10.063 21.4391 9.98906 21.6609 9.92155 21.8843C9.67563 22.688 9.49078 23.5126 9.37666 24.3645C9.36058 24.4866 9.34612 24.6104 9.33165 24.7342C6.25356 26.2547 5.34058 29.3714 5.34058 29.3714C7.91074 32.3273 10.9069 32.5106 10.9069 32.5106C10.9101 32.509 10.9117 32.5058 10.9149 32.5042C11.2958 33.1841 11.7363 33.8318 12.2329 34.4346C12.4403 34.6869 12.6589 34.9313 12.8855 35.1675C11.9484 37.847 13.0173 40.0764 13.0173 40.0764C15.8784 40.1841 17.7574 38.8243 18.1528 38.5109C18.4373 38.6073 18.7267 38.6925 19.0176 38.768C19.8968 38.9947 20.7969 39.1281 21.6971 39.1667C21.9221 39.1763 22.1471 39.1811 22.3706 39.1795H22.4799L22.5506 39.1779L22.692 39.1731L22.8319 39.1667L22.8351 39.1715C24.182 41.0939 26.5529 41.3655 26.5529 41.3655C28.239 39.5878 28.3355 37.8245 28.3355 37.4436C28.3355 37.4436 28.3355 37.4307 28.3355 37.4179C28.3355 37.3857 28.3339 37.3648 28.3339 37.3648C28.3323 37.3375 28.3322 37.3118 28.329 37.2828C28.6827 37.0353 29.0202 36.7685 29.3401 36.4824C30.0152 35.8716 30.6051 35.1772 31.0937 34.4266C31.1403 34.3558 31.1853 34.2851 31.2287 34.2128C33.1367 34.3221 34.482 33.0314 34.482 33.0314C34.1654 31.0431 33.0322 30.0738 32.7959 29.8906C32.7959 29.8906 32.7862 29.8825 32.7718 29.8729C32.7589 29.8633 32.7493 29.8568 32.7493 29.8568C32.738 29.8488 32.7236 29.8392 32.7075 29.8295C32.7187 29.709 32.73 29.59 32.7364 29.4711C32.7509 29.2573 32.7557 29.0419 32.7573 28.8297L32.7557 28.6706L32.7541 28.5902V28.5501C32.7541 28.4954 32.7525 28.5163 32.7525 28.4954L32.7461 28.362L32.7364 28.182C32.7332 28.1193 32.7284 28.0662 32.7236 28.01C32.7187 27.9553 32.7139 27.8991 32.7075 27.8444L32.6882 27.6789L32.6657 27.5149C32.6335 27.2963 32.5918 27.0793 32.5419 26.8655C32.3426 26.0088 32.0083 25.1955 31.5663 24.4641C31.1242 23.7328 30.5745 23.085 29.9557 22.5401C29.3368 21.9936 28.6425 21.5548 27.9143 21.2269C27.1862 20.899 26.4211 20.6885 25.6592 20.592C25.2783 20.5422 24.8989 20.5229 24.5228 20.5277L24.383 20.5309L24.3476 20.5325C24.338 20.5325 24.2946 20.5341 24.2994 20.5341L24.2415 20.5374L24.1017 20.547C24.0486 20.5502 23.994 20.555 23.9474 20.5599C23.7545 20.5792 23.5632 20.6049 23.3735 20.6402C22.6181 20.7817 21.9044 21.0549 21.2759 21.4311C20.6475 21.8072 20.101 22.2781 19.6557 22.8118C19.2121 23.3438 18.8665 23.9337 18.6286 24.5445C18.3907 25.1553 18.2573 25.7854 18.2203 26.3978C18.2107 26.5505 18.2075 26.7032 18.2107 26.8543C18.2107 26.8913 18.2123 26.9298 18.2139 26.9668L18.2187 27.089C18.2236 27.1629 18.23 27.2352 18.2364 27.3076C18.267 27.6178 18.3232 27.9151 18.4068 28.2029C18.5724 28.7767 18.8392 29.2959 19.1671 29.7363C19.495 30.1783 19.8872 30.5432 20.3035 30.8277C20.7198 31.1122 21.165 31.3163 21.6054 31.4465C22.0475 31.5767 22.4863 31.633 22.8994 31.6314C22.9508 31.6314 23.0022 31.6298 23.0537 31.6281C23.081 31.6281 23.1083 31.6249 23.1357 31.6249C23.163 31.6233 23.1903 31.6217 23.2176 31.6201C23.261 31.6153 23.306 31.6121 23.3494 31.6072C23.3591 31.6072 23.3735 31.604 23.3864 31.6024L23.4266 31.5976C23.4539 31.5944 23.4796 31.5896 23.507 31.5864C23.5616 31.5799 23.6082 31.5687 23.6564 31.5606C23.7047 31.551 23.7529 31.5413 23.8011 31.5285C23.8959 31.5076 23.9876 31.4787 24.0792 31.4513C24.2592 31.3919 24.428 31.3195 24.5855 31.2392C24.743 31.1588 24.8877 31.0672 25.0227 30.9723C25.0613 30.945 25.0982 30.9161 25.1352 30.8872C25.2799 30.7746 25.3024 30.5625 25.1866 30.421C25.0854 30.2973 24.9118 30.2651 24.7736 30.3423C24.7398 30.3615 24.7044 30.3792 24.6691 30.3969C24.5485 30.4548 24.4231 30.5094 24.2897 30.5528C24.1563 30.5946 24.0181 30.63 23.8734 30.6557C23.8011 30.6653 23.7288 30.6766 23.6548 30.683C23.6179 30.6878 23.5809 30.6894 23.5423 30.6894C23.5053 30.6911 23.4652 30.6943 23.4314 30.6927C23.396 30.6927 23.3607 30.6911 23.3237 30.6911C23.2787 30.6894 23.2337 30.6862 23.1887 30.6846C23.1887 30.6846 23.1662 30.6846 23.1839 30.683L23.1694 30.6814L23.1389 30.6782C23.118 30.6766 23.0987 30.675 23.0778 30.6718C23.0376 30.6669 22.9974 30.6621 22.9572 30.6557C22.6342 30.6107 22.3063 30.5159 21.9912 30.3728C21.6746 30.2297 21.3724 30.0336 21.0991 29.7877C20.8259 29.5434 20.588 29.2476 20.4015 28.9133C20.2151 28.5806 20.0849 28.2093 20.0238 27.8203C19.9933 27.6258 19.9804 27.4249 19.9852 27.2288C19.9884 27.1741 19.9901 27.1211 19.9933 27.0665C19.9933 27.0809 19.9949 27.0584 19.9949 27.0568L19.9965 27.0375L19.9997 26.9973C20.0013 26.97 20.0045 26.9443 20.0077 26.917C20.019 26.8109 20.0351 26.7032 20.0543 26.5987C20.2038 25.7516 20.6282 24.9255 21.284 24.297C21.4479 24.1411 21.6247 23.9948 21.8128 23.8662C22.0009 23.7376 22.2018 23.6219 22.4107 23.5254C22.6197 23.429 22.8383 23.3502 23.0617 23.2892C23.2851 23.2297 23.515 23.1895 23.7481 23.1686C23.8638 23.159 23.9811 23.1541 24.0985 23.1541C24.129 23.1541 24.1531 23.1557 24.1772 23.1557L24.2721 23.159L24.3315 23.1606C24.3556 23.1606 24.3315 23.1606 24.3428 23.1622L24.3669 23.1638L24.4617 23.1702C24.7141 23.1911 24.9664 23.2265 25.214 23.2827C25.7106 23.3936 26.1929 23.5753 26.6429 23.8244C27.543 24.3227 28.3097 25.1023 28.7807 26.0426C29.0186 26.5103 29.1825 27.015 29.2661 27.5358C29.2854 27.666 29.3015 27.7978 29.3127 27.9296L29.3208 28.0293L29.3256 28.1289C29.3272 28.1627 29.3272 28.1948 29.3288 28.2286C29.3288 28.2607 29.3304 28.2977 29.3304 28.3218V28.407L29.3288 28.5034C29.3256 28.5677 29.3208 28.6722 29.3176 28.7365C29.3063 28.8796 29.2951 29.0242 29.2758 29.1673C29.2581 29.3087 29.234 29.4502 29.2083 29.5916C29.1793 29.7315 29.1504 29.8713 29.1134 30.0095C29.0443 30.2876 28.9543 30.5592 28.8498 30.8261C28.6393 31.3597 28.358 31.866 28.0188 32.3338C27.3389 33.2677 26.4115 34.0311 25.357 34.5101C24.8298 34.748 24.2737 34.9232 23.7014 35.0181C23.4153 35.0663 23.126 35.0952 22.8367 35.1049L22.7836 35.1065H22.737L22.6438 35.1081H22.5007H22.43C22.4702 35.1081 22.4236 35.1081 22.4252 35.1065L22.3963 35.1049C22.2404 35.1016 22.0861 35.0936 21.9317 35.0824C21.3129 35.0357 20.7005 34.9264 20.1074 34.7529C19.5143 34.5809 18.9388 34.351 18.3939 34.0617C17.3058 33.4798 16.3333 32.6826 15.5714 31.7214C15.1889 31.2424 14.8545 30.728 14.5781 30.1863C14.3016 29.6447 14.0846 29.0773 13.9239 28.497C13.7647 27.9167 13.6651 27.322 13.6265 26.7241L13.6201 26.6116L13.6185 26.5842V26.5601L13.6169 26.5103L13.6137 26.4123L13.612 26.3882V26.3544V26.2853L13.6104 26.1454V26.1181C13.6104 26.1229 13.6104 26.1229 13.6104 26.1085V26.0538C13.6104 25.9815 13.6137 25.9076 13.6153 25.8352C13.6265 25.5395 13.6506 25.2357 13.6892 24.9319C13.7278 24.6281 13.7776 24.3227 13.8403 24.0189C13.903 23.7167 13.9769 23.4161 14.0605 23.122C14.2293 22.5321 14.4398 21.9599 14.689 21.4198C15.1889 20.338 15.8447 19.3849 16.6323 18.6166C16.8284 18.4237 17.0325 18.2421 17.2447 18.0717C17.4569 17.9013 17.6771 17.7438 17.9037 17.5959C18.1287 17.4464 18.3618 17.3114 18.6013 17.186C18.7202 17.1217 18.8424 17.0655 18.9646 17.006C19.0256 16.9787 19.0883 16.9513 19.1494 16.924C19.2105 16.8967 19.2732 16.8694 19.3359 16.8453C19.585 16.7392 19.8422 16.6508 20.0994 16.5672C20.1653 16.5479 20.2295 16.527 20.2938 16.5077C20.3581 16.4868 20.4256 16.4723 20.4899 16.4531C20.6201 16.4161 20.7535 16.3856 20.8854 16.3518C20.9513 16.3341 21.0188 16.3229 21.0847 16.3084C21.1522 16.2939 21.2181 16.2795 21.2856 16.2666C21.3531 16.2537 21.4206 16.2425 21.4865 16.2296L21.5878 16.212L21.689 16.1959C21.7565 16.1862 21.824 16.175 21.8916 16.1653C21.9671 16.1525 22.0443 16.1461 22.1198 16.1348C22.1825 16.1268 22.2838 16.1155 22.3464 16.1075C22.3947 16.1027 22.4413 16.0978 22.4895 16.093L22.5843 16.0834L22.6326 16.0785L22.6888 16.0753C22.766 16.0705 22.8415 16.0657 22.9187 16.0609L23.0328 16.0528C23.0328 16.0528 23.0746 16.0512 23.0376 16.0512L23.0617 16.0496L23.1099 16.048C23.1758 16.0448 23.2401 16.0416 23.306 16.0384C23.5664 16.0303 23.8252 16.0303 24.0808 16.0384C24.5935 16.0593 25.0966 16.1155 25.5853 16.2055C26.5642 16.3872 27.4852 16.7022 28.3178 17.1137C29.152 17.522 29.8994 18.0235 30.5488 18.5683C30.589 18.6021 30.6292 18.6375 30.6694 18.6712C30.7095 18.7066 30.7481 18.7403 30.7867 18.7757C30.8654 18.8448 30.941 18.9171 31.0165 18.9863C31.0921 19.057 31.1644 19.1293 31.2384 19.2C31.3091 19.2724 31.3814 19.3431 31.4505 19.417C31.7254 19.708 31.981 20.0037 32.2108 20.3011C32.6721 20.8942 33.0402 21.4921 33.3344 22.0579C33.3536 22.0933 33.3713 22.1286 33.389 22.164C33.4067 22.1994 33.4244 22.2347 33.4404 22.2701C33.4742 22.3392 33.5096 22.4083 33.5401 22.4774C33.5722 22.5466 33.6044 22.6141 33.6349 22.6816C33.6639 22.7491 33.6928 22.8166 33.7217 22.8809C33.831 23.1461 33.9307 23.3969 34.0127 23.6364C34.1477 24.0205 34.2457 24.3677 34.3229 24.6683C34.3534 24.7888 34.4675 24.8692 34.5913 24.8579C34.7199 24.8467 34.8179 24.7406 34.8212 24.612C34.8276 24.2889 34.8196 23.908 34.7826 23.474C34.7344 22.9371 34.6427 22.3151 34.4611 21.632C34.2827 20.9488 34.0175 20.2014 33.6317 19.4251C33.2443 18.6503 32.7396 17.8434 32.0838 17.0639C31.8283 16.7585 31.5486 16.4563 31.2464 16.1621C31.6965 14.3715 30.6983 12.8188 30.6983 12.8188C28.9752 12.7111 27.879 13.3541 27.4723 13.6482C27.4048 13.6193 27.3357 13.5904 27.2666 13.5614C26.9724 13.4425 26.6718 13.3316 26.3616 13.2335C26.0514 13.1355 25.7348 13.0455 25.4117 12.9699C25.087 12.8944 24.7575 12.8301 24.4215 12.7786C24.3621 12.7706 24.3042 12.7626 24.2447 12.7529C23.4957 10.3515 21.337 9.34692 21.337 9.34692C18.9292 10.8659 18.4711 13.0021 18.4711 13.0021Z" fill="white"/>
		</mask>
		<g mask="url(#mask7_572_3653)">
			<path d="M34.826 9.34045H5.34058V41.3639H34.826V9.34045Z" fill="url(#paint0_linear_572_3653)"/>
		</g>
	</g>
	<defs>
		<linearGradient id="paint0_linear_572_3653" x1="20.0798" y1="48.5663" x2="20.0798" y2="19.3096" gradientUnits="userSpaceOnUse">
			<stop stop-color="#FFF200"/>
			<stop offset="1" stop-color="#F15A29"/>
		</linearGradient>
		<clipPath id="clip0_572_3653">
			<rect width="100" height="50" fill="white" transform="translate(0 0.355469)"/>
		</clipPath>
	</defs>
</svg>
