<svg xmlns="http://www.w3.org/2000/svg" width="100" height="100" viewBox="0 0 100 146" fill="none">
  <path fill-rule="evenodd" clip-rule="evenodd" d="M0 60.639H6.30961V69.1819H13.9324V60.639H20.242V84.6359H13.9324V75.4851H6.30961V84.6359H0V60.639ZM27.4804 84.6359V60.639H42.4057V65.8544H33.79V69.7578H41.4128V75.0691H33.79V79.4846H42.4057V84.6359H27.4804ZM49.3238 84.6359V60.639H55.6334V78.3007H64.2811V84.6359H49.3238ZM74.0498 60.639L83.8505 69.5339L93.6192 60.639H96.4697V84.6359H90.1281V72.3175L83.8505 78.0448L77.5409 72.3495V84.6359H71.1993V60.639H74.0498Z" fill="#0F1689"/>
  <mask id="mask0_572_3298" style="mask-type:luminance" maskUnits="userSpaceOnUse" x="0" y="94" width="101" height="52">
    <path fill-rule="evenodd" clip-rule="evenodd" d="M0.0893555 145.465H100V94.4846H0.0893555V145.465Z" fill="white"/>
  </mask>
  <g mask="url(#mask0_572_3298)">
    <path fill-rule="evenodd" clip-rule="evenodd" d="M71.4106 99.7428C73.2225 98.4741 77.4002 101.314 80.7416 106.086C84.083 110.858 85.3229 115.755 83.511 117.024C81.6991 118.293 77.5215 115.453 74.18 110.681C70.8386 105.909 69.5987 101.012 71.4106 99.7428Z" fill="#0F1689"/>
    <path fill-rule="evenodd" clip-rule="evenodd" d="M28.2405 99.7428C26.4286 98.4741 22.251 101.314 18.9095 106.086C15.5681 110.858 14.3282 115.755 16.1401 117.024C17.952 118.293 22.1297 115.453 25.4711 110.681C28.8125 105.909 30.0524 101.012 28.2405 99.7428Z" fill="#0F1689"/>
    <path fill-rule="evenodd" clip-rule="evenodd" d="M49.8037 107.215C47.5918 107.215 45.7986 111.937 45.7986 117.763C45.7986 123.588 47.5918 128.311 49.8037 128.311C52.0157 128.311 53.8088 123.588 53.8088 117.763C53.8088 111.937 52.0157 107.215 49.8037 107.215Z" fill="#0F1689"/>
  </g>
  <mask id="mask1_572_3298" style="mask-type:luminance" maskUnits="userSpaceOnUse" x="0" y="94" width="101" height="52">
    <path fill-rule="evenodd" clip-rule="evenodd" d="M0.0893555 145.465H100V94.4846H0.0893555V145.465Z" fill="white"/>
  </mask>
  <g mask="url(#mask1_572_3298)">
    <path d="M80.2811 90.2643C73.8298 100.982 62.1393 108.144 48.7883 108.144C35.8027 108.144 24.3878 101.369 17.8368 91.1359M18.5378 49.9444C25.1836 40.3033 36.2543 33.9911 48.7883 33.9911C61.3452 33.9911 72.4333 40.3263 79.0751 49.997" stroke="#0F1689" stroke-width="3.03254"/>
  </g>
  <mask id="mask2_572_3298" style="mask-type:luminance" maskUnits="userSpaceOnUse" x="0" y="0" width="101" height="52">
    <path fill-rule="evenodd" clip-rule="evenodd" d="M0.0893555 0.367432H100V51.3476H0.0893555V0.367432Z" fill="white"/>
  </mask>
  <g mask="url(#mask2_572_3298)">
    <path fill-rule="evenodd" clip-rule="evenodd" d="M71.4106 45.3049C73.2225 46.5737 77.4002 43.7337 80.7416 38.9616C84.083 34.1895 85.3229 29.2925 83.511 28.0238C81.6991 26.7551 77.5215 29.5951 74.18 34.3671C70.8386 39.1392 69.5987 44.0362 71.4106 45.3049Z" fill="#0F1689"/>
    <path fill-rule="evenodd" clip-rule="evenodd" d="M28.2405 45.3049C26.4286 46.5737 22.251 43.7337 18.9095 38.9616C15.5681 34.1895 14.3282 29.2925 16.1401 28.0238C17.952 26.7551 22.1297 29.5951 25.4711 34.3671C28.8125 39.1392 30.0524 44.0362 28.2405 45.3049Z" fill="#0F1689"/>
    <path fill-rule="evenodd" clip-rule="evenodd" d="M49.8037 37.8332C47.5918 37.8332 45.7986 33.1106 45.7986 27.285C45.7986 21.4594 47.5918 16.7368 49.8037 16.7368C52.0157 16.7368 53.8088 21.4594 53.8088 27.285C53.8088 33.1106 52.0157 37.8332 49.8037 37.8332Z" fill="#0F1689"/>
  </g>
  <mask id="mask3_572_3298" style="mask-type:luminance" maskUnits="userSpaceOnUse" x="0" y="0" width="101" height="52">
    <path fill-rule="evenodd" clip-rule="evenodd" d="M0.0893555 0.367432H100V51.3476H0.0893555V0.367432Z" fill="white"/>
  </mask>
  <g mask="url(#mask3_572_3298)">
    <path d="M80.2811 54.7834C73.8298 44.0653 62.1393 36.9036 48.7883 36.9036C35.8027 36.9036 24.3878 43.6788 17.8368 53.9117M18.5378 95.1032C25.1836 104.744 36.2543 111.056 48.7883 111.056C61.3452 111.056 72.4333 104.721 79.0751 95.0507" stroke="#0F1689" stroke-width="3.03254"/>
  </g>
</svg>
