<svg xmlns="http://www.w3.org/2000/svg" width="100" height="100" viewBox="0 0 100 164" fill="none">
	<path d="M98.2443 66.4463C98.2443 93.758 76.59 115.92 49.8635 115.92C23.137 115.92 1.48267 93.758 1.48267 66.4463C1.48267 39.1345 23.137 16.973 49.8635 16.973C76.59 16.973 98.2443 39.1345 98.2443 66.4463Z" fill="#D33833"/>
	<path d="M3.47249 78.6974C3.47249 78.6974 -0.0390185 27.1173 47.5224 25.6346L44.206 20.0942L18.4159 28.756L11.0417 37.2226L4.60398 49.5519L0.936401 63.9101L2.02887 73.5082" fill="#EF3D3A"/>
	<path d="M16.7382 32.6967C8.27156 41.3974 3.00429 53.3756 3.00429 66.6413C3.00429 79.907 8.27156 91.8851 16.7382 100.586C25.2439 109.287 36.9099 114.632 49.8634 114.632C62.817 114.632 74.483 109.287 82.9887 100.586C91.4553 91.8851 96.7226 79.907 96.7226 66.6413C96.7226 53.3756 91.4553 41.3974 82.9887 32.6967C74.483 24.035 62.817 18.6507 49.8634 18.6507C36.9489 18.6507 25.2439 23.9959 16.7382 32.6967ZM14.5923 102.654C5.5794 93.4458 0 80.6873 0 66.6413C0 52.5952 5.5794 39.8368 14.5923 30.5898C23.6051 21.3818 36.0905 15.6464 49.8634 15.6464C63.6364 15.6464 76.1217 21.3818 85.1346 30.5898C94.1475 39.7977 99.7269 52.5562 99.7269 66.6413C99.7269 80.6873 94.1475 93.4458 85.1346 102.654C76.1217 111.901 63.6364 117.597 49.8634 117.597C36.0905 117.597 23.6051 111.901 14.5923 102.654Z" fill="#231F20"/>
	<path d="M70.2301 66.7193L62.8559 67.8118L52.9067 68.9433L46.4689 69.0994L40.1872 68.9043L35.3881 67.4216L31.1353 62.8177L27.8189 53.4146L27.0776 51.3857L22.6687 49.9031L20.0936 45.6503L18.2598 39.5637L20.2886 34.2184L25.0877 32.5406L28.9504 34.3744L30.7842 38.4322L33.0081 38.081L33.7494 37.1446L33.0081 32.8918L32.813 27.5465L33.9055 20.1723L33.8665 15.9585L37.2219 10.5742L43.1135 6.32137L53.4139 1.91248L64.8458 3.5902L74.7951 10.7693L79.3991 18.1435L82.3643 23.4888L83.1057 36.7545L80.8817 48.1864L76.8239 58.3307L73.0003 63.7541" fill="#F0D6B7"/>
	<path d="M63.9875 98.5961L37.6512 99.6885V104.097L39.8751 119.587L38.7827 120.875L20.3668 114.593L19.0792 112.369L17.2454 91.534L12.9146 79.0486L11.9781 76.0834L26.7265 65.939L31.3305 64.1052L35.3882 69.0994L38.8997 72.2207L42.9575 73.5083L44.7913 74.0545L47.0152 83.6526L48.6929 85.6815L52.9458 84.1989L49.9805 89.9343L65.9774 97.5036L63.9875 98.5961Z" fill="#335061"/>
	<path d="M20.2887 34.2964L25.0877 32.6187L28.9504 34.4524L30.7842 38.5102L33.0082 38.159L33.5544 35.9351L32.4619 31.6823L33.5544 21.5379L32.618 15.9975L35.9344 12.1349L43.1135 6.4384L41.0846 3.66821L30.9403 8.66236L26.6874 11.9788L24.3074 17.129L20.6398 22.1231L19.5474 28.0147L20.2887 34.2964Z" fill="#6D6B6D"/>
	<path d="M27.8581 16.9729C27.8581 16.9729 30.6282 10.145 41.67 6.82853C52.7117 3.5121 42.2162 4.4485 42.2162 4.4485L30.2381 9.05248L25.6341 13.6565L23.6052 17.324L27.8581 16.9729Z" fill="#DCD9D8"/>
	<path d="M22.3176 33.0088C22.3176 33.0088 18.4549 20.0942 33.2032 18.2605L32.657 16.0365L22.5126 18.4165L19.5474 28.0146L20.2887 34.2964L22.3176 33.0088Z" fill="#DCD9D8"/>
	<path d="M28.2092 50.1372L30.6283 47.7961C30.6283 47.7961 31.7207 47.9132 31.9158 49.2007C32.1109 50.4883 32.6571 62.1153 40.5775 68.358C41.3189 68.9432 34.686 67.4216 34.686 67.4216L28.7945 58.2136" fill="#F7E4CD"/>
	<path d="M62.1147 46.6257C62.1147 46.6257 62.5439 41.0463 64.0655 41.4755C65.5872 41.9046 65.5872 43.4263 65.5872 43.4263C65.5872 43.4263 61.9196 45.7673 62.1147 46.6257Z" fill="#F7E4CD"/>
	<path d="M77.4094 26.1809C77.4094 26.1809 74.366 26.8052 74.0929 29.4973C73.8198 32.1895 77.4094 30.0436 77.9556 29.8485" fill="#F7E4CD"/>
	<path d="M55.1307 26.376C55.1307 26.376 51.073 26.9222 51.073 29.4973C51.073 32.0724 55.677 31.8773 56.9645 30.7849" fill="#F7E4CD"/>
	<path d="M30.0819 38.3542C30.0819 38.3542 23.0979 34.1014 22.3566 38.1591C21.6153 42.2169 19.9766 45.1431 23.4491 49.396L21.069 48.6546L18.8451 42.9582L18.1038 37.4178L22.3566 33.0089L27.1557 33.3601L29.9258 35.584L30.0819 38.3542Z" fill="#F7E4CD"/>
	<path d="M33.3985 26.7272C33.3985 26.7272 36.5198 10.4963 52.3606 7.37492C65.3922 4.79982 72.2592 7.92116 74.8343 10.8864C74.8343 10.8864 63.2073 -2.92551 52.1656 1.28831C41.1238 5.54113 33.0083 13.2665 33.2034 18.2216C33.5155 26.7272 33.3985 26.7272 33.3985 26.7272Z" fill="#F7E4CD"/>
	<path d="M76.1217 12.7202C76.1217 12.7202 70.7764 12.5251 70.5813 17.3242C70.5813 17.3242 70.5813 18.0655 70.9324 18.8068C70.9324 18.8068 75.1853 14.0078 77.7604 16.5829" fill="#F7E4CD"/>
	<path d="M52.7506 19.3139C52.7506 19.3139 51.8142 11.9787 45.5715 16.2316C41.5138 19.0017 41.904 22.8644 42.6063 23.6057C43.3476 24.347 43.1525 25.8297 43.6987 24.8152C44.245 23.8008 44.0889 20.4844 46.1178 19.548C48.1076 18.6116 51.4631 17.5971 52.7506 19.3139Z" fill="#F7E4CD"/>
	<path d="M35.4273 69.0994L18.1038 76.8247C18.1038 76.8247 25.2829 105.385 21.6153 114.242L19.0402 113.305L18.8451 102.42L14.0461 81.8189L12.0172 76.1224L30.082 63.9492L35.4273 69.0994Z" fill="#49728B"/>
	<path d="M37.1829 84.9011L39.6409 87.9054V98.9472H36.7147C36.7147 98.9472 36.3635 91.2218 36.3635 90.2854C36.3635 89.349 36.7147 86.0326 36.7147 86.0326" fill="#49728B"/>
	<path d="M37.261 100.625L28.9504 100.976L31.3305 102.654L37.222 103.59" fill="#49728B"/>
	<path d="M65.6262 98.7912L72.4542 98.5961L74.1319 115.529L67.1479 116.466L65.6262 98.7912Z" fill="#335061"/>
	<path d="M67.46 98.7911L77.7604 98.2449C77.7604 98.2449 82.0132 87.5543 82.0132 87.008C82.0132 86.4618 85.6808 71.5184 85.6808 71.5184L77.3702 62.8567L75.6925 61.374L71.2836 65.7829V82.9113L67.46 98.7911Z" fill="#335061"/>
	<path d="M72.064 97.5035L65.6262 98.7911L66.5626 103.941C68.9426 105.034 73.0004 102.108 73.0004 102.108" fill="#49728B"/>
	<path d="M72.259 65.2367L85.1736 74.8349L85.5247 70.426L75.7705 61.4131L72.259 65.2367Z" fill="#49728B"/>
	<path d="M43.6597 135.077L39.836 119.587L37.9242 108.155L37.6121 99.6885L54.8965 98.7521H65.6261L64.6507 118.104L66.3284 133.048L66.1333 135.818L52.1263 136.91L43.6597 135.077Z" fill="white"/>
	<path d="M63.2462 98.596C63.2462 98.596 62.3098 117.753 65.08 131.409C65.08 131.409 59.5396 134.921 51.4631 135.818L66.9528 135.272L68.7866 134.179L66.5626 103.98L65.9774 97.5035" fill="#DCD9D8"/>
	<path d="M74.4049 114.086L81.584 112.057L95.2009 111.316L97.2298 105.034L93.5622 94.1482L89.3093 93.6019L83.4178 95.4357L77.7994 98.2059L74.7951 97.6597L72.4541 98.5961" fill="white"/>
	<path d="M74.2878 110.379C74.2878 110.379 79.0869 108.155 79.8282 108.35L77.7994 98.2059L80.1794 97.2695C80.1794 97.2695 81.8571 106.868 81.8571 107.96C81.8571 107.96 92.1575 108.506 93.0939 108.506C93.0939 108.506 95.3179 104.254 94.7717 99.8446L96.8005 105.736L96.9956 109.053L94.0303 113.461L90.7139 114.203L85.1735 114.008L83.3397 111.628L76.902 112.564L74.8731 113.305" fill="#DCD9D8"/>
	<path d="M67.0308 97.3085L62.973 87.008L58.7202 80.9214C58.7202 80.9214 59.6566 78.3463 60.9442 78.3463H65.197L69.2547 79.8289L68.9036 86.6569L67.0308 97.3085Z" fill="white"/>
	<path d="M67.8501 93.7969C67.8501 93.7969 62.6999 83.8477 62.6999 82.365C62.6999 82.365 63.6363 80.1411 64.9238 80.6873C66.2114 81.2335 68.9816 82.7162 68.9816 82.7162V79.2047L62.6999 77.9171L58.447 78.4633L65.6261 95.4747L67.1087 95.6697" fill="#DCD9D8"/>
	<path d="M45.2984 69.4896L40.1872 68.9433L35.3882 67.4607V69.1384L37.7292 71.7135L45.1034 75.03" fill="white"/>
	<path d="M37.0658 70.0358C37.0658 70.0358 42.7623 72.4158 44.6351 71.8696L44.8302 74.0935L39.6799 73.001L36.5586 70.7771L37.0658 70.0358Z" fill="#DCD9D8"/>
	<path d="M74.405 78.9707C71.2837 78.8926 68.4355 78.5025 65.9774 77.8002C66.1335 76.7857 65.8213 75.8103 66.0944 75.069C66.7968 74.5618 67.9282 74.5618 68.9817 74.4447C68.0843 74.0155 66.7968 73.8205 65.7823 74.0936C65.7433 73.3913 65.4312 72.9621 65.2361 72.4159C66.9918 71.7916 71.1276 67.6948 73.4686 69.0214C74.6001 69.6847 75.0683 73.3523 75.1463 75.1861C75.2244 76.6687 74.9903 78.1513 74.405 78.9707Z" fill="#D33833"/>
	<path d="M74.405 78.9707C71.2837 78.8926 68.4355 78.5025 65.9774 77.8002C66.1335 76.7857 65.8213 75.8103 66.0944 75.069C66.7968 74.5618 67.9282 74.5618 68.9817 74.4447C68.0843 74.0155 66.7968 73.8205 65.7823 74.0936C65.7433 73.3913 65.4312 72.9621 65.2361 72.4159C66.9918 71.7916 71.1276 67.6948 73.4686 69.0214C74.6001 69.6847 75.0683 73.3523 75.1463 75.1861C75.2244 76.6687 74.9903 78.1513 74.405 78.9707Z" fill="black" stroke="#D33833" stroke-width="3.83693"/>
	<path d="M59.4616 73.8595C59.4616 74.0936 59.4616 74.3277 59.4226 74.5618C58.4472 75.1861 56.8865 75.1861 55.794 75.7323C57.3547 75.8103 58.6032 76.2005 59.6957 76.7077C59.6567 77.293 59.6567 77.9172 59.6177 78.5025C57.8229 79.712 56.1842 81.5458 54.0773 82.7163C53.0629 83.2625 49.5904 84.6671 48.5369 84.394C47.9517 84.2379 47.8736 83.4966 47.6395 82.7943C47.1323 81.3117 45.9618 78.8926 45.8447 76.6297C45.7277 73.7815 45.4156 68.9824 48.4979 69.5676C50.995 70.0358 53.8822 71.1673 55.794 72.2208C57.0035 72.9231 57.6668 73.7034 59.4616 73.8595Z" fill="#D33833"/>
	<path d="M59.4616 73.8595C59.4616 74.0936 59.4616 74.3277 59.4226 74.5618C58.4472 75.1861 56.8865 75.1861 55.794 75.7323C57.3547 75.8103 58.6032 76.2005 59.6957 76.7077C59.6567 77.293 59.6567 77.9172 59.6177 78.5025C57.8229 79.712 56.1842 81.5458 54.0773 82.7163C53.0629 83.2625 49.5904 84.6671 48.5369 84.394C47.9517 84.2379 47.8736 83.4966 47.6395 82.7943C47.1323 81.3117 45.9618 78.8926 45.8447 76.6297C45.7277 73.7815 45.4156 68.9824 48.4979 69.5676C50.995 70.0358 53.8822 71.1673 55.794 72.2208C57.0035 72.9231 57.6668 73.7034 59.4616 73.8595Z" fill="black" stroke="#D33833" stroke-width="3.83693"/>
	<path d="M61.2174 77.2538C60.9442 75.6932 60.6321 75.264 60.7492 73.8984C64.924 71.1282 65.6653 78.6584 61.2174 77.2538Z" fill="#D33833"/>
	<path d="M61.2174 77.2538C60.9442 75.6932 60.6321 75.264 60.7492 73.8984C64.924 71.1282 65.6653 78.6584 61.2174 77.2538Z" fill="black" stroke="#D33833" stroke-width="3.83693"/>
	<path d="M67.2258 78.5024C67.2258 78.5024 65.9382 76.6686 66.8746 76.1224C67.811 75.5761 68.7084 76.1224 69.2547 75.186C69.8009 74.2496 69.2547 73.7033 69.4497 72.6109C69.6448 71.5184 70.5422 71.3233 71.4786 71.1282C72.415 70.9331 74.9901 70.582 75.3413 71.4794L74.2488 68.163L72.0249 67.4216L65.0409 71.4794L64.6897 73.5083V77.566" fill="#EF3D3A"/>
	<path d="M47.8736 84.5891C47.6395 81.7018 47.4054 78.8536 47.1713 75.9664C46.7812 71.6745 48.1858 72.4158 51.9314 72.4158C52.5166 72.4158 55.4429 73.0791 55.638 73.5083C56.6524 75.5762 53.9603 75.108 56.8085 76.6687C59.1885 77.9562 63.4413 75.8883 62.4659 72.9621C61.9197 72.2988 59.6567 72.767 58.8374 72.3378C57.3937 71.5965 55.9501 70.8552 54.5065 70.1138C52.6727 69.1774 48.4589 67.7728 46.5081 69.0994C41.5529 72.4548 46.8202 80.8825 48.5759 84.394" fill="#EF3D3A"/>
	<path d="M52.7507 19.3139C47.7175 18.1434 45.2204 21.4208 43.6988 24.8152C42.3332 24.5031 42.8794 22.6303 43.2306 21.6939C44.1279 19.2359 47.7565 15.9194 50.7218 16.3876C51.9703 16.5437 53.6871 17.7142 52.7507 19.3139Z" fill="#231F20"/>
	<path d="M77.2143 25.0104H77.4484C78.5799 27.3514 79.5553 29.8485 80.9989 31.9554C80.0235 34.2183 73.7418 36.1692 73.8198 32.1895C75.1854 31.6042 77.5264 32.0724 78.7359 31.2921C78.0336 29.3803 77.0582 27.7416 77.2143 25.0104Z" fill="#231F20"/>
	<path d="M55.2868 25.0885C56.3793 27.0784 56.7305 29.1462 58.2521 30.6289C58.9544 31.2922 60.281 32.1115 59.6177 33.9843C59.4616 34.4135 58.3302 35.3889 57.6669 35.584C55.2868 36.2863 49.7075 35.7401 51.5803 32.7358C53.5701 32.8138 56.2233 34.0233 57.7059 32.5797C56.5744 30.7849 54.5455 27.1954 55.2868 25.0885Z" fill="#231F20"/>
	<path d="M76.3168 45.1431C72.7272 47.4451 68.7085 49.9812 62.7779 49.3959C61.5294 48.3035 61.0222 45.8454 62.2707 44.2457C62.895 45.3382 62.5048 47.3671 64.2996 47.6792C67.655 48.2645 71.5567 45.6113 73.9758 44.7139C75.4584 42.1778 73.8587 41.2805 72.4931 39.6417C69.7229 36.3253 66.0554 32.1895 66.1724 27.2344C67.3039 26.4151 67.3819 28.483 67.538 28.8341C68.9816 32.1895 72.6102 36.5204 75.2243 39.4076C75.8876 40.11 76.941 40.8123 77.0581 41.2805C77.4092 42.607 76.1607 44.2457 76.3168 45.1431Z" fill="#231F20"/>
	<path d="M28.7945 42.7241C27.663 42.0608 27.3899 39.2516 26.0633 39.1736C24.1515 39.0565 24.5026 42.8412 24.5026 45.0651C23.2151 43.8946 22.981 40.227 23.9174 38.3542C22.8249 37.808 22.3567 38.9395 21.7324 39.3296C22.5518 33.6722 30.043 36.7155 28.7945 42.7241Z" fill="#231F20"/>
	<path d="M78.5797 47.5231C76.902 50.7224 74.522 54.234 69.6059 54.351C69.4888 53.3366 69.4108 51.7369 69.6059 51.1126C73.3905 50.7224 75.7315 48.8106 78.5797 47.5231Z" fill="#231F20"/>
	<path d="M55.0137 49.5909C58.135 51.2296 63.9095 51.4247 68.2013 51.3077C68.4354 52.2441 68.4354 53.4146 68.4354 54.5461C62.9341 54.7802 56.4573 53.4146 55.0137 49.5909Z" fill="#231F20"/>
	<path d="M54.4284 52.6343C56.6134 58.0966 64.0656 57.4724 70.3473 57.3163C70.0742 58.0186 69.4889 58.877 68.7086 59.1501C66.6797 59.9694 61.1393 60.5937 58.3301 59.1111C56.5744 58.1747 55.4038 56.0287 54.4284 54.7802C53.9992 54.1949 51.6582 52.6733 54.4284 52.6343Z" fill="#231F20"/>
	<path d="M76.0436 82.7161C73.5075 87.086 71.0495 91.5729 68.0452 95.3966C69.2937 91.69 69.8399 85.4473 70.035 80.6873C72.6882 79.4387 74.9511 80.9604 76.0436 82.7161Z" fill="#81B0C4"/>
	<path d="M89.7386 98.401C86.8904 98.9863 84.9005 101.756 82.0913 101.561C83.652 99.4154 86.3051 98.479 89.7386 98.401Z" fill="#231F20"/>
	<path d="M90.9872 102.849C88.6462 103.083 85.915 103.473 83.574 103.278C84.7055 101.561 88.9973 102.186 90.9872 102.849Z" fill="#231F20"/>
	<path d="M91.8064 106.712C89.1922 106.751 85.9539 106.712 83.4568 106.516C84.9394 104.917 90.1287 105.931 91.8064 106.712Z" fill="#231F20"/>
	<path d="M71.1277 117.246C71.5179 120.524 72.8054 123.84 72.6494 127.429C71.2057 127.898 70.3864 128.327 68.4355 128.327C68.3185 125.284 67.8893 120.602 68.0064 117.675C68.9428 117.753 70.3474 117.012 71.1277 117.246Z" fill="#DCD9D8"/>
	<path d="M66.9137 68.8652C65.5872 69.7236 64.4947 70.7771 63.2071 71.7135C60.3979 71.8695 58.8763 71.5184 56.8474 69.9187C56.8864 69.8016 57.0815 69.8407 57.0815 69.6846C60.0858 71.0112 63.9095 69.1384 66.9137 68.8652Z" fill="#F0D6B7"/>
	<path d="M51.229 89.271C52.0484 85.7205 55.2867 83.8477 58.213 81.8969C61.2173 85.7205 63.0511 90.6366 65.08 95.3967C60.2809 93.953 55.4038 91.651 51.229 89.271Z" fill="#81B0C4"/>
	<path d="M68.0062 117.714C67.8892 120.641 68.2793 125.284 68.4354 128.366C70.3862 128.366 71.2056 127.937 72.6492 127.468C72.8053 123.879 71.5177 120.562 71.1276 117.285C70.3472 117.012 68.9426 117.753 68.0062 117.714ZM37.8853 101.171C39.1728 112.915 41.0066 122.747 44.4011 133.165C51.9313 135.467 60.9832 135.662 67.6551 133.594C66.4456 127.742 66.9528 120.602 66.2505 114.32C65.7042 109.599 65.9774 104.878 65.236 100.079C57.1596 98.401 45.7667 99.6885 37.8853 101.171ZM67.1479 100.157C67.0698 105.19 67.382 110.184 67.7721 115.217C69.723 114.944 71.0105 114.749 72.8053 114.32C72.22 109.482 72.2981 103.98 71.0886 99.6885C69.723 99.7275 68.5134 99.6885 67.1479 100.157ZM76.9411 99.3374C76.0047 99.1423 74.9512 99.3374 74.0928 99.3374C74.522 103.434 75.4974 107.96 75.8486 112.291C77.2142 112.33 77.9555 111.667 79.087 111.472C79.165 107.687 78.7749 102.459 76.9411 99.3374ZM91.8065 112.915C94.6937 112.213 96.4885 108.701 95.6691 105.073C95.1229 102.654 94.1865 98.0498 93.133 96.4892C92.3917 95.3577 90.3238 93.836 88.6461 94.8895C85.9539 96.6062 81.2329 97.1134 79.2821 99.1813C80.2575 102.459 80.5696 106.907 80.9598 111.042C84.3152 111.237 88.412 110.106 91.2212 111.316C89.2704 111.94 86.7733 111.94 85.0956 112.876C86.5002 113.539 89.6996 113.422 91.8065 112.915ZM65.041 95.3967C63.0121 90.6366 61.1783 85.7205 58.174 81.8969C55.2477 83.8477 52.0484 85.7205 51.19 89.271C55.4038 91.6511 60.2809 93.9531 65.041 95.3967ZM70.0351 80.6874C69.84 85.4474 69.2938 91.6901 68.0452 95.3967C71.0495 91.534 73.5076 87.0861 76.0437 82.7162C74.9512 80.9605 72.6882 79.4388 70.0351 80.6874ZM64.3777 78.6975C63.2462 78.5805 62.2708 80.0241 60.7881 79.3998C60.437 79.79 60.1248 80.1801 59.7737 80.5703C63.0511 84.55 64.5728 90.1684 67.1088 94.8114C68.4744 90.3245 68.3184 85.4474 68.6305 80.5703C66.7577 80.6483 65.7042 78.8146 64.3777 78.6975ZM60.7491 73.8984C60.6321 75.264 60.9442 75.6932 61.2173 77.2539C65.6652 78.6585 64.9239 71.1283 60.7491 73.8984ZM55.794 72.2597C53.8822 71.2063 50.9949 70.0748 48.4978 69.6066C45.4155 69.0213 45.7276 73.8204 45.8447 76.6686C45.9617 78.9316 47.1322 81.3116 47.6395 82.8333C47.8736 83.5356 47.9516 84.2769 48.5369 84.433C49.5903 84.6671 53.1018 83.3015 54.0772 82.7552C56.1841 81.6238 57.8228 79.79 59.6176 78.5414C59.6566 77.9562 59.6566 77.3319 59.6957 76.7467C58.6032 76.2004 57.3937 75.8493 55.794 75.7712C56.8474 75.225 58.4471 75.225 59.4225 74.6007C59.4225 74.3666 59.4225 74.1325 59.4616 73.8984C57.6668 73.7034 57.0035 72.923 55.794 72.2597ZM37.4561 68.9433C35.8564 70.582 41.943 72.767 43.8548 72.884C43.8548 71.8696 44.4401 70.8941 44.323 70.1528C42.0211 69.7627 39.0168 70.0358 37.4561 68.9433ZM57.1205 69.6846C57.1205 69.8407 56.9255 69.8017 56.8864 69.9187C58.9543 71.5184 60.476 71.8696 63.2462 71.7135C64.4947 70.8161 65.6262 69.7236 66.9528 68.8653C63.9095 69.1384 60.0858 71.0112 57.1205 69.6846ZM75.1463 75.147C75.0683 73.3522 74.6001 69.6456 73.4686 68.9823C71.1276 67.6167 66.9918 71.7525 65.236 72.3768C65.4311 72.923 65.7433 73.3522 65.7823 74.0545C66.8357 73.7814 68.0843 73.9765 68.9816 74.4057C67.9282 74.5227 66.7967 74.5227 66.0944 75.0299C65.8603 75.7712 66.1724 76.7467 65.9774 77.7611C68.4354 78.4634 71.2836 78.8146 74.405 78.9316C74.9902 78.1513 75.2243 76.6686 75.1463 75.147ZM34.7639 70.504C34.2567 70.1528 30.8623 65.7439 30.3941 65.939C24.2684 68.3581 18.533 72.5329 13.4218 76.5126C18.2989 87.0081 20.2887 99.8446 20.6399 112.213C26.2193 114.827 31.1354 118.612 38.7436 119.002C37.8463 112.798 37.0659 107.219 36.5587 101.366C34.6469 100.547 31.9157 101.405 30.1209 101.132C30.1209 98.9862 32.8521 100.196 33.0862 98.7521C33.2423 97.6597 31.5646 97.5816 32.1108 95.8649C33.5154 96.3721 34.2567 97.5036 35.7394 97.9328C37.1049 94.9675 35.7394 89.7002 35.9344 87.2032C35.9735 86.735 36.1685 84.6281 37.222 84.9792C38.1584 85.2913 37.183 90.6366 37.261 92.9776C37.339 95.1626 36.9879 97.2305 37.8853 98.5961C45.2204 97.5816 52.6726 96.9574 60.6321 96.7233C58.8763 95.9819 56.8084 95.2796 54.5454 93.9921C53.2969 93.2898 49.4342 91.8462 49.0831 90.6757C48.4978 88.8028 50.5657 87.8274 50.9169 86.2277C47.2103 88.2566 46.508 84.2769 45.6106 81.5067C44.8303 78.9706 44.3621 77.0588 44.167 75.6152C40.9286 73.9765 37.4951 72.4548 34.7639 70.504ZM71.9079 66.4462C77.0191 63.9882 77.9555 75.6932 75.9266 79.4778C76.2388 80.6093 77.2922 81.0385 77.7214 82.0529C74.8732 87.1641 71.7128 91.9242 68.7866 96.9574C70.9325 95.5918 74.0538 96.7233 76.5899 95.7088C77.5263 95.3577 78.1896 93.2117 78.8919 91.495C80.8427 86.813 82.8716 80.8824 83.769 76.4345C83.9641 75.4201 84.5493 73.1961 84.3933 72.2988C84.1592 70.66 81.9742 69.4505 80.8427 68.4751C78.7749 66.6023 77.4873 65.0026 75.3024 63.2469C74.483 64.5344 72.6102 65.3928 71.9079 66.4462ZM23.0979 21.1478C20.6789 23.8399 21.1861 28.8341 21.4592 32.4236C25.8681 29.6534 31.6816 32.6577 31.6426 37.3397C33.7495 37.3007 32.4229 34.7256 32.0328 33.0479C30.7842 27.6245 34.1397 21.772 32.1888 16.8169C28.4042 17.129 25.3219 18.6507 23.0979 21.1478ZM40.4994 5.58006C34.998 7.14073 27.936 11.1595 25.673 16.1146C27.4288 15.8415 28.6383 14.9831 30.355 14.8661C31.0183 14.827 31.8767 15.1392 32.618 14.9441C34.1006 14.5539 35.3882 11.1985 36.5197 9.94994C37.6122 8.74042 38.9387 8.19418 39.8361 7.10171C40.4214 6.8286 41.2797 6.8286 41.3188 5.97023C41.0847 5.69711 40.8115 5.50203 40.4994 5.58006ZM69.1767 7.0627C63.4413 3.82431 53.7651 1.40526 47.6785 4.44857C42.7624 6.90663 36.1295 10.9644 33.8665 16.0756C35.9735 21.0307 33.2423 25.5566 33.0472 30.5898C32.9692 33.282 34.2957 35.584 34.4128 38.5102C33.6715 39.7197 31.4865 39.8368 29.9649 39.7588C29.4576 37.1836 28.5603 34.2964 25.9071 33.9843C22.1615 33.5551 19.3913 36.6764 19.2353 39.9148C19.0402 43.7385 22.1615 50.0592 26.6094 49.63C28.3262 49.4739 28.7553 47.7572 30.6282 47.7572C31.6426 49.7861 29.0675 50.4103 28.7944 51.854C28.7163 52.2441 28.9895 53.6877 29.1845 54.39C30.0039 57.7065 31.7987 62.0373 33.5544 64.5734C35.8174 67.8118 40.2263 68.28 44.9863 68.5922C45.8447 66.7584 48.966 66.9144 50.9949 67.3826C48.5369 66.4072 46.2739 64.0662 44.4011 61.9983C42.2552 59.6183 40.0702 57.0822 39.9532 53.9609C44.0499 59.6183 47.4054 64.5734 54.8186 67.0705C60.437 68.9433 66.9918 66.2121 71.3227 63.1688C73.1174 61.9203 74.1709 59.8914 75.4584 58.0966C80.2185 51.2297 82.4424 41.4755 81.9742 31.9944C81.7791 28.0927 81.7791 24.1911 80.4526 21.5769C79.087 18.8458 74.444 16.3487 71.7128 18.8458C71.2056 16.1536 73.9758 14.5149 77.2142 15.4903C74.9122 12.486 72.4932 8.9355 69.1767 7.0627ZM79.8673 95.2796C84.3543 93.0557 92.7038 89.3101 95.474 95.2796C96.5275 97.5036 97.737 101.21 98.2442 103.512C98.9855 106.712 97.4249 113.5 94.1085 114.554C91.1822 115.49 87.7877 115.451 84.2762 114.749C83.847 114.398 83.4179 113.813 83.0667 113.188C80.5696 113.11 78.1896 113.305 76.2388 114.359C76.4338 116.232 75.1853 116.505 73.9758 116.895C73.1174 120.367 75.7315 124.893 75.1073 128.015C74.6781 130.278 71.9079 130.629 69.879 131.019C69.801 132.268 69.9571 133.321 70.1131 134.374C69.6449 136.091 67.577 137.067 65.5872 137.301C59.0714 138.081 49.2001 138.432 42.9575 136.169C41.2017 131.877 39.8361 126.688 38.3925 121.811C32.3059 122.474 27.3507 119.197 22.7077 117.012C21.1081 116.271 18.8841 115.841 18.2598 114.554C17.6746 113.305 17.9087 110.925 17.7526 108.701C17.4015 102.966 17.0503 97.4256 15.5677 91.573C14.9044 88.9199 13.6949 86.6179 12.8755 84.0818C12.0952 81.7408 10.7686 78.8146 10.4175 76.4735C9.91025 73.0011 13.1877 72.806 15.2555 71.2843C18.4939 68.9433 21.03 67.6558 24.5415 65.5488C25.595 64.9246 28.7163 63.3639 29.0675 62.6226C29.7698 61.179 27.858 59.1501 27.3507 58.0186C26.5314 56.2238 26.1022 54.7022 25.9852 52.9464C23.0589 52.4782 20.7959 50.7225 19.4694 48.7716C17.2454 45.4942 15.6847 39.4466 17.6356 34.8817C17.7916 34.5305 18.533 33.7892 18.65 33.243C18.8841 32.1505 18.2208 30.7069 18.1818 29.5364C17.9867 23.5668 19.1962 18.4166 23.215 16.6218C24.8537 10.106 30.7062 7.96008 36.2076 4.72169C38.2754 3.51217 40.5384 2.73183 42.8794 1.87347C51.268 -1.20886 64.1826 -0.623608 71.1666 4.64366C74.1319 6.86761 78.8529 11.5886 80.5306 15.0221C85.0175 24.035 84.6664 39.1345 81.5451 50.1372C81.1159 51.6199 80.5306 53.7658 79.6722 55.5606C79.087 56.8091 77.2532 59.2671 77.4483 60.3596C77.6824 61.4911 81.6621 64.4954 82.5205 65.3147C84.0421 66.7974 86.9684 68.7482 87.2025 70.621C87.4756 72.6109 86.3441 75.3421 85.7589 77.2539C83.8861 83.6526 82.0132 89.5442 79.8673 95.2796Z" fill="#231F20"/>
	<path d="M50.0195 50.9566C50.2536 50.6444 51.5802 50.1372 53.453 51.0346C53.453 51.0346 51.2291 51.3857 51.4241 55.0923L50.4877 54.8973C50.5267 54.9363 49.5513 51.5808 50.0195 50.9566Z" fill="#F7E4CD"/>
	<path d="M66.1724 82.6382C66.1724 83.1844 65.7042 83.6526 65.158 83.6526C64.6118 83.6526 64.1436 83.1844 64.1436 82.6382C64.1436 82.092 64.6118 81.6238 65.158 81.6238C65.7432 81.6238 66.1724 82.092 66.1724 82.6382Z" fill="#1D1919"/>
	<path d="M67.1868 87.3593C67.1868 87.9055 66.7186 88.3737 66.1724 88.3737C65.6262 88.3737 65.158 87.9055 65.158 87.3593C65.158 86.8131 65.6262 86.3448 66.1724 86.3448C66.7576 86.3448 67.1868 86.774 67.1868 87.3593Z" fill="#1D1919"/>
	<path d="M14.0461 147.055C13.734 147.094 13.4608 147.133 13.2267 147.172C12.9926 147.211 12.7585 147.25 12.4464 147.328C12.0952 147.406 11.9002 147.562 11.8221 147.796C11.7441 148.03 11.6661 148.264 11.6661 148.576V158.096C11.6661 158.955 11.471 159.774 11.1198 160.515C10.7687 161.257 10.3005 161.842 9.67621 162.349C9.05194 162.817 8.34964 163.208 7.5693 163.442C6.78896 163.676 5.96961 163.832 5.11124 163.832C3.58959 163.832 2.38007 163.481 1.44367 162.739C0.507264 161.998 0.0390625 161.023 0.0390625 159.735C0.0390625 158.994 0.234146 158.37 0.663331 157.862C1.09252 157.355 1.67777 157.121 2.41909 157.121C3.12139 157.121 3.66762 157.316 4.09681 157.745C4.52599 158.174 4.72108 158.682 4.72108 159.267C4.72108 159.774 4.52599 160.281 4.17484 160.711C3.82369 161.14 3.39451 161.569 2.9263 161.92V162.076C3.00434 162.232 3.1604 162.388 3.39451 162.505C3.62861 162.622 3.90172 162.661 4.13582 162.661C5.11124 162.661 5.89158 162.31 6.43781 161.608C6.98405 160.906 7.25717 159.852 7.25717 158.448V148.693C7.25717 148.42 7.21815 148.147 7.14012 147.952C7.06208 147.757 6.82798 147.601 6.47683 147.445C6.24273 147.328 5.9306 147.25 5.57944 147.172C5.22829 147.094 4.95518 147.055 4.72108 147.016V146.079H13.929V147.055H14.0461Z" fill="#F5F5F5"/>
	<path d="M28.4823 160.476C28.2092 160.945 27.858 161.374 27.4679 161.803C27.0777 162.232 26.6095 162.544 26.1023 162.856C25.556 163.169 25.0098 163.403 24.4636 163.559C23.9173 163.715 23.2541 163.793 22.5518 163.793C21.3422 163.793 20.3278 163.637 19.4304 163.286C18.572 162.934 17.8307 162.505 17.2845 161.92C16.6992 161.335 16.3091 160.672 15.9969 159.891C15.7238 159.111 15.5677 158.252 15.5677 157.355C15.5677 156.536 15.7238 155.716 16.0359 154.975C16.3481 154.234 16.7773 153.531 17.3235 152.946C17.8697 152.361 18.572 151.893 19.4304 151.542C20.2888 151.19 21.2252 150.995 22.2396 150.995C23.3711 150.995 24.3075 151.151 25.0488 151.425C25.7901 151.698 26.3754 152.088 26.8436 152.556C27.3118 153.024 27.6239 153.57 27.858 154.195C28.0531 154.819 28.1702 155.482 28.1702 156.185V156.965H19.9376C19.9376 158.643 20.2498 159.891 20.913 160.75C21.5373 161.608 22.5908 162.037 23.9564 162.037C24.7367 162.037 25.4 161.842 26.0242 161.413C26.6485 160.984 27.1557 160.476 27.5849 159.813L28.4823 160.476ZM23.8393 155.833C23.8393 155.365 23.8003 154.858 23.7613 154.351C23.7223 153.844 23.6442 153.414 23.4882 153.102C23.3321 152.712 23.176 152.439 22.9029 152.244C22.6688 152.049 22.3567 151.971 22.0055 151.971C21.3812 151.971 20.874 152.283 20.5229 152.907C20.1327 153.531 19.9376 154.546 19.8986 155.911L23.8393 155.833Z" fill="#F5F5F5"/>
	<path d="M45.6887 163.364H38.3535V162.466C38.5096 162.466 38.7047 162.427 38.8998 162.388C39.1339 162.349 39.2899 162.31 39.407 162.271C39.5631 162.193 39.6801 162.037 39.7581 161.881C39.8362 161.725 39.8752 161.452 39.8752 161.14V155.443C39.8752 154.624 39.7191 154 39.407 153.57C39.0949 153.141 38.6657 152.946 38.0414 152.946C37.7293 152.946 37.4171 152.985 37.144 153.102C36.8709 153.18 36.5978 153.336 36.3247 153.531C36.0906 153.688 35.8955 153.844 35.7394 154.039C35.5834 154.195 35.4663 154.351 35.3883 154.507V161.023C35.3883 161.296 35.4273 161.53 35.5053 161.725C35.5834 161.92 35.7394 162.076 35.8955 162.154C36.0125 162.232 36.1686 162.31 36.3637 162.349C36.5588 162.388 36.7539 162.427 36.9489 162.466V163.364H29.5358V162.466C29.7308 162.466 29.9259 162.427 30.16 162.388C30.3551 162.349 30.5502 162.31 30.7063 162.271C30.9794 162.193 31.1354 162.037 31.2525 161.842C31.3305 161.647 31.4086 161.413 31.4086 161.101V154C31.4086 153.766 31.3305 153.492 31.2135 153.258C31.0964 153.024 30.9013 152.829 30.7063 152.673C30.5502 152.595 30.3941 152.478 30.16 152.439C29.9259 152.361 29.6918 152.322 29.4187 152.322V151.425L35.2322 151.112L35.4273 151.308V153.063H35.4663C35.7004 152.868 35.9735 152.634 36.2857 152.322C36.5978 152.049 36.9099 151.815 37.183 151.62C37.4952 151.425 37.8853 151.269 38.3535 151.112C38.8217 150.956 39.368 150.917 39.9142 150.917C41.2408 150.917 42.2162 151.308 42.8795 152.049C43.5428 152.79 43.8549 153.805 43.8549 155.053V161.023C43.8549 161.335 43.8939 161.569 43.972 161.725C44.05 161.92 44.2451 162.037 44.4792 162.154C44.5962 162.193 44.7523 162.271 44.9474 162.31C45.1425 162.349 45.3375 162.388 45.6107 162.427V163.364H45.6887Z" fill="#F5F5F5"/>
	<path d="M62.4658 163.364H56.7303C56.028 162.115 55.3647 161.062 54.7795 160.203C54.1942 159.345 53.648 158.526 53.1408 157.823L52.4385 158.447V161.101C52.4385 161.374 52.4775 161.647 52.5555 161.803C52.6336 161.998 52.7896 162.115 53.0628 162.232C53.2188 162.31 53.3749 162.349 53.57 162.388C53.7651 162.427 53.9601 162.466 54.1552 162.466V163.364H46.586V162.466C46.7811 162.466 46.9761 162.427 47.2102 162.388C47.4053 162.349 47.6004 162.31 47.7565 162.271C48.0296 162.193 48.1857 162.037 48.3027 161.842C48.3807 161.647 48.4588 161.413 48.4588 161.101V147.523C48.4588 147.25 48.3807 146.977 48.2637 146.703C48.1466 146.43 47.9906 146.196 47.7565 146.04C47.6004 145.962 47.3663 145.845 47.0542 145.806C46.742 145.728 46.4689 145.689 46.1958 145.689V144.792L52.2434 144.479L52.4385 144.675V157.238C53.0237 156.692 53.726 156.067 54.4674 155.365C55.2087 154.663 55.8329 154.078 56.2621 153.609C56.5352 153.336 56.6913 153.141 56.6913 152.985C56.7303 152.829 56.7303 152.751 56.7303 152.712C56.7303 152.556 56.6133 152.439 56.3402 152.361C56.067 152.283 55.7159 152.166 55.1697 152.088V151.229H61.3343V152.088C60.515 152.322 59.8907 152.517 59.4615 152.712C59.0323 152.907 58.5641 153.18 58.0569 153.492C57.7058 153.726 57.3936 153.961 57.0815 154.195C56.7693 154.429 56.4182 154.741 55.989 155.092C56.7694 156.263 57.5107 157.316 58.174 158.291C58.8372 159.267 59.5395 160.32 60.2809 161.413C60.515 161.803 60.8271 162.037 61.2173 162.193C61.6074 162.31 61.9586 162.388 62.3487 162.427V163.364H62.4658Z" fill="#F5F5F5"/>
	<path d="M70.2692 163.364H62.5829V162.466C62.778 162.466 63.0121 162.427 63.2072 162.388C63.4022 162.349 63.5973 162.31 63.7144 162.271C63.9875 162.193 64.1436 162.037 64.2606 161.842C64.3777 161.647 64.4167 161.413 64.4167 161.101V154C64.4167 153.727 64.3386 153.453 64.2216 153.258C64.1045 153.024 63.9485 152.868 63.7534 152.751C63.5973 152.673 63.4022 152.556 63.0901 152.478C62.778 152.4 62.5049 152.322 62.2708 152.322V151.425L68.2403 151.112L68.4354 151.307V160.984C68.4354 161.257 68.5134 161.491 68.6305 161.725C68.7475 161.92 68.9426 162.076 69.1377 162.154C69.2938 162.232 69.4889 162.31 69.6839 162.349C69.879 162.388 70.0741 162.427 70.3082 162.466V163.364H70.2692ZM68.5134 146.782C68.5134 147.406 68.2793 147.913 67.8111 148.342C67.3429 148.771 66.7577 149.005 66.1334 149.005C65.4701 149.005 64.9239 148.771 64.4167 148.342C63.9485 147.913 63.7144 147.367 63.7144 146.782C63.7144 146.157 63.9485 145.65 64.4167 145.182C64.8849 144.753 65.4701 144.519 66.1334 144.519C66.7967 144.519 67.3429 144.753 67.8111 145.182C68.2793 145.611 68.5134 146.157 68.5134 146.782Z" fill="#F5F5F5"/>
	<path d="M87.4756 163.364H80.1404V162.466C80.2965 162.466 80.4916 162.427 80.6866 162.388C80.9207 162.349 81.0768 162.31 81.1939 162.271C81.3499 162.193 81.467 162.037 81.545 161.881C81.623 161.725 81.6621 161.452 81.6621 161.14V155.443C81.6621 154.624 81.506 154 81.1939 153.57C80.8817 153.141 80.4525 152.946 79.8283 152.946C79.5161 152.946 79.204 152.985 78.9309 153.102C78.6578 153.219 78.3847 153.336 78.1115 153.531C77.8774 153.688 77.6824 153.844 77.5263 154.039C77.3702 154.195 77.2532 154.351 77.1751 154.507V161.023C77.1751 161.296 77.2141 161.53 77.2922 161.725C77.3702 161.92 77.5263 162.076 77.6823 162.154C77.7994 162.232 77.9555 162.31 78.1505 162.349C78.3456 162.388 78.5407 162.427 78.7358 162.466V163.364H71.3226V162.466C71.5177 162.466 71.7128 162.427 71.9469 162.388C72.142 162.349 72.3371 162.31 72.4931 162.271C72.7662 162.193 72.9223 162.037 73.0394 161.842C73.1174 161.647 73.1954 161.413 73.1954 161.101V154C73.1954 153.766 73.1174 153.492 73.0003 153.258C72.8833 153.024 72.6882 152.829 72.4931 152.673C72.3371 152.595 72.181 152.478 71.9469 152.439C71.7128 152.361 71.4787 152.322 71.2056 152.322V151.425L77.0191 151.112L77.2141 151.308V153.063H77.2532C77.4873 152.868 77.7604 152.634 78.0725 152.322C78.3847 152.049 78.6968 151.815 78.9699 151.62C79.282 151.425 79.6722 151.269 80.1404 151.112C80.6086 150.956 81.1548 150.917 81.7011 150.917C83.0276 150.917 84.0031 151.308 84.6663 152.049C85.3296 152.79 85.6418 153.805 85.6418 155.053V161.023C85.6418 161.335 85.6808 161.569 85.7588 161.725C85.8369 161.92 86.0319 162.037 86.266 162.154C86.3831 162.193 86.5392 162.271 86.7342 162.31C86.9293 162.349 87.1244 162.388 87.3975 162.427V163.364H87.4756Z" fill="#F5F5F5"/>
	<path d="M94.2255 163.793C93.4452 163.793 92.6648 163.676 91.9235 163.442C91.1822 163.208 90.5969 162.974 90.1677 162.7L89.8166 163.52H88.8802L88.7241 158.994H89.6215C89.7386 159.345 89.9336 159.774 90.2458 160.242C90.5189 160.711 90.87 161.101 91.2212 161.491C91.6114 161.842 92.0405 162.154 92.5478 162.427C93.055 162.661 93.5622 162.817 94.1084 162.817C94.8498 162.817 95.396 162.661 95.7471 162.388C96.0983 162.115 96.2934 161.647 96.2934 161.062C96.2934 160.75 96.2153 160.476 96.0593 160.242C95.9032 160.047 95.6691 159.852 95.396 159.696C95.0839 159.54 94.7327 159.384 94.3425 159.267C93.9524 159.15 93.4842 159.033 92.9379 158.838C92.3917 158.682 91.9235 158.526 91.5333 158.331C91.1432 158.174 90.714 157.901 90.3238 157.55C89.9727 157.238 89.6605 156.848 89.4654 156.419C89.2313 155.99 89.1533 155.443 89.1533 154.819C89.1533 153.688 89.6215 152.751 90.5969 152.049C91.5724 151.347 92.8209 150.995 94.3816 150.995C95.1229 150.995 95.7862 151.073 96.4104 151.229C97.0347 151.386 97.5419 151.542 97.9711 151.737L98.2442 151.034H99.1806L99.3757 155.17H98.5173C98.2442 154.312 97.737 153.609 97.0737 152.985C96.3714 152.361 95.6301 152.049 94.8498 152.049C94.2255 152.049 93.7183 152.166 93.3671 152.439C93.016 152.712 92.8209 153.063 92.8209 153.531C92.8209 154.156 93.094 154.585 93.6012 154.858C94.1084 155.131 94.8498 155.404 95.7862 155.638C97.2298 156.029 98.2832 156.536 98.9855 157.16C99.6488 157.823 100 158.643 100 159.618C100 160.945 99.4928 161.998 98.4393 162.7C97.2688 163.403 95.9032 163.793 94.2255 163.793Z" fill="#F5F5F5"/>
</svg>
