<svg xmlns="http://www.w3.org/2000/svg" width="100" height="100" viewBox="0 0 100 98" fill="none">
  <path d="M49.6628 1.75209C48.8032 1.79539 47.961 2.00851 47.1856 2.37895L13.3826 18.5304C12.5077 18.9482 11.739 19.5562 11.1335 20.3091C10.528 21.062 10.1013 21.9406 9.88514 22.8795L1.5457 59.1597C1.35313 59.9956 1.33158 60.8614 1.48232 61.7057C1.63307 62.55 1.95304 63.3557 2.42331 64.0752C2.53734 64.2511 2.65998 64.4213 2.79078 64.5854L26.1879 93.6761C26.7935 94.4288 27.5623 95.0366 28.4373 95.4542C29.3122 95.8719 30.2707 96.0886 31.2417 96.0884L68.7627 96.0798C69.7333 96.0805 70.6916 95.8644 71.5665 95.4475C72.4414 95.0307 73.2104 94.4237 73.8165 93.6718L97.2049 64.5767C97.8109 63.8236 98.2379 62.9447 98.4542 62.0054C98.6705 61.0661 98.6705 60.0904 98.4543 59.1511L90.1019 22.8709C89.8858 21.932 89.4591 21.0534 88.8536 20.3005C88.2481 19.5475 87.4794 18.9396 86.6045 18.5217L52.7971 2.37895C51.8218 1.91297 50.744 1.69742 49.6628 1.75209Z" fill="#326CE5"/>
  <path d="M49.9977 14.0988C48.8803 14.0989 47.9743 15.1053 47.9744 16.3468C47.9744 16.3659 47.9783 16.3841 47.9787 16.403C47.9771 16.5717 47.9689 16.7749 47.9744 16.9218C48.001 17.6379 48.1571 18.1859 48.2511 18.8456C48.4213 20.2576 48.5639 21.4281 48.4759 22.516C48.3903 22.9262 48.0881 23.3014 47.8188 23.5622L47.7712 24.4182C46.557 24.5188 45.3347 24.703 44.1138 24.9802C38.8603 26.173 34.3371 28.8791 30.8935 32.5328C30.67 32.3804 30.2791 32.1 30.1628 32.0141C29.8016 32.0628 29.4365 32.1743 28.961 31.8973C28.0556 31.2878 27.2309 30.4466 26.2331 29.4331C25.7758 28.9483 25.4447 28.4867 24.9015 28.0194C24.7782 27.9133 24.5899 27.7698 24.4519 27.6606C24.0272 27.322 23.5263 27.1454 23.0425 27.1289C22.4206 27.1076 21.8218 27.3507 21.43 27.8422C20.7334 28.7159 20.9564 30.0512 21.9272 30.8252C21.937 30.833 21.9475 30.8391 21.9574 30.8468C22.0908 30.9549 22.2542 31.0935 22.3768 31.184C22.9532 31.6096 23.4798 31.8275 24.0542 32.1654C25.2642 32.9127 26.2674 33.5323 27.0631 34.2794C27.3738 34.6106 27.4281 35.1943 27.4695 35.4467L28.118 36.026C24.6465 41.2503 23.0399 47.7034 23.9893 54.2785L23.142 54.5249C22.9187 54.8133 22.6031 55.2671 22.273 55.4025C21.232 55.7304 20.0603 55.8508 18.6459 55.9991C17.9818 56.0543 17.4088 56.0214 16.7047 56.1548C16.5498 56.1841 16.3339 56.2404 16.1643 56.2801C16.1585 56.2814 16.1529 56.2831 16.1471 56.2845C16.1378 56.2866 16.1257 56.2911 16.1168 56.2931C14.9243 56.5812 14.1582 57.6773 14.4048 58.7573C14.6515 59.8375 15.8163 60.4944 17.016 60.2358C17.0247 60.2339 17.0373 60.2335 17.0463 60.2315C17.0598 60.2284 17.0717 60.2219 17.0852 60.2186C17.2524 60.1819 17.462 60.141 17.6083 60.1018C18.3005 59.9165 18.8018 59.6442 19.424 59.4058C20.7628 58.9257 21.8715 58.5245 22.9518 58.3682C23.4029 58.3329 23.8782 58.6466 24.1147 58.7789L24.9966 58.6276C27.0261 64.9198 31.2793 70.0056 36.6649 73.1968L36.2974 74.0787C36.4299 74.4212 36.576 74.8845 36.4773 75.2227C36.0846 76.2411 35.412 77.316 34.646 78.5143C34.2751 79.0679 33.8955 79.4976 33.5609 80.1312C33.4808 80.2828 33.3788 80.5157 33.3015 80.6759C32.7815 81.7885 33.1629 83.07 34.1618 83.5508C35.167 84.0347 36.4146 83.5244 36.9546 82.4095C36.9554 82.4079 36.9581 82.4068 36.9589 82.4052C36.9594 82.4039 36.9583 82.4021 36.9589 82.4009C37.0358 82.2428 37.1448 82.035 37.2096 81.8864C37.4963 81.2297 37.5917 80.6669 37.7933 80.0318C38.3286 78.6871 38.6227 77.2761 39.3597 76.3969C39.5615 76.1562 39.8904 76.0636 40.2315 75.9723L40.6898 75.1422C45.3849 76.9444 50.6403 77.428 55.8901 76.236C57.0878 75.9641 58.244 75.6122 59.3617 75.1898C59.4905 75.4182 59.7298 75.8574 59.794 75.968C60.1406 76.0807 60.519 76.139 60.8272 76.5948C61.3786 77.5368 61.7556 78.6512 62.215 79.9972C62.4166 80.6323 62.5162 81.1951 62.8029 81.8518C62.8683 82.0015 62.9767 82.2122 63.0537 82.3706C63.5925 83.4891 64.8441 84.0012 65.8508 83.5163C66.8495 83.0351 67.2314 81.7538 66.7111 80.6413C66.6338 80.4811 66.5275 80.2482 66.4474 80.0966C66.1127 79.463 65.7332 79.0377 65.3623 78.4841C64.5962 77.2858 63.9609 76.2903 63.5681 75.2719C63.4039 74.7467 63.5958 74.4201 63.7238 74.0787C63.6472 73.9909 63.4832 73.4949 63.3866 73.2616C68.9835 69.9569 73.1118 64.6815 75.0505 58.5887C75.3123 58.6299 75.7674 58.7104 75.9152 58.74C76.2195 58.5394 76.4992 58.2775 77.0478 58.3207C78.1281 58.4769 79.2368 58.8782 80.5756 59.3583C81.1979 59.5966 81.6991 59.8733 82.3913 60.0586C82.5376 60.0978 82.7472 60.1343 82.9144 60.171C82.9279 60.1743 82.9398 60.1809 82.9533 60.184C82.9624 60.186 82.9749 60.1863 82.9836 60.1883C84.1833 60.4466 85.3484 59.7901 85.5948 58.7098C85.8411 57.6297 85.0754 56.5334 83.8828 56.2456C83.7093 56.2061 83.4633 56.1391 83.2949 56.1072C82.5908 55.9739 82.0178 56.0068 81.3537 55.9516C79.9393 55.8034 78.7676 55.6828 77.7266 55.355C77.3021 55.1903 77.0001 54.6852 76.8533 54.4774L76.0362 54.2396C76.4598 51.1747 76.3456 47.985 75.6125 44.7934C74.8726 41.5722 73.565 38.626 71.8211 36.0303C72.0307 35.8398 72.4265 35.4893 72.5387 35.3862C72.5716 35.0231 72.5434 34.6425 72.9192 34.2405C73.7148 33.4934 74.7181 32.8738 75.9281 32.1265C76.5025 31.7886 77.0334 31.5707 77.6098 31.1451C77.7402 31.0489 77.9182 30.8964 78.0551 30.7863C79.0257 30.0121 79.2491 28.6768 78.5523 27.8033C77.8555 26.9298 76.5052 26.8475 75.5347 27.6217C75.3966 27.7311 75.2091 27.8738 75.0851 27.9805C74.5419 28.4478 74.2064 28.9094 73.7492 29.3942C72.7514 30.4077 71.9267 31.2532 71.0213 31.8628C70.629 32.0912 70.0543 32.0121 69.7935 31.9968L69.024 32.5458C64.6359 27.9445 58.6615 25.0027 52.2284 24.4312C52.2104 24.1616 52.1869 23.6743 52.1809 23.5276C51.9175 23.2756 51.5993 23.0605 51.5194 22.516C51.4314 21.4281 51.5783 20.2576 51.7485 18.8456C51.8425 18.1859 51.9986 17.6379 52.0252 16.9218C52.0313 16.759 52.0216 16.5228 52.0209 16.3468C52.0208 15.1053 51.115 14.0986 49.9977 14.0988ZM47.4643 29.7919L46.8633 40.4054L46.8201 40.427C46.7798 41.3765 45.9984 42.1347 45.0389 42.1347C44.6459 42.1347 44.2832 42.0084 43.9884 41.7931L43.9711 41.8018L35.2685 35.6326C37.9432 33.0025 41.3643 31.0589 45.307 30.1637C46.0272 30.0002 46.7471 29.8789 47.4643 29.7919ZM52.5354 29.7919C57.1385 30.3581 61.3955 32.4424 64.6576 35.6369L56.0112 41.7672L55.9809 41.7542C55.2135 42.3147 54.1322 42.1757 53.534 41.4257C53.289 41.1184 53.1604 40.7571 53.1449 40.3924L53.1363 40.3881L52.5354 29.7919ZM32.1126 39.5969L40.0586 46.7043L40.05 46.7475C40.7672 47.371 40.873 48.453 40.2748 49.2031C40.0298 49.5103 39.7018 49.7164 39.3496 49.8126L39.341 49.8472L29.1555 52.787C28.6371 48.0467 29.7544 43.4387 32.1126 39.5969ZM67.8265 39.6013C69.0071 41.5149 69.9011 43.6522 70.4334 45.9693C70.9592 48.2586 71.0912 50.5439 70.8743 52.7524L60.637 49.804L60.6284 49.7608C59.7117 49.5102 59.1483 48.5777 59.3617 47.6424C59.4491 47.2592 59.6525 46.9351 59.928 46.6956L59.9237 46.674L67.8265 39.6013ZM48.3678 47.2533H51.6232L53.6464 49.7824L52.9201 52.9383L49.9977 54.3433L47.0665 52.934L46.3402 49.778L48.3678 47.2533ZM58.804 55.9083C58.9423 55.9013 59.0801 55.9138 59.2147 55.9386L59.232 55.917L69.7676 57.6981C68.2257 62.0301 65.2752 65.7829 61.3331 68.2943L57.2433 58.4158L57.2563 58.3985C56.8806 57.5256 57.2566 56.5019 58.1209 56.0856C58.3422 55.979 58.5734 55.92 58.804 55.9083ZM41.1092 55.9516C41.9132 55.9628 42.6343 56.5209 42.8212 57.3393C42.9086 57.7225 42.866 58.1021 42.7217 58.4374L42.752 58.4763L38.7055 68.2554C34.9222 65.8277 31.9088 62.1927 30.2969 57.7327L40.7417 55.9602L40.759 55.9818C40.8758 55.9603 40.9943 55.95 41.1092 55.9516ZM49.9328 60.2359C50.2129 60.2256 50.4971 60.283 50.7672 60.4131C51.1213 60.5836 51.3948 60.8521 51.567 61.174H51.6059L56.7548 70.4775C56.0866 70.7015 55.3996 70.8929 54.697 71.0525C50.7591 71.9466 46.8338 71.6757 43.2794 70.4645L48.4154 61.1783H48.424C48.7322 60.6022 49.3167 60.2585 49.9328 60.2359Z" fill="white" stroke="white" stroke-width="0.25"/>
</svg>
