<svg xmlns="http://www.w3.org/2000/svg" width="100" height="100" viewBox="0 0 100 30" fill="none">
  <g clip-path="url(#clip0_572_3404)">
    <path d="M2.17481 10.189V7.97837H0.294189V22.2646H2.27388V14.8077C2.27388 11.0471 3.59356 9.23212 6.69481 9.23212C9.20263 9.23212 10.357 10.6181 10.357 13.4552V22.2646H12.3698V12.5646C12.3698 9.29806 10.4233 7.45056 7.22294 7.45056C5.04513 7.45056 3.36263 8.3415 2.17481 10.189Z" fill="url(#paint0_linear_572_3404)"/>
    <path d="M14.3574 15.2699C14.3574 19.8231 17.1949 22.8915 21.3849 22.8915C24.453 22.8915 26.499 21.5718 27.9505 18.6681L26.1359 17.6784C25.0805 19.9549 23.4965 21.1099 21.3849 21.1099C18.5146 21.1099 16.6009 18.9321 16.5018 15.1709H27.8518C28.0168 10.4196 25.344 7.45056 21.319 7.45056C17.2274 7.45056 14.3574 10.519 14.3574 15.2699ZM21.0549 9.364C23.6943 9.364 25.3109 10.8487 25.509 13.4884H16.634C16.8977 10.9474 18.7124 9.364 21.0549 9.364Z" fill="url(#paint1_linear_572_3404)"/>
    <path d="M56.1418 7.97839V15.105C56.1418 19.1631 55.1518 21.0437 52.0503 21.0437C48.949 21.0437 47.9921 19.1959 47.9921 15.105V7.97839H46.0125V16.1278C46.0125 20.5818 48.1243 22.8915 52.0834 22.8915C56.0428 22.8915 58.1212 20.5818 58.1212 16.1278V7.97839H56.1418Z" fill="url(#paint2_linear_572_3404)"/>
    <path d="M60.4743 11.5747C60.4743 13.6203 61.8599 14.6762 64.5321 15.7319C66.6112 16.5562 67.9309 16.9194 67.9309 18.7012C67.9309 20.0869 66.9077 21.0437 65.1924 21.0437C63.4765 21.0437 62.289 20.2519 61.6621 18.6353L59.7815 19.7237C60.5399 21.7034 62.3218 22.8915 64.7962 22.8915C68.0296 22.8915 69.9765 21.1428 69.9765 18.5694C69.9765 15.9297 68.6565 15.039 65.9843 14.1153C63.7402 13.3562 62.5859 12.7956 62.5859 11.3772C62.5859 10.189 63.5756 9.26498 64.9612 9.26498C66.479 9.26498 67.5677 9.99092 68.0296 11.3437L69.844 10.3209C69.1184 8.50654 67.4687 7.41748 65.0934 7.41748C62.3218 7.41748 60.4743 9.16623 60.4743 11.5747Z" fill="url(#paint3_linear_572_3404)"/>
    <path d="M28.4741 8.96365L34.2832 14.7833L35.7747 14.7768L35.781 13.2843L29.9554 7.4574L28.4741 8.96365Z" fill="url(#paint4_linear_572_3404)"/>
    <path d="M38.2477 14.7833L44.0561 8.96365L42.5599 7.4574L36.7349 13.2836L36.7411 14.7768L38.2477 14.7833Z" fill="url(#paint5_linear_572_3404)"/>
    <path d="M34.2832 15.6042L28.5532 21.3446L30.0342 22.8511L35.781 17.1036L35.7748 15.6105L34.2832 15.6042Z" fill="url(#paint6_linear_572_3404)"/>
    <path d="M36.6083 15.6105L36.6021 17.1036L42.348 22.8511L43.8446 21.3446L38.1149 15.6042L36.6083 15.6105Z" fill="url(#paint7_linear_572_3404)"/>
    <path d="M76.0701 28.929H76.3192V0.903076H76.0701V28.929Z" fill="#A49E9D"/>
    <path d="M99.5937 1.88836C99.2502 1.96711 98.7918 2.14586 98.3643 2.29836C95.1806 3.43305 92.3731 4.71399 89.4818 6.44368C87.5196 7.61774 85.4212 8.91743 83.9702 10.7249C83.4937 11.3199 82.9362 12.2699 83.1502 13.0937C83.4968 14.424 85.8615 14.6196 87.8421 14.4599C89.7362 14.3077 91.8171 13.8199 93.4446 13.8684C94.7977 13.9084 95.8543 14.3818 96.1774 15.3718C96.6593 16.8462 94.7368 18.7249 94.1284 19.3337C91.0231 22.4396 87.2096 24.1252 82.9221 26.0759C86.3818 24.9212 89.409 23.6606 92.4884 21.8856C94.614 20.6593 96.8259 19.304 98.4096 17.4668C98.8837 16.9174 99.5949 15.8934 99.4577 15.0521C99.1265 13.0343 95.0371 13.4152 92.8071 13.6856C91.619 13.8299 90.3131 14.1634 89.0262 14.0956C87.8159 14.0321 86.5334 13.5712 86.3393 12.5924C85.9977 10.8762 87.9084 9.11399 88.6615 8.40211C91.5637 5.65868 95.4037 3.69086 99.3665 2.02493C99.4277 1.9993 99.7693 1.87024 99.6956 1.87024C99.6809 1.87024 99.6487 1.87555 99.5937 1.88836Z" fill="url(#paint8_linear_572_3404)"/>
  </g>
  <defs>
    <linearGradient id="paint0_linear_572_3404" x1="6.33825" y1="7.4565" x2="6.33825" y2="22.2706" gradientUnits="userSpaceOnUse">
      <stop stop-color="#A59E9D"/>
      <stop offset="1" stop-color="#665D5C"/>
    </linearGradient>
    <linearGradient id="paint1_linear_572_3404" x1="21.1818" y1="7.45181" x2="21.1818" y2="22.8928" gradientUnits="userSpaceOnUse">
      <stop stop-color="#A59E9D"/>
      <stop offset="1" stop-color="#665D5C"/>
    </linearGradient>
    <linearGradient id="paint2_linear_572_3404" x1="52.0731" y1="7.98089" x2="52.0731" y2="22.8937" gradientUnits="userSpaceOnUse">
      <stop stop-color="#A59E9D"/>
      <stop offset="1" stop-color="#665D5C"/>
    </linearGradient>
    <linearGradient id="paint3_linear_572_3404" x1="64.8615" y1="7.41561" x2="64.8615" y2="22.8897" gradientUnits="userSpaceOnUse">
      <stop stop-color="#A59E9D"/>
      <stop offset="1" stop-color="#665D5C"/>
    </linearGradient>
    <linearGradient id="paint4_linear_572_3404" x1="35.7394" y1="14.7405" x2="28.7041" y2="7.70521" gradientUnits="userSpaceOnUse">
      <stop stop-color="#778FC8"/>
      <stop offset="1" stop-color="#2E67B2"/>
    </linearGradient>
    <linearGradient id="paint5_linear_572_3404" x1="36.7442" y1="14.7802" x2="43.3133" y2="8.21115" gradientUnits="userSpaceOnUse">
      <stop stop-color="#F47D5D"/>
      <stop offset="1" stop-color="#ED2024"/>
    </linearGradient>
    <linearGradient id="paint6_linear_572_3404" x1="35.7754" y1="15.6108" x2="29.2845" y2="22.1017" gradientUnits="userSpaceOnUse">
      <stop stop-color="#FEDC77"/>
      <stop offset="1" stop-color="#FFCD09"/>
    </linearGradient>
    <linearGradient id="paint7_linear_572_3404" x1="36.6114" y1="15.6077" x2="43.1017" y2="22.098" gradientUnits="userSpaceOnUse">
      <stop stop-color="#7BB47D"/>
      <stop offset="1" stop-color="#0C9A48"/>
    </linearGradient>
    <linearGradient id="paint8_linear_572_3404" x1="91.3652" y1="1.87743" x2="91.3652" y2="26.0831" gradientUnits="userSpaceOnUse">
      <stop stop-color="#A59E9D"/>
      <stop offset="1" stop-color="#665D5C"/>
    </linearGradient>
    <clipPath id="clip0_572_3404">
      <rect width="100" height="28.75" fill="white" transform="translate(0 0.541016)"/>
    </clipPath>
  </defs>
</svg>
