<svg xmlns="http://www.w3.org/2000/svg" width="100" height="100" viewBox="0 0 100 55" fill="none">
    <path d="M50.0127 0.854858C39.9132 0.854858 31.7253 9.04166 31.7253 19.1422C31.7253 29.2428 39.9132 37.4296 50.0127 37.4296C60.1122 37.4296 68.3001 29.2417 68.3001 19.1422C68.3001 9.04276 60.1122 0.854858 50.0127 0.854858ZM50.0127 35.0814C47.1393 35.0814 44.8098 33.1622 44.8098 30.7943H55.2156C55.2156 33.1611 52.885 35.0814 50.0127 35.0814ZM58.6065 29.3752H41.4167V26.2567H58.5956V29.3752H58.6065ZM58.5453 24.6537H41.467L41.2974 24.4567C39.5379 22.3198 39.1232 21.2048 38.7217 20.069C38.7151 20.0318 40.8553 20.5067 42.373 20.8481C43.011 20.9912 43.652 21.1207 44.2955 21.2365C43.1991 19.9519 42.5481 18.3183 42.5481 16.6485C42.5481 12.983 45.3602 9.77915 44.3447 7.19027C45.3317 7.27015 46.3876 9.27363 46.4587 12.4063C47.5092 10.9565 47.9469 8.30745 47.9469 6.68366C47.9469 5.00187 49.0553 3.04873 50.1626 2.98198C49.1745 4.61015 50.4186 6.00635 51.5238 9.4684C51.9396 10.7705 51.8849 12.9589 52.2055 14.3452C52.3116 11.462 52.8073 7.25483 54.6368 5.80392C53.8304 7.63124 54.7571 9.9214 55.3896 11.0211C56.4116 12.7959 57.0309 14.1395 57.0309 16.6846C57.0309 18.3916 56.4017 19.9957 55.3393 21.2507C56.5473 21.0242 57.381 20.8196 57.381 20.8196L61.3027 20.0537C61.3027 20.0537 60.7337 22.3953 58.5431 24.6537H58.5453Z" fill="#DA4E31"/>
    <path d="M0 41.2547C0.851287 41.1125 1.96628 40.9921 3.38436 40.9921C5.12742 40.9921 6.40435 41.397 7.21406 42.1268C7.94389 42.7757 8.41002 43.7681 8.41002 44.9849C8.41002 46.2213 8.04565 47.1951 7.3563 47.9031C6.40435 48.8966 4.9053 49.4021 3.18084 49.4021C2.65343 49.4021 2.16761 49.3803 1.76166 49.2927V54.7637H0.0109422L0 41.2547ZM1.75072 47.8418C2.13588 47.9436 2.6228 47.9841 3.21038 47.9841C5.3386 47.9841 6.63523 46.9303 6.63523 45.0844C6.63523 43.2604 5.3386 42.3894 3.41281 42.3894C2.64249 42.3894 2.056 42.4507 1.74963 42.5317L1.75072 47.8418ZM10.3872 48.0038L10.3063 44.9433H11.8666L11.9476 46.8888H12.0088C12.4553 45.5713 13.5495 44.7398 14.7443 44.7398C14.9271 44.7398 15.0682 44.7616 15.2313 44.7802V46.462C15.0485 46.4215 14.8669 46.4215 14.6229 46.4215C13.3667 46.4215 12.475 47.3538 12.231 48.692C12.1889 48.9672 12.1684 49.2452 12.1697 49.5236V54.7539H10.3861V48.0048L10.3872 48.0038ZM25.6995 49.7545C25.6995 53.3828 23.1664 54.9629 20.815 54.9629C18.1801 54.9629 16.1132 53.0174 16.1132 49.9164C16.1132 46.6535 18.2819 44.7277 20.978 44.7277C23.7956 44.7277 25.6995 46.7739 25.6995 49.7545ZM17.9372 49.8562C17.9372 52.0052 19.1408 53.6258 20.8959 53.6258C22.5985 53.6258 23.8754 52.0249 23.8754 49.8157C23.8754 48.1526 23.0438 46.0659 20.9364 46.0659C18.8487 46.0659 17.9383 48.0114 17.9383 49.8562H17.9372ZM27.9513 47.5847L27.8704 44.9301H29.4307L29.5117 46.531H29.5729C30.12 45.5987 31.0326 44.7255 32.6739 44.7255C33.9913 44.7255 35.0045 45.5352 35.4313 46.6918H35.4718C35.7446 46.1891 36.1254 45.753 36.5868 45.4149C37.1743 44.9695 37.7904 44.7255 38.7347 44.7255C40.0521 44.7255 41.9779 45.5768 41.9779 48.9929V54.7484H40.2348V49.2161C40.2348 47.3122 39.5236 46.1961 38.1066 46.1961C37.0726 46.1961 36.3012 46.9457 35.9784 47.7969C35.887 48.0855 35.8391 48.3861 35.8361 48.6887V54.7484H34.092V48.8725C34.092 47.3122 33.4026 46.1972 32.0458 46.1972C30.9516 46.1972 30.12 47.089 29.8355 47.9808C29.7338 48.2237 29.6933 48.5498 29.6933 48.8528V54.7615H27.9502V47.6055L27.9513 47.5847ZM45.8492 50.1615C45.8896 52.5731 47.4095 53.5667 49.2138 53.5667C50.4907 53.5667 51.2928 53.3434 51.9296 53.06L52.2535 54.337C51.6254 54.6215 50.5312 54.965 48.9709 54.965C45.9509 54.965 44.1477 52.9583 44.1477 49.9996C44.1477 47.0409 45.8907 44.7299 48.7488 44.7299C51.9712 44.7299 52.8028 47.5267 52.8028 49.331C52.8084 49.6095 52.7879 49.8879 52.7415 50.1626L45.8492 50.1615ZM51.0794 48.8846C51.1013 47.7685 50.6133 46.0068 48.6065 46.0068C46.7825 46.0068 46.0133 47.6481 45.871 48.8846H51.0794ZM57.1577 42.582V44.9345H59.7116V46.2913H57.1577V51.5818C57.1577 52.7854 57.5024 53.4857 58.4959 53.4857C58.9828 53.4857 59.2662 53.4452 59.5299 53.3763L59.6109 54.7331C59.2662 54.8425 58.7191 54.976 58.0298 54.976C57.1982 54.976 56.5307 54.6915 56.104 54.2265C55.6171 53.6794 55.4146 52.8073 55.4146 51.6518V46.2902H53.897V44.9334H55.4289V43.1214L57.1577 42.582ZM61.7205 40.3422H63.5041V46.4839H63.5446C63.8457 45.9497 64.2873 45.5081 64.8215 45.207C65.3764 44.8877 66.0054 44.7198 66.6455 44.7201C67.9629 44.7201 70.0704 45.5298 70.0704 48.8955V54.732H68.2868V49.1067C68.2868 47.5256 67.6992 46.2071 66.0163 46.2071C64.8609 46.2071 63.9702 47.0168 63.6244 47.9578C63.5238 48.2204 63.515 48.4852 63.515 48.8091V54.7178H61.7315V40.3531L61.7205 40.3422ZM73.9624 50.1506C74.0029 52.5622 75.5228 53.5557 77.3271 53.5557C78.604 53.5557 79.4061 53.3325 80.0429 53.0491L80.3668 54.326C79.7387 54.6105 78.6445 54.9541 77.0842 54.9541C74.0642 54.9541 72.2697 52.9473 72.2697 49.9886C72.2697 47.0299 74.0128 44.719 76.8708 44.719C80.0932 44.719 80.9248 47.5157 80.9248 49.3201C80.9312 49.5986 80.9107 49.8771 80.8635 50.1517L73.9624 50.1506ZM79.1927 48.8736C79.2146 47.7576 78.7266 45.9959 76.7198 45.9959C74.8958 45.9959 74.1266 47.6372 73.9843 48.8736H79.1927ZM91.3318 52.0578L91.4127 54.7539H89.8305L89.7288 53.1531H89.6773C89.2309 53.9431 88.1783 54.9771 86.4341 54.9771C84.8935 54.9771 83.0498 54.105 83.0498 50.6802V44.9444H84.8333V50.3552C84.8333 52.2197 85.4209 53.4955 87.0217 53.4955C88.2177 53.4955 89.0482 52.6639 89.3742 51.8542C89.4858 51.5631 89.5407 51.2534 89.5362 50.9417V44.9422H91.3197L91.3318 52.0578ZM94.0487 52.9484C94.5957 53.2723 95.528 53.6378 96.4198 53.6378C97.6967 53.6378 98.304 53.0097 98.304 52.1781C98.304 51.3268 97.7974 50.8815 96.4986 50.3946C94.715 49.7457 93.8725 48.7938 93.8725 47.6175C93.8725 46.0364 95.1691 44.7398 97.2568 44.7398C98.2504 44.7398 99.1214 45.0024 99.6488 45.3481L99.2111 46.6448C98.8259 46.4018 98.1169 46.0572 97.2043 46.0572C96.1506 46.0572 95.5827 46.6655 95.5827 47.3954C95.5827 48.2051 96.1495 48.5705 97.4264 49.0772C99.1082 49.7052 100 50.5565 100 52.0162C100 53.7592 98.6432 54.9749 96.3519 54.9749C95.2774 54.9749 94.273 54.6904 93.5946 54.2855L94.0487 52.9484Z" fill="#E6522C"/>
</svg>
