<svg xmlns="http://www.w3.org/2000/svg" width="100" height="100" viewBox="0 0 100 26" fill="none">
    <g clip-path="url(#clip0_572_3418)">
        <path d="M0.534545 19.3504C1.08804 19.6881 2.23684 20.0839 3.12533 20.0839C4.03668 20.0839 4.41181 19.7662 4.41181 19.2729C4.41181 18.7796 4.11638 18.5399 2.98765 18.1642C0.988267 17.4909 0.219057 16.4023 0.236894 15.254C0.236894 13.452 1.78144 12.088 4.17436 12.088C5.30309 12.088 6.31142 12.3433 6.90561 12.641L6.37218 14.7184C5.93685 14.4809 5.10577 14.1654 4.27469 14.1654C3.54171 14.1654 3.12589 14.4609 3.12589 14.9564C3.12589 15.4118 3.5038 15.6498 4.68995 16.0651C6.52936 16.6983 7.30303 17.6258 7.32087 19.0533C7.32087 20.8531 5.89671 22.1797 3.12589 22.1797C1.85948 22.1797 0.732979 21.901 0 21.5064L0.534545 19.3504ZM17.9098 17.0377C17.9098 20.5794 15.397 22.2037 12.804 22.2037C9.97352 22.2015 7.79967 20.3414 7.79967 17.2133C7.79967 14.0852 9.85703 12.0897 12.9656 12.0897C15.9321 12.0897 17.9098 14.127 17.9098 17.0377ZM10.9044 17.1353C10.9044 18.7974 11.5972 20.0438 12.8837 20.0438C14.0542 20.0438 14.8034 18.8732 14.8034 17.1353C14.8034 15.691 14.2504 14.2251 12.8837 14.2251C11.4395 14.2251 10.9044 15.7089 10.9044 17.1353ZM18.9827 15.3934C18.9827 14.1872 18.9426 13.1582 18.903 12.3076H21.5156L21.6532 13.6315H21.7134C22.1092 13.0183 23.0975 12.0897 24.6994 12.0897C26.6793 12.0897 28.1637 13.394 28.1637 16.2445V21.9857H25.1537V16.6202C25.1537 15.3733 24.7184 14.5227 23.6298 14.5227C22.7987 14.5227 22.3054 15.0957 22.1081 15.6515C22.0278 15.8293 21.9877 16.1247 21.9877 16.4023V21.9835H18.9827V15.3934ZM35.2889 21.9835L35.1122 21.0125H35.0564C34.4232 21.7856 33.4322 22.2015 32.2856 22.2015C30.3258 22.2015 29.1592 20.7751 29.1592 19.2327C29.1592 16.72 31.4144 15.511 34.8385 15.5311V15.3934C34.8385 14.8778 34.5598 14.147 33.0766 14.147C32.0877 14.147 31.0393 14.4815 30.4061 14.8778L29.8487 12.9408C30.522 12.5629 31.8486 12.0897 33.6083 12.0897C36.834 12.0897 37.8629 13.9893 37.8629 16.2646V19.6285C37.8629 20.5571 37.9031 21.4478 38.0028 21.9835H35.2889ZM34.9333 17.4128C33.3514 17.3928 32.1229 17.7701 32.1229 18.9368C32.1229 19.7099 32.6384 20.0856 33.3112 20.0856C33.6546 20.087 33.9898 19.9808 34.2697 19.782C34.5496 19.5831 34.7602 19.3016 34.8719 18.9769C34.9126 18.8081 34.9326 18.635 34.9316 18.4613L34.9333 17.4128ZM39.4482 15.4915C39.4482 14.0673 39.408 13.1382 39.3685 12.3076H41.9609L42.0613 14.0868H42.1387C42.6343 12.6828 43.821 12.0897 44.7518 12.0897C44.9636 12.0815 45.1757 12.0942 45.385 12.1276V14.9581C45.1179 14.9055 44.8463 14.8786 44.574 14.8778C43.4653 14.8778 42.7145 15.4737 42.5116 16.4023C42.4725 16.6246 42.4539 16.8499 42.4559 17.0756V21.9835H39.4459L39.4482 15.4915ZM65.2373 19.3704C65.2373 20.3593 65.2574 21.2305 65.317 21.9835H63.773L63.6733 20.4194H63.6354C63.18 21.1903 62.1688 22.2031 60.4693 22.2031C58.9644 22.2031 57.1629 21.372 57.1629 18.0081V12.4052H58.9047V17.7066C58.9047 19.5259 59.4582 20.755 61.0423 20.755C62.209 20.755 63.02 19.9418 63.3377 19.1709C63.4424 18.8852 63.4958 18.5833 63.4954 18.279V12.4052H65.2373V19.3704ZM67.259 21.9835C67.2991 21.3302 67.337 20.3593 67.337 19.5081V7.93262H69.0577V13.9492H69.0979C69.711 12.8806 70.8197 12.1872 72.3637 12.1872C74.7365 12.1872 76.4187 14.1671 76.3987 17.0756C76.3987 20.4992 74.2415 22.2037 72.1067 22.2037C70.7204 22.2037 69.6135 21.668 68.9005 20.4016H68.8403L68.7629 21.9857L67.259 21.9835ZM69.0577 18.1442C69.0635 18.3573 69.0902 18.5694 69.1374 18.7774C69.4719 19.9841 70.4819 20.8146 71.7483 20.8146C73.5704 20.8146 74.6568 19.3309 74.6568 17.1358C74.6568 15.2161 73.668 13.5746 71.8085 13.5746C70.6218 13.5746 69.5131 14.3856 69.1575 15.7094C69.1179 15.9095 69.0577 16.1453 69.0577 16.4229V18.1442ZM78.7771 17.5109C78.815 19.866 80.3194 20.8347 82.0613 20.8347C83.3076 20.8347 84.0607 20.6173 84.7117 20.3414L85.0094 21.5878C84.3962 21.8637 83.3477 22.1814 81.8233 22.1814C78.8752 22.1814 77.1133 20.2416 77.1133 17.3532C77.1133 14.4648 78.815 12.1884 81.6053 12.1884C84.7318 12.1884 85.5628 14.9391 85.5628 16.7033C85.561 16.9745 85.5424 17.2454 85.5071 17.5143L78.7771 17.5109ZM83.8806 16.2646C83.9007 15.1559 83.4275 13.4336 81.4676 13.4336C79.7057 13.4336 78.9348 15.0578 78.7921 16.2646H83.8806Z" fill="#F5F5F5"/>
        <path fill-rule="evenodd" clip-rule="evenodd" d="M55.0953 14.1298C54.5434 13.3179 53.7718 12.6799 52.8708 12.2904C51.9697 11.9008 50.9763 11.7757 50.0068 11.9298C49.0373 12.0839 48.1316 12.5108 47.3957 13.1605C46.6598 13.8102 46.124 14.656 45.851 15.599C45.578 16.5419 45.579 17.5431 45.8539 18.4855C46.1288 19.4279 46.6663 20.2726 47.4035 20.9209C48.1407 21.5691 49.0472 21.9942 50.017 22.1463C50.9868 22.2985 51.9799 22.1714 52.8802 21.7801L54.8819 25.0297L56.4699 23.9495L54.4694 20.6993C55.323 19.8485 55.8527 18.7263 55.9669 17.5265C56.0812 16.3268 55.773 15.1248 55.0953 14.1281M52.8535 20.0315C52.2608 20.4344 51.5621 20.6524 50.8455 20.6581C50.1289 20.6638 49.4267 20.4569 48.8277 20.0635C48.2288 19.6701 47.7599 19.1079 47.4805 18.4481C47.201 17.7882 47.1235 17.0603 47.2577 16.3564C47.392 15.6525 47.732 15.0042 48.2347 14.4935C48.7374 13.9828 49.3802 13.6327 50.0819 13.4873C50.7837 13.342 51.5127 13.408 52.1769 13.6771C52.8411 13.9461 53.4106 14.4061 53.8133 14.9988C54.3526 15.7937 54.5544 16.7701 54.3745 17.7137C54.1945 18.6573 53.6475 19.4909 52.8535 20.0315Z" fill="#F5F5F5"/>
        <path d="M97.4649 22.0236H96.2387C96.2387 12.1476 88.089 4.11214 78.0725 4.11214V2.88586C88.7651 2.88586 97.4649 11.4709 97.4649 22.0236Z" fill="#4E9BCD"/>
        <path d="M98.3132 15.438C96.84 9.24137 91.8201 4.06705 85.5254 2.26219L85.8041 1.2795C92.4483 3.18692 97.748 8.65109 99.3048 15.2016L98.3132 15.438ZM99.2563 9.62431C97.7391 6.31615 95.1544 3.43106 91.9784 1.50135L92.4031 0.802368C95.7174 2.81625 98.4152 5.82787 99.9999 9.28318L99.2563 9.62431Z" fill="#4E9BCD"/>
    </g>
    <defs>
        <clipPath id="clip0_572_3418">
            <rect width="100" height="24.48" fill="white" transform="translate(0 0.676025)"/>
        </clipPath>
    </defs>
</svg>
