<svg xmlns="http://www.w3.org/2000/svg" width="100" height="100" viewBox="0 0 100 53" fill="none">
    <g clip-path="url(#clip0_572_2392)">
        <path fill-rule="evenodd" clip-rule="evenodd" d="M91.2368 26.5833C91.1504 26.3986 91.1115 26.3057 91.0649 26.2171C89.8152 23.8398 88.5688 21.4625 87.3062 19.0852C87.1797 18.8468 87.1957 18.7061 87.3689 18.5005C89.3574 16.1778 91.3203 13.8423 93.3121 11.5292C93.3825 11.4476 93.4451 11.3612 93.4714 11.2157C92.8932 11.3664 92.3149 11.5154 91.7335 11.6687C89.3337 12.3048 86.9146 12.9376 84.5373 13.5834C84.314 13.6434 84.2129 13.5782 84.1004 13.3925C82.7383 11.1148 81.3665 8.8307 79.9883 6.58191C79.918 6.46401 79.8412 6.34964 79.6909 6.25101C79.5803 6.85819 79.4685 7.46215 79.36 8.06932C78.9777 10.2121 78.5954 12.342 78.2163 14.4944C78.1748 14.7254 78.1183 14.9571 78.0984 15.1884C78.0794 15.4094 77.9654 15.491 77.7643 15.5546C74.934 16.4445 72.1102 17.3408 69.2831 18.2371C69.1591 18.2759 69.0374 18.3273 68.904 18.4478C71.2171 19.3666 73.5301 20.2854 75.8753 21.2203C75.7898 21.288 75.7333 21.3407 75.6707 21.3809C74.225 22.3157 72.7761 23.2506 71.3337 24.1887C71.1605 24.3017 71.0237 24.3178 70.8293 24.2301C69.101 23.4527 67.3598 22.6881 65.625 21.9171C64.8475 21.5701 64.1504 21.1107 63.6075 20.4425C62.3771 18.939 62.6212 17.2299 64.2596 16.1698C64.7961 15.826 65.4065 15.5723 66.0137 15.3731C68.7861 14.4703 71.5714 13.5997 74.3342 12.7259C74.5675 12.6517 74.6748 12.5476 74.7197 12.2954C75.0924 10.1495 75.4747 7.99061 75.8634 5.87032C76.0703 4.72344 76.1795 3.55086 76.7372 2.49714C76.9509 2.09235 77.2063 1.69721 77.5147 1.35989C78.6198 0.132692 80.1586 0.0877165 81.3376 1.25452C81.7328 1.64966 82.0701 2.11227 82.3624 2.59094C83.6474 4.68875 84.9132 6.7994 86.1854 8.91969C86.3347 9.1693 86.469 9.21942 86.7443 9.14682C89.8445 8.31476 92.9446 7.49556 96.0608 6.67636C96.7033 6.50705 97.349 6.44569 98.0076 6.56874C99.4372 6.83602 100.064 7.92444 99.5785 9.30905C99.3591 9.93871 98.9778 10.4688 98.5505 10.9732C96.3852 13.5207 94.2136 16.0811 92.0611 18.619C91.8841 18.8272 91.8806 18.9756 92.0033 19.2102C93.3012 21.6549 94.5862 24.0933 95.8905 26.5669C96.1992 27.1516 96.4366 27.762 96.4431 28.4334C96.4582 29.9626 95.338 31.2155 93.8184 31.4404C92.9671 31.5647 92.1768 31.3829 91.3769 31.1368C89.4333 30.536 87.4897 29.9449 85.53 29.357C85.3491 29.3031 85.2801 29.2314 85.2476 29.0371C85.024 27.6653 84.7786 26.2967 84.5409 24.925C84.5348 24.8874 84.546 24.8472 84.5524 24.7631C86.7723 25.3767 88.9857 25.9806 91.2667 26.6135" fill="#E25A1C"/>
        <path fill-rule="evenodd" clip-rule="evenodd" d="M87.3819 46.6618C85.6278 46.6592 83.8802 46.6506 82.1133 46.6583C81.881 46.6583 81.7502 46.5918 81.6217 46.3945C79.5464 43.2334 77.4454 40.0658 75.3894 36.9175C75.3229 36.8172 75.2525 36.7205 75.1346 36.5512C74.6881 39.9566 74.2479 43.2976 73.8078 46.6387H69.2139C69.2678 46.1921 69.3157 45.7584 69.3722 45.328C69.8188 41.8905 70.2718 38.4852 70.7215 35.0478C71.152 31.7709 71.5793 28.4941 72.0162 25.2173C72.0287 25.1206 72.0939 24.9963 72.173 24.9449C73.7535 23.9137 75.3405 22.8921 76.9275 21.8705C76.9504 21.8554 76.9828 21.8541 77.0644 21.8303C76.5857 25.4926 76.1103 29.1228 75.6316 32.753C75.6505 32.7656 75.6692 32.7794 75.6881 32.7919C78.1779 30.0355 80.6676 27.2663 83.2055 24.4714C83.2785 24.8954 83.3424 25.2584 83.405 25.6215C83.5833 26.6591 83.7552 27.7032 83.9447 28.7409C83.9836 28.9503 83.9271 29.0782 83.788 29.226C82.1785 30.9093 80.5754 32.5991 78.9691 34.3018C78.8988 34.376 78.8323 34.4525 78.752 34.5405C78.8034 34.6218 78.8474 34.7011 78.8988 34.7737C81.6648 38.6609 84.4244 42.5481 87.1872 46.4353C87.2373 46.5057 87.3099 46.5609 87.3716 46.6236V46.6849" fill="#F5F5F5"/>
        <path fill-rule="evenodd" clip-rule="evenodd" d="M33.0894 36.3816C33.019 36.025 32.9689 35.4982 32.8096 35.0067C32.0386 32.6326 29.6067 31.3443 27.0912 31.9194C24.3252 32.5619 22.3366 34.7368 22.0796 37.5735C21.8676 39.6617 22.992 41.6856 25.0802 42.4245C26.7635 43.0316 28.3891 42.7778 29.899 41.8751C31.894 40.68 32.9734 38.9035 33.1116 36.3816H33.0894ZM20.9459 45.2162C20.8103 46.2378 20.6799 47.1983 20.554 48.1621C20.386 49.4407 20.2167 50.7225 20.056 52.0172C20.0374 52.1665 19.9921 52.233 19.8315 52.2318C18.5689 52.2269 17.3064 52.2282 16.0406 52.2257C16.0117 52.2257 15.9828 52.2106 15.915 52.1906C15.9915 51.5867 16.0657 50.9795 16.1447 50.3755C16.4233 48.2553 16.7005 46.135 16.9832 44.0147C17.3077 41.586 17.5615 39.1637 17.9759 36.7543C18.7084 32.4816 22.345 28.8193 26.5856 27.8876C29.0496 27.3543 31.4044 27.6014 33.5568 28.9895C35.7028 30.3709 36.93 32.3948 37.2191 34.9006C37.6175 38.4666 36.3036 41.4221 33.7817 43.8958C32.1176 45.5053 30.1194 46.5269 27.8385 46.8739C25.4708 47.2304 23.2445 46.8363 21.2527 45.441C21.1798 45.3896 21.1008 45.3447 20.9755 45.2656" fill="#F5F5F5"/>
        <path fill-rule="evenodd" clip-rule="evenodd" d="M18.8256 24.9771C17.4121 26.0308 16.0467 27.046 14.6814 28.0643C14.4607 27.7174 14.2638 27.3704 14.0325 27.046C13.4381 26.2139 12.6993 25.5939 11.6263 25.52C10.7332 25.457 9.96857 25.7506 9.3614 26.4099C8.81848 26.9978 8.7478 27.8362 9.25474 28.5012C9.81373 29.2337 10.4241 29.9276 11.0506 30.6055C12.0882 31.7299 13.1709 32.8093 14.1989 33.9465C15.1337 34.9746 15.8823 36.1246 16.1136 37.5446C16.3886 39.2151 16.0548 40.7893 15.2654 42.2671C13.8037 44.9817 11.5067 46.5719 8.45482 47.0538C7.11197 47.2706 5.77554 47.2282 4.47124 46.8427C2.73325 46.3319 1.52211 45.1915 0.744671 43.598C0.469997 43.0294 0.259574 42.4287 0.012207 41.8183C1.53175 41.0055 3.01274 40.212 4.50979 39.4121C4.56119 39.5364 4.59878 39.6405 4.64665 39.7397C4.90269 40.2505 5.11247 40.7935 5.4273 41.2657C6.36858 42.6632 7.88491 43.0872 9.41087 42.3965C9.80602 42.2182 10.1883 41.9693 10.5128 41.6801C11.5023 40.7999 11.6886 39.5727 10.9561 38.4676C10.5353 37.8315 10.0084 37.2596 9.4944 36.691C8.2672 35.3289 6.9886 34.0085 5.79996 32.6111C4.97433 31.6537 4.41213 30.5422 4.23223 29.27C4.03787 27.8693 4.31768 26.5522 5.045 25.3828C6.85368 22.4562 9.47834 20.9495 12.9479 21.0459C14.9301 21.1175 16.5138 22.045 17.7346 23.587C18.0976 24.0432 18.4382 24.5154 18.8076 25.0102" fill="#F5F5F5"/>
        <path fill-rule="evenodd" clip-rule="evenodd" d="M52.3648 40.558C52.1338 42.3217 51.915 43.9954 51.6901 45.6659C51.6776 45.7514 51.6111 45.8667 51.5395 45.8995C48.102 47.4865 43.6044 47.2648 40.8095 44.0715C39.2996 42.356 38.6667 40.3128 38.7599 38.064C38.9793 32.8276 43.3217 28.2336 48.5261 27.5911C51.562 27.2184 54.2123 28.0376 56.2684 30.3989C57.669 32.0052 58.318 33.9327 58.2216 36.053C58.1589 37.4537 57.9392 38.8447 57.7654 40.2293C57.518 42.2018 57.2482 44.1808 56.988 46.1404C56.978 46.2092 56.9642 46.2795 56.9478 46.3688H52.8679C52.9218 45.9159 52.972 45.4725 53.0298 45.0292C53.326 42.7515 53.653 40.4674 53.9132 38.1864C54.0751 36.7665 53.9733 35.3562 53.3221 34.0422C52.6314 32.6448 51.4749 31.9027 49.9489 31.742C46.7942 31.4079 43.7808 33.5989 43.1383 36.6894C42.695 38.739 43.3943 40.7051 45.0273 41.7974C46.6175 42.8543 48.3041 42.8575 50.0389 42.1732C50.9191 41.8263 51.6644 41.2737 52.3776 40.5316" fill="#F5F5F5"/>
        <path fill-rule="evenodd" clip-rule="evenodd" d="M69.7125 28.1254C69.5256 29.5453 69.3399 30.9428 69.1536 32.366C68.2862 32.366 67.438 32.3612 66.5899 32.3673C65.9024 32.3724 65.276 32.817 65.0672 33.4595C64.9869 33.7104 64.957 33.98 64.9216 34.2434C64.4912 37.5202 64.0639 40.7649 63.6366 44.0096C63.5287 44.832 63.4246 45.6544 63.3167 46.4897H59.0439C59.123 45.8632 59.1981 45.256 59.2772 44.6489C59.5544 42.535 59.833 40.4083 60.1124 38.3201C60.3547 36.4922 60.5718 34.6578 60.8578 32.8267C61.2401 30.3851 63.6687 28.2006 66.1264 28.1042C67.3022 28.0528 68.4812 28.0955 69.6923 28.0955" fill="#F5F5F5"/>
        <path d="M92.5218 46.6619V44.8628H92.5118L91.8051 46.6619H91.5805L90.8738 44.8628H90.8625V46.6619H90.5091V44.5062H91.0585L91.701 46.1446L92.3339 44.5062H92.88V46.6619H92.5218ZM89.3928 44.7954V46.6619H89.0394V44.7954H88.3647V44.5065H90.0706V44.7954H89.396" fill="#F5F5F5"/>
        <path d="M24.5116 21.9572H25.5685L25.3186 20.3573L24.5116 21.9572ZM25.7356 22.9916H23.9783L23.4193 24.0871H22.1729L24.9196 18.947H26.1211L27.0559 24.0871H25.9026L25.7369 22.9916" fill="#F5F5F5"/>
        <path d="M32.0293 19.9976H31.4028L31.1921 21.183H31.8185C32.1976 21.183 32.4964 20.9347 32.4964 20.4666C32.4964 20.1566 32.3081 19.9976 32.0274 19.9976H32.0293ZM30.513 18.9631H32.1578C33.0187 18.9631 33.6195 19.4771 33.6195 20.3574C33.6195 21.4689 32.8356 22.2142 31.7177 22.2142H31.0077L30.6736 24.0936H29.6006L30.5065 18.9535" fill="#F5F5F5"/>
        <path d="M37.2658 21.9572H38.3227L38.0731 20.3573L37.2658 21.9572ZM38.4866 22.9916H36.7293L36.1703 24.0871H34.9238L37.6706 18.947H38.8721L39.8069 24.0871H38.6536L38.4878 22.9916" fill="#F5F5F5"/>
        <path d="M45.297 23.9168C44.934 24.0826 44.5356 24.1815 44.1341 24.1815C42.7752 24.1815 41.9238 23.1632 41.9238 21.8878C41.9238 20.2558 43.2956 18.884 44.9276 18.884C45.3356 18.884 45.705 18.982 46.007 19.1475L45.8563 20.3779C45.6305 20.1283 45.2652 19.9538 44.8155 19.9538C43.8806 19.9538 43.0485 20.7987 43.0485 21.7785C43.0485 22.5239 43.5176 23.1085 44.2565 23.1085C44.7094 23.1085 45.1463 22.9341 45.4419 22.6941L45.2989 23.9149" fill="#F5F5F5"/>
        <path d="M52.0435 22.0214H49.8107L49.4477 24.0871H48.3779L49.2839 18.947H50.3569L49.9971 20.9774H52.2298L52.5928 18.947H53.6658L52.7599 24.0871H51.6869L52.0467 22.0214" fill="#F5F5F5"/>
        <path d="M55.8984 24.0775L56.8044 18.9374H59.6507L59.4698 19.9718H57.6965L57.5156 20.9677H59.1444L58.9635 22.0022H57.3348L57.1539 23.0366H58.9272L58.7464 24.071H55.9" fill="#F5F5F5"/>
    </g>
    <defs>
        <clipPath id="clip0_572_2392">
            <rect width="100" height="51.9324" fill="white" transform="translate(0 0.401001)"/>
        </clipPath>
    </defs>
</svg>
