<svg xmlns="http://www.w3.org/2000/svg" width="100" height="100" viewBox="0 0 100 111" fill="none">
  <g clip-path="url(#clip0_572_2407)">
    <path fill-rule="evenodd" clip-rule="evenodd" d="M47.113 0.857441C48.8999 -0.145189 51.0999 -0.145189 52.8841 0.857441C61.713 5.81269 88.2814 20.7284 97.1129 25.6837C98.8998 26.6837 99.9998 28.5363 99.9998 30.5416C99.9998 40.4521 99.9998 70.281 99.9998 80.1915C99.9998 82.1967 98.8998 84.0494 97.1129 85.052C88.284 90.0072 61.7156 104.923 52.8841 109.878C51.0972 110.881 48.8973 110.881 47.113 109.878C38.2841 104.923 11.7158 90.0072 2.8842 85.052C1.1 84.0494 0 82.1994 0 80.1941C0 70.2836 0 40.4547 0 30.5442C0 28.539 1.1 26.6863 2.88684 25.6837C11.7131 20.7284 38.2868 5.81269 47.113 0.857441Z" fill="#004482"/>
    <path fill-rule="evenodd" clip-rule="evenodd" d="M0.799998 82.7468C0.0999997 81.8099 0 80.9205 0 79.7231C0 69.8705 0 40.2127 0 30.3574C0 28.3627 1.09737 26.5206 2.87894 25.5259C11.6763 20.5996 38.1552 5.77064 46.9525 0.841708C48.7341 -0.155659 51.1473 -0.134606 52.9288 0.86276C61.7262 5.78906 88.1156 20.4917 96.9129 25.418C97.6235 25.818 98.1656 26.2995 98.6498 26.9338L0.799998 82.7468Z" fill="#659AD2"/>
    <path fill-rule="evenodd" clip-rule="evenodd" d="M49.9997 18.5259C70.3339 18.5259 86.8418 35.0337 86.8418 55.3679C86.8418 75.7021 70.3339 92.2099 49.9997 92.2099C29.6656 92.2099 13.1577 75.7021 13.1577 55.3679C13.1577 35.0337 29.6656 18.5259 49.9997 18.5259ZM49.9997 36.9469C60.1655 36.9469 68.4207 45.1995 68.4207 55.3679C68.4207 65.5337 60.1655 73.7889 49.9997 73.7889C39.834 73.7889 31.5787 65.5337 31.5787 55.3679C31.5787 45.1995 39.8313 36.9469 49.9997 36.9469Z" fill="#F5F5F5"/>
    <path fill-rule="evenodd" clip-rule="evenodd" d="M98.6444 26.9601C100.002 28.2311 99.976 30.1469 99.976 31.6548C99.976 41.6416 99.8917 70.0468 99.9996 80.0336C100.01 81.0757 99.6654 82.1731 99.1496 82.9994L48.9287 55.3679L98.6444 26.9601Z" fill="#00599C"/>
  </g>
  <defs>
    <clipPath id="clip0_572_2407">
      <rect width="100" height="110.526" fill="white" transform="translate(0 0.104126)"/>
    </clipPath>
  </defs>
</svg>
