<svg xmlns="http://www.w3.org/2000/svg" width="100" height="100" viewBox="0 0 100 113" fill="none">
	<g clip-path="url(#clip0_572_2419)">
		<path d="M98.7278 84.7178C99.5124 83.3586 100 81.8273 100 80.4521V32.7171C100 31.342 99.5131 29.8109 98.7281 28.4518L50 56.5848L98.7278 84.7178Z" fill="#00599C"/>
		<path d="M54.3303 111.819L95.6702 87.9522C96.861 87.2646 97.9434 86.0773 98.728 84.7178L50.0002 56.5848L1.27246 84.7182C2.0571 86.0773 3.13978 87.2649 4.3303 87.9522L45.6702 111.819C48.0515 113.195 51.9489 113.195 54.3303 111.819Z" fill="#004482"/>
		<path d="M98.7281 28.4515C97.9431 27.092 96.8605 25.9048 95.6699 25.2172L54.3301 1.34985C51.9487 -0.0253094 48.0513 -0.0253094 45.6699 1.34985L4.33007 25.2172C1.94837 26.592 0 29.9672 0 32.7172V80.4521C0 81.8273 0.487255 83.3587 1.27222 84.7178L50 56.5848L98.7281 28.4515Z" fill="#659AD2"/>
		<path d="M49.9998 89.9181C31.6198 89.9181 16.6665 74.9649 16.6665 56.5848C16.6665 38.2047 31.6198 23.2515 49.9998 23.2515C61.86 23.2515 72.9211 29.6338 78.8662 39.9077L64.4404 48.2554C61.4649 43.1129 55.9312 39.9181 49.9998 39.9181C40.8096 39.9181 33.3332 47.3946 33.3332 56.5848C33.3332 65.7747 40.8096 73.2515 49.9998 73.2515C55.9319 73.2515 61.4655 70.0567 64.4413 64.9132L78.8672 73.2606C72.9221 83.5355 61.8606 89.9181 49.9998 89.9181Z" fill="#F5F5F5"/>
		<path d="M83.3333 54.7329H79.6294V51.0293H75.9261V54.7329H72.2222V58.4365H75.9261V62.1404H79.6294V58.4365H83.3333V54.7329Z" fill="#F5F5F5"/>
		<path d="M97.2224 54.7329H93.5185V51.0293H89.8153V54.7329H86.1113V58.4365H89.8153V62.1404H93.5185V58.4365H97.2224V54.7329Z" fill="#F5F5F5"/>
	</g>
	<defs>
		<clipPath id="clip0_572_2419">
			<rect width="100" height="112.533" fill="white" transform="translate(0 0.318481)"/>
		</clipPath>
	</defs>
</svg>
