<svg xmlns="http://www.w3.org/2000/svg" width="100" height="100" viewBox="0 0 100 117" fill="none">
    <path d="M5.1934 61.6198C5.1934 65.1608 4.91013 66.3141 4.1817 67.1639C3.37099 67.894 2.3185 68.2977 1.22754 68.2971L1.51082 70.3204C3.20218 70.3433 4.84333 69.7459 6.12418 68.641C6.81333 67.8006 7.32618 66.83 7.63208 65.7871C7.93802 64.7442 8.03074 63.6504 7.90477 62.5708V49.1759H5.1934V61.5389V61.6198Z" fill="#F5F5F5"/>
    <path d="M25.4138 60.0239C25.4138 61.5415 25.4138 62.8972 25.5352 64.0707H23.1274L22.9655 61.6629C22.4619 62.5148 21.7416 63.2182 20.878 63.7016C20.0144 64.1849 19.0382 64.431 18.0486 64.4147C15.7015 64.4147 12.9092 63.14 12.9092 57.9398V49.2999H15.6205V57.3935C15.6205 60.206 16.4906 62.0878 18.9389 62.0878C19.4426 62.0932 19.9423 61.998 20.4088 61.8077C20.8752 61.6175 21.2989 61.336 21.6551 60.9798C22.0113 60.6236 22.2928 60.1998 22.4831 59.7334C22.6733 59.267 22.7686 58.7673 22.7632 58.2636V49.1987H25.4745V59.943L25.4138 60.0239Z" fill="#F5F5F5"/>
    <path d="M30.5535 54.1136C30.5535 52.2318 30.5535 50.694 30.4321 49.2979H32.8602L32.9816 51.8271C33.5226 50.9133 34.3014 50.1635 35.235 49.6575C36.1686 49.1515 37.222 48.9083 38.2829 48.9539C41.8846 48.9539 44.5959 51.9688 44.5959 56.4607C44.5959 61.762 41.3383 64.3925 37.8175 64.3925C36.9164 64.4327 36.0202 64.2396 35.2155 63.832C34.4109 63.4243 33.725 62.8159 33.2244 62.0656V70.1591H30.5535V54.1743V54.1136ZM33.2244 58.0592C33.2318 58.4263 33.2724 58.7921 33.3458 59.1518C33.5754 60.0503 34.098 60.8465 34.8309 61.4145C35.5639 61.9826 36.4653 62.29 37.3926 62.2881C40.2456 62.2881 41.9251 59.9612 41.9251 56.5821C41.9251 53.628 40.3468 51.0987 37.4938 51.0987C36.3648 51.1912 35.3082 51.6923 34.5222 52.508C33.7363 53.3238 33.2748 54.3983 33.2244 55.53V58.0592Z" fill="#F5F5F5"/>
    <path d="M49.4268 49.2841L52.6844 58.005C53.0284 58.9762 53.3926 60.1498 53.6354 61.0199C53.9187 60.1296 54.2222 58.9964 54.5864 57.9443L57.5406 49.2841H60.3936L56.3468 59.8058C54.3234 64.8643 53.0891 67.4745 51.2276 69.0528C50.29 69.9092 49.1469 70.5086 47.9092 70.7929L47.2415 68.5267C48.1069 68.2423 48.9103 67.796 49.6089 67.2115C50.596 66.407 51.3794 65.381 51.8953 64.2168C52.0057 64.0152 52.081 63.7962 52.1179 63.5693C52.0949 63.3252 52.0334 63.0862 51.9358 62.8612L46.4321 49.2437H49.3863L49.4268 49.2841Z" fill="#F5F5F5"/>
    <path d="M67.5913 45.0394V49.2886H71.4763V51.312H67.5913V59.2842C67.5913 61.1052 68.1174 62.1574 69.6147 62.1574C70.1465 62.1661 70.6772 62.1049 71.193 61.9753L71.3144 63.9987C70.5409 64.2667 69.7247 64.3901 68.9065 64.3629C68.3647 64.3968 67.822 64.3131 67.3155 64.1175C66.8091 63.922 66.351 63.6191 65.9726 63.2298C65.1484 62.1275 64.7725 60.7538 64.9205 59.3854V51.2917H62.6138V49.2683H64.9609V45.6667L67.5913 45.0394Z" fill="#F5F5F5"/>
    <path d="M76.4708 57.1508C76.4159 57.837 76.5106 58.527 76.7484 59.173C76.9863 59.819 77.3615 60.4057 77.8483 60.8925C78.3351 61.3792 78.9218 61.7545 79.5678 61.9924C80.2138 62.2302 80.9038 62.3249 81.59 62.27C82.978 62.3011 84.3569 62.0391 85.6368 61.5011L86.1022 63.5245C84.5316 64.1715 82.8428 64.4817 81.1448 64.435C80.155 64.5028 79.1622 64.3557 78.2345 64.0037C77.3069 63.6517 76.4664 63.1033 75.7706 62.396C75.0748 61.6887 74.5402 60.8392 74.2036 59.9059C73.8669 58.9726 73.7361 57.9775 73.8201 56.9889C73.8201 52.5375 76.4708 49.0167 80.8009 49.0167C85.657 49.0167 86.8711 53.2659 86.8711 55.9772C86.897 56.395 86.897 56.814 86.8711 57.2317H76.4101L76.4708 57.1508ZM84.4025 55.1274C84.4806 54.5864 84.4418 54.035 84.2888 53.5103C84.1358 52.9856 83.872 52.4998 83.5154 52.0856C83.1588 51.6715 82.7175 51.3385 82.2213 51.1093C81.7251 50.8801 81.1855 50.7599 80.639 50.7569C79.5273 50.8373 78.4857 51.3301 77.7183 52.1386C76.951 52.9471 76.5133 54.013 76.491 55.1274H84.4025Z" fill="#F5F5F5"/>
    <path d="M90.9852 53.8854C90.9852 52.1453 90.9852 50.648 90.8638 49.2721H93.2919V52.1655H93.4132C93.6681 51.2725 94.1947 50.4809 94.9199 49.9008C95.645 49.3206 96.5329 48.9807 97.4601 48.9281C97.7153 48.8946 97.9737 48.8946 98.229 48.9281V51.4573C97.9197 51.4215 97.6074 51.4215 97.2982 51.4573C96.3797 51.4929 95.5055 51.8616 94.839 52.4947C94.1725 53.1277 93.7592 53.9816 93.6763 54.8971C93.6006 55.3111 93.56 55.7308 93.5549 56.1516V64.0227H90.884V53.9056L90.9852 53.8854Z" fill="#F5F5F5"/>
    <path d="M89.7967 8.6429C89.8798 10.0022 89.5564 11.3555 88.8676 12.5304C88.1789 13.7053 87.156 14.6485 85.9293 15.24C84.7026 15.8315 83.3275 16.0444 81.9794 15.8517C80.6312 15.659 79.371 15.0693 78.3591 14.1578C77.3473 13.2463 76.6297 12.0542 76.2977 10.7334C75.9658 9.41258 76.0345 8.02286 76.4951 6.74126C76.9558 5.45967 77.7875 4.3442 78.8843 3.53696C79.9812 2.72973 81.2935 2.26726 82.6541 2.20848C83.5462 2.15939 84.4391 2.28714 85.2816 2.58437C86.1242 2.8816 86.8996 3.34245 87.5634 3.94043C88.2272 4.5384 88.7662 5.2617 89.1495 6.06872C89.5328 6.87574 89.7527 7.75058 89.7967 8.6429Z" fill="#F5F5F5"/>
    <path d="M49.7868 87.8856C31.5763 87.8856 15.5711 81.35 7.29541 71.6984C10.5064 80.3811 16.3003 87.8718 23.8972 93.1621C31.494 98.4525 40.5295 101.288 49.7868 101.288C59.0443 101.288 68.0795 98.4525 75.6765 93.1621C83.2734 87.8718 89.0672 80.3811 92.2784 71.6984C84.0229 81.35 68.0784 87.8856 49.7868 87.8856Z" fill="#F37726"/>
    <path d="M49.7868 25.1237C67.9975 25.1237 84.0027 31.6593 92.2784 41.3108C89.0672 32.6281 83.2734 25.1375 75.6765 19.8472C68.0795 14.5568 59.0443 11.7208 49.7868 11.7208C40.5295 11.7208 31.494 14.5568 23.8972 19.8472C16.3003 25.1375 10.5064 32.6281 7.29541 41.3108C15.5711 31.639 31.4954 25.1237 49.7868 25.1237Z" fill="#F37726"/>
    <path d="M24.7177 106.668C24.8245 108.38 24.4192 110.085 23.5534 111.566C22.6876 113.047 21.4005 114.237 19.8561 114.984C18.3117 115.731 16.5799 116.001 14.8814 115.76C13.1829 115.519 11.5945 114.778 10.3187 113.632C9.04286 112.485 8.1373 110.984 7.7174 109.321C7.2975 107.657 7.38227 105.907 7.9609 104.292C8.53954 102.677 9.58584 101.271 10.9665 100.252C12.3472 99.2343 13.9997 98.6501 15.7135 98.5745C16.8362 98.5144 17.9598 98.6762 19.02 99.0504C20.0802 99.4247 21.0562 100.004 21.8924 100.756C22.7286 101.507 23.4085 102.416 23.8932 103.431C24.378 104.445 24.6582 105.545 24.7177 106.668Z" fill="#F5F5F5"/>
    <path d="M9.36502 22.9242C8.38377 22.9513 7.41641 22.6877 6.58459 22.1664C5.75278 21.6452 5.09365 20.8897 4.69009 19.9949C4.28654 19.1 4.15657 18.1058 4.31655 17.1373C4.47652 16.1688 4.91929 15.2692 5.58917 14.5517C6.25905 13.8342 7.12614 13.3308 8.08139 13.1047C9.03661 12.8787 10.0374 12.9401 10.9578 13.2813C11.8782 13.6226 12.6772 14.2283 13.2542 15.0224C13.8313 15.8165 14.1607 16.7635 14.201 17.7443C14.2393 19.0705 13.753 20.3583 12.8476 21.3281C11.9422 22.2979 10.6907 22.8715 9.36502 22.9242Z" fill="#F5F5F5"/>
</svg>
