<svg xmlns="http://www.w3.org/2000/svg" width="100" height="100" viewBox="0 0 100 101" fill="none">
	<g clip-path="url(#clip0_572_2298)">
		<path d="M100 100.548C100 100.55 99.9981 100.552 99.9963 100.552H0.0037037C0.00185185 100.552 0 100.55 0 100.548V0.555828C0 0.553976 0.00185185 0.552124 0.0037037 0.552124H99.9972C99.9991 0.552124 100.001 0.553976 100.001 0.555828V100.548H100Z" fill="#F5F5F5"/>
		<path d="M98.3334 98.8817C98.3334 98.8836 98.3316 98.8854 98.3297 98.8854H1.67045C1.6686 98.8854 1.66675 98.8836 1.66675 98.8817V2.22245C1.66675 2.2206 1.6686 2.21875 1.67045 2.21875H98.3306C98.3325 2.21875 98.3343 2.2206 98.3343 2.22245V98.8817H98.3334Z" fill="#D00000"/>
		<path d="M28.0556 76.8179C28.0556 76.891 28.0982 76.9929 28.1491 77.0438L29.8038 78.6984C29.8556 78.7503 29.9575 78.7919 30.0297 78.7919H35.6917C35.7649 78.7919 35.8667 78.7494 35.9177 78.6984L37.5723 77.0438C37.6241 76.9919 37.6658 76.8901 37.6658 76.8179V58.8521C37.6658 58.779 37.7093 58.6781 37.7621 58.6281L44.9556 51.7577C45.0084 51.7077 45.0852 51.7151 45.126 51.7762L63.301 78.6836C63.3417 78.7438 63.4352 78.7938 63.5075 78.7938H71.5288C71.6019 78.7938 71.6889 78.741 71.7223 78.6762L73.1778 75.8558C73.2112 75.791 73.2047 75.6892 73.163 75.629L51.9038 44.8142C51.8621 44.754 51.8704 44.6632 51.9223 44.6114L71.476 25.1494C71.5278 25.0975 71.5695 24.9966 71.5695 24.9234V24.5642C71.5695 24.491 71.5454 24.3771 71.5167 24.3095L70.3889 21.716C70.3602 21.6494 70.276 21.5947 70.2038 21.5947H62.2751C62.2019 21.5947 62.1001 21.6373 62.0491 21.6882L37.7612 46.0679C37.7093 46.1197 37.6677 46.1021 37.6677 46.029V23.6632C37.6677 23.5901 37.6269 23.4873 37.5769 23.4336L35.9538 21.6929C35.9038 21.6392 35.8038 21.5957 35.7306 21.5957H30.0297C29.9565 21.5957 29.8565 21.6392 29.8065 21.6929L28.1445 23.4873C28.0945 23.541 28.0547 23.6438 28.0547 23.7169V76.8179H28.0556Z" fill="#F5F5F5"/>
	</g>
	<defs>
		<clipPath id="clip0_572_2298">
			<rect width="100" height="100" fill="white" transform="translate(0 0.552124)"/>
		</clipPath>
	</defs>
</svg>
