<svg xmlns="http://www.w3.org/2000/svg" width="100" height="100" viewBox="0 0 100 21" fill="none">
    <path d="M16.2667 16.0557C16.261 16.1324 16.2325 16.2009 16.1811 16.2613C16.1321 16.3151 16.0522 16.3608 15.9412 16.3984C15.8311 16.4367 15.6843 16.4636 15.5007 16.4791C15.3155 16.502 15.0818 16.5134 14.7995 16.5134C14.5091 16.5134 14.2733 16.502 14.0922 16.4791C13.9103 16.4628 13.7634 16.4359 13.6517 16.3984C13.5473 16.36 13.4738 16.3143 13.4314 16.2613C13.3988 16.2001 13.3849 16.1316 13.3898 16.0557L13.8401 9.99839C13.8646 9.65575 13.8536 9.34289 13.8071 9.05981C13.7663 8.77754 13.6847 8.53688 13.5624 8.33783C13.4481 8.13143 13.2919 7.97479 13.0937 7.86792C12.9036 7.75371 12.667 7.69661 12.3839 7.69661C12.0413 7.69661 11.684 7.8304 11.312 8.09798C10.9408 8.36556 10.53 8.75511 10.0797 9.26662L9.5743 16.0582C9.56859 16.1349 9.54004 16.2034 9.48864 16.2637C9.4397 16.3176 9.35608 16.3633 9.23778 16.4008C9.12765 16.4391 8.98081 16.4661 8.79725 16.4816C8.61206 16.5044 8.38201 16.5158 8.10708 16.5158C7.82482 16.5158 7.59231 16.5044 7.40957 16.4816C7.22765 16.4653 7.0808 16.4383 6.96904 16.4008C6.86462 16.3625 6.79119 16.3168 6.74877 16.2637C6.70798 16.2026 6.69003 16.134 6.69493 16.0582L7.14525 10.0008C7.16973 9.6582 7.15871 9.34534 7.11221 9.06226C7.07142 8.77999 6.99392 8.53933 6.87971 8.34027C6.7655 8.13388 6.60927 7.97724 6.41103 7.87037C6.21361 7.75616 5.97702 7.69905 5.70128 7.69905C5.35049 7.69905 4.9895 7.83284 4.61831 8.10043C4.24712 8.36801 3.84003 8.75756 3.39705 9.26906L2.89166 16.0606C2.88595 16.1373 2.8574 16.2058 2.806 16.2662C2.75705 16.32 2.67343 16.3657 2.55514 16.4033C2.44501 16.4416 2.29817 16.4685 2.11461 16.484C1.92942 16.5069 1.6957 16.5183 1.41343 16.5183C1.13116 16.5183 0.898657 16.5069 0.715917 16.484C0.533994 16.4677 0.387149 16.4408 0.275385 16.4033C0.170962 16.3649 0.0975399 16.3192 0.0551182 16.2662C0.0143281 16.205 -0.00361987 16.1365 0.00127494 16.0606L0.759971 5.84514C0.765681 5.76846 0.790156 5.70319 0.833393 5.64935C0.875815 5.58817 0.948421 5.5384 1.05121 5.50006C1.15319 5.46172 1.28127 5.4348 1.43545 5.4193C1.59862 5.39645 1.79849 5.38503 2.03507 5.38503C2.27981 5.38503 2.48131 5.39645 2.63958 5.4193C2.79866 5.43561 2.91899 5.46253 3.00057 5.50006C3.09031 5.5384 3.15149 5.58817 3.18413 5.64935C3.21839 5.70319 3.23267 5.76846 3.22696 5.84514L3.13885 7.02479C3.74907 6.41294 4.3446 5.95487 4.92546 5.65058C5.51283 5.34547 6.11245 5.19291 6.7243 5.19291C7.14444 5.19291 7.51889 5.23859 7.84766 5.32996C8.17724 5.41399 8.46563 5.54044 8.71282 5.70931C8.96816 5.87003 9.18272 6.06459 9.35648 6.29302C9.53025 6.52144 9.67138 6.7772 9.77989 7.06028C10.1095 6.73233 10.4284 6.44965 10.7368 6.21225C11.0525 5.97567 11.3568 5.78478 11.6497 5.63956C11.9515 5.48701 12.2461 5.37687 12.5332 5.30916C12.8294 5.23248 13.1263 5.19413 13.4241 5.19413C14.1036 5.19413 14.6678 5.30835 15.1165 5.53677C15.5651 5.7652 15.9159 6.07806 16.1688 6.47535C16.4299 6.86449 16.602 7.32256 16.6852 7.84957C16.7684 8.37658 16.788 8.93377 16.744 9.52115L16.2569 16.0606L16.2667 16.0557ZM27.8185 16.0888C27.8103 16.1948 27.7655 16.2788 27.6839 16.3408C27.6023 16.402 27.4771 16.444 27.3082 16.4669C27.145 16.4971 26.9036 16.5122 26.5838 16.5122C26.2411 16.5122 25.9903 16.4971 25.8312 16.4669C25.6803 16.444 25.5726 16.402 25.5081 16.3408C25.451 16.2797 25.4266 16.1956 25.4347 16.0888L25.4959 15.2762C25.0423 15.7265 24.5353 16.0773 23.9748 16.3286C23.4217 16.5815 22.8168 16.708 22.1601 16.708C21.6184 16.708 21.1236 16.6353 20.6757 16.4901C20.2352 16.3531 19.8575 16.1471 19.5426 15.8722C19.235 15.5899 19.005 15.2424 18.8524 14.8296C18.6999 14.4176 18.644 13.9363 18.6848 13.3856C18.7288 12.7901 18.8818 12.2749 19.1437 11.8401C19.4129 11.3971 19.7873 11.0341 20.267 10.751C20.7541 10.4605 21.3463 10.2468 22.0438 10.1097C22.7413 9.97269 23.5441 9.90417 24.4521 9.90417H25.4482L25.4947 9.2862C25.5191 8.96559 25.5057 8.68699 25.4543 8.45041C25.4111 8.20567 25.3193 8.00335 25.179 7.84345C25.046 7.68274 24.8563 7.56445 24.6099 7.48858C24.3709 7.41189 24.0682 7.37355 23.702 7.37355C23.2206 7.37355 22.7854 7.42658 22.3963 7.53263C22.0145 7.63868 21.6735 7.75698 21.3732 7.8875C21.0738 8.01803 20.8209 8.13632 20.6145 8.24238C20.4155 8.34843 20.2552 8.40146 20.1336 8.40146C20.0496 8.40146 19.9754 8.37454 19.9109 8.32069C19.8538 8.26685 19.8061 8.19057 19.7677 8.09186C19.7367 7.99233 19.7151 7.86996 19.7029 7.72475C19.6907 7.57954 19.6911 7.41923 19.7041 7.24384C19.7221 7.00725 19.7547 6.81962 19.802 6.68093C19.851 6.54388 19.9325 6.42151 20.0467 6.31382C20.161 6.19961 20.3568 6.07724 20.6341 5.94671C20.9115 5.80966 21.2337 5.68321 21.6009 5.56736C21.968 5.45315 22.3636 5.36137 22.7878 5.29203C23.2202 5.21534 23.662 5.177 24.1131 5.177C24.915 5.177 25.5922 5.25736 26.1445 5.41807C26.7057 5.57063 27.1573 5.81129 27.4991 6.14006C27.8417 6.46067 28.0783 6.87673 28.2088 7.38823C28.3394 7.89974 28.3781 8.5067 28.3251 9.2091L27.8136 16.0802L27.8185 16.0888ZM25.3148 11.714H24.2159C23.7509 11.714 23.3512 11.7483 23.0167 11.8168C22.6822 11.8853 22.4073 11.9885 22.1919 12.1264C21.9757 12.2635 21.8105 12.4315 21.6963 12.6306C21.5902 12.8215 21.5278 13.043 21.5091 13.295C21.4764 13.7225 21.5849 14.0586 21.8346 14.3034C22.0916 14.5481 22.4603 14.6705 22.9408 14.6705C23.3454 14.6705 23.7236 14.5673 24.0752 14.3609C24.4341 14.1545 24.8041 13.8526 25.1851 13.4554L25.3148 11.714Z" fill="#11557C"/>
    <path d="M36.5995 15.0486C36.575 15.3847 36.533 15.6441 36.4734 15.8269C36.422 16.0023 36.3592 16.1287 36.285 16.2062C36.2116 16.2748 36.1035 16.34 35.9607 16.402C35.8269 16.4559 35.667 16.5016 35.481 16.5391C35.3015 16.5848 35.1041 16.619 34.8887 16.6419C34.6807 16.6647 34.4698 16.6761 34.2561 16.6761C33.6834 16.6761 33.1927 16.6035 32.784 16.4583C32.3761 16.3131 32.0457 16.0916 31.7928 15.7938C31.5399 15.4887 31.3661 15.1069 31.2715 14.6485C31.176 14.19 31.1515 13.6475 31.198 13.0209L31.5872 7.78716H30.3635C30.2183 7.78716 30.1143 7.69946 30.0514 7.52406C29.9886 7.34051 29.9723 7.03866 30.0025 6.61852C30.0188 6.39826 30.0404 6.21062 30.0673 6.05562C30.1016 5.90306 30.1408 5.78477 30.1848 5.70074C30.2297 5.60938 30.2803 5.54411 30.3366 5.50495C30.4002 5.46661 30.4704 5.44744 30.547 5.44744H31.7609L31.9323 3.1689C31.938 3.09222 31.9625 3.02369 32.0057 2.96332C32.0563 2.90214 32.1362 2.85237 32.2455 2.81403C32.3638 2.76834 32.5148 2.73775 32.6983 2.72225C32.8908 2.69941 33.1246 2.68799 33.3995 2.68799C33.6818 2.68799 33.9143 2.69941 34.097 2.72225C34.2871 2.73857 34.4339 2.76916 34.5375 2.81403C34.642 2.85237 34.7146 2.90214 34.7553 2.96332C34.7961 3.02451 34.8141 3.09303 34.8092 3.1689L34.6379 5.44744H36.8601C36.9368 5.44744 37.0004 5.46661 37.051 5.50495C37.1081 5.54329 37.153 5.60856 37.1856 5.70074C37.2183 5.78477 37.2362 5.90306 37.2395 6.05562C37.2509 6.20817 37.2484 6.39581 37.2321 6.61852C37.2011 7.03866 37.1399 7.34051 37.0486 7.52406C36.9588 7.69946 36.8418 7.78716 36.6974 7.78716H34.4641L34.1068 12.5841C34.066 13.1413 34.1231 13.5614 34.2781 13.8445C34.4331 14.1194 34.7358 14.2569 35.1861 14.2569C35.3387 14.2569 35.4773 14.2455 35.6022 14.2226C35.727 14.1924 35.8363 14.1618 35.9301 14.1308C36.0321 14.0925 36.1145 14.0619 36.1773 14.0391C36.2483 14.0089 36.3107 13.9938 36.3645 13.9938C36.4102 13.9938 36.451 14.0089 36.4869 14.0391C36.5309 14.0619 36.5611 14.1149 36.5774 14.1981C36.5938 14.2748 36.6048 14.3817 36.6105 14.5187C36.6235 14.6558 36.6219 14.8312 36.6056 15.0449L36.5995 15.0486Z" fill="#11557C"/>
    <path d="M49.3077 10.7987C49.24 11.7075 49.0797 12.5282 48.8268 13.2608C48.5821 13.9868 48.2537 14.6052 47.8417 15.1159C47.4298 15.6274 46.935 16.0206 46.3574 16.2955C45.7798 16.5705 45.132 16.7079 44.4141 16.7079C44.1164 16.7079 43.8439 16.6773 43.5967 16.6161C43.356 16.5623 43.1219 16.4783 42.8943 16.3641C42.674 16.2417 42.4562 16.0928 42.2408 15.9174C42.0247 15.742 41.8032 15.536 41.5764 15.2994L41.2191 20.1086C41.2133 20.1853 41.1848 20.2538 41.1334 20.3142C41.0828 20.3754 40.9988 20.4251 40.8813 20.4635C40.7712 20.5092 40.6235 20.5434 40.4383 20.5663C40.2531 20.5891 40.0194 20.6005 39.7372 20.6005C39.4549 20.6005 39.2224 20.5891 39.0396 20.5663C38.8577 20.5434 38.7109 20.5092 38.5991 20.4635C38.4947 20.4251 38.4221 20.3754 38.3813 20.3142C38.3405 20.253 38.3226 20.1845 38.3274 20.1086L39.3896 5.84022C39.3953 5.76354 39.4198 5.69827 39.463 5.64443C39.5055 5.58324 39.574 5.53348 39.6686 5.49514C39.7706 5.4568 39.8987 5.42987 40.0529 5.41437C40.216 5.39153 40.4159 5.38011 40.6525 5.38011C40.8809 5.38011 41.071 5.39153 41.2227 5.41437C41.3818 5.43069 41.5058 5.45761 41.5947 5.49514C41.691 5.53348 41.7563 5.58324 41.7905 5.64443C41.8248 5.69827 41.8391 5.76354 41.8334 5.84022L41.744 7.04312C42.0646 6.73801 42.3746 6.47084 42.674 6.2416C42.9816 6.00501 43.29 5.81044 43.5992 5.65789C43.9092 5.49718 44.2232 5.37889 44.5414 5.30302C44.8677 5.22633 45.2104 5.18799 45.5693 5.18799C46.3174 5.18799 46.9439 5.33687 47.4489 5.63464C47.9547 5.92507 48.3524 6.32603 48.642 6.83754C48.9398 7.34905 49.1397 7.94458 49.2417 8.62415C49.3436 9.30371 49.3661 10.029 49.309 10.7999L49.3077 10.7987ZM46.2913 11.0042C46.3239 10.5694 46.3207 10.1534 46.2815 9.75607C46.2505 9.35143 46.1665 8.99248 46.0294 8.67921C45.8989 8.36594 45.7113 8.11794 45.4665 7.9352C45.2299 7.7443 44.9199 7.64885 44.5365 7.64885C44.3456 7.64885 44.1523 7.67945 43.9565 7.74063C43.7688 7.79448 43.571 7.88625 43.363 8.01597C43.1623 8.14649 42.9514 8.31455 42.7303 8.52013C42.5101 8.72653 42.2735 8.98228 42.0206 9.28739L41.7697 12.6526C42.1368 13.1641 42.4929 13.561 42.838 13.8432C43.1839 14.1182 43.5551 14.2556 43.9516 14.2556C44.3269 14.2556 44.6507 14.1602 44.9232 13.9693C45.2047 13.7784 45.4412 13.5304 45.633 13.2253C45.8239 12.912 45.9723 12.5612 46.0784 12.1729C46.191 11.7837 46.2619 11.3942 46.2913 11.0042Z" fill="#11557C"/>
    <path d="M54.1168 16.0557C54.111 16.1324 54.0825 16.2009 54.0311 16.2613C53.9822 16.3151 53.8985 16.3608 53.7802 16.3983C53.6701 16.4367 53.5233 16.4636 53.3397 16.4791C53.1545 16.5019 52.9208 16.5134 52.6385 16.5134C52.3563 16.5134 52.1238 16.5019 51.941 16.4791C51.7591 16.4628 51.6122 16.4359 51.5005 16.3983C51.3961 16.36 51.3226 16.3143 51.2802 16.2613C51.2394 16.2001 51.2215 16.1316 51.2264 16.0557L52.3473 0.99559C52.353 0.918905 52.3815 0.850378 52.4329 0.790008C52.4835 0.728823 52.5635 0.679059 52.6728 0.640717C52.7911 0.595032 52.942 0.560768 53.1256 0.537926C53.3107 0.515083 53.5445 0.503662 53.8267 0.503662C54.109 0.503662 54.3415 0.515083 54.5243 0.537926C54.7062 0.560768 54.8489 0.595032 54.9525 0.640717C55.0643 0.679059 55.1406 0.728823 55.1814 0.790008C55.2222 0.851193 55.2401 0.919721 55.2352 0.99559L54.1143 16.0557H54.1168Z" fill="#11557C"/>
    <path d="M67.7181 10.8452C67.6529 11.7156 67.4791 12.5098 67.1968 13.2277C66.9146 13.9456 66.5213 14.564 66.0172 15.0828C65.513 15.6017 64.8991 16.0027 64.1755 16.2857C63.4519 16.568 62.6206 16.7091 61.6816 16.7091C60.7728 16.7091 59.9921 16.5827 59.3394 16.3298C58.6868 16.0769 58.1565 15.7106 57.7486 15.2309C57.3407 14.7496 57.0564 14.1581 56.8957 13.4565C56.7342 12.755 56.6869 11.9534 56.7538 11.052C56.819 10.1815 56.9928 9.38733 57.275 8.66942C57.5655 7.94336 57.9628 7.32498 58.4669 6.81429C58.9711 6.29544 59.5813 5.89447 60.2976 5.61139C61.0212 5.32912 61.8525 5.18799 62.7915 5.18799C63.7076 5.18799 64.4925 5.31444 65.1459 5.56734C65.7985 5.81208 66.3247 6.17511 66.7245 6.65643C67.1324 7.13775 67.4167 7.72921 67.5774 8.4308C67.7389 9.13239 67.7858 9.93799 67.7181 10.8476V10.8452ZM64.7445 10.9602C64.7821 10.456 64.7739 9.99428 64.7201 9.57496C64.6752 9.14748 64.5691 8.77711 64.4019 8.46384C64.2347 8.15057 63.9973 7.90583 63.6897 7.72962C63.3895 7.55422 62.9991 7.46652 62.5186 7.46652C62.0911 7.46652 61.711 7.54688 61.3781 7.70759C61.0461 7.86015 60.7655 8.08939 60.5362 8.39531C60.3078 8.69308 60.1242 9.05611 59.9855 9.48441C59.855 9.90455 59.7694 10.3859 59.7286 10.9284C59.691 11.4325 59.6984 11.8984 59.7506 12.3258C59.8036 12.746 59.9097 13.1123 60.0688 13.4247C60.236 13.738 60.4734 13.9827 60.781 14.159C61.0893 14.327 61.4801 14.411 61.9533 14.411C62.3881 14.411 62.7715 14.3348 63.1035 14.1822C63.4364 14.0215 63.717 13.7923 63.9454 13.4945C64.1739 13.1967 64.3534 12.8378 64.4839 12.4176C64.6144 11.9901 64.7001 11.5047 64.7409 10.9614L64.7445 10.9602Z" fill="#11557C"/>
    <path d="M75.7215 15.0486C75.6971 15.3847 75.6551 15.6441 75.5955 15.8269C75.5441 16.0023 75.4813 16.1287 75.407 16.2062C75.3336 16.2748 75.2255 16.34 75.0828 16.402C74.949 16.4559 74.7891 16.5016 74.6031 16.5391C74.4236 16.5848 74.2262 16.619 74.0108 16.6419C73.8028 16.6647 73.5919 16.6761 73.3782 16.6761C72.8055 16.6761 72.3148 16.6035 71.906 16.4583C71.4981 16.3131 71.1677 16.0916 70.9148 15.7938C70.6619 15.4887 70.4882 15.1069 70.3935 14.6485C70.2981 14.19 70.2736 13.6475 70.3201 13.0209L70.7093 7.78716H69.4856C69.3403 7.78716 69.2363 7.69946 69.1735 7.52406C69.1107 7.34051 69.0944 7.03866 69.1246 6.61852C69.1409 6.39826 69.1625 6.21062 69.1894 6.05562C69.2237 5.90306 69.2628 5.78477 69.3069 5.70074C69.3518 5.60938 69.4023 5.54411 69.4586 5.50495C69.5223 5.46661 69.5924 5.44744 69.6691 5.44744H70.883L71.0543 3.1689C71.06 3.09222 71.0845 3.02369 71.1278 2.96332C71.1783 2.90214 71.2583 2.85237 71.3676 2.81403C71.4859 2.76834 71.6368 2.73775 71.8204 2.72225C72.0129 2.69941 72.2466 2.68799 72.5216 2.68799C72.8038 2.68799 73.0363 2.69941 73.2191 2.72225C73.4091 2.73857 73.556 2.76916 73.6596 2.81403C73.764 2.85237 73.8366 2.90214 73.8774 2.96332C73.9182 3.02451 73.9362 3.09303 73.9313 3.1689L73.7599 5.44744H75.9822C76.0589 5.44744 76.1225 5.46661 76.1731 5.50495C76.2302 5.54329 76.2751 5.60856 76.3077 5.70074C76.3403 5.78477 76.3583 5.90306 76.3615 6.05562C76.373 6.20817 76.3705 6.39581 76.3542 6.61852C76.3232 7.03866 76.262 7.34051 76.1706 7.52406C76.0809 7.69946 75.9638 7.78716 75.8194 7.78716H73.5862L73.2289 12.5841C73.1881 13.1413 73.2452 13.5614 73.4002 13.8445C73.5552 14.1194 73.8578 14.2569 74.3082 14.2569C74.4607 14.2569 74.5994 14.2455 74.7242 14.2226C74.849 14.1924 74.9584 14.1618 75.0522 14.1308C75.1542 14.0925 75.2365 14.0619 75.2994 14.0391C75.3703 14.0089 75.4327 13.9938 75.4866 13.9938C75.5323 13.9938 75.5731 14.0089 75.609 14.0391C75.653 14.0619 75.6832 14.1149 75.6995 14.1981C75.7158 14.2748 75.7268 14.3817 75.7326 14.5187C75.7456 14.6558 75.744 14.8312 75.7277 15.0449L75.7215 15.0486Z" fill="#11557C"/>
    <path d="M80.6404 16.0557C80.6347 16.1324 80.6062 16.2009 80.5548 16.2613C80.5058 16.3151 80.4222 16.3608 80.3039 16.3983C80.1938 16.4367 80.0469 16.4636 79.8634 16.4791C79.6782 16.5019 79.4445 16.5134 79.1622 16.5134C78.8799 16.5134 78.6474 16.5019 78.4647 16.4791C78.2828 16.4628 78.1359 16.4359 78.0242 16.3983C77.9197 16.36 77.8463 16.3143 77.8039 16.2613C77.7631 16.2001 77.7452 16.1316 77.7501 16.0557L78.871 0.99559C78.8767 0.918905 78.9052 0.850378 78.9566 0.790008C79.0072 0.728823 79.0872 0.679059 79.1965 0.640717C79.3148 0.595032 79.4657 0.560768 79.6492 0.537926C79.8344 0.515083 80.0682 0.503662 80.3504 0.503662C80.6327 0.503662 80.8652 0.515083 81.0479 0.537926C81.2299 0.560768 81.3726 0.595032 81.4762 0.640717C81.588 0.679059 81.6643 0.728823 81.7051 0.790008C81.7459 0.851193 81.7638 0.919721 81.7589 0.99559L80.638 16.0557H80.6404Z" fill="#11557C"/>
    <path d="M86.4114 16.0557C86.4057 16.1324 86.3772 16.2009 86.3258 16.2613C86.2768 16.3151 86.1932 16.3608 86.0749 16.3983C85.9648 16.4367 85.8179 16.4636 85.6344 16.4791C85.4492 16.5019 85.2155 16.5134 84.9332 16.5134C84.6509 16.5134 84.4184 16.5019 84.2357 16.4791C84.0538 16.4628 83.9069 16.4359 83.7952 16.3983C83.6907 16.36 83.6173 16.3143 83.5749 16.2613C83.5341 16.2001 83.5162 16.1316 83.5211 16.0557L84.2797 5.86226C84.2855 5.78557 84.3132 5.72031 84.363 5.66646C84.4135 5.60528 84.4935 5.55552 84.6028 5.51717C84.7211 5.47149 84.872 5.43722 85.0556 5.41438C85.2408 5.39154 85.4745 5.38012 85.7568 5.38012C86.039 5.38012 86.2715 5.39154 86.4543 5.41438C86.6362 5.43722 86.779 5.47149 86.8826 5.51717C86.9943 5.55552 87.0706 5.60528 87.1114 5.66646C87.1522 5.72031 87.1701 5.78557 87.1652 5.86226L86.4065 16.0557H86.4114ZM87.6474 2.38205C87.6041 2.96127 87.4561 3.36223 87.2032 3.58495C86.9503 3.80521 86.5032 3.91535 85.862 3.91535C85.2134 3.91535 84.7823 3.80848 84.5685 3.59474C84.363 3.381 84.2814 2.99553 84.3238 2.43834C84.367 1.85912 84.5114 1.45815 84.757 1.23544C85.0099 1.00701 85.461 0.892799 86.1104 0.892799C86.7516 0.892799 87.1787 1.00293 87.3916 1.2232C87.6037 1.43694 87.6894 1.82241 87.6486 2.3796L87.6474 2.38205ZM99.9701 10.8109C99.9023 11.7197 99.7425 12.5367 99.4904 13.262C99.2375 13.9881 98.905 14.6064 98.493 15.1171C98.0811 15.6286 97.59 16.0218 97.0197 16.2968C96.4568 16.5717 95.8286 16.7092 95.1352 16.7092C94.7926 16.7092 94.4744 16.6749 94.1807 16.6064C93.887 16.5452 93.6084 16.442 93.3449 16.2968C93.0888 16.1516 92.8351 15.968 92.5838 15.7461C92.3407 15.5258 92.0935 15.2587 91.8422 14.9446L91.759 16.0557C91.7525 16.1397 91.7239 16.2123 91.6734 16.2735C91.6309 16.3274 91.5587 16.373 91.4568 16.4106C91.3621 16.4489 91.2341 16.4758 91.0725 16.4913C90.911 16.5077 90.7152 16.5158 90.4851 16.5158C90.2486 16.5158 90.0507 16.5077 89.8916 16.4913C89.7399 16.475 89.6159 16.4481 89.5196 16.4106C89.4299 16.3722 89.3687 16.3265 89.3361 16.2735C89.3035 16.2123 89.2896 16.1397 89.2945 16.0557L90.4154 0.99559C90.4211 0.918905 90.4497 0.850378 90.501 0.790008C90.5516 0.728823 90.6316 0.679059 90.7409 0.640717C90.8592 0.595032 91.0101 0.560768 91.1937 0.537926C91.3789 0.515083 91.6126 0.503662 91.8948 0.503662C92.1771 0.503662 92.4096 0.515083 92.5924 0.537926C92.7743 0.560768 92.917 0.595032 93.0207 0.640717C93.1324 0.679059 93.2087 0.728823 93.2495 0.790008C93.2903 0.851194 93.3082 0.919721 93.3033 0.99559L92.8836 6.64176C93.1626 6.38233 93.4387 6.16084 93.712 5.97728C93.9853 5.79373 94.2562 5.64485 94.5246 5.53063C94.7938 5.40826 95.0671 5.32056 95.3445 5.26754C95.6235 5.21369 95.9155 5.18677 96.2206 5.18677C96.9769 5.18677 97.6067 5.33933 98.11 5.64444C98.6158 5.9422 99.0131 6.34684 99.3019 6.85835C99.5997 7.36986 99.7996 7.96947 99.9015 8.65719C100.004 9.33676 100.026 10.0547 99.9701 10.8109ZM96.9659 11.0165C96.9985 10.5817 96.9952 10.1615 96.9561 9.75608C96.9251 9.35144 96.8411 8.99249 96.704 8.67922C96.5669 8.36595 96.3752 8.11795 96.1289 7.93521C95.8923 7.74431 95.5782 7.64886 95.1866 7.64886C94.9957 7.64886 94.8069 7.67578 94.62 7.72963C94.4324 7.78347 94.2346 7.87525 94.0265 8.00496C93.8258 8.13549 93.615 8.30354 93.3939 8.50913C93.1736 8.71552 92.937 8.97128 92.6841 9.27639L92.4321 12.666C92.7992 13.1849 93.1553 13.5818 93.5003 13.8567C93.8544 14.1243 94.2337 14.2581 94.6384 14.2581C95.0137 14.2581 95.3375 14.1626 95.61 13.9717C95.8841 13.7808 96.1166 13.5328 96.3075 13.2277C96.5058 12.9226 96.6575 12.5751 96.7627 12.1851C96.8688 11.796 96.9361 11.4064 96.9646 11.0165H96.9659Z" fill="#11557C"/>
    <path d="M62.4255 19.4202C67.2056 19.4202 71.0806 15.5452 71.0806 10.7651C71.0806 5.9851 67.2056 2.11011 62.4255 2.11011C57.6455 2.11011 53.7705 5.9851 53.7705 10.7651C53.7705 15.5452 57.6455 19.4202 62.4255 19.4202Z" fill="#F5F5F5" stroke="#F5F5F5" stroke-width="0.556892" stroke-miterlimit="100000" stroke-linejoin="round"/>
    <path opacity="0.05" d="M62.3653 18.9225C64.5438 18.9225 66.6331 18.057 68.1736 16.5166C69.714 14.9761 70.5794 12.8868 70.5794 10.7083C70.5794 8.52977 69.714 6.44047 68.1736 4.90001C66.6331 3.35956 64.5438 2.49414 62.3653 2.49414C61.2866 2.49414 60.2184 2.70661 59.2219 3.11941C58.2253 3.53221 57.3197 4.13726 56.557 4.90001C55.7942 5.66277 55.1892 6.56829 54.7764 7.56488C54.3636 8.56147 54.1511 9.6296 54.1511 10.7083C54.1511 11.787 54.3636 12.8551 54.7764 13.8517C55.1892 14.8483 55.7942 15.7538 56.557 16.5166C57.3197 17.2794 58.2253 17.8844 59.2219 18.2972C60.2184 18.71 61.2866 18.9225 62.3653 18.9225Z" fill="#F5F5F5"/>
    <mask id="mask0_572_2197" style="mask-type:luminance" maskUnits="userSpaceOnUse" x="54" y="2" width="17" height="17">
        <path d="M62.3664 18.9223C64.5455 18.9223 66.6368 18.056 68.1742 16.5162C69.7115 14.9764 70.5802 12.8876 70.5802 10.7085C70.5802 8.52933 69.714 6.43805 68.1742 4.9007C66.6344 3.36335 64.5455 2.49463 62.3664 2.49463C60.1873 2.49463 58.096 3.36335 56.5587 4.9007C55.0213 6.43805 54.1526 8.52933 54.1526 10.7085C54.1526 12.8876 55.0189 14.9789 56.5587 16.5162C58.0984 18.0536 60.1873 18.9223 62.3664 18.9223Z" fill="white"/>
    </mask>
    <g mask="url(#mask0_572_2197)">
        <path opacity="0.9" d="M62.3664 10.7085H70.5802M62.3664 10.7085L68.1742 4.9007M62.3664 10.7085V2.49463M62.3664 10.7085L56.5587 4.9007M62.3664 10.7085H54.1526" stroke="#858585" stroke-width="0.0488047" stroke-linecap="round" stroke-linejoin="round" stroke-dasharray="0.05 0.05"/>
    </g>
    <mask id="mask1_572_2197" style="mask-type:luminance" maskUnits="userSpaceOnUse" x="54" y="2" width="17" height="17">
        <path d="M62.3664 18.9223C64.5455 18.9223 66.6368 18.056 68.1742 16.5162C69.7115 14.9764 70.5802 12.8876 70.5802 10.7085C70.5802 8.52933 69.714 6.43805 68.1742 4.9007C66.6344 3.36335 64.5455 2.49463 62.3664 2.49463C60.1873 2.49463 58.096 3.36335 56.5587 4.9007C55.0213 6.43805 54.1526 8.52933 54.1526 10.7085C54.1526 12.8876 55.0189 14.9789 56.5587 16.5162C58.0984 18.0536 60.1873 18.9223 62.3664 18.9223Z" fill="white"/>
    </mask>
    <g mask="url(#mask1_572_2197)">
        <path opacity="0.9" d="M62.3668 10.7085L56.5591 16.5163M62.3668 10.7085V18.9223M62.3668 10.7085L68.1746 16.5163" stroke="#858585" stroke-width="0.0488047" stroke-linecap="round" stroke-linejoin="round" stroke-dasharray="0.05 0.05"/>
    </g>
    <mask id="mask2_572_2197" style="mask-type:luminance" maskUnits="userSpaceOnUse" x="54" y="2" width="17" height="17">
        <path d="M62.3664 18.9223C64.5455 18.9223 66.6368 18.056 68.1742 16.5162C69.7115 14.9764 70.5802 12.8876 70.5802 10.7085C70.5802 8.52933 69.714 6.43805 68.1742 4.9007C66.6344 3.36335 64.5455 2.49463 62.3664 2.49463C60.1873 2.49463 58.096 3.36335 56.5587 4.9007C55.0213 6.43805 54.1526 8.52933 54.1526 10.7085C54.1526 12.8876 55.0189 14.9789 56.5587 16.5162C58.0984 18.0536 60.1873 18.9223 62.3664 18.9223Z" fill="white"/>
    </mask>
    <g mask="url(#mask2_572_2197)">
        <path opacity="0.9" d="M63.2794 10.7085L63.255 10.4889L63.1745 10.2815L63.0476 10.0985L62.8768 9.95208L62.6815 9.85447L62.4619 9.80566L62.2423 9.81054L62.0276 9.86911L61.8323 9.97648L61.6688 10.1278L61.5468 10.3132L61.4736 10.5231L61.4541 10.7427L61.4883 10.9623L61.5761 11.1673L61.7103 11.3455L61.8811 11.4845L62.0837 11.5822L62.3033 11.6236L62.5229 11.6114L62.7352 11.5455L62.9256 11.4309L63.0817 11.2747L63.1964 11.0843L63.2623 10.872L63.277 10.7134" stroke="#818181" stroke-width="0.0488047" stroke-miterlimit="100" stroke-linecap="square" stroke-linejoin="round" stroke-dasharray="0.05 0.05"/>
    </g>
    <mask id="mask3_572_2197" style="mask-type:luminance" maskUnits="userSpaceOnUse" x="54" y="2" width="17" height="17">
        <path d="M62.3664 18.9223C64.5455 18.9223 66.6368 18.056 68.1742 16.5162C69.7115 14.9764 70.5802 12.8876 70.5802 10.7085C70.5802 8.52933 69.714 6.43805 68.1742 4.9007C66.6344 3.36335 64.5455 2.49463 62.3664 2.49463C60.1873 2.49463 58.096 3.36335 56.5587 4.9007C55.0213 6.43805 54.1526 8.52933 54.1526 10.7085C54.1526 12.8876 55.0189 14.9789 56.5587 16.5162C58.0984 18.0536 60.1873 18.9223 62.3664 18.9223Z" fill="white"/>
    </mask>
    <g mask="url(#mask3_572_2197)">
        <path opacity="0.9" d="M65.1048 10.7084L65.0804 10.3277L64.9999 9.95437L64.8681 9.59565L64.69 9.2589L64.4655 8.94899L64.197 8.67325L63.8969 8.43898L63.565 8.24865L63.2112 8.10223L62.8403 8.0095L62.4596 7.97046L62.0789 7.98266L61.7031 8.04855L61.3371 8.16568L60.9954 8.33649L60.6782 8.55123L60.3951 8.80746L60.1511 9.10029L59.9486 9.42484L59.7924 9.77379L59.6875 10.1398L59.6338 10.5181V10.9012L59.6875 11.2794L59.7924 11.6454L59.9486 11.9944L60.1511 12.319L60.3951 12.6118L60.6782 12.868L60.9954 13.0827L61.3371 13.2536L61.7031 13.3707L62.0789 13.4366L62.4596 13.4488L62.8403 13.4097L63.2112 13.317L63.565 13.1706L63.8969 12.9803L64.197 12.746L64.4655 12.4702L64.69 12.1603L64.8681 11.8236L64.9999 11.4649L65.0804 11.0915L65.1048 10.7108" stroke="#818181" stroke-width="0.0488047" stroke-miterlimit="100" stroke-linecap="square" stroke-linejoin="round" stroke-dasharray="0.05 0.05"/>
    </g>
    <mask id="mask4_572_2197" style="mask-type:luminance" maskUnits="userSpaceOnUse" x="54" y="2" width="17" height="17">
        <path d="M62.3664 18.9223C64.5455 18.9223 66.6368 18.056 68.1742 16.5162C69.7115 14.9764 70.5802 12.8876 70.5802 10.7085C70.5802 8.52933 69.714 6.43805 68.1742 4.9007C66.6344 3.36335 64.5455 2.49463 62.3664 2.49463C60.1873 2.49463 58.096 3.36335 56.5587 4.9007C55.0213 6.43805 54.1526 8.52933 54.1526 10.7085C54.1526 12.8876 55.0189 14.9789 56.5587 16.5162C58.0984 18.0536 60.1873 18.9223 62.3664 18.9223Z" fill="white"/>
    </mask>
    <g mask="url(#mask4_572_2197)">
        <path opacity="0.9" d="M66.9297 10.7084L66.9053 10.2325L66.8321 9.76157L66.7101 9.29792L66.5393 8.85136L66.3196 8.42676L66.0585 8.02656L65.7584 7.65565L65.4216 7.31889L65.0507 7.0163L64.6505 6.7552L64.2259 6.53558L63.7794 6.36476L63.3157 6.24275L62.8447 6.16954L62.3689 6.14514L61.8931 6.16954L61.4221 6.24275L60.9584 6.36476L60.5119 6.53558L60.0873 6.7552L59.6822 7.0163L59.3162 7.31645L58.9745 7.65809L58.6744 8.029L58.4133 8.4292L58.1937 8.8538L58.0228 9.30036L57.9008 9.76401L57.8276 10.235L57.8032 10.7108L57.8276 11.1867L57.9008 11.6576L58.0228 12.1213L58.1937 12.5678L58.4133 12.9924L58.6744 13.3926L58.9745 13.7635L59.3113 14.1003L59.6822 14.4005L60.0824 14.6616L60.507 14.8812L60.9536 15.052L61.4172 15.174L61.8882 15.2472L62.364 15.2716L62.8399 15.2472L63.3108 15.174L63.7745 15.052L64.221 14.8812L64.6456 14.6616L65.0507 14.4005L65.4216 14.1003L65.7584 13.7635L66.0585 13.3926L66.3196 12.9924L66.5393 12.5678L66.7101 12.1213L66.8321 11.6576L66.9053 11.1867L66.9297 10.7108" stroke="#818181" stroke-width="0.0488047" stroke-miterlimit="100" stroke-linecap="square" stroke-linejoin="round" stroke-dasharray="0.05 0.05"/>
    </g>
    <mask id="mask5_572_2197" style="mask-type:luminance" maskUnits="userSpaceOnUse" x="54" y="2" width="17" height="17">
        <path d="M62.3664 18.9223C64.5455 18.9223 66.6368 18.056 68.1742 16.5162C69.7115 14.9764 70.5802 12.8876 70.5802 10.7085C70.5802 8.52933 69.714 6.43805 68.1742 4.9007C66.6344 3.36335 64.5455 2.49463 62.3664 2.49463C60.1873 2.49463 58.096 3.36335 56.5587 4.9007C55.0213 6.43805 54.1526 8.52933 54.1526 10.7085C54.1526 12.8876 55.0189 14.9789 56.5587 16.5162C58.0984 18.0536 60.1873 18.9223 62.3664 18.9223Z" fill="white"/>
    </mask>
    <g mask="url(#mask5_572_2197)">
        <path opacity="0.9" d="M68.7548 10.7085L68.7207 10.0399L68.6158 9.38099L68.4449 8.73433L68.2058 8.10963L67.9032 7.51421L67.5372 6.95296L67.1175 6.43319L66.644 5.95978L66.1243 5.54006L65.563 5.17403L64.9676 4.87144L64.3429 4.6323L63.6962 4.46148L63.0374 4.35655L62.3688 4.32239L61.7001 4.35655L61.0413 4.46148L60.3946 4.6323L59.7699 4.87144L59.1745 5.17403L58.6132 5.54006L58.0935 5.95978L57.6201 6.43319L57.2003 6.95296L56.8343 7.51421L56.5317 8.10963L56.2926 8.73433L56.1218 9.38099L56.0168 10.0399L55.9827 10.7085L56.0168 11.3771L56.1218 12.036L56.2926 12.6826L56.5317 13.3073L56.8343 13.9027L57.2003 14.464L57.6201 14.9838L58.0935 15.4572L58.6132 15.8769L59.1745 16.2429L59.7699 16.5455L60.3946 16.7847L61.0413 16.9555L61.7001 17.0604L62.3688 17.0946L63.0374 17.0604L63.6962 16.9555L64.3429 16.7847L64.9676 16.5455L65.563 16.2429L66.1243 15.8769L66.644 15.4572L67.1175 14.9838L67.5347 14.4664L67.9008 13.9052L68.2034 13.3098L68.4425 12.6851L68.6133 12.0384L68.7182 11.3795L68.7524 10.7109" stroke="#818181" stroke-width="0.0488047" stroke-miterlimit="100" stroke-linecap="square" stroke-linejoin="round" stroke-dasharray="0.05 0.05"/>
    </g>
    <mask id="mask6_572_2197" style="mask-type:luminance" maskUnits="userSpaceOnUse" x="54" y="2" width="17" height="17">
        <path d="M62.3664 18.9223C64.5455 18.9223 66.6368 18.056 68.1742 16.5162C69.7115 14.9764 70.5802 12.8876 70.5802 10.7085C70.5802 8.52933 69.714 6.43805 68.1742 4.9007C66.6344 3.36335 64.5455 2.49463 62.3664 2.49463C60.1873 2.49463 58.096 3.36335 56.5587 4.9007C55.0213 6.43805 54.1526 8.52933 54.1526 10.7085C54.1526 12.8876 55.0189 14.9789 56.5587 16.5162C58.0984 18.0536 60.1873 18.9223 62.3664 18.9223Z" fill="white"/>
    </mask>
    <g mask="url(#mask6_572_2197)">
        <path opacity="0.56" d="M62.3665 10.7085L64.1063 10.1545L64.1088 10.1594L64.1161 10.1838L64.1185 10.196L64.1259 10.2204L64.1283 10.2326L64.1356 10.257L64.1454 10.2961L64.1527 10.3302L64.16 10.3693L64.1649 10.3986L64.1673 10.4108L64.1698 10.4352V10.4474L64.1747 10.4767V10.4889L64.1771 10.5133L64.1795 10.5255L64.182 10.5499L64.1844 10.5669V10.584L64.1869 10.6084V10.6206V10.645V10.6621V10.6792V10.6963V10.7207H62.3811L62.3665 10.7085Z" fill="#004CFF" stroke="black" stroke-width="0.112251" stroke-miterlimit="100" stroke-linejoin="round"/>
    </g>
    <mask id="mask7_572_2197" style="mask-type:luminance" maskUnits="userSpaceOnUse" x="54" y="2" width="17" height="17">
        <path d="M62.3664 18.9223C64.5455 18.9223 66.6368 18.056 68.1742 16.5162C69.7115 14.9764 70.5802 12.8876 70.5802 10.7085C70.5802 8.52933 69.714 6.43805 68.1742 4.9007C66.6344 3.36335 64.5455 2.49463 62.3664 2.49463C60.1873 2.49463 58.096 3.36335 56.5587 4.9007C55.0213 6.43805 54.1526 8.52933 54.1526 10.7085C54.1526 12.8876 55.0189 14.9789 56.5587 16.5162C58.0984 18.0536 60.1873 18.9223 62.3664 18.9223Z" fill="white"/>
    </mask>
    <g mask="url(#mask7_572_2197)">
        <path opacity="0.56" d="M62.3665 10.7085L64.3235 5.59375L64.4211 5.63035L64.5187 5.6694L64.5334 5.67672L64.6115 5.71088L64.6261 5.7182L64.7188 5.76213L64.8262 5.81581L64.8994 5.85485L64.9287 5.87194L64.9897 5.90366L65.019 5.92074L65.0922 5.96223L65.1068 5.97199L65.1947 6.02567L65.2825 6.07936L65.2972 6.08912L65.3704 6.13792L65.385 6.14768L65.4704 6.20625L65.5558 6.26481L65.5705 6.27458L65.6388 6.32338L65.6632 6.3429L65.7169 6.38439L65.7413 6.40879L65.7657 6.43319L62.386 10.6719L62.3665 10.7085Z" fill="#CEFF29" stroke="black" stroke-width="0.112251" stroke-miterlimit="100" stroke-linejoin="round"/>
    </g>
    <mask id="mask8_572_2197" style="mask-type:luminance" maskUnits="userSpaceOnUse" x="54" y="2" width="17" height="17">
        <path d="M62.3664 18.9223C64.5455 18.9223 66.6368 18.056 68.1742 16.5162C69.7115 14.9764 70.5802 12.8876 70.5802 10.7085C70.5802 8.52933 69.714 6.43805 68.1742 4.9007C66.6344 3.36335 64.5455 2.49463 62.3664 2.49463C60.1873 2.49463 58.096 3.36335 56.5587 4.9007C55.0213 6.43805 54.1526 8.52933 54.1526 10.7085C54.1526 12.8876 55.0189 14.9789 56.5587 16.5162C58.0984 18.0536 60.1873 18.9223 62.3664 18.9223Z" fill="white"/>
    </mask>
    <g mask="url(#mask8_572_2197)">
        <path opacity="0.56" d="M62.3664 10.7085L57.6885 5.10328L57.7958 5.01543L57.9301 4.90806L58.013 4.84705L58.0374 4.82753L58.1204 4.76652L58.1765 4.72748L58.2326 4.68844L58.2888 4.64939L58.3449 4.61035L58.4303 4.55422L58.4596 4.5347L58.5474 4.48102L58.5767 4.46394L58.6987 4.39073L58.8207 4.3224L58.972 4.23943L59.0648 4.19063L59.0965 4.17599L59.2185 4.11498L59.3405 4.05642L59.4991 3.98809L59.5967 3.94905L59.6285 3.93685L59.7554 3.88804L59.8847 3.83924L60.0482 3.78311L60.1458 3.75139L60.1775 3.74163L60.3093 3.70258L60.4411 3.66598L60.607 3.62206L60.7046 3.59765L60.7388 3.59033L62.3493 10.6377L62.3664 10.7085Z" fill="#FF6800" stroke="black" stroke-width="0.112251" stroke-miterlimit="100" stroke-linejoin="round"/>
    </g>
    <mask id="mask9_572_2197" style="mask-type:luminance" maskUnits="userSpaceOnUse" x="54" y="2" width="17" height="17">
        <path d="M62.3664 18.9223C64.5455 18.9223 66.6368 18.056 68.1742 16.5162C69.7115 14.9764 70.5802 12.8876 70.5802 10.7085C70.5802 8.52933 69.714 6.43805 68.1742 4.9007C66.6344 3.36335 64.5455 2.49463 62.3664 2.49463C60.1873 2.49463 58.096 3.36335 56.5587 4.9007C55.0213 6.43805 54.1526 8.52933 54.1526 10.7085C54.1526 12.8876 55.0189 14.9789 56.5587 16.5162C58.0984 18.0536 60.1873 18.9223 62.3664 18.9223Z" fill="white"/>
    </mask>
    <g mask="url(#mask9_572_2197)">
        <path opacity="0.56" d="M62.3663 10.7084L56.0803 11.848L56.073 11.8089L56.0608 11.7308L56.0486 11.6503L56.0437 11.6113L56.0339 11.5307L56.029 11.4917L56.0193 11.4112L56.0144 11.3721L56.0022 11.2501L55.9924 11.1281L55.9851 11.0061L55.9827 10.9671L55.9802 10.8865V10.8475L55.9778 10.767V10.7279V10.6474V10.5669V10.5278L55.9802 10.4473L55.9827 10.4082L55.9875 10.3277L55.9924 10.2472V10.2081L55.9997 10.1276L56.0046 10.0886L56.0119 10.008L56.0217 9.92751L56.0266 9.88847L56.0363 9.80794L56.0412 9.7689L56.0534 9.68837L56.0608 9.64932L56.0852 9.52731L56.1096 9.41018L56.134 9.29305L56.1437 9.25401L56.1632 9.17592L56.173 9.13688L56.1925 9.05879L56.2023 9.01975L56.2267 8.94166L56.2511 8.86357L56.2633 8.82453L56.2877 8.75132L56.2999 8.71228L56.3243 8.63907L56.3487 8.56586L56.3633 8.52926L56.3877 8.45605L56.4024 8.41945L56.4317 8.34624L56.4463 8.30964L56.4951 8.19739L56.5439 8.08758L56.5927 7.97777L56.6098 7.94116L62.3077 10.684L62.3663 10.7084Z" fill="#FFC400" stroke="black" stroke-width="0.112251" stroke-miterlimit="100" stroke-linejoin="round"/>
    </g>
    <mask id="mask10_572_2197" style="mask-type:luminance" maskUnits="userSpaceOnUse" x="54" y="2" width="17" height="17">
        <path d="M62.3664 18.9223C64.5455 18.9223 66.6368 18.056 68.1742 16.5162C69.7115 14.9764 70.5802 12.8876 70.5802 10.7085C70.5802 8.52933 69.714 6.43805 68.1742 4.9007C66.6344 3.36335 64.5455 2.49463 62.3664 2.49463C60.1873 2.49463 58.096 3.36335 56.5587 4.9007C55.0213 6.43805 54.1526 8.52933 54.1526 10.7085C54.1526 12.8876 55.0189 14.9789 56.5587 16.5162C58.0984 18.0536 60.1873 18.9223 62.3664 18.9223Z" fill="white"/>
    </mask>
    <g mask="url(#mask10_572_2197)">
        <path opacity="0.6" d="M62.3663 10.7085L59.3502 12.7632L59.338 12.7437L59.3087 12.6997L59.2965 12.6802L59.2721 12.6412L59.2575 12.6168L59.2331 12.5777L59.2184 12.5533L59.1989 12.5191L59.1818 12.4899L59.1623 12.4557L59.1452 12.4264L59.1281 12.3971L59.1086 12.3605L59.094 12.3288L59.0769 12.2922L62.3322 10.7231L62.3663 10.7085Z" fill="#29FFCE" stroke="black" stroke-width="0.112251" stroke-miterlimit="100" stroke-linejoin="round"/>
    </g>
    <mask id="mask11_572_2197" style="mask-type:luminance" maskUnits="userSpaceOnUse" x="54" y="2" width="17" height="17">
        <path d="M62.3664 18.9223C64.5455 18.9223 66.6368 18.056 68.1742 16.5162C69.7115 14.9764 70.5802 12.8876 70.5802 10.7085C70.5802 8.52933 69.714 6.43805 68.1742 4.9007C66.6344 3.36335 64.5455 2.49463 62.3664 2.49463C60.1873 2.49463 58.096 3.36335 56.5587 4.9007C55.0213 6.43805 54.1526 8.52933 54.1526 10.7085C54.1526 12.8876 55.0189 14.9789 56.5587 16.5162C58.0984 18.0536 60.1873 18.9223 62.3664 18.9223Z" fill="white"/>
    </mask>
    <g mask="url(#mask11_572_2197)">
        <path opacity="0.56" d="M62.3664 10.7085L63.1302 15.2083L63.0424 15.2229H63.0253L62.9521 15.2327L62.935 15.2351L62.8618 15.2424H62.8447L62.7715 15.2498L62.7544 15.2522L62.6812 15.2571H62.6642L62.5909 15.262H62.5543L62.5007 15.2644H62.4836H62.3933H62.3396H62.3225H62.2493H62.2322L62.159 15.262H62.1419L62.0687 15.2571H62.0517L61.9784 15.2522L61.9418 15.2498L61.9052 15.2473H61.8516L61.7979 15.24L61.7613 15.2351L61.7076 15.2278H61.671L61.6173 15.2205L61.5831 15.2156L61.5294 15.2058L61.4953 15.1985L61.4416 15.1888L61.4074 15.1814L61.3342 15.1668L62.3396 10.7622L62.3664 10.7085Z" fill="#7DFF7A" stroke="black" stroke-width="0.112251" stroke-miterlimit="100" stroke-linejoin="round"/>
    </g>
    <mask id="mask12_572_2197" style="mask-type:luminance" maskUnits="userSpaceOnUse" x="54" y="2" width="17" height="17">
        <path d="M62.3664 18.9223C64.5455 18.9223 66.6368 18.056 68.1742 16.5162C69.7115 14.9764 70.5802 12.8876 70.5802 10.7085C70.5802 8.52933 69.714 6.43805 68.1742 4.9007C66.6344 3.36335 64.5455 2.49463 62.3664 2.49463C60.1873 2.49463 58.096 3.36335 56.5587 4.9007C55.0213 6.43805 54.1526 8.52933 54.1526 10.7085C54.1526 12.8876 55.0189 14.9789 56.5587 16.5162C58.0984 18.0536 60.1873 18.9223 62.3664 18.9223Z" fill="white"/>
    </mask>
    <g mask="url(#mask12_572_2197)">
        <path opacity="0.56" d="M62.3665 10.7085L68.1156 15.2107L68.0302 15.3181L67.9326 15.4401L67.8423 15.545L67.7398 15.6597L67.6422 15.7573L67.5349 15.8671L67.4373 15.9648L67.325 16.0721L67.2225 16.1649L67.1054 16.2673L67.0005 16.3552L66.9199 16.4211L62.4153 10.7646L62.3665 10.7085Z" fill="#FF6800" stroke="black" stroke-width="0.112251" stroke-miterlimit="100" stroke-linejoin="round"/>
    </g>
    <path d="M62.3653 18.9225C64.5438 18.9225 66.6331 18.057 68.1736 16.5166C69.714 14.9761 70.5794 12.8868 70.5794 10.7083C70.5794 8.52977 69.714 6.44047 68.1736 4.90001C66.6331 3.35956 64.5438 2.49414 62.3653 2.49414C61.2866 2.49414 60.2184 2.70661 59.2219 3.11941C58.2253 3.53221 57.3197 4.13726 56.557 4.90001C55.7942 5.66277 55.1892 6.56829 54.7764 7.56488C54.3636 8.56147 54.1511 9.62961 54.1511 10.7083C54.1511 11.787 54.3636 12.8551 54.7764 13.8517C55.1892 14.8483 55.7942 15.7538 56.557 16.5166C57.3197 17.2794 58.2253 17.8844 59.2219 18.2972C60.2184 18.71 61.2866 18.9225 62.3653 18.9225V18.9225Z" stroke="#11557C" stroke-width="0.24364" stroke-miterlimit="100000"/>
    <mask id="mask13_572_2197" style="mask-type:luminance" maskUnits="userSpaceOnUse" x="54" y="2" width="17" height="17">
        <path d="M62.3659 18.9224C64.5451 18.9224 66.6363 18.0561 68.1737 16.5163C69.711 14.9765 70.5798 12.8877 70.5798 10.7086C70.5798 8.52945 69.7135 6.43817 68.1737 4.90082C66.6339 3.36347 64.5451 2.49475 62.3659 2.49475C60.1868 2.49475 58.0955 3.36347 56.5582 4.90082C55.0208 6.43817 54.1521 8.52945 54.1521 10.7086C54.1521 12.8877 55.0184 14.979 56.5582 16.5163C58.098 18.0537 60.1868 18.9224 62.3659 18.9224Z" fill="white"/>
    </mask>
    <g mask="url(#mask13_572_2197)">
        <path opacity="0.6" d="M62.366 10.7086L64.1059 10.1547L64.1083 10.1595L64.1156 10.1839L64.1181 10.1961L64.1254 10.2205L64.1278 10.2328L64.1351 10.2572L64.1449 10.2962L64.1522 10.3304L64.1595 10.3694L64.1644 10.3987L64.1669 10.4109L64.1693 10.4353V10.4475L64.1742 10.4768V10.489L64.1766 10.5134L64.1791 10.5256L64.1815 10.55L64.1839 10.5671V10.5841L64.1864 10.6085V10.6207V10.6451V10.6622V10.6793V10.6964V10.7208H62.3806L62.366 10.7086Z" stroke="black" stroke-width="0.112251" stroke-miterlimit="100" stroke-linejoin="round"/>
    </g>
    <mask id="mask14_572_2197" style="mask-type:luminance" maskUnits="userSpaceOnUse" x="54" y="2" width="17" height="17">
        <path d="M62.3659 18.9224C64.5451 18.9224 66.6363 18.0561 68.1737 16.5163C69.711 14.9765 70.5798 12.8877 70.5798 10.7086C70.5798 8.52945 69.7135 6.43817 68.1737 4.90082C66.6339 3.36347 64.5451 2.49475 62.3659 2.49475C60.1868 2.49475 58.0955 3.36347 56.5582 4.90082C55.0208 6.43817 54.1521 8.52945 54.1521 10.7086C54.1521 12.8877 55.0184 14.979 56.5582 16.5163C58.098 18.0537 60.1868 18.9224 62.3659 18.9224Z" fill="white"/>
    </mask>
    <g mask="url(#mask14_572_2197)">
        <path opacity="0.6" d="M62.366 10.7086L64.323 5.59387L64.4206 5.63048L64.5183 5.66952L64.5329 5.67684L64.611 5.711L64.6256 5.71832L64.7184 5.76225L64.8257 5.81593L64.8989 5.85498L64.9282 5.87206L64.9892 5.90378L65.0185 5.92086L65.0917 5.96235L65.1063 5.97211L65.1942 6.02579L65.282 6.07948L65.2967 6.08924L65.3699 6.13804L65.3845 6.14781L65.4699 6.20637L65.5554 6.26494L65.57 6.2747L65.6383 6.3235L65.6627 6.34302L65.7164 6.38451L65.7408 6.40891L65.7652 6.43331L62.3855 10.672L62.366 10.7086Z" stroke="black" stroke-width="0.112251" stroke-miterlimit="100" stroke-linejoin="round"/>
    </g>
    <mask id="mask15_572_2197" style="mask-type:luminance" maskUnits="userSpaceOnUse" x="54" y="2" width="17" height="17">
        <path d="M62.3659 18.9224C64.5451 18.9224 66.6363 18.0561 68.1737 16.5163C69.711 14.9765 70.5798 12.8877 70.5798 10.7086C70.5798 8.52945 69.7135 6.43817 68.1737 4.90082C66.6339 3.36347 64.5451 2.49475 62.3659 2.49475C60.1868 2.49475 58.0955 3.36347 56.5582 4.90082C55.0208 6.43817 54.1521 8.52945 54.1521 10.7086C54.1521 12.8877 55.0184 14.979 56.5582 16.5163C58.098 18.0537 60.1868 18.9224 62.3659 18.9224Z" fill="white"/>
    </mask>
    <g mask="url(#mask15_572_2197)">
        <path opacity="0.6" d="M62.3659 10.7086L57.688 5.1034L57.7954 5.01555L57.9296 4.90818L58.0125 4.84717L58.0369 4.82765L58.1199 4.76665L58.176 4.7276L58.2322 4.68856L58.2883 4.64952L58.3444 4.61047L58.4298 4.55435L58.4591 4.53482L58.5469 4.48114L58.5762 4.46406L58.6982 4.39085L58.8203 4.32252L58.9716 4.23956L59.0643 4.19075L59.096 4.17611L59.218 4.1151L59.34 4.05654L59.4986 3.98821L59.5963 3.94917L59.628 3.93697L59.7549 3.88816L59.8842 3.83936L60.0477 3.78323L60.1453 3.75151L60.177 3.74175L60.3088 3.7027L60.4406 3.6661L60.6065 3.62218L60.7041 3.59777L60.7383 3.59045L62.3488 10.6378L62.3659 10.7086Z" stroke="black" stroke-width="0.112251" stroke-miterlimit="100" stroke-linejoin="round"/>
    </g>
    <mask id="mask16_572_2197" style="mask-type:luminance" maskUnits="userSpaceOnUse" x="54" y="2" width="17" height="17">
        <path d="M62.3659 18.9224C64.5451 18.9224 66.6363 18.0561 68.1737 16.5163C69.711 14.9765 70.5798 12.8877 70.5798 10.7086C70.5798 8.52945 69.7135 6.43817 68.1737 4.90082C66.6339 3.36347 64.5451 2.49475 62.3659 2.49475C60.1868 2.49475 58.0955 3.36347 56.5582 4.90082C55.0208 6.43817 54.1521 8.52945 54.1521 10.7086C54.1521 12.8877 55.0184 14.979 56.5582 16.5163C58.098 18.0537 60.1868 18.9224 62.3659 18.9224Z" fill="white"/>
    </mask>
    <g mask="url(#mask16_572_2197)">
        <path opacity="0.6" d="M62.3658 10.7085L56.0798 11.8481L56.0725 11.8091L56.0603 11.731L56.0481 11.6504L56.0432 11.6114L56.0334 11.5309L56.0285 11.4918L56.0188 11.4113L56.0139 11.3723L56.0017 11.2502L55.9919 11.1282L55.9846 11.0062L55.9822 10.9672L55.9797 10.8866V10.8476L55.9773 10.7671V10.728V10.6475V10.567V10.5279L55.9797 10.4474L55.9822 10.4084L55.9871 10.3278L55.9919 10.2473V10.2083L55.9993 10.1277L56.0041 10.0887L56.0115 10.0082L56.0212 9.92763L56.0261 9.88859L56.0359 9.80806L56.0407 9.76902L56.0529 9.68849L56.0603 9.64945L56.0847 9.52744L56.1091 9.4103L56.1335 9.29317L56.1432 9.25413L56.1628 9.17604L56.1725 9.137L56.192 9.05891L56.2018 9.01987L56.2262 8.94178L56.2506 8.86369L56.2628 8.82465L56.2872 8.75144L56.2994 8.7124L56.3238 8.63919L56.3482 8.56598L56.3629 8.52938L56.3873 8.45617L56.4019 8.41957L56.4312 8.34636L56.4458 8.30976L56.4946 8.19751L56.5434 8.0877L56.5922 7.97789L56.6093 7.94128L62.3073 10.6841L62.3658 10.7085Z" stroke="black" stroke-width="0.112251" stroke-miterlimit="100" stroke-linejoin="round"/>
    </g>
    <mask id="mask17_572_2197" style="mask-type:luminance" maskUnits="userSpaceOnUse" x="54" y="2" width="17" height="17">
        <path d="M62.3659 18.9224C64.5451 18.9224 66.6363 18.0561 68.1737 16.5163C69.711 14.9765 70.5798 12.8877 70.5798 10.7086C70.5798 8.52945 69.7135 6.43817 68.1737 4.90082C66.6339 3.36347 64.5451 2.49475 62.3659 2.49475C60.1868 2.49475 58.0955 3.36347 56.5582 4.90082C55.0208 6.43817 54.1521 8.52945 54.1521 10.7086C54.1521 12.8877 55.0184 14.979 56.5582 16.5163C58.098 18.0537 60.1868 18.9224 62.3659 18.9224Z" fill="white"/>
    </mask>
    <g mask="url(#mask17_572_2197)">
        <path opacity="0.56" d="M62.3659 10.7086L59.3497 12.7633L59.3375 12.7438L59.3082 12.6998L59.296 12.6803L59.2716 12.6413L59.257 12.6169L59.2326 12.5778L59.2179 12.5534L59.1984 12.5193L59.1813 12.49L59.1618 12.4558L59.1447 12.4265L59.1277 12.3973L59.1081 12.3607L59.0935 12.3289L59.0764 12.2923L62.3317 10.7233L62.3659 10.7086Z" stroke="black" stroke-width="0.112251" stroke-miterlimit="100" stroke-linejoin="round"/>
    </g>
    <mask id="mask18_572_2197" style="mask-type:luminance" maskUnits="userSpaceOnUse" x="54" y="2" width="17" height="17">
        <path d="M62.3659 18.9224C64.5451 18.9224 66.6363 18.0561 68.1737 16.5163C69.711 14.9765 70.5798 12.8877 70.5798 10.7086C70.5798 8.52945 69.7135 6.43817 68.1737 4.90082C66.6339 3.36347 64.5451 2.49475 62.3659 2.49475C60.1868 2.49475 58.0955 3.36347 56.5582 4.90082C55.0208 6.43817 54.1521 8.52945 54.1521 10.7086C54.1521 12.8877 55.0184 14.979 56.5582 16.5163C58.098 18.0537 60.1868 18.9224 62.3659 18.9224Z" fill="white"/>
    </mask>
    <g mask="url(#mask18_572_2197)">
        <path opacity="0.6" d="M62.366 10.7086L63.1298 15.2084L63.0419 15.223H63.0248L62.9516 15.2328L62.9345 15.2353L62.8613 15.2426H62.8442L62.771 15.2499L62.754 15.2523L62.6807 15.2572H62.6637L62.5905 15.2621H62.5539L62.5002 15.2645H62.4831H62.3928H62.3391H62.322H62.2488H62.2317L62.1585 15.2621H62.1415L62.0683 15.2572H62.0512L61.978 15.2523L61.9414 15.2499L61.9048 15.2475H61.8511L61.7974 15.2401L61.7608 15.2353L61.7071 15.2279H61.6705L61.6168 15.2206L61.5826 15.2157L61.529 15.206L61.4948 15.1986L61.4411 15.1889L61.4069 15.1816L61.3337 15.1669L62.3391 10.7623L62.366 10.7086Z" stroke="black" stroke-width="0.112251" stroke-miterlimit="100" stroke-linejoin="round"/>
    </g>
    <mask id="mask19_572_2197" style="mask-type:luminance" maskUnits="userSpaceOnUse" x="54" y="2" width="17" height="17">
        <path d="M62.3659 18.9224C64.5451 18.9224 66.6363 18.0561 68.1737 16.5163C69.711 14.9765 70.5798 12.8877 70.5798 10.7086C70.5798 8.52945 69.7135 6.43817 68.1737 4.90082C66.6339 3.36347 64.5451 2.49475 62.3659 2.49475C60.1868 2.49475 58.0955 3.36347 56.5582 4.90082C55.0208 6.43817 54.1521 8.52945 54.1521 10.7086C54.1521 12.8877 55.0184 14.979 56.5582 16.5163C58.098 18.0537 60.1868 18.9224 62.3659 18.9224Z" fill="white"/>
    </mask>
    <g mask="url(#mask19_572_2197)">
        <path opacity="0.6" d="M62.366 10.7086L68.1152 15.2108L68.0297 15.3182L67.9321 15.4402L67.8419 15.5452L67.7394 15.6599L67.6418 15.7575L67.5344 15.8673L67.4368 15.9649L67.3245 16.0723L67.222 16.165L67.1049 16.2675L67 16.3553L66.9194 16.4212L62.4148 10.7647L62.366 10.7086Z" stroke="black" stroke-width="0.112251" stroke-miterlimit="100" stroke-linejoin="round"/>
    </g>
</svg>
