<svg xmlns="http://www.w3.org/2000/svg" width="100" height="100" viewBox="0 0 100 69" fill="none">
    <path d="M24.0417 62.4646H20.1831C20.0467 55.9517 19.6709 49.8287 19.0565 44.0911H19.0222L13.1475 62.4646H10.2097L4.37006 44.0911H4.33651C3.90331 49.5997 3.63041 55.7242 3.51708 62.4646H0C0.226668 54.2681 0.796319 46.5837 1.70672 39.4109H6.48911L12.0551 56.3506H12.0894L17.6898 39.4109H22.2656C23.2677 47.8125 23.8597 55.4976 24.0417 62.4646ZM40.7756 45.4556C39.2046 53.981 37.1317 60.1756 34.5594 64.0423C32.5551 67.0189 30.3593 68.5086 27.9681 68.5086C27.3306 68.5086 26.544 68.3162 25.6119 67.9345V65.8788C26.0675 65.9444 26.6021 65.9817 27.2165 65.9817C28.3335 65.9817 29.2312 65.6745 29.9156 65.0586C30.7343 64.3085 31.1437 63.4652 31.1437 62.5325C31.1437 61.8927 30.8246 60.5849 30.1878 58.6046L25.9534 45.4549H29.7442L32.7833 55.2895C33.4663 57.5227 33.7511 59.0818 33.637 59.9698C35.299 55.5311 36.4599 50.6913 37.1213 45.4541H40.7756V45.4556Z" fill="#5D87A1"/>
    <path d="M92.1375 62.4647H81.1769V39.411H84.864V59.6269H92.1375V62.4647ZM78.3078 63.0217L74.0697 60.9302C74.4455 60.6215 74.8049 60.2875 75.1285 59.9005C76.9299 57.7845 77.8284 54.6551 77.8284 50.5102C77.8284 42.8833 74.8355 39.068 68.8474 39.068C65.9112 39.068 63.6206 40.0358 61.9825 41.9722C60.1826 44.0897 59.2841 47.2079 59.2841 51.3304C59.2841 55.3828 60.0805 58.3556 61.6738 60.2413C63.1315 61.9495 65.3288 62.8047 68.2673 62.8047C69.3634 62.8047 70.3692 62.6705 71.2856 62.3998L76.8032 65.612L78.3078 63.0217ZM64.5788 57.8516C63.6452 56.3499 63.1785 53.9386 63.1785 50.6139C63.1785 44.8092 64.9419 41.9036 68.4724 41.9036C70.3178 41.9036 71.6703 42.5985 72.5352 43.9853C73.4673 45.4892 73.9363 47.8789 73.9363 51.1574C73.9363 57.0098 72.1714 59.9363 68.6431 59.9363C66.797 59.9371 65.4444 59.2444 64.5788 57.8516ZM57.6773 56.0748C57.6773 58.0298 56.96 59.6336 55.527 60.89C54.0924 62.1411 52.1687 62.7682 49.7581 62.7682C47.5034 62.7682 45.3172 62.0479 43.2012 60.6148L44.1921 58.6352C46.0129 59.5471 47.6615 60.0004 49.1415 60.0004C50.5306 60.0004 51.6162 59.6925 52.4036 59.0818C53.1902 58.4689 53.6592 57.6093 53.6592 56.5221C53.6592 55.1524 52.7041 53.9818 50.9519 53.0013C49.3361 52.1141 46.1046 50.259 46.1046 50.259C44.3531 48.9825 43.4763 47.612 43.4763 45.3543C43.4763 43.4858 44.1302 41.9774 45.4388 40.8299C46.7488 39.6779 48.4391 39.1038 50.5112 39.1038C52.6511 39.1038 54.5964 39.6772 56.3486 40.812L55.4599 42.7923C53.9612 42.1556 52.4819 41.8372 51.0227 41.8372C49.8409 41.8372 48.9283 42.1213 48.2937 42.6917C47.654 43.2599 47.2596 43.9868 47.2596 44.8786C47.2596 46.2416 48.2348 47.4271 50.0348 48.427C51.6721 49.3158 54.9842 51.2029 54.9842 51.2029C56.7804 52.4772 57.6773 53.8349 57.6773 56.0748Z" fill="#F8981D"/>
    <path d="M96.766 31.6893C94.5367 31.6327 92.8105 31.8571 91.3618 32.47C90.9435 32.637 90.2784 32.637 90.2203 33.1656C90.4462 33.3893 90.4723 33.7502 90.6684 34.0589C91.0024 34.6159 91.5848 35.3652 92.1164 35.7559C92.7002 36.2033 93.2863 36.6462 93.9006 37.0361C94.984 37.7065 96.2121 38.0964 97.2678 38.7645C97.883 39.153 98.4944 39.6555 99.1103 40.0738C99.413 40.2967 99.6069 40.6584 99.9998 40.7978V40.7128C99.8029 40.4623 99.747 40.0999 99.5539 39.821L98.7173 39.0143C97.9091 37.9287 96.9047 36.981 95.8214 36.2025C94.9296 35.5882 92.9791 34.7531 92.6174 33.7256L92.5608 33.6689C93.1737 33.6115 93.9006 33.3893 94.483 33.2186C95.4306 32.9688 96.2948 33.0255 97.2671 32.7757C97.7145 32.6638 98.1581 32.5237 98.607 32.3857V32.1345C98.1029 31.6327 97.7436 30.9661 97.2134 30.4919C95.7953 29.2668 94.2324 28.0686 92.6174 27.0658C91.7525 26.5073 90.6401 26.1479 89.7192 25.6729C89.3874 25.5052 88.8282 25.4224 88.6329 25.1436C88.1333 24.5307 87.8522 23.7239 87.4898 22.9984C86.6846 21.4677 85.9024 19.7691 85.2075 18.1504C84.7049 17.0648 84.3992 15.9807 83.7863 14.9763C80.9157 10.2416 77.7983 7.37401 73.007 4.5593C71.9773 3.97325 70.7522 3.72346 69.4437 3.41627L67.3537 3.30592C66.9078 3.11057 66.4612 2.58043 66.072 2.32991C64.4823 1.3278 60.3896 -0.844186 59.2205 2.02346C58.4674 3.83605 60.3345 5.61808 60.9757 6.53742C61.4491 7.17567 62.0628 7.9019 62.3938 8.62664C62.5899 9.10011 62.6451 9.60265 62.8412 10.103C63.2871 11.3288 63.7039 12.6925 64.2899 13.8363C64.5957 14.4193 64.9289 15.0322 65.3197 15.5601C65.5433 15.8688 65.9325 16.0053 66.0175 16.5086C65.6291 17.0633 65.5985 17.9006 65.3756 18.597C64.3735 21.7443 64.7649 25.6431 66.1853 27.956C66.6297 28.6524 67.69 30.1854 69.1081 29.5979C70.3638 29.0968 70.0856 27.5094 70.4465 26.1173C70.5293 25.7811 70.4748 25.5604 70.6419 25.3397V25.3941C71.0303 26.1733 71.4225 26.9241 71.7827 27.7055C72.6468 29.0692 74.1515 30.4904 75.4049 31.4351C76.0722 31.9391 76.6008 32.801 77.4367 33.109V33.0255H77.3815C77.2122 32.7757 76.9647 32.6638 76.7425 32.47C76.24 31.9682 75.6837 31.3553 75.2938 30.7991C74.1261 29.2385 73.0927 27.5109 72.1756 25.7281C71.7267 24.8632 71.3398 23.9178 70.9781 23.0543C70.8096 22.721 70.8096 22.2185 70.53 22.0507C70.111 22.6629 69.5003 23.193 69.1946 23.9431C68.6645 25.1428 68.6093 26.6184 68.4125 28.1529L68.3029 28.2065C67.4156 27.9836 67.1069 27.0658 66.7699 26.2866C65.9355 24.3077 65.7954 21.1314 66.5193 18.8483C66.7132 18.2645 67.552 16.4258 67.2172 15.8696C67.0495 15.3364 66.4918 15.033 66.1861 14.6132C65.8267 14.0853 65.433 13.4172 65.1825 12.8312C64.5144 11.2721 64.1781 9.5445 63.4586 7.98616C63.1223 7.25993 62.5385 6.50834 62.0658 5.83953C61.5349 5.08794 60.9511 4.55856 60.5313 3.66754C60.3926 3.3611 60.198 2.86004 60.4209 2.52675C60.4754 2.30306 60.5887 2.21955 60.8109 2.16363C61.1718 1.85868 62.203 2.2464 62.5646 2.41416C63.5973 2.83171 64.4607 3.22166 65.3226 3.80623C65.7126 4.08583 66.1309 4.61522 66.6312 4.75465H67.2172C68.1068 4.94851 69.1096 4.80834 69.947 5.06036C71.4225 5.53457 72.7594 6.23023 73.9584 6.98106C77.6067 9.29471 80.6152 12.5821 82.6463 16.5086C82.9796 17.1483 83.1213 17.7344 83.4255 18.4017C84.0123 19.7677 84.7378 21.1605 85.3201 22.4974C85.9054 23.8059 86.4631 25.1421 87.2989 26.2292C87.7157 26.8137 89.3904 27.1202 90.1412 27.4266C90.6967 27.6764 91.5616 27.8986 92.0627 28.2051C93.0104 28.7889 93.9543 29.4592 94.8453 30.1012C95.289 30.4352 96.6833 31.1316 96.766 31.6893ZM68.3536 7.48361C67.969 7.47962 67.5856 7.52675 67.2135 7.62379V7.67971H67.2672C67.4916 8.12484 67.8816 8.43353 68.1597 8.82199C68.3841 9.26862 68.5787 9.71152 68.7987 10.1574L68.8524 10.1022C69.2453 9.8241 69.4407 9.37822 69.4407 8.70941C69.2714 8.51256 69.2453 8.32019 69.1044 8.12484C68.9404 7.84598 68.5787 7.7073 68.3536 7.48361Z" fill="#5D87A1"/>
    <path d="M99.4193 62.461H99.9964V59.6366H99.1307L98.4246 61.564L97.6574 59.6366H96.8238V62.461H97.3688V60.3121H97.3994L98.2032 62.461H98.6185L99.4193 60.3121V62.461ZM94.7703 62.461H95.381V60.1153H96.1803V59.6359H93.9375V60.1153H94.7689L94.7703 62.461Z" fill="#F8981D"/>
</svg>
