<svg xmlns="http://www.w3.org/2000/svg" width="100" height="100" viewBox="0 0 100 36" fill="none">
    <path d="M40.2677 11.6561C40.3559 11.6671 40.442 11.6911 40.5233 11.7271C40.6028 11.7648 40.6762 11.8143 40.741 11.8738C40.8248 11.9538 40.9033 12.0392 40.9761 12.1294L47.5251 20.4077C47.4983 20.1442 47.481 19.8854 47.4683 19.6377C47.4557 19.39 47.4494 19.1534 47.4494 18.9325V11.6293H50.2688V25.4153H48.6027C48.3893 25.4214 48.177 25.3827 47.9795 25.3017C47.7839 25.2051 47.6149 25.0621 47.4873 24.8852L40.9855 16.6811C41.006 16.9193 41.0202 17.1544 41.0329 17.3848C41.0455 17.6151 41.0534 17.8313 41.0534 18.0332V25.4232H38.2324V11.6293H39.9158C40.0336 11.6306 40.1511 11.6395 40.2677 11.6561Z" fill="#4D77CF"/>
    <path d="M54.9045 15.6003V21.826C54.9045 22.3119 55.015 22.6874 55.2359 22.9525C55.3576 23.0884 55.5086 23.1948 55.6775 23.2637C55.8465 23.3326 56.0289 23.3621 56.2109 23.3501C56.5233 23.3521 56.8322 23.2842 57.1149 23.1513C57.4139 23.0064 57.6898 22.8182 57.9337 22.5928V15.6003H60.8667V25.4121H59.0508C58.8923 25.4253 58.7342 25.3835 58.6029 25.2939C58.4716 25.2043 58.3752 25.0722 58.3297 24.9199L58.1515 24.3519C57.9669 24.5307 57.7709 24.6973 57.5646 24.8505C57.3618 24.9979 57.1446 25.1243 56.9161 25.2275C56.6755 25.3359 56.4244 25.4195 56.1667 25.4768C55.8812 25.5389 55.5896 25.5691 55.2974 25.5667C54.8096 25.5756 54.3255 25.4804 53.8775 25.2875C53.4749 25.1091 53.1175 24.8428 52.8314 24.5081C52.5405 24.1602 52.3217 23.758 52.1877 23.3248C52.0381 22.8405 51.9646 22.336 51.97 21.8291V15.6003H54.9045Z" fill="#4D77CF"/>
    <path d="M62.7583 25.4153V15.6003H64.5758C64.7377 15.5945 64.8977 15.6373 65.0349 15.7234C65.1622 15.8123 65.2543 15.9429 65.2953 16.0926L65.453 16.6227C65.6122 16.4538 65.7825 16.2957 65.9626 16.1494C66.1402 16.0068 66.3322 15.8831 66.5353 15.7802C66.9824 15.5533 67.4777 15.438 67.9789 15.4441C68.5078 15.4235 69.0276 15.5856 69.4509 15.9032C69.8497 16.2249 70.1549 16.6477 70.3345 17.1275C70.4901 16.8371 70.6933 16.5747 70.9356 16.3513C71.1648 16.1423 71.4231 15.9674 71.7023 15.8322C71.979 15.6991 72.2709 15.6005 72.5717 15.5388C72.8727 15.4762 73.1793 15.4445 73.4867 15.4441C73.9959 15.4354 74.5024 15.5204 74.9808 15.695C75.3971 15.8494 75.7715 16.099 76.0742 16.4239C76.3781 16.7629 76.6057 17.1632 76.7415 17.5977C76.9003 18.1083 76.977 18.6408 76.9687 19.1754V25.4105H74.0342V19.1802C74.0342 18.1641 73.5993 17.6566 72.7294 17.6577C72.5464 17.6518 72.3641 17.6836 72.194 17.7512C72.0238 17.8188 71.8693 17.9207 71.7402 18.0505C71.4783 18.3103 71.3474 18.6869 71.3474 19.1802V25.4153H68.4175V19.1802C68.4175 18.6185 68.3071 18.2241 68.0862 17.9969C67.8653 17.7697 67.5403 17.6577 67.1112 17.6577C66.8498 17.6571 66.592 17.7181 66.3586 17.8359C66.1136 17.963 65.8887 18.1257 65.6913 18.3187V25.4184L62.7583 25.4153Z" fill="#4D77CF"/>
    <path d="M81.8723 20.8068V25.4153H78.6743V11.6293H83.5368C84.3843 11.6105 85.2294 11.726 86.0406 11.9717C86.6734 12.1654 87.2594 12.4877 87.7619 12.9183C88.2044 13.308 88.5469 13.7982 88.7606 14.3477C88.9766 14.9153 89.0836 15.5185 89.0762 16.1258C89.0838 16.7719 88.9714 17.4139 88.7448 18.019C88.5297 18.5849 88.1824 19.0913 87.732 19.4958C87.2305 19.9333 86.6423 20.2602 86.0059 20.455C85.2068 20.7027 84.3733 20.8215 83.5368 20.8068H81.8723ZM81.8723 18.3945H83.5368C84.3699 18.3945 84.9694 18.1973 85.3354 17.7981C85.7014 17.399 85.8845 16.8515 85.8845 16.1337C85.8882 15.8404 85.8401 15.5488 85.7425 15.2722C85.6519 15.0197 85.5045 14.7914 85.3117 14.6049C85.1031 14.4098 84.8543 14.2628 84.5828 14.1741C84.2451 14.0651 83.8917 14.0118 83.5368 14.0164H81.8723V18.3945Z" fill="#4D77CF"/>
    <path d="M94.7587 27.9618C94.6919 28.1295 94.5833 28.2772 94.4431 28.3909C94.2598 28.4971 94.0485 28.545 93.8373 28.5282H91.6364L93.5296 24.5555L89.6138 15.6004H92.2059C92.3955 15.5907 92.5826 15.6464 92.7361 15.7582C92.8563 15.851 92.9481 15.9756 93.0011 16.1179L94.6088 20.3478C94.7574 20.7289 94.8807 21.1195 94.978 21.5169C95.0411 21.3149 95.1105 21.1161 95.1862 20.9221C95.262 20.728 95.3345 20.5276 95.404 20.3257L96.8618 16.1148C96.9168 15.9629 97.022 15.8344 97.16 15.7503C97.2997 15.6556 97.4644 15.6045 97.6333 15.6036H99.9998L94.7587 27.9618Z" fill="#4D77CF"/>
    <path d="M13.9441 7.14388L8.08602 4.18726L1.65527 7.39632L7.67266 10.4176L13.9441 7.14388Z" fill="#4DABCF"/>
    <path d="M16.6307 8.49915L22.7728 11.6009L16.4004 14.8005L10.3735 11.7745L16.6307 8.49915Z" fill="#4DABCF"/>
    <path d="M24.8346 4.23145L31.1454 7.39633L25.5004 10.2299L19.3457 7.12497L24.8346 4.23145Z" fill="#4DABCF"/>
    <path d="M22.118 2.86827L16.4367 0.0189209L10.8169 2.82409L16.6718 5.77599L22.118 2.86827Z" fill="#4DABCF"/>
    <path d="M17.6768 27.3322V35.0851L24.5587 31.6504L24.5524 23.8944L17.6768 27.3322Z" fill="#4DABCF"/>
    <path d="M24.5493 21.187L24.5414 13.5131L17.6768 16.9256V24.6028L24.5493 21.187Z" fill="#4DABCF"/>
    <path d="M32.8114 19.7498V27.5326L26.9408 30.4608L26.936 22.7143L32.8114 19.7498Z" fill="#4DABCF"/>
    <path d="M32.8114 17.0283V9.40161L26.9297 12.3251L26.9344 20.0149L32.8114 17.0283Z" fill="#4DABCF"/>
    <path d="M15.247 16.9257L10.6117 14.5938V24.6659C10.6117 24.6659 4.94139 12.6028 4.41759 11.5189C4.34975 11.3785 4.07207 11.2254 4.00107 11.1876C2.97872 10.6543 0 9.146 0 9.146V26.9473L4.12098 29.1561V19.8476C4.12098 19.8476 9.72974 30.6265 9.78811 30.7448C9.84649 30.8632 10.4066 31.9975 11.0093 32.3967C11.8092 32.9284 15.2438 34.9936 15.2438 34.9936L15.247 16.9257Z" fill="#4D77CF"/>
</svg>
