<svg xmlns="http://www.w3.org/2000/svg" width="100" height="100" viewBox="0 0 100 31" fill="none">
    <path d="M34.1267 20.0553C32.7504 20.0553 31.3487 19.4858 30.4709 18.3695V24.3999H27.7144V9.51286H30.2069L30.3021 11.1504C31.157 9.8921 32.6754 9.22742 34.124 9.22742C36.902 9.22742 38.9483 11.5551 38.9483 14.6414C38.9483 17.7276 36.9047 20.0567 34.1267 20.0553ZM33.273 11.271C31.6582 11.271 30.353 12.5294 30.353 14.6427C30.353 16.756 31.6582 18.017 33.273 18.017C34.8878 18.017 36.1931 16.7587 36.1931 14.6454C36.1931 12.5321 34.8878 11.271 33.273 11.271Z" fill="#F5F5F5"/>
    <path d="M49.3379 19.7726L49.2428 18.135C48.3878 19.3933 46.8682 20.058 45.4195 20.0567C42.6415 20.0567 40.5952 17.7303 40.5952 14.6441C40.5952 11.5578 42.6375 9.23011 45.4195 9.23145C46.8682 9.23145 48.3878 9.90149 49.2428 11.1545L49.3379 9.51688H51.8359V19.7726H49.3379ZM46.2758 11.2724C44.661 11.2724 43.3558 12.5307 43.3545 14.6441C43.3531 16.7574 44.6597 18.0171 46.2745 18.0171C47.8893 18.0171 49.1959 16.7587 49.1959 14.6454C49.1959 12.5321 47.8906 11.2724 46.2758 11.2724Z" fill="#F5F5F5"/>
    <path d="M61.4673 19.7739V14.1C61.4673 12.1059 60.7798 11.4413 59.5215 11.4413C58.2149 11.4413 56.7904 12.6272 56.7904 14.0517V19.7739H54.0352V9.51689H56.5532L56.6724 11.4171C57.3613 10.1105 58.9037 9.23279 60.4716 9.23279C63.2014 9.23279 64.2238 11.133 64.2238 13.6725V19.7753L61.4673 19.7739Z" fill="#F5F5F5"/>
    <path d="M74.3185 19.7766L74.2234 18.1377C73.3684 19.396 71.8488 20.0607 70.4015 20.0607C67.6235 20.0607 65.5771 17.733 65.5771 14.6468C65.5771 11.5605 67.6194 9.23415 70.4015 9.23415C71.7777 9.23415 73.1781 9.80503 74.0572 10.92V5.53149H76.8124V19.7766H74.3185ZM71.2564 11.2764C69.6483 11.2764 68.3364 12.5348 68.3364 14.6468C68.3364 16.7587 69.6416 18.0171 71.2564 18.0171C72.8712 18.0171 74.1765 16.7601 74.1765 14.6468C74.1765 12.5334 72.8753 11.2764 71.2564 11.2764Z" fill="#F5F5F5"/>
    <path d="M87.1607 19.7779L87.0656 18.1404C86.2106 19.3987 84.6909 20.062 83.2423 20.062C80.4643 20.062 78.418 17.7356 78.418 14.6481C78.418 11.5605 80.4603 9.23547 83.2423 9.23547C84.6909 9.23547 86.2106 9.90552 87.0656 11.1598L87.1607 9.52091H89.6533V19.7766L87.1607 19.7779ZM84.0986 11.2778C82.4905 11.2778 81.1786 12.5361 81.1772 14.6494C81.1759 16.7627 82.4838 18.0171 84.0973 18.0171C85.7107 18.0171 87.0186 16.7587 87.0186 14.6454C87.0186 12.5321 85.7134 11.2778 84.0986 11.2778Z" fill="#F5F5F5"/>
    <path d="M95.7548 20.1117C94.3059 20.0997 92.8871 19.6974 91.6475 18.9472L92.0991 17.0483C92.9299 17.5468 94.1883 18.1887 95.7079 18.1887C96.8001 18.1887 97.5599 17.8563 97.5599 17.0014C97.5599 16.2656 96.776 16.0043 95.3756 15.672C92.8589 15.1252 91.957 13.7959 91.957 12.3472C91.957 10.7324 93.2154 9.21411 95.9934 9.21411C97.6792 9.21411 99.1519 9.94982 99.4776 10.1401L99.026 11.9452C98.129 11.4052 97.1058 11.1104 96.059 11.0902C94.9441 11.0902 94.3973 11.4695 94.3973 12.0873C94.3973 12.7747 95.1102 13.0843 96.2011 13.3456C98.9081 13.9151 100 15.1735 100 16.5511C100.006 18.7582 98.3908 20.1117 95.7548 20.1117Z" fill="#F5F5F5"/>
    <path d="M8.41284 2.52832H5.18457V9.23144H8.41284V2.52832Z" fill="#F5F5F5"/>
    <path d="M8.41284 16.2977H5.18457V23.0008H8.41284V16.2977Z" fill="#F5F5F5"/>
    <path d="M8.41284 11.188H5.18457V14.3506H8.41284V11.188Z" fill="#FFCA00"/>
    <path d="M3.22827 8.04016H0V30.3218H3.22827V8.04016Z" fill="#F5F5F5"/>
    <path d="M13.4919 21.8282H10.2637V28.5314H13.4919V21.8282Z" fill="#F5F5F5"/>
    <path d="M13.4919 8.04822H10.2637V14.7513H13.4919V8.04822Z" fill="#F5F5F5"/>
    <path d="M13.4919 16.7079H10.2637V19.8705H13.4919V16.7079Z" fill="#E70488"/>
    <path d="M18.5696 0.782227H15.3413V23.0639H18.5696V0.782227Z" fill="#F5F5F5"/>
</svg>
