<svg xmlns="http://www.w3.org/2000/svg" width="100" height="100" viewBox="0 0 100 46" fill="none">
    <path d="M6.25181 36.4886H1.39983V31.6087H6.51579C8.3878 31.6087 9.32474 32.4452 9.32474 34.0867C9.32474 35.6883 8.30043 36.4895 6.25274 36.4895M9.74023 31.552C9.07563 30.9571 8.1452 30.6597 6.94894 30.6597L0 30.6968V42.3714H1.39983L1.38681 37.4013H6.55762C7.85427 37.4013 8.87486 37.1039 9.61939 36.509C10.3639 35.9141 10.7367 35.0869 10.7367 34.031C10.7367 32.9751 10.4039 32.1478 9.7393 31.5529L9.74023 31.552ZM18.8001 39.9212C18.6665 40.3032 18.4378 40.6449 18.1355 40.9139C17.5081 41.5274 16.5516 41.8313 15.254 41.8313C14.0921 41.8313 13.2091 41.5339 12.5771 40.939C11.945 40.3441 11.6429 39.5475 11.6429 38.5502C11.6429 38.0297 11.7247 37.5696 11.8874 37.1671C12.0416 36.7774 12.2841 36.4287 12.5956 36.1484C13.2389 35.5628 14.1256 35.2681 15.254 35.2681C17.7637 35.2681 19.0027 36.3622 19.0027 38.5493C19.0027 39.0698 18.9311 39.5252 18.7889 39.9193M19.0427 35.613C18.1894 34.835 16.9262 34.4455 15.2531 34.4455C13.6729 34.4455 12.4506 34.8433 11.589 35.6381C10.811 36.3575 10.4225 37.3279 10.4225 38.5493C10.4225 39.7623 10.824 40.741 11.6271 41.4865C12.0705 41.888 12.5873 42.179 13.1766 42.3584C13.7659 42.5377 14.4593 42.6372 15.2531 42.6372C16.9262 42.6372 18.1847 42.2524 19.064 41.4828C19.842 40.7801 20.2306 39.8059 20.2306 38.5595C20.2306 37.3047 19.8374 36.3259 19.0501 35.6223L19.0427 35.613ZM29.639 40.2577C29.639 41.8378 28.2308 42.6149 25.4153 42.6149C24.5546 42.6149 23.8296 42.5591 23.2403 42.4513C22.651 42.3435 22.1732 42.1604 21.8051 41.9085C21.5239 41.7177 21.292 41.4628 21.1285 41.1649C20.9611 40.8646 20.8524 40.4677 20.8031 39.9984L22.1044 39.9863C22.1044 40.6044 22.334 41.0598 22.7923 41.3526C23.2849 41.704 24.1558 41.8797 25.4069 41.8797C27.3747 41.8797 28.359 41.387 28.359 40.3999C28.359 39.8236 28.0291 39.4267 27.3691 39.2101C27.2353 39.1683 26.4396 39.0577 24.9803 38.8783C23.521 38.6989 22.6138 38.5372 22.2541 38.395C21.477 38.0854 21.0885 37.5305 21.0885 36.7274C21.0742 36.3655 21.1648 36.0072 21.3496 35.6957C21.5343 35.3842 21.8051 35.1327 22.1295 34.9716C22.4734 34.8136 22.901 34.69 23.416 34.6017C23.9309 34.5134 24.5267 34.4697 25.2043 34.4697C27.9147 34.4697 29.2699 35.3202 29.2699 37.0212H28.0244C28.0244 35.8258 27.0717 35.2272 25.1662 35.2272C24.1967 35.2272 23.4745 35.3481 22.9977 35.599C22.5208 35.85 22.282 36.2125 22.282 36.7144C22.282 37.1829 22.6036 37.5212 23.2468 37.7304C23.6232 37.8391 24.4877 37.9646 25.8419 38.1068C27.054 38.2156 27.885 38.3699 28.3367 38.5716C29.1974 38.9062 29.638 39.4732 29.638 40.2763L29.639 40.2577ZM34.7847 42.3955L34.2521 42.4699L33.9193 42.495C33.066 42.495 32.4507 42.3714 32.0742 42.1232C31.6978 41.875 31.5165 41.4428 31.5165 40.8219V35.4959H29.9643V34.7123H31.5072L31.5193 32.1952H32.7137V34.7123H34.794V35.5089L32.7137 35.4959V40.6797C32.7137 41.0654 32.8067 41.3322 33.0205 41.479C33.2343 41.6259 33.5912 41.6993 34.1173 41.6993C34.1916 41.7086 34.2753 41.7049 34.3682 41.69C34.4612 41.6752 34.5978 41.6436 34.7819 41.5952L34.7949 42.3946L34.7847 42.3955ZM43.0451 40.6183C42.7135 40.8888 42.3356 41.097 41.9297 41.2327C41.5115 41.3749 41.0318 41.4465 40.489 41.4465C37.9905 41.4465 36.7431 40.4241 36.7431 38.3513C36.7431 37.3911 37.0629 36.6391 37.7005 36.0963C38.3381 35.5535 39.2398 35.2821 40.4007 35.2821C41.57 35.2821 42.4577 35.5553 43.0637 36.1028C43.6698 36.6503 43.9728 37.3827 43.9728 38.302C43.9728 39.304 43.6632 40.0681 43.0451 40.6202M45.1672 34.7086H43.9728L43.9598 36.0257C43.4337 35.4912 43.0581 35.1519 42.8313 35.0107C42.1621 34.6435 41.2977 34.4595 40.2362 34.4595C38.6811 34.4595 37.4942 34.8145 36.6762 35.5247C35.8991 36.1753 35.5106 37.1206 35.5106 38.3569C35.5106 38.9666 35.6091 39.5122 35.8053 39.9928C36.0014 40.4733 36.2886 40.8804 36.665 41.2141C37.4858 41.8992 38.6449 42.2422 40.1432 42.2422C41.9427 42.2422 43.2106 41.7495 43.9728 40.755V42.1185C43.9728 42.9876 43.6986 43.6615 43.1511 44.1374C42.6036 44.6133 41.7029 44.8531 40.449 44.8531C39.2704 44.8531 38.4302 44.6905 37.9394 44.3661C37.5629 44.117 37.3036 43.6838 37.1623 43.0676H35.94C36.0739 43.9273 36.4373 44.5501 37.0313 44.934C37.7172 45.3764 38.8754 45.5977 40.5057 45.5977C43.6251 45.5977 45.1848 44.4386 45.1848 42.1195V34.6993L45.1672 34.7086ZM51.6272 35.4847C51.2961 35.4287 50.961 35.3995 50.6252 35.3973C48.6621 35.3973 47.6805 36.4737 47.6805 38.6273V42.3714H46.5001L46.4871 34.7095L47.6815 34.7216V36.0879H47.7437C47.9445 35.5488 48.2615 35.1399 48.6965 34.8629C49.1724 34.584 49.8825 34.4585 50.8269 34.4585H51.6291V35.4838L51.6272 35.4847ZM52.7389 38.0557C52.8895 37.1848 53.2278 36.5109 53.7539 36.0331C54.0978 35.757 54.4854 35.5498 54.9195 35.4103C55.3536 35.2709 55.8434 35.2031 56.3862 35.2031C57.4477 35.2031 58.314 35.494 58.987 36.0768C59.6599 36.6596 60.0048 37.3186 60.0048 38.0566H52.7482M60.1219 35.6929C59.6852 35.2627 59.1516 34.9436 58.5659 34.7625C57.9469 34.5608 57.2237 34.4604 56.3955 34.4604C54.8479 34.4604 53.6479 34.8201 52.7946 35.5386C51.9414 36.2571 51.5147 37.2368 51.5147 38.4758C51.5147 39.7149 51.9237 40.7066 52.7435 41.4242C53.6293 42.2273 54.8795 42.6288 56.4941 42.6288C57.1373 42.6288 57.7331 42.5545 58.2806 42.4104C58.828 42.2663 59.3067 42.0572 59.7166 41.7923C60.4361 41.2755 60.8906 40.6397 61.083 39.8812H59.7817C59.3383 41.1825 58.2359 41.8462 56.4727 41.8462C55.2271 41.8462 54.2698 41.5265 53.5912 40.8851C53.0149 40.3274 52.7268 39.6247 52.7268 38.751H61.241C61.241 37.4515 60.8692 36.4319 60.0996 35.6836L60.1219 35.6929Z" fill="#F5F5F5"/>
    <path d="M73.8821 39.2408C73.8821 41.5153 72.0472 42.652 68.3794 42.652C66.1812 42.652 64.5759 42.2616 63.5646 41.4762C62.7281 40.8321 62.3237 39.8496 62.3237 38.5297H63.8109C63.8109 40.6536 65.3353 41.7151 68.3887 41.7151C69.8517 41.7151 70.9104 41.4976 71.562 41.0645C72.1141 40.6806 72.3986 40.0792 72.3986 39.2612C72.3986 38.4507 72.0221 37.8828 71.2692 37.5565C70.8417 37.3706 69.8006 37.1596 68.1461 36.8919C66.064 36.574 64.7135 36.2571 64.0954 35.9401C63.2012 35.4726 62.7532 34.6788 62.7532 33.5587C62.7532 32.5149 63.125 31.7369 63.8946 31.2276C64.7125 30.668 66.1189 30.3882 68.1089 30.3882C71.7061 30.3882 73.5028 31.5826 73.5028 33.9714H72.0045C72.0045 32.1822 70.6688 31.288 68.0076 31.288C66.6691 31.288 65.6894 31.4683 65.0704 31.8271C64.4848 32.2119 64.192 32.7752 64.192 33.5206C64.192 34.2986 64.5685 34.8461 65.3214 35.164C65.721 35.348 66.9015 35.6027 68.859 35.9299C70.6994 36.206 71.9403 36.5276 72.577 36.8966C73.4554 37.3483 73.8941 38.13 73.8941 39.2426L73.8821 39.2408ZM85.88 40.4026C85.3235 40.8472 84.6894 41.1847 84.0099 41.3981C83.3146 41.6194 82.5366 41.73 81.675 41.73C79.9089 41.73 78.4961 41.2652 77.4123 40.3078C76.3285 39.3505 75.7857 38.0984 75.7857 36.5211C75.7857 34.8758 76.3229 33.5959 77.3983 32.6776C78.4738 31.7592 79.908 31.3001 81.6741 31.3001C83.4736 31.3001 84.8883 31.7797 85.9172 32.7408C86.461 33.2083 86.8625 33.7632 87.1228 34.3814C87.383 34.9995 87.5132 35.7198 87.5132 36.522C87.5132 38.1579 86.9685 39.4518 85.881 40.4036M86.6664 41.1779C87.436 40.635 88.0049 39.9695 88.3739 39.2045C88.7429 38.4395 88.9269 37.5314 88.9269 36.5294C88.9269 34.7169 88.3246 33.2632 87.12 32.1608C86.4758 31.5594 85.6978 31.1123 84.7962 30.8204C83.8946 30.5286 82.8443 30.3817 81.6731 30.3817C79.3986 30.3817 77.6131 30.9329 76.3164 32.0362C75.0198 33.1395 74.3719 34.6342 74.3719 36.522C74.3719 38.3596 75.0253 39.8422 76.3238 40.9696C77.6224 42.0971 79.4191 42.6613 81.6852 42.6613C82.571 42.6613 83.3444 42.6009 84.0052 42.4819C84.6661 42.363 85.2257 42.178 85.6858 41.9298L87.8682 43.4421L88.7791 42.6056L86.6664 41.1723V41.1779ZM99.9861 42.3704H89.8936V30.6819L91.2814 30.6568V41.3926H100L99.987 42.3685L99.9861 42.3704Z" fill="#367FAF"/>
    <path d="M56.3097 21.2719C56.4929 19.7475 56.438 19.5244 57.5739 19.7716L57.8527 19.7967C58.7264 19.8367 59.8669 19.6573 60.539 19.345C61.9825 18.6758 62.8385 17.5566 61.4155 17.8504C58.1678 18.5196 57.9447 17.4209 57.9447 17.4209C61.3746 12.3329 62.806 5.87377 61.5698 4.29362C58.1957 -0.0192595 52.3529 2.02099 52.2562 2.07397L52.2255 2.07955C51.5842 1.94663 50.8657 1.86577 50.0598 1.85368C48.5912 1.82952 47.4758 2.2385 46.6206 2.88078C46.6206 2.88078 36.1991 -1.41351 36.675 8.28117C36.7772 10.3428 39.6308 23.8838 43.0328 19.794C44.2764 18.2975 45.4774 17.0333 45.4774 17.0333C46.0741 17.4302 46.7787 17.6319 47.5381 17.5594L47.5957 17.5102C47.5783 17.7043 47.5861 17.8999 47.6189 18.092C46.7424 19.0708 46.9999 19.2446 45.2487 19.6043C43.4761 19.9696 44.5172 20.6203 45.1976 20.7904C46.022 20.9967 47.9303 21.2886 49.2177 19.4844L49.1665 19.6908C49.5105 19.9659 49.4872 21.6678 49.5356 22.8836C49.5839 24.0994 49.6657 25.2352 49.9139 25.9045C50.162 26.5737 50.453 28.297 52.7581 27.8035C54.6822 27.3908 56.1545 26.7977 56.2884 21.2756" fill="#231F20"/>
    <path d="M56.3097 21.2719C56.4929 19.7475 56.438 19.5244 57.5739 19.7716L57.8527 19.7967C58.7264 19.8367 59.8669 19.6573 60.539 19.345C61.9825 18.6758 62.8385 17.5566 61.4155 17.8504C58.1678 18.5196 57.9447 17.4209 57.9447 17.4209C61.3746 12.3329 62.806 5.87377 61.5698 4.29362C58.1957 -0.0192594 52.3529 2.02099 52.2562 2.07397L52.2255 2.07955C51.5842 1.94663 50.8657 1.86577 50.0598 1.85368C48.5912 1.82952 47.4758 2.2385 46.6206 2.88078C46.6206 2.88078 36.1991 -1.41351 36.675 8.28117C36.7772 10.3428 39.6308 23.8838 43.0328 19.794C44.2764 18.2975 45.4774 17.0333 45.4774 17.0333C46.0741 17.4302 46.7787 17.6319 47.5381 17.5594L47.5957 17.5102C47.5783 17.7043 47.5861 17.8999 47.6189 18.092C46.7424 19.0708 46.9999 19.2446 45.2487 19.6043C43.4761 19.9696 44.5172 20.6203 45.1976 20.7904C46.022 20.9967 47.9303 21.2886 49.2177 19.4844L49.1665 19.6908C49.5105 19.9659 49.4872 21.6678 49.5356 22.8836C49.5839 24.0994 49.6657 25.2352 49.9139 25.9045C50.162 26.5737 50.453 28.297 52.7581 27.8035C54.6822 27.3908 56.1545 26.7977 56.2884 21.2756" stroke="#231F20" stroke-width="2.598"/>
    <path d="M61.4228 17.8501C58.1751 18.5193 57.952 17.4207 57.952 17.4207C61.3819 12.3326 62.8133 5.87348 61.5771 4.2924C58.203 -0.0204803 52.3601 2.01977 52.2635 2.07275L52.2319 2.07833C51.5905 1.94541 50.872 1.86455 50.0661 1.85246C48.5975 1.82829 47.4821 2.23727 46.627 2.87956C46.627 2.87956 36.2054 -1.41473 36.6813 8.27995C36.7836 10.3434 39.6372 23.8825 43.0391 19.7927C44.2828 18.2962 45.4837 17.0321 45.4837 17.0321C46.0804 17.429 46.7943 17.6307 47.5435 17.5582L47.602 17.509C47.5834 17.6949 47.5927 17.8761 47.6253 18.0908C46.7488 19.0696 47.0062 19.2434 45.255 19.6031C43.4825 19.9684 44.5235 20.6191 45.2039 20.7892C46.0284 20.9955 47.9367 21.2874 49.224 19.4832L49.1729 19.6896C49.5168 19.9647 49.7585 21.4788 49.7166 22.8499C49.6748 24.2209 49.6497 25.1643 49.9211 25.9005C50.1925 26.6366 50.4602 28.293 52.7654 27.7994C54.6895 27.3867 55.6877 26.3178 55.8262 24.535C55.9248 23.2672 56.1479 23.455 56.1609 22.3228L56.3393 21.7865C56.5457 20.0669 56.3719 19.5139 57.557 19.7723L57.8358 19.7974C58.7096 19.8373 59.851 19.658 60.5221 19.3456C61.9656 18.6764 62.8217 17.5573 61.3986 17.851L61.4228 17.8501Z" fill="#417BA2"/>
    <path d="M49.3803 18.8355C49.291 22.033 49.4026 25.2519 49.7149 26.0345C50.0272 26.8171 50.6974 28.3397 53.0016 27.8452C54.9256 27.4325 55.6265 26.634 55.9295 24.8708L56.6406 19.2352M46.6289 2.80816C46.6289 2.80816 36.1999 -1.45452 36.6833 8.2383C36.7762 10.3018 39.6391 23.8418 43.0411 19.752C44.2847 18.2648 45.4085 17.0843 45.4085 17.0843M52.2524 2.03017C51.8806 2.14357 58.0525 -0.222008 61.5548 4.26097C62.7911 5.84112 61.3689 12.3011 57.9298 17.3892" stroke="#F5F5F5" stroke-width="0.866" stroke-linecap="round" stroke-linejoin="round"/>
    <path d="M57.9289 17.3807C57.9289 17.3807 58.152 18.4803 61.4006 17.8102C62.8227 17.5164 61.9583 18.6346 60.524 19.3048C59.3399 19.8532 56.6852 19.9954 56.6406 19.236C56.5291 17.2748 58.0386 17.8715 57.9289 17.3807ZM57.9289 17.3807C57.8304 16.9383 57.1555 16.5042 56.7094 15.4223C56.319 14.477 51.3648 7.23152 58.085 8.30788C58.3314 8.25675 56.332 1.91571 50.043 1.81253C43.754 1.70936 43.9622 9.54597 43.9622 9.54597" stroke="#F5F5F5" stroke-width="0.866" stroke-linecap="round" stroke-linejoin="bevel"/>
    <path d="M47.6199 18.05C46.7434 19.0287 47.0008 19.2025 45.2497 19.5623C43.4771 19.9276 44.5181 20.5782 45.1985 20.7483C46.023 20.9547 47.9313 21.2465 49.2186 19.4424C49.6109 18.8939 49.2168 18.0165 48.6776 17.7925C48.4174 17.6847 48.0688 17.5508 47.6217 18.05H47.6199Z" stroke="#F5F5F5" stroke-width="0.866" stroke-linejoin="round"/>
    <path d="M47.5625 18.0333C47.4742 17.457 47.7521 16.7729 48.0487 15.9698C48.4948 14.767 49.5359 13.5643 48.7021 9.7496C48.0886 6.90719 43.9635 9.15751 43.9616 9.54325C43.9598 9.929 44.1475 11.4971 43.8929 13.3235C43.5582 15.7068 45.4079 17.7228 47.5393 17.5156" stroke="#F5F5F5" stroke-width="0.866" stroke-linecap="round" stroke-linejoin="round"/>
    <path d="M46.5805 9.48643C46.5619 9.61842 46.8222 9.96977 47.1596 10.0162C47.497 10.0627 47.787 9.78852 47.8047 9.65746C47.8223 9.5264 47.563 9.38047 47.2247 9.33213C46.8863 9.2838 46.5973 9.35351 46.5796 9.4855L46.5805 9.48643Z" fill="#F5F5F5" stroke="#F5F5F5" stroke-width="0.289"/>
    <path d="M56.874 9.21784C56.8926 9.34983 56.6323 9.70118 56.2949 9.74766C55.9575 9.79413 55.6675 9.51993 55.6489 9.38887C55.6303 9.25781 55.8906 9.11188 56.2289 9.0654C56.5672 9.01893 56.8563 9.08678 56.8749 9.21877L56.874 9.21784Z" fill="#F5F5F5" stroke="#F5F5F5" stroke-width="0.144"/>
    <path d="M58.0835 8.30701C58.1393 9.33875 57.8605 10.0433 57.8261 11.142C57.774 12.7407 58.5883 14.569 57.3613 16.4002" stroke="#F5F5F5" stroke-width="0.866" stroke-linecap="round" stroke-linejoin="round"/>
</svg>
