<svg xmlns="http://www.w3.org/2000/svg" width="100" height="100" viewBox="0 0 100 102" fill="none">
    <path d="M49.4044 0.000879119C45.2807 0.0197706 41.3432 0.371512 37.8788 0.985036C27.6721 2.78872 25.8189 6.56252 25.8189 13.5236V22.7165H49.9388V25.7806H16.7663C9.75664 25.7806 3.6178 29.9942 1.69807 38.0096C-0.51673 47.1972 -0.614786 52.9303 1.69807 62.5236C3.4127 69.6646 7.50765 74.7527 14.5173 74.7527H22.8106V63.7326C22.8106 55.7712 29.6988 48.749 37.8788 48.749H61.9709C68.6774 48.749 74.0308 43.2273 74.0308 36.492V13.5227C74.0308 6.98623 68.5163 2.07534 61.9709 0.984136C57.8265 0.295047 53.5282 -0.018912 49.4044 0.000879119ZM36.3603 7.39375C38.8522 7.39375 40.8862 9.46191 40.8862 12.0042C40.8862 14.5374 38.8513 16.5867 36.3603 16.5867C33.8604 16.5867 31.8345 14.5383 31.8345 12.0042C31.8345 9.46191 33.8604 7.39375 36.3603 7.39375Z" fill="url(#paint0_linear_572_2356)"/>
    <path d="M77.039 25.7797V36.4902C77.039 44.7944 69.9988 51.7833 61.9708 51.7833H37.8788C31.2794 51.7833 25.8188 57.431 25.8188 64.0403V87.0078C25.8188 93.5452 31.5025 97.3901 37.8788 99.2648C45.5137 101.51 52.8355 101.916 61.9708 99.2648C68.0431 97.507 74.0308 93.968 74.0308 87.0078V77.8158H49.9388V74.7518H86.0908C93.1013 74.7518 95.7128 69.8616 98.1507 62.5227C100.67 54.9679 100.563 47.701 98.1507 38.0087C96.4181 31.0306 93.1094 25.7797 86.0908 25.7797H77.039ZM63.4885 83.9438C65.9884 83.9438 68.0143 85.9922 68.0143 88.5264C68.0143 91.0686 65.9884 93.1368 63.4885 93.1368C60.9966 93.1368 58.9626 91.0686 58.9626 88.5264C58.9626 85.9931 60.9975 83.9438 63.4885 83.9438Z" fill="url(#paint1_linear_572_2356)"/>
    <defs>
        <linearGradient id="paint0_linear_572_2356" x1="-2.37889" y1="2.87146" x2="53.2415" y2="50.2617" gradientUnits="userSpaceOnUse">
            <stop stop-color="#5A9FD4"/>
            <stop offset="1" stop-color="#306998"/>
        </linearGradient>
        <linearGradient id="paint1_linear_572_2356" x1="74.1118" y1="79.8046" x2="54.1564" y2="51.8439" gradientUnits="userSpaceOnUse">
            <stop stop-color="#FFD43B"/>
            <stop offset="1" stop-color="#FFE873"/>
        </linearGradient>
    </defs>
</svg>
