<svg xmlns="http://www.w3.org/2000/svg" width="100" height="100" viewBox="0 0 100 35" fill="none">
    <path d="M23.7322 10.6578L21.3041 13.0859C25.3509 17.1328 25.3509 23.7234 21.3041 27.7702C17.2572 31.8171 10.6666 31.8171 6.61975 27.7702C2.5729 23.7234 2.5729 17.1328 6.61975 13.0859L13.0947 6.61094L13.9041 5.68594V0.829712L4.07601 10.6578C2.78463 11.9362 1.75949 13.4578 1.05986 15.1349C0.360229 16.8119 0 18.611 0 20.4281C0 22.2452 0.360229 24.0443 1.05986 25.7213C1.75949 27.3983 2.78463 28.92 4.07601 30.1983C5.35437 31.4897 6.87606 32.5149 8.55308 33.2145C10.2301 33.9141 12.0292 34.2744 13.8463 34.2744C15.6634 34.2744 17.4625 33.9141 19.1395 33.2145C20.8165 32.5149 22.3382 31.4897 23.6166 30.1983C29.1665 24.764 29.1665 15.9765 23.7322 10.6578Z" fill="#EE4C2C"/>
    <path d="M18.8759 9.96402C19.8976 9.96402 20.7259 9.13575 20.7259 8.11403C20.7259 7.09231 19.8976 6.26404 18.8759 6.26404C17.8541 6.26404 17.0259 7.09231 17.0259 8.11403C17.0259 9.13575 17.8541 9.96402 18.8759 9.96402Z" fill="#EE4C2C"/>
    <path d="M38.6039 19.4794H36.7031V24.3682H35.2842V10.4907H38.7531C42.433 10.4907 44.1675 12.2774 44.1675 14.8624C44.1675 17.9113 42.012 19.4357 38.5953 19.488L38.6039 19.4794ZM38.6989 11.805H36.6575V18.166L38.6552 18.1137C41.284 18.0615 42.7039 17.0094 42.7039 14.8539C42.7039 12.9094 41.3372 11.805 38.7084 11.805H38.6989ZM50.5902 24.315L49.7491 26.5228C48.8025 28.9938 47.8483 29.7294 46.437 29.7294C45.6482 29.7294 45.0703 29.5203 44.4393 29.2561L44.8594 27.9949C45.3327 28.2582 45.8573 28.415 46.437 28.415C47.2258 28.415 47.8037 27.9949 48.5393 26.039L49.2235 24.2523L45.2813 14.2124H46.7544L49.9611 22.6233L53.1163 14.2124H54.5353L50.5902 24.315ZM59.2625 11.8573V24.4215H57.8436V11.8573H52.9548V10.4907H64.1504V11.805H59.2616L59.2625 11.8573ZM68.1458 24.6828C65.307 24.6828 63.2038 22.5806 63.2038 19.3207C63.2038 16.0609 65.3593 13.9064 68.2409 13.9064C71.0797 13.9064 73.1297 16.0086 73.1297 19.2685C73.1297 22.5283 70.9742 24.6828 68.1354 24.6828H68.1458ZM68.1981 15.1789C66.0426 15.1789 64.6246 16.9134 64.6246 19.2789C64.6246 21.7499 66.0977 23.4321 68.2513 23.4321C70.4049 23.4321 71.8248 21.6976 71.8248 19.3321C71.8248 16.8611 70.3517 15.1789 68.1981 15.1789ZM76.6623 24.4205H75.2956V14.2228L76.6623 13.9596V16.1151C77.3465 14.8007 78.3444 13.9596 79.6588 13.9596C80.2847 13.9647 80.8992 14.1275 81.4456 14.4329L81.0787 15.7463C80.6586 15.483 80.0808 15.3262 79.5011 15.3262C78.4499 15.3262 77.4511 16.1151 76.61 17.955V24.4205H76.6623ZM86.8599 24.6828C83.8111 24.6828 81.8656 22.4751 81.8656 19.3207C81.8656 16.1141 83.9679 13.9064 86.8599 13.9064C88.1211 13.9064 89.1732 14.2219 90.0666 14.7997L89.6987 16.0609C88.9099 15.5353 87.9643 15.2198 86.8599 15.2198C84.6522 15.2198 83.2865 16.8497 83.2865 19.2685C83.2865 21.7395 84.7596 23.3684 86.9132 23.3684C87.9202 23.3638 88.905 23.072 89.752 22.5273L90.0152 23.7885C89.1219 24.3663 88.0175 24.6828 86.8599 24.6828ZM98.582 24.4205V17.8495C98.582 16.0628 97.8464 15.2835 96.4266 15.2835C95.2699 15.2835 94.1133 15.8613 93.2713 16.7566V24.4832H91.9046V9.44807L93.2713 9.18481V15.598C94.3224 14.5469 95.6891 13.9681 96.7934 13.9681C98.7911 13.9681 100 15.2293 100 17.437V24.4281L98.582 24.4205Z" fill="#F5F5F5"/>
</svg>
