<svg xmlns="http://www.w3.org/2000/svg" width="100" height="100" viewBox="0 0 100 55" fill="none">
	<g clip-path="url(#clip0_572_2364)">
		<path d="M76.7028 46.2293C88.9158 34.0171 90.9456 16.2473 81.2362 6.53864C71.5282 -3.16894 53.7592 -1.13951 41.5469 11.072C29.3347 23.284 32.8674 46.6152 37.0142 50.7627C40.3653 54.1138 64.4912 58.4409 76.7028 46.2293Z" fill="#F89939"/>
		<path d="M26.5908 28.5828C19.5058 21.4979 9.19495 20.3184 3.56066 25.9523C-2.0722 31.5855 -0.894497 41.8978 6.19192 48.9817C13.2783 56.0688 26.8162 54.0189 29.2206 51.6122C31.1664 49.6697 33.6779 35.6685 26.5908 28.5828Z" fill="#3499CD"/>
		<path d="M51.0366 43.2361C49.785 44.3882 48.687 45.2385 47.7433 45.7848C46.7996 46.3329 45.8996 46.6066 45.0432 46.6066C44.058 46.6066 43.2633 46.2247 42.6607 45.4606C42.0571 44.6958 41.7563 43.6702 41.7563 42.38C41.7563 40.4469 42.1754 38.1261 43.0134 35.4202C43.85 32.7121 44.8686 30.2168 46.0651 27.9339L49.5733 26.635C49.6833 26.5982 49.767 26.5795 49.8225 26.5795C50.0886 26.5795 50.3086 26.7756 50.4773 27.1662C50.6479 27.5585 50.7337 28.0857 50.7337 28.7484C50.7337 30.6268 50.3014 32.4453 49.4349 34.2039C48.5687 35.9632 47.2158 37.8409 45.3746 39.8389C45.3006 40.7966 45.2639 41.4544 45.2639 41.8139C45.2639 42.6155 45.411 43.2498 45.7056 43.7196C46.0006 44.1902 46.3914 44.4239 46.8797 44.4239C47.3777 44.4239 47.9067 44.2457 48.4685 43.8866C49.0292 43.5267 49.8856 42.7817 51.0363 41.6484V43.2361H51.0366ZM45.7474 37.8369C46.9165 36.5369 47.8659 35.0791 48.5929 33.4661C49.3198 31.8524 49.683 30.4645 49.683 29.3016C49.683 28.9626 49.6328 28.6871 49.5322 28.4802C49.4309 28.2728 49.3011 28.1686 49.1449 28.1686C48.8056 28.1686 48.3098 29.0167 47.6604 30.7133C47.0109 32.4096 46.3734 34.7844 45.7474 37.8369Z" fill="#F5F5F5"/>
		<path d="M61.3684 43.2361C60.1993 44.3882 59.15 45.2385 58.2196 45.7848C57.2893 46.3329 56.2638 46.6066 55.1398 46.6066C53.8874 46.6066 52.8771 46.206 52.1072 45.4058C51.3388 44.6035 50.9551 43.5502 50.9551 42.2423C50.9551 40.2908 51.6312 38.5249 52.9863 36.9459C54.3385 35.3661 55.8401 34.5768 57.488 34.5768C58.3444 34.5768 59.0295 34.7985 59.5459 35.2403C60.0615 35.6827 60.3194 36.2622 60.3194 36.9805C60.3194 38.887 58.2939 40.4328 54.2426 41.621C54.6104 43.4157 55.5725 44.3143 57.1288 44.3143C57.7368 44.3143 58.3163 44.1509 58.8683 43.825C59.4219 43.4975 60.2545 42.7713 61.3687 41.6488L61.3684 43.2361ZM54.1312 40.6817C56.4877 40.0182 57.6668 38.7943 57.6668 37.0079C57.6668 36.1241 57.3441 35.6824 56.7004 35.6824C56.0925 35.6824 55.513 36.1443 54.9609 37.0707C54.4071 37.9956 54.1312 39.1985 54.1312 40.6817Z" fill="#F5F5F5"/>
		<path d="M76.1189 43.2361C74.6455 44.6356 73.5911 45.5482 72.9565 45.9723C72.3211 46.3956 71.7135 46.6069 71.1329 46.6069C69.6779 46.6069 68.9925 45.3229 69.075 42.7536C68.1544 44.0698 67.3045 45.0412 66.5263 45.6687C65.7489 46.2947 64.9459 46.6069 64.1161 46.6069C63.307 46.6069 62.6189 46.228 62.0517 45.4682C61.4845 44.7084 61.2029 43.7766 61.2029 42.6707C61.2029 41.2903 61.5819 39.9734 62.3409 38.7204C63.1014 37.468 64.075 36.4562 65.2625 35.6827C66.4499 34.9092 67.5007 34.522 68.4112 34.522C69.5626 34.522 70.3685 35.0517 70.829 36.11L73.6517 34.5501H74.4263L73.2071 38.5963C72.5811 40.6319 72.267 42.027 72.267 42.7818C72.267 43.5733 72.5472 43.9692 73.1094 43.9692C73.4671 43.9692 73.863 43.7784 74.2961 43.3958C74.7292 43.0133 75.3357 42.4309 76.1182 41.6484V43.2361H76.1189ZM66.0089 43.9966C66.9295 43.9966 67.7971 43.212 68.6135 41.6423C69.4284 40.0719 69.8355 38.623 69.8355 37.2975C69.8355 36.7825 69.7194 36.379 69.4904 36.0895C69.2593 35.7985 68.951 35.6542 68.5651 35.6542C67.6438 35.6542 66.7705 36.4367 65.948 38.0024C65.124 39.5681 64.7111 41.0091 64.7111 42.3245C64.7111 42.8225 64.8337 43.2253 65.0775 43.534C65.3212 43.8426 65.6306 43.9966 66.0089 43.9966Z" fill="#F5F5F5"/>
		<path d="M86.4366 43.2361C84.1251 45.501 82.3431 46.6343 81.0911 46.6343C80.5289 46.6343 80.0544 46.397 79.6686 45.9243C79.2827 45.4498 79.0884 44.8623 79.0884 44.1621C79.0884 42.8639 79.7843 41.1244 81.1744 38.9417C80.4925 39.2919 79.7475 39.5349 78.9369 39.6734C78.3383 40.7782 77.3986 41.9664 76.1192 43.2357H75.8022V41.9942C76.5198 41.2485 77.1693 40.4469 77.7495 39.5904C76.9565 39.2403 76.5613 38.72 76.5613 38.0305C76.5613 37.3205 76.8022 36.5636 77.2868 35.757C77.77 34.9521 78.435 34.5497 79.2827 34.5497C80.001 34.5497 80.3594 34.9168 80.3594 35.6538C80.3594 36.234 80.1525 37.0623 79.7374 38.1401C81.2656 37.9739 82.6009 36.8056 83.7433 34.6319L84.9996 34.5764L83.7151 38.112C83.1815 39.6038 82.836 40.6199 82.6799 41.1579C82.5237 41.696 82.4448 42.1734 82.4448 42.587C82.4448 42.9743 82.5349 43.2836 82.7138 43.5123C82.8933 43.7441 83.1357 43.8581 83.4393 43.8581C83.7703 43.8581 84.0887 43.7449 84.3923 43.5206C84.696 43.293 85.3775 42.6699 86.4369 41.648V43.2361H86.4366Z" fill="#F5F5F5"/>
		<path d="M100 43.2361C97.8733 45.4841 96.0491 46.607 94.5306 46.607C93.9136 46.607 93.4164 46.3906 93.0388 45.9575C92.6606 45.5252 92.472 44.9453 92.472 44.218C92.472 43.2329 92.8776 41.727 93.6883 39.7023C94.1206 38.6155 94.3377 37.9238 94.3377 37.6303C94.3377 37.3353 94.2216 37.1879 93.9926 37.1879C93.8639 37.1879 93.6926 37.2528 93.4813 37.3808C93.2869 37.5095 93.0615 37.6905 92.8037 37.9202C92.574 38.1315 92.3155 38.3894 92.0302 38.6923C91.7811 38.9523 91.5139 39.2465 91.2301 39.5768L90.4555 40.4754C90.1155 40.8894 89.9034 41.3261 89.8209 41.7869C89.682 42.5694 89.5905 43.2884 89.5439 43.9429C89.5158 44.4297 89.5025 45.0874 89.5025 45.9179L86.45 46.6347C86.3494 45.3918 86.2979 44.4661 86.2979 43.8592C86.2979 42.3768 86.4706 40.9723 86.8164 39.6468C87.1615 38.3198 87.7157 36.8291 88.4805 35.1711L91.8499 34.5223C91.1414 36.4288 90.6766 37.9289 90.4555 39.024C91.9657 37.3393 93.1629 36.1732 94.0503 35.523C94.9363 34.8736 95.7252 34.5505 96.4147 34.5505C96.8831 34.5505 97.2747 34.7272 97.5866 35.0809C97.9 35.435 98.0558 35.8796 98.0558 36.4111C98.0558 37.2942 97.6598 38.7492 96.8691 40.7758C96.3253 42.1655 96.0534 43.0674 96.0534 43.4839C96.0534 44.0381 96.2795 44.315 96.7317 44.315C97.4049 44.315 98.4953 43.4262 100 41.6491V43.2361Z" fill="#F5F5F5"/>
	</g>
	<defs>
		<clipPath id="clip0_572_2364">
			<rect width="100" height="53.9302" fill="white" transform="translate(0 0.4021)"/>
		</clipPath>
	</defs>
</svg>
