<svg xmlns="http://www.w3.org/2000/svg" width="100" height="100" viewBox="0 0 100 101" fill="none">
  <path d="M94 33.3672L97 31.3672M97 31.3672V28.3672M97 31.3672H99.5" stroke="black"/>
  <path d="M50 97.8672C76.2335 97.8672 97.5 76.6007 97.5 50.3672C97.5 24.1337 76.2335 2.86719 50 2.86719C23.7665 2.86719 2.5 24.1337 2.5 50.3672C2.5 76.6007 23.7665 97.8672 50 97.8672Z" fill="url(#paint0_radial_572_2376)" stroke="black"/>
  <path d="M7 77.3672C31 50.3672 30 73.3672 51 79.3672C69 83.3672 74 64.3672 61 54.3672C54 48.3672 45 49.3672 38 45.3672C28 40.3672 30 25.3672 40 22.3672C69 12.3672 56 54.3672 89 35.3672" stroke="#F5F5F5" stroke-width="7"/>
  <path d="M80 32.3672L85 43.3672L94 35.3672L93 32.3672H80Z" fill="#F5F5F5" stroke="#F5F5F5" stroke-width="1.5" stroke-linejoin="round"/>
  <defs>
    <radialGradient id="paint0_radial_572_2376" cx="0" cy="0" r="1" gradientUnits="userSpaceOnUse" gradientTransform="translate(4752.5 6652.87) scale(6650)">
      <stop stop-color="#0053A0"/>
      <stop offset="0.5" stop-color="#0053A0"/>
      <stop offset="0.95" stop-color="#00264A"/>
      <stop offset="1"/>
    </radialGradient>
  </defs>
</svg>
