<svg xmlns="http://www.w3.org/2000/svg" width="100" height="100" viewBox="0 0 100 108" fill="none">
  <g clip-path="url(#clip0_572_2386)">
    <path d="M57.1426 17.251V33.7474L85.7131 50.2439V33.7474L57.1426 17.251ZM0 33.7474V50.2439L14.2852 58.4904V41.9957L0 33.7474ZM42.8557 41.9957L28.5705 50.2439V99.7299L42.8557 107.978V74.9869L57.1426 83.2351V66.7387L42.8557 58.4904V41.9957Z" fill="#E55B2D"/>
    <path d="M57.1425 17.251L14.2852 41.9957V58.4904L42.8556 41.9957V58.4904L57.1425 50.2439V17.251ZM99.9999 25.4992L85.713 33.7474V50.2439L99.9999 41.9957V25.4992ZM71.4278 58.4904L57.1425 66.7387V83.2351L71.4278 74.9869V58.4904ZM57.1425 83.2351L42.8556 74.9869V107.978L57.1425 99.7299V83.2351Z" fill="#ED8E24"/>
    <path d="M57.1426 0.756226L0 33.7474L14.2852 41.9957L57.1426 17.251L85.7131 33.7474L100 25.4992L57.1426 0.756226ZM57.1426 50.2439L42.8557 58.4904L57.1426 66.7387L71.4278 58.4904L57.1426 50.2439Z" fill="#F8BF3C"/>
  </g>
  <defs>
    <clipPath id="clip0_572_2386">
      <rect width="100" height="107.222" fill="white" transform="translate(0 0.756226)"/>
    </clipPath>
  </defs>
</svg>
